<?xml version="1.0" encoding="utf-8" ?>
<svg baseProfile="full" height="3107" version="1.1" width="500" xmlns="http://www.w3.org/2000/svg" xmlns:ev="http://www.w3.org/2001/xml-events" xmlns:xlink="http://www.w3.org/1999/xlink"><defs /><rect height="327" width="20" x="50" y="2116" /><rect height="327" width="20" x="430" y="2116" /><rect height="20" width="360" x="70" y="2116" /><rect height="20" width="400" x="50" y="2443" /><rect class="bookcase-book" fill="#BFD354" height="41" id="book-16227" stroke="black" width="192" x="84" y="2402" /><text dominant-baseline="middle" fill="black" font-family="Arial" font-size="18px" x="84" y="2422.5">The Girl with the Drago</text><rect class="bookcase-book" fill="#F1B161" height="46" id="book-16228" stroke="black" width="192" x="84" y="2356" /><text dominant-baseline="middle" fill="black" font-family="Arial" font-size="18px" x="84" y="2379.0">The Girl who Played wi</text><rect class="bookcase-book" fill="#F4F0EF" height="36" id="book-16229" stroke="black" width="192" x="84" y="2320" /><text dominant-baseline="middle" fill="black" font-family="Arial" font-size="18px" x="84" y="2338.0">The Girl who Kicked th</text><rect class="bookcase-book" fill="#78543E" height="16" id="book-13024" stroke="black" width="192" x="84" y="2304" /><text dominant-baseline="middle" fill="white" font-family="Arial" font-size="12.0px" x="84" y="2312.0">The Capture</text><rect class="bookcase-book" fill="#C5B8C0" height="18" id="book-13025" stroke="black" width="192" x="84" y="2286" /><text dominant-baseline="middle" fill="black" font-family="Arial" font-size="13.5px" x="84" y="2295.0">The Journey</text><rect class="bookcase-book" fill="#764431" height="13" id="book-13026" stroke="black" width="192" x="84" y="2273" /><text dominant-baseline="middle" fill="white" font-family="Arial" font-size="9.75px" x="84" y="2279.5">The Rescue</text><rect class="bookcase-book" fill="#2C1B14" height="14" id="book-13027" stroke="black" width="192" x="84" y="2259" /><text dominant-baseline="middle" fill="white" font-family="Arial" font-size="10.5px" x="84" y="2266.0">The Siege</text><rect class="bookcase-book" fill="#4A3F5A" height="12" id="book-13028" stroke="black" width="192" x="84" y="2247" /><text dominant-baseline="middle" fill="white" font-family="Arial" font-size="9.0px" x="84" y="2253.0">The Shattering</text><rect class="bookcase-book" fill="#2E1914" height="15" id="book-13029" stroke="black" width="192" x="84" y="2232" /><text dominant-baseline="middle" fill="white" font-family="Arial" font-size="11.25px" x="84" y="2239.5">The Burning</text><rect class="bookcase-book" fill="#382B2B" height="15" id="book-13030" stroke="black" width="192" x="84" y="2217" /><text dominant-baseline="middle" fill="white" font-family="Arial" font-size="11.25px" x="84" y="2224.5">The Hatchling</text><rect class="bookcase-book" fill="#7F6B40" height="14" id="book-13031" stroke="black" width="192" x="84" y="2203" /><text dominant-baseline="middle" fill="white" font-family="Arial" font-size="10.5px" x="84" y="2210.0">The Outcast</text><rect class="bookcase-book" fill="#2F2014" height="14" id="book-13032" stroke="black" width="192" x="84" y="2189" /><text dominant-baseline="middle" fill="white" font-family="Arial" font-size="10.5px" x="84" y="2196.0">The First Collier</text><rect class="bookcase-book" fill="#564936" height="15" id="book-13033" stroke="black" width="192" x="84" y="2174" /><text dominant-baseline="middle" fill="white" font-family="Arial" font-size="11.25px" x="84" y="2181.5">The Coming of Hoole</text><rect class="bookcase-book" fill="#241712" height="15" id="book-13034" stroke="black" width="192" x="84" y="2159" /><text dominant-baseline="middle" fill="white" font-family="Arial" font-size="11.25px" x="84" y="2166.5">To Be a King</text><rect class="bookcase-book" fill="#2C2019" height="192" id="book-13035" stroke="black" width="12" x="276" y="2251" /><text dominant-baseline="middle" fill="white" font-family="Arial" font-size="9.0px" transform="rotate(-90,282.0,2439)" x="282.0" y="2439">The Golden Tree</text><rect class="bookcase-book" fill="#6C7D9B" height="192" id="book-13036" stroke="black" width="14" x="288" y="2251" /><text dominant-baseline="middle" fill="white" font-family="Arial" font-size="10.5px" transform="rotate(-90,295.0,2439)" x="295.0" y="2439">The River of Wind</text><rect class="bookcase-book" fill="#2F1E15" height="192" id="book-13037" stroke="black" width="14" x="302" y="2251" /><text dominant-baseline="middle" fill="white" font-family="Arial" font-size="10.5px" transform="rotate(-90,309.0,2439)" x="309.0" y="2439">Exile</text><rect class="bookcase-book" fill="#221812" height="192" id="book-13038" stroke="black" width="16" x="316" y="2251" /><text dominant-baseline="middle" fill="white" font-family="Arial" font-size="12.0px" transform="rotate(-90,324.0,2439)" x="324.0" y="2439">The War of the Ember</text><rect class="bookcase-book" fill="#8F9384" height="192" id="book-13039" stroke="black" width="19" x="332" y="2251" /><text dominant-baseline="middle" fill="black" font-family="Arial" font-size="14.25px" transform="rotate(-90,341.5,2439)" x="341.5" y="2439">The Rise of a Legend</text><rect class="bookcase-book" fill="#191413" height="197" id="book-13900" stroke="black" width="28" x="351" y="2246" /><text dominant-baseline="middle" fill="white" font-family="Arial" font-size="18px" transform="rotate(-90,365.0,2439)" x="365.0" y="2439">Women in Love</text><rect class="bookcase-book" fill="#7A3866" height="216" id="book-23117" stroke="black" width="24" x="379" y="2227" /><text dominant-baseline="middle" fill="white" font-family="Arial" font-size="18px" transform="rotate(-90,391.0,2439)" x="391.0" y="2439">Lady Chatterley's Lover</text><rect height="324" width="20" x="50" y="2443" /><rect height="324" width="20" x="430" y="2443" /><rect height="20" width="360" x="70" y="2443" /><rect height="20" width="400" x="50" y="2767" /><rect class="bookcase-book" fill="#6D8E39" height="216" id="book-13923" stroke="black" width="35" x="84" y="2551" /><text dominant-baseline="middle" fill="white" font-family="Arial" font-size="18px" transform="rotate(-90,101.5,2763)" x="101.5" y="2763">Sons and Lovers</text><rect class="bookcase-book" fill="#BD572E" height="24" id="book-13948" stroke="black" width="209" x="119" y="2743" /><text dominant-baseline="middle" fill="white" font-family="Arial" font-size="18px" x="119" y="2755.0">To Kill a Mockingbird</text><rect class="bookcase-book" fill="#3A8D90" height="235" id="book-13960" stroke="black" width="26" x="119" y="2508" /><text dominant-baseline="middle" fill="white" font-family="Arial" font-size="18px" transform="rotate(-90,132.0,2739)" x="132.0" y="2739">Go Set a Watchman</text><rect class="bookcase-book" fill="#544534" height="204" id="book-13846" stroke="black" width="15" x="145" y="2539" /><text dominant-baseline="middle" fill="white" font-family="Arial" font-size="11.25px" transform="rotate(-90,152.5,2739)" x="152.5" y="2739">Solaris</text><rect class="bookcase-book" fill="#5D61A8" height="173" id="book-15836" stroke="black" width="20" x="160" y="2570" /><text dominant-baseline="middle" fill="white" font-family="Arial" font-size="15.0px" transform="rotate(-90,170.0,2739)" x="170.0" y="2739">The Phantom of the Ope</text><rect class="bookcase-book" fill="#54C139" height="178" id="book-13005" stroke="black" width="12" x="180" y="2565" /><text dominant-baseline="middle" fill="black" font-family="Arial" font-size="9.0px" transform="rotate(-90,186.0,2739)" x="186.0" y="2739">The Magician's Nephew</text><rect class="bookcase-book" fill="#81A220" height="178" id="book-22173" stroke="black" width="12" x="192" y="2565" /><text dominant-baseline="middle" fill="black" font-family="Arial" font-size="9.0px" transform="rotate(-90,198.0,2739)" x="198.0" y="2739">The Lion, the Witch, and the Wardrobe</text><rect class="bookcase-book" fill="#3C739F" height="178" id="book-13007" stroke="black" width="12" x="204" y="2565" /><text dominant-baseline="middle" fill="white" font-family="Arial" font-size="9.0px" transform="rotate(-90,210.0,2739)" x="210.0" y="2739">The Horse and His Boy</text><rect class="bookcase-book" fill="#2E777A" height="178" id="book-13008" stroke="black" width="12" x="216" y="2565" /><text dominant-baseline="middle" fill="white" font-family="Arial" font-size="9.0px" transform="rotate(-90,222.0,2739)" x="222.0" y="2739">Prince Caspian</text><rect class="bookcase-book" fill="#26BEC9" height="178" id="book-13009" stroke="black" width="12" x="228" y="2565" /><text dominant-baseline="middle" fill="black" font-family="Arial" font-size="9.0px" transform="rotate(-90,234.0,2739)" x="234.0" y="2739">The Voyage of the Dawn Treader</text><rect class="bookcase-book" fill="#70A94C" height="178" id="book-13010" stroke="black" width="12" x="240" y="2565" /><text dominant-baseline="middle" fill="black" font-family="Arial" font-size="9.0px" transform="rotate(-90,246.0,2739)" x="246.0" y="2739">The Silver Chair</text><rect class="bookcase-book" fill="#35A692" height="178" id="book-13011" stroke="black" width="12" x="252" y="2565" /><text dominant-baseline="middle" fill="black" font-family="Arial" font-size="9.0px" transform="rotate(-90,258.0,2739)" x="258.0" y="2739">The Last Battle</text><rect class="bookcase-book" fill="#2AC5BF" height="178" id="book-16367" stroke="black" width="11" x="264" y="2565" /><text dominant-baseline="middle" fill="black" font-family="Arial" font-size="8.25px" transform="rotate(-90,269.5,2739)" x="269.5" y="2739">Out of the Silent Planet</text><rect class="bookcase-book" fill="#294547" height="178" id="book-16368" stroke="black" width="26" x="275" y="2565" /><text dominant-baseline="middle" fill="white" font-family="Arial" font-size="18px" transform="rotate(-90,288.0,2739)" x="288.0" y="2739">That Hideous Strengt</text><rect class="bookcase-book" fill="#3E442C" height="178" id="book-16366" stroke="black" width="15" x="301" y="2565" /><text dominant-baseline="middle" fill="white" font-family="Arial" font-size="11.25px" transform="rotate(-90,308.5,2739)" x="308.5" y="2739">Perelandra</text><rect class="bookcase-book" fill="#F8F7E6" height="173" id="book-13891" stroke="black" width="27" x="328" y="2594" /><text dominant-baseline="middle" fill="black" font-family="Arial" font-size="18px" transform="rotate(-90,341.5,2763)" x="341.5" y="2763">Main Street</text><rect class="bookcase-book" fill="#BD5550" height="178" id="book-22420" stroke="black" width="14" x="355" y="2589" /><text dominant-baseline="middle" fill="white" font-family="Arial" font-size="10.5px" transform="rotate(-90,362.0,2763)" x="362.0" y="2763">Babbitt</text><rect class="bookcase-book" fill="#CAC9C4" height="171" id="book-16398" stroke="black" width="17" x="369" y="2596" /><text dominant-baseline="middle" fill="black" font-family="Arial" font-size="12.75px" transform="rotate(-90,377.5,2763)" x="377.5" y="2763">White Fang</text><rect class="bookcase-book" fill="#4F332E" height="177" id="book-13692" stroke="black" width="14" x="386" y="2590" /><text dominant-baseline="middle" fill="white" font-family="Arial" font-size="10.5px" transform="rotate(-90,393.0,2763)" x="393.0" y="2763">The Call of the Wild</text><rect class="bookcase-book" fill="#DFC784" height="216" id="book-22358" stroke="black" width="14" x="400" y="2551" /><text dominant-baseline="middle" fill="black" font-family="Arial" font-size="10.5px" transform="rotate(-90,407.0,2763)" x="407.0" y="2763">The Lost Letters of Pergamum</text><rect height="320" width="20" x="50" y="2767" /><rect height="320" width="20" x="430" y="2767" /><rect height="20" width="360" x="70" y="2767" /><rect height="20" width="400" x="50" y="3087" /><rect class="bookcase-book" fill="#80A1CF" height="198" id="book-26237" stroke="black" width="20" x="84" y="2889" /><text dominant-baseline="middle" fill="black" font-family="Arial" font-size="15.0px" transform="rotate(-90,94.0,3083)" x="94.0" y="3083">The Thing on the Doorstep</text><rect class="bookcase-book" fill="#979178" height="247" id="book-13437" stroke="black" width="57" x="104" y="2840" /><text dominant-baseline="middle" fill="black" font-family="Arial" font-size="18px" transform="rotate(-90,132.5,3083)" x="132.5" y="3083">The Complete Fiction of H. P. </text><rect class="bookcase-book" fill="#3C3C35" height="175" id="book-13023" stroke="black" width="15" x="161" y="2912" /><text dominant-baseline="middle" fill="white" font-family="Arial" font-size="11.25px" transform="rotate(-90,168.5,3083)" x="168.5" y="3083">The Giver</text><rect class="bookcase-book" fill="#9BB8CF" height="209" id="book-14789" stroke="black" width="17" x="176" y="2878" /><text dominant-baseline="middle" fill="black" font-family="Arial" font-size="12.75px" transform="rotate(-90,184.5,3083)" x="184.5" y="3083">Gathering Blue</text><rect class="bookcase-book" fill="#10171A" height="175" id="book-13022" stroke="black" width="18" x="193" y="2912" /><text dominant-baseline="middle" fill="white" font-family="Arial" font-size="13.5px" transform="rotate(-90,202.0,3083)" x="202.0" y="3083">Messenger</text><rect class="bookcase-book" fill="#97ABA8" height="209" id="book-14787" stroke="black" width="27" x="211" y="2878" /><text dominant-baseline="middle" fill="black" font-family="Arial" font-size="18px" transform="rotate(-90,224.5,3083)" x="224.5" y="3083">Son</text><rect class="bookcase-book" fill="#AEB6B6" height="198" id="book-13592" stroke="black" width="12" x="238" y="2889" /><text dominant-baseline="middle" fill="black" font-family="Arial" font-size="9.0px" transform="rotate(-90,244.0,3083)" x="244.0" y="3083">Number the Stars</text><rect class="bookcase-book" fill="#151944" height="279" id="book-16359" stroke="black" width="9" x="250" y="2808" /><text dominant-baseline="middle" fill="white" font-family="Arial" font-size="6.75px" transform="rotate(-90,254.5,3083)" x="254.5" y="3083">Motel of the Mysteries</text><rect class="bookcase-book" fill="#5A4B2C" height="193" id="book-13293" stroke="black" width="26" x="259" y="2894" /><text dominant-baseline="middle" fill="white" font-family="Arial" font-size="18px" transform="rotate(-90,272.0,3083)" x="272.0" y="3083">The Merchant of Death</text><rect class="bookcase-book" fill="#E41100" height="193" id="book-13294" stroke="black" width="29" x="285" y="2894" /><text dominant-baseline="middle" fill="white" font-family="Arial" font-size="18px" transform="rotate(-90,299.5,3083)" x="299.5" y="3083">The Lost City of Faar</text><rect class="bookcase-book" fill="#D69F47" height="193" id="book-13295" stroke="black" width="26" x="314" y="2894" /><text dominant-baseline="middle" fill="black" font-family="Arial" font-size="18px" transform="rotate(-90,327.0,3083)" x="327.0" y="3083">The Never War</text><rect class="bookcase-book" fill="#1B3E29" height="193" id="book-13296" stroke="black" width="30" x="340" y="2894" /><text dominant-baseline="middle" fill="white" font-family="Arial" font-size="18px" transform="rotate(-90,355.0,3083)" x="355.0" y="3083">The Reality Bug</text><rect class="bookcase-book" fill="#E6CF8C" height="193" id="book-13297" stroke="black" width="32" x="370" y="2894" /><text dominant-baseline="middle" fill="black" font-family="Arial" font-size="18px" transform="rotate(-90,386.0,3083)" x="386.0" y="3083">Black Water</text></svg>