<?xml version="1.0" encoding="utf-8" ?>
<svg baseProfile="full" height="3107" version="1.1" width="652" xmlns="http://www.w3.org/2000/svg" xmlns:ev="http://www.w3.org/2001/xml-events" xmlns:xlink="http://www.w3.org/1999/xlink"><defs /><rect height="359" width="20" x="50" y="1187" /><rect height="359" width="20" x="582" y="1187" /><rect height="20" width="512" x="70" y="1187" /><rect height="20" width="552" x="50" y="1546" /><rect class="bookcase-book" fill="#AFAC95" height="317" id="book-22710" stroke="black" width="23" x="84" y="1229" /><text dominant-baseline="middle" fill="black" font-family="Arial" font-size="17.25px" transform="rotate(-90,95.5,1542)" x="95.5" y="1542">Great City Plans</text><rect class="bookcase-book" fill="#F1ECCA" height="312" id="book-20440" stroke="black" width="20" x="107" y="1234" /><text dominant-baseline="middle" fill="black" font-family="Arial" font-size="15.0px" transform="rotate(-90,117.0,1542)" x="117.0" y="1542">Miscellany of Curious Maps</text><rect class="bookcase-book" fill="#333E94" height="321" id="book-22690" stroke="black" width="22" x="127" y="1225" /><text dominant-baseline="middle" fill="white" font-family="Arial" font-size="16.5px" transform="rotate(-90,138.0,1542)" x="138.0" y="1542">The World of Titian</text><rect class="bookcase-book" fill="#2FC6C6" height="321" id="book-22688" stroke="black" width="23" x="149" y="1225" /><text dominant-baseline="middle" fill="black" font-family="Arial" font-size="17.25px" transform="rotate(-90,160.5,1542)" x="160.5" y="1542">The World of Leonardo</text><rect class="bookcase-book" fill="#4F5B82" height="321" id="book-22684" stroke="black" width="21" x="172" y="1225" /><text dominant-baseline="middle" fill="white" font-family="Arial" font-size="15.75px" transform="rotate(-90,182.5,1542)" x="182.5" y="1542">The World of Bernini</text><rect class="bookcase-book" fill="#B13592" height="321" id="book-22686" stroke="black" width="22" x="193" y="1225" /><text dominant-baseline="middle" fill="white" font-family="Arial" font-size="16.5px" transform="rotate(-90,204.0,1542)" x="204.0" y="1542">The World of Monet</text><rect class="bookcase-book" fill="#678F61" height="321" id="book-22682" stroke="black" width="23" x="215" y="1225" /><text dominant-baseline="middle" fill="black" font-family="Arial" font-size="17.25px" transform="rotate(-90,226.5,1542)" x="226.5" y="1542">The World of Dürer</text><rect class="bookcase-book" fill="#588089" height="321" id="book-22693" stroke="black" width="22" x="238" y="1225" /><text dominant-baseline="middle" fill="white" font-family="Arial" font-size="16.5px" transform="rotate(-90,249.0,1542)" x="249.0" y="1542">The World of Gainsborough</text><rect class="bookcase-book" fill="#76CA60" height="321" id="book-22691" stroke="black" width="22" x="260" y="1225" /><text dominant-baseline="middle" fill="black" font-family="Arial" font-size="16.5px" transform="rotate(-90,271.0,1542)" x="271.0" y="1542">The World of Turner</text><rect class="bookcase-book" fill="#14A82F" height="321" id="book-22694" stroke="black" width="22" x="282" y="1225" /><text dominant-baseline="middle" fill="white" font-family="Arial" font-size="16.5px" transform="rotate(-90,293.0,1542)" x="293.0" y="1542">The World of Rodin</text><rect class="bookcase-book" fill="#A02AB0" height="321" id="book-22683" stroke="black" width="23" x="304" y="1225" /><text dominant-baseline="middle" fill="white" font-family="Arial" font-size="17.25px" transform="rotate(-90,315.5,1542)" x="315.5" y="1542">The World of Copley</text><rect class="bookcase-book" fill="#659234" height="321" id="book-22689" stroke="black" width="23" x="327" y="1225" /><text dominant-baseline="middle" fill="white" font-family="Arial" font-size="17.25px" transform="rotate(-90,338.5,1542)" x="338.5" y="1542">The World of Bruegel</text><rect class="bookcase-book" fill="#8050A5" height="321" id="book-22692" stroke="black" width="22" x="350" y="1225" /><text dominant-baseline="middle" fill="white" font-family="Arial" font-size="16.5px" transform="rotate(-90,361.0,1542)" x="361.0" y="1542">The World of Winslow Homer</text><rect class="bookcase-book" fill="#A64A8D" height="321" id="book-22685" stroke="black" width="22" x="372" y="1225" /><text dominant-baseline="middle" fill="white" font-family="Arial" font-size="16.5px" transform="rotate(-90,383.0,1542)" x="383.0" y="1542">The World of Giotto</text><rect class="bookcase-book" fill="#753356" height="321" id="book-22687" stroke="black" width="22" x="394" y="1225" /><text dominant-baseline="middle" fill="white" font-family="Arial" font-size="16.5px" transform="rotate(-90,405.0,1542)" x="405.0" y="1542">American Painting</text><rect class="bookcase-book" fill="#B04A53" height="320" id="book-22672" stroke="black" width="43" x="416" y="1226" /><text dominant-baseline="middle" fill="white" font-family="Arial" font-size="18px" transform="rotate(-90,437.5,1542)" x="437.5" y="1542">The New Yorker</text><rect class="bookcase-book" fill="#80CB25" height="320" id="book-22673" stroke="black" width="43" x="459" y="1226" /><text dominant-baseline="middle" fill="black" font-family="Arial" font-size="18px" transform="rotate(-90,480.5,1542)" x="480.5" y="1542">The New Yorker</text><rect class="bookcase-book" fill="#25B510" height="308" id="book-22720" stroke="black" width="14" x="502" y="1238" /><text dominant-baseline="middle" fill="white" font-family="Arial" font-size="10.5px" transform="rotate(-90,509.0,1542)" x="509.0" y="1542">A Treasury of Santa Mouse</text><rect class="bookcase-book" fill="#B8425A" height="198" id="book-20976" stroke="black" width="14" x="516" y="1348" /><text dominant-baseline="middle" fill="white" font-family="Arial" font-size="10.5px" transform="rotate(-90,523.0,1542)" x="523.0" y="1542">The Witches</text><rect class="bookcase-book" fill="#F2E7DE" height="213" id="book-15845" stroke="black" width="18" x="530" y="1333" /><text dominant-baseline="middle" fill="black" font-family="Arial" font-size="13.5px" transform="rotate(-90,539.0,1542)" x="539.0" y="1542">Matilda</text><rect class="bookcase-book" fill="#289600" height="209" id="book-14786" stroke="black" width="21" x="548" y="1337" /><text dominant-baseline="middle" fill="white" font-family="Arial" font-size="15.75px" transform="rotate(-90,558.5,1542)" x="558.5" y="1542">The Kill Order</text><rect height="308" width="20" x="50" y="1546" /><rect height="308" width="20" x="582" y="1546" /><rect height="20" width="512" x="70" y="1546" /><rect height="20" width="552" x="50" y="1854" /><rect class="bookcase-book" fill="#83A885" height="209" id="book-13215" stroke="black" width="24" x="84" y="1645" /><text dominant-baseline="middle" fill="black" font-family="Arial" font-size="18px" transform="rotate(-90,96.0,1850)" x="96.0" y="1850">The Maze Runner</text><rect class="bookcase-book" fill="#51392F" height="20" id="book-13216" stroke="black" width="209" x="108" y="1834" /><text dominant-baseline="middle" fill="white" font-family="Arial" font-size="15.0px" x="108" y="1844.0">The Scorch Trials</text><rect class="bookcase-book" fill="#C7DAE3" height="21" id="book-13217" stroke="black" width="209" x="108" y="1813" /><text dominant-baseline="middle" fill="black" font-family="Arial" font-size="15.75px" x="108" y="1823.5">The Death Cure</text><rect class="bookcase-book" fill="#4E4D36" height="213" id="book-13857" stroke="black" width="23" x="108" y="1600" /><text dominant-baseline="middle" fill="white" font-family="Arial" font-size="17.25px" transform="rotate(-90,119.5,1809)" x="119.5" y="1809">White Noise</text><rect class="bookcase-book" fill="#76A7CF" height="213" id="book-15838" stroke="black" width="25" x="131" y="1600" /><text dominant-baseline="middle" fill="black" font-family="Arial" font-size="18px" transform="rotate(-90,143.5,1809)" x="143.5" y="1809">Island of the Blue Dolphin</text><rect class="bookcase-book" fill="#655C31" height="193" id="book-13950" stroke="black" width="14" x="156" y="1620" /><text dominant-baseline="middle" fill="white" font-family="Arial" font-size="10.5px" transform="rotate(-90,163.0,1809)" x="163.0" y="1809">Because of Winn-Dixie</text><rect class="bookcase-book" fill="#9A1D28" height="178" id="book-22966" stroke="black" width="41" x="170" y="1635" /><text dominant-baseline="middle" fill="white" font-family="Arial" font-size="18px" transform="rotate(-90,190.5,1809)" x="190.5" y="1809">Bleak House</text><rect class="bookcase-book" fill="#F3EED2" height="178" id="book-13941" stroke="black" width="49" x="211" y="1635" /><text dominant-baseline="middle" fill="black" font-family="Arial" font-size="18px" transform="rotate(-90,235.5,1809)" x="235.5" y="1809">David Copperfield</text><rect class="bookcase-book" fill="#CDC6A4" height="178" id="book-13759" stroke="black" width="48" x="260" y="1635" /><text dominant-baseline="middle" fill="black" font-family="Arial" font-size="18px" transform="rotate(-90,284.0,1809)" x="284.0" y="1809">The Pickwick Papers</text><rect class="bookcase-book" fill="#596F5C" height="195" id="book-13357" stroke="black" width="8" x="308" y="1618" /><text dominant-baseline="middle" fill="white" font-family="Arial" font-size="6.0px" transform="rotate(-90,312.0,1809)" x="312.0" y="1809">A House to Let</text><rect class="bookcase-book" fill="#546C37" height="34" id="book-22318" stroke="black" width="200" x="317" y="1820" /><text dominant-baseline="middle" fill="white" font-family="Arial" font-size="18px" x="317" y="1837.0">A Christmas Carol and </text><rect class="bookcase-book" fill="#324252" height="203" id="book-13493" stroke="black" width="25" x="317" y="1617" /><text dominant-baseline="middle" fill="white" font-family="Arial" font-size="18px" transform="rotate(-90,329.5,1816)" x="329.5" y="1816">Great Expectations</text><rect class="bookcase-book" fill="#41402C" height="208" id="book-13350" stroke="black" width="6" x="342" y="1612" /><text dominant-baseline="middle" fill="white" font-family="Arial" font-size="4.5px" transform="rotate(-90,345.0,1816)" x="345.0" y="1816">A Christmas Carol</text><rect class="bookcase-book" fill="#767673" height="219" id="book-13598" stroke="black" width="39" x="348" y="1601" /><text dominant-baseline="middle" fill="white" font-family="Arial" font-size="18px" transform="rotate(-90,367.5,1816)" x="367.5" y="1816">Oliver Twist</text><rect class="bookcase-book" fill="#434033" height="236" id="book-13371" stroke="black" width="35" x="387" y="1584" /><text dominant-baseline="middle" fill="white" font-family="Arial" font-size="18px" transform="rotate(-90,404.5,1816)" x="404.5" y="1816">A Tale of Two Cities</text><rect class="bookcase-book" fill="#3C5B5E" height="203" id="book-13904" stroke="black" width="16" x="422" y="1617" /><text dominant-baseline="middle" fill="white" font-family="Arial" font-size="12.0px" transform="rotate(-90,430.0,1816)" x="430.0" y="1816">Deliverance</text><rect class="bookcase-book" fill="#B03C38" height="203" id="book-13957" stroke="black" width="15" x="438" y="1617" /><text dominant-baseline="middle" fill="white" font-family="Arial" font-size="11.25px" transform="rotate(-90,445.5,1816)" x="445.5" y="1816">Do Androids Dream of Electric Sheep</text><rect class="bookcase-book" fill="#C1C2C6" height="203" id="book-13847" stroke="black" width="16" x="453" y="1617" /><text dominant-baseline="middle" fill="black" font-family="Arial" font-size="12.0px" transform="rotate(-90,461.0,1816)" x="461.0" y="1816">Ubik</text><rect class="bookcase-book" fill="#D0CAC7" height="203" id="book-13639" stroke="black" width="18" x="469" y="1617" /><text dominant-baseline="middle" fill="black" font-family="Arial" font-size="13.5px" transform="rotate(-90,478.0,1816)" x="478.0" y="1816">Ragtime</text><rect class="bookcase-book" fill="#3115B0" height="203" id="book-13689" stroke="black" width="44" x="517" y="1651" /><text dominant-baseline="middle" fill="white" font-family="Arial" font-size="18px" transform="rotate(-90,539.0,1850)" x="539.0" y="1850">The Brothers Karamazo</text><rect height="309" width="20" x="50" y="1854" /><rect height="309" width="20" x="582" y="1854" /><rect height="20" width="512" x="70" y="1854" /><rect height="20" width="552" x="50" y="2163" /><rect class="bookcase-book" fill="#EEF0E9" height="11" id="book-13864" stroke="black" width="203" x="84" y="2152" /><text dominant-baseline="middle" fill="black" font-family="Arial" font-size="8.25px" x="84" y="2157.5">Notes from Underground</text><rect class="bookcase-book" fill="#337F35" height="237" id="book-13443" stroke="black" width="42" x="84" y="1915" /><text dominant-baseline="middle" fill="white" font-family="Arial" font-size="18px" transform="rotate(-90,105.0,2148)" x="105.0" y="2148">Crime and Punishment</text><rect class="bookcase-book" fill="#EDF25C" height="174" id="book-22419" stroke="black" width="15" x="126" y="1978" /><text dominant-baseline="middle" fill="black" font-family="Arial" font-size="11.25px" transform="rotate(-90,133.5,2148)" x="133.5" y="2148">The Hound of the Baskervilles</text><rect class="bookcase-book" fill="#2F2D18" height="203" id="book-13742" stroke="black" width="11" x="141" y="1949" /><text dominant-baseline="middle" fill="white" font-family="Arial" font-size="8.25px" transform="rotate(-90,146.5,2148)" x="146.5" y="2148">The Lost World</text><rect class="bookcase-book" fill="#E8CDA0" height="209" id="book-16387" stroke="black" width="12" x="152" y="1943" /><text dominant-baseline="middle" fill="black" font-family="Arial" font-size="9.0px" transform="rotate(-90,158.0,2148)" x="158.0" y="2148">A Study in Scarlet</text><rect class="bookcase-book" fill="#C8B572" height="218" id="book-13675" stroke="black" width="27" x="164" y="1934" /><text dominant-baseline="middle" fill="black" font-family="Arial" font-size="18px" transform="rotate(-90,177.5,2148)" x="177.5" y="2148">The Adventures of Sherloc</text><rect class="bookcase-book" fill="#978347" height="239" id="book-15827" stroke="black" width="60" x="191" y="1913" /><text dominant-baseline="middle" fill="black" font-family="Arial" font-size="18px" transform="rotate(-90,221.0,2148)" x="221.0" y="2148">The Complete Sherlock Hol</text><rect class="bookcase-book" fill="#934D31" height="175" id="book-13922" stroke="black" width="34" x="251" y="1977" /><text dominant-baseline="middle" fill="white" font-family="Arial" font-size="18px" transform="rotate(-90,268.0,2148)" x="268.0" y="2148">An American Traged</text><rect class="bookcase-book" fill="#4A3229" height="210" id="book-13652" stroke="black" width="22" x="287" y="1953" /><text dominant-baseline="middle" fill="white" font-family="Arial" font-size="16.5px" transform="rotate(-90,298.0,2159)" x="298.0" y="2159">Sister Carrie</text><rect class="bookcase-book" fill="#73593E" height="175" id="book-13709" stroke="black" width="20" x="309" y="1988" /><text dominant-baseline="middle" fill="white" font-family="Arial" font-size="15.0px" transform="rotate(-90,319.0,2159)" x="319.0" y="2159">The Count of Monte Crist</text><rect class="bookcase-book" fill="#A2312D" height="46" id="book-13778" stroke="black" width="236" x="329" y="2117" /><text dominant-baseline="middle" fill="white" font-family="Arial" font-size="18px" x="329" y="2140.0">The Three Musketeers</text><rect class="bookcase-book" fill="#B88258" height="19" id="book-14791" stroke="black" width="199" x="329" y="2098" /><text dominant-baseline="middle" fill="black" font-family="Arial" font-size="14.25px" x="329" y="2107.5">The City of Ember</text><rect class="bookcase-book" fill="#E75B42" height="203" id="book-20447" stroke="black" width="24" x="329" y="1895" /><text dominant-baseline="middle" fill="black" font-family="Arial" font-size="18px" transform="rotate(-90,341.0,2094)" x="341.0" y="2094">The Circle</text><rect class="bookcase-book" fill="#8D614D" height="203" id="book-13851" stroke="black" width="25" x="353" y="1895" /><text dominant-baseline="middle" fill="white" font-family="Arial" font-size="18px" transform="rotate(-90,365.5,2094)" x="365.5" y="2094">American Psycho</text><rect class="bookcase-book" fill="#1710F0" height="203" id="book-13530" stroke="black" width="26" x="378" y="1895" /><text dominant-baseline="middle" fill="white" font-family="Arial" font-size="18px" transform="rotate(-90,391.0,2094)" x="391.0" y="2094">Invisible Man</text><rect class="bookcase-book" fill="#265388" height="208" id="book-22724" stroke="black" width="10" x="404" y="1890" /><text dominant-baseline="middle" fill="white" font-family="Arial" font-size="7.5px" transform="rotate(-90,409.0,2094)" x="409.0" y="2094">Automobiles for Mice</text><rect class="bookcase-book" fill="#2F4931" height="193" id="book-22556" stroke="black" width="29" x="414" y="1905" /><text dominant-baseline="middle" fill="white" font-family="Arial" font-size="18px" transform="rotate(-90,428.5,2094)" x="428.5" y="2094">The Family Corleone</text><rect class="bookcase-book" fill="#DE3D28" height="185" id="book-13876" stroke="black" width="23" x="443" y="1913" /><text dominant-baseline="middle" fill="white" font-family="Arial" font-size="17.25px" transform="rotate(-90,454.5,2094)" x="454.5" y="2094">The Sound and the Fur</text><rect class="bookcase-book" fill="#9E9C89" height="203" id="book-13837" stroke="black" width="18" x="466" y="1895" /><text dominant-baseline="middle" fill="black" font-family="Arial" font-size="13.5px" transform="rotate(-90,475.0,2094)" x="475.0" y="2094">Absalom, Absalom!</text><rect class="bookcase-book" fill="#874C32" height="203" id="book-13553" stroke="black" width="23" x="484" y="1895" /><text dominant-baseline="middle" fill="white" font-family="Arial" font-size="17.25px" transform="rotate(-90,495.5,2094)" x="495.5" y="2094">Light in August</text><rect height="314" width="20" x="50" y="2163" /><rect height="314" width="20" x="582" y="2163" /><rect height="20" width="512" x="70" y="2163" /><rect height="20" width="552" x="50" y="2477" /><rect class="bookcase-book" fill="#5B4419" height="16" id="book-13910" stroke="black" width="239" x="84" y="2461" /><text dominant-baseline="middle" fill="white" font-family="Arial" font-size="12.0px" x="84" y="2469.0">As I Lay Dying</text><rect class="bookcase-book" fill="#5B2516" height="15" id="book-13928" stroke="black" width="200" x="84" y="2446" /><text dominant-baseline="middle" fill="white" font-family="Arial" font-size="11.25px" x="84" y="2453.5">The Great Gatsby</text><rect class="bookcase-book" fill="#6E707D" height="203" id="book-13672" stroke="black" width="19" x="84" y="2243" /><text dominant-baseline="middle" fill="white" font-family="Arial" font-size="14.25px" transform="rotate(-90,93.5,2442)" x="93.5" y="2442">Tender Is the Night</text><rect class="bookcase-book" fill="#282825" height="209" id="book-20547" stroke="black" width="19" x="103" y="2237" /><text dominant-baseline="middle" fill="white" font-family="Arial" font-size="14.25px" transform="rotate(-90,112.5,2442)" x="112.5" y="2442">The Last Tycoon</text><rect class="bookcase-book" fill="#2A3426" height="192" id="book-22284" stroke="black" width="6" x="122" y="2254" /><text dominant-baseline="middle" fill="white" font-family="Arial" font-size="4.5px" transform="rotate(-90,125.0,2442)" x="125.0" y="2442">The Whipping Boy</text><rect class="bookcase-book" fill="#5A6E5E" height="203" id="book-21963" stroke="black" width="21" x="128" y="2243" /><text dominant-baseline="middle" fill="white" font-family="Arial" font-size="15.75px" transform="rotate(-90,138.5,2442)" x="138.5" y="2442">Dark Places</text><rect class="bookcase-book" fill="#C64000" height="203" id="book-16225" stroke="black" width="24" x="149" y="2243" /><text dominant-baseline="middle" fill="white" font-family="Arial" font-size="18px" transform="rotate(-90,161.0,2442)" x="161.0" y="2442">Gone Girl</text><rect class="bookcase-book" fill="#91E056" height="203" id="book-21964" stroke="black" width="15" x="173" y="2243" /><text dominant-baseline="middle" fill="black" font-family="Arial" font-size="11.25px" transform="rotate(-90,180.5,2442)" x="180.5" y="2442">Sharp Objects</text><rect class="bookcase-book" fill="#C7B285" height="203" id="book-13911" stroke="black" width="18" x="188" y="2243" /><text dominant-baseline="middle" fill="black" font-family="Arial" font-size="13.5px" transform="rotate(-90,197.0,2442)" x="197.0" y="2442">The Good Soldier</text><rect class="bookcase-book" fill="#E2E0E0" height="203" id="book-13897" stroke="black" width="42" x="206" y="2243" /><text dominant-baseline="middle" fill="black" font-family="Arial" font-size="18px" transform="rotate(-90,227.0,2442)" x="227.0" y="2442">Parade's End</text><rect class="bookcase-book" fill="#736D5F" height="209" id="book-13363" stroke="black" width="11" x="248" y="2237" /><text dominant-baseline="middle" fill="white" font-family="Arial" font-size="8.25px" transform="rotate(-90,253.5,2442)" x="253.5" y="2442">A Room With a View</text><rect class="bookcase-book" fill="#A99118" height="201" id="book-13915" stroke="black" width="23" x="259" y="2245" /><text dominant-baseline="middle" fill="black" font-family="Arial" font-size="17.25px" transform="rotate(-90,270.5,2442)" x="270.5" y="2442">A Passage to India</text><rect class="bookcase-book" fill="#B8C6A9" height="224" id="book-13907" stroke="black" width="19" x="284" y="2237" /><text dominant-baseline="middle" fill="black" font-family="Arial" font-size="14.25px" transform="rotate(-90,293.5,2457)" x="293.5" y="2457">Howards End</text><rect class="bookcase-book" fill="#2D4B53" height="227" id="book-22647" stroke="black" width="4" x="303" y="2234" /><text dominant-baseline="middle" fill="white" font-family="Arial" font-size="3.0px" transform="rotate(-90,305.0,2457)" x="305.0" y="2457">The Machine Stops</text><rect class="bookcase-book" fill="#D49B78" height="29" id="book-13879" stroke="black" width="175" x="323" y="2448" /><text dominant-baseline="middle" fill="black" font-family="Arial" font-size="18px" x="323" y="2462.5">The Magus</text><rect class="bookcase-book" fill="#F5F0F0" height="38" id="book-21965" stroke="black" width="171" x="323" y="2410" /><text dominant-baseline="middle" fill="black" font-family="Arial" font-size="18px" x="323" y="2429.0">Good Omens</text><rect class="bookcase-book" fill="#2E3E37" height="203" id="book-21962" stroke="black" width="26" x="323" y="2207" /><text dominant-baseline="middle" fill="white" font-family="Arial" font-size="18px" transform="rotate(-90,336.0,2406)" x="336.0" y="2406">American Gods</text><rect class="bookcase-book" fill="#F2F1E2" height="203" id="book-22222" stroke="black" width="17" x="349" y="2207" /><text dominant-baseline="middle" fill="black" font-family="Arial" font-size="12.75px" transform="rotate(-90,357.5,2406)" x="357.5" y="2406">Stardust</text><rect class="bookcase-book" fill="#AB6AB0" height="209" id="book-13004" stroke="black" width="43" x="366" y="2201" /><text dominant-baseline="middle" fill="black" font-family="Arial" font-size="18px" transform="rotate(-90,387.5,2406)" x="387.5" y="2406">Beautiful Creatures</text><rect class="bookcase-book" fill="#4A5754" height="194" id="book-22283" stroke="black" width="7" x="409" y="2216" /><text dominant-baseline="middle" fill="white" font-family="Arial" font-size="5.25px" transform="rotate(-90,412.5,2406)" x="412.5" y="2406">Stone Fox</text><rect class="bookcase-book" fill="#8F887D" height="197" id="book-13715" stroke="black" width="19" x="416" y="2213" /><text dominant-baseline="middle" fill="black" font-family="Arial" font-size="14.25px" transform="rotate(-90,425.5,2406)" x="425.5" y="2406">The Epic of Gilgamesh</text><rect class="bookcase-book" fill="#7AB5CC" height="177" id="book-13231" stroke="black" width="14" x="435" y="2233" /><text dominant-baseline="middle" fill="black" font-family="Arial" font-size="10.5px" transform="rotate(-90,442.0,2406)" x="442.0" y="2406">My Side of the Mountain</text><rect class="bookcase-book" fill="#80793B" height="172" id="book-13232" stroke="black" width="12" x="449" y="2238" /><text dominant-baseline="middle" fill="white" font-family="Arial" font-size="9.0px" transform="rotate(-90,455.0,2406)" x="455.0" y="2406">On the Far Side of the Mountain</text><rect class="bookcase-book" fill="#F6F3CA" height="172" id="book-13233" stroke="black" width="18" x="461" y="2238" /><text dominant-baseline="middle" fill="black" font-family="Arial" font-size="13.5px" transform="rotate(-90,470.0,2406)" x="470.0" y="2406">Frightful's Mountain</text><rect class="bookcase-book" fill="#DFEDEA" height="209" id="book-22775" stroke="black" width="20" x="498" y="2268" /><text dominant-baseline="middle" fill="black" font-family="Arial" font-size="15.0px" transform="rotate(-90,508.0,2473)" x="508.0" y="2473">Trance</text><rect class="bookcase-book" fill="#1B1A13" height="196" id="book-13646" stroke="black" width="18" x="518" y="2281" /><text dominant-baseline="middle" fill="white" font-family="Arial" font-size="13.5px" transform="rotate(-90,527.0,2473)" x="527.0" y="2473">Robin Hood</text><rect class="bookcase-book" fill="#6F4838" height="188" id="book-15841" stroke="black" width="15" x="536" y="2289" /><text dominant-baseline="middle" fill="white" font-family="Arial" font-size="11.25px" transform="rotate(-90,543.5,2473)" x="543.5" y="2473">Old Yeller</text><rect class="bookcase-book" fill="#2D221D" height="230" id="book-13844" stroke="black" width="7" x="551" y="2247" /><text dominant-baseline="middle" fill="white" font-family="Arial" font-size="5.25px" transform="rotate(-90,554.5,2473)" x="554.5" y="2473">Faust</text><rect height="300" width="20" x="50" y="2477" /><rect height="300" width="20" x="582" y="2477" /><rect height="20" width="512" x="70" y="2477" /><rect height="20" width="552" x="50" y="2777" /><rect class="bookcase-book" fill="#E1D7C2" height="203" id="book-13842" stroke="black" width="23" x="84" y="2574" /><text dominant-baseline="middle" fill="black" font-family="Arial" font-size="17.25px" transform="rotate(-90,95.5,2773)" x="95.5" y="2773">Dead Souls</text><rect class="bookcase-book" fill="#EFE1CE" height="203" id="book-26224" stroke="black" width="25" x="107" y="2574" /><text dominant-baseline="middle" fill="black" font-family="Arial" font-size="18px" transform="rotate(-90,119.5,2773)" x="119.5" y="2773">Memoirs of a Geisha</text><rect class="bookcase-book" fill="#3D1EF0" height="16" id="book-13905" stroke="black" width="192" x="132" y="2761" /><text dominant-baseline="middle" fill="white" font-family="Arial" font-size="12.0px" x="132" y="2769.0">Lord of the Flies</text><rect class="bookcase-book" fill="#D1B288" height="234" id="book-13740" stroke="black" width="24" x="132" y="2527" /><text dominant-baseline="middle" fill="black" font-family="Arial" font-size="18px" transform="rotate(-90,144.0,2757)" x="144.0" y="2757">The Life and Adventures of </text><rect class="bookcase-book" fill="#363229" height="208" id="book-13513" stroke="black" width="23" x="156" y="2553" /><text dominant-baseline="middle" fill="white" font-family="Arial" font-size="17.25px" transform="rotate(-90,167.5,2757)" x="167.5" y="2757">I, Claudius</text><rect class="bookcase-book" fill="#D1C7DE" height="208" id="book-14788" stroke="black" width="26" x="179" y="2553" /><text dominant-baseline="middle" fill="black" font-family="Arial" font-size="18px" transform="rotate(-90,192.0,2757)" x="192.0" y="2757">The Heart of the Matter</text><rect class="bookcase-book" fill="#3A3B3A" height="197" id="book-13562" stroke="black" width="25" x="205" y="2564" /><text dominant-baseline="middle" fill="white" font-family="Arial" font-size="18px" transform="rotate(-90,217.5,2757)" x="217.5" y="2757">Loving, Living, Party Go</text><rect class="bookcase-book" fill="#101617" height="208" id="book-16226" stroke="black" width="25" x="230" y="2553" /><text dominant-baseline="middle" fill="white" font-family="Arial" font-size="18px" transform="rotate(-90,242.5,2757)" x="242.5" y="2757">The Fault in Our Stars</text><rect class="bookcase-book" fill="#585654" height="208" id="book-20274" stroke="black" width="17" x="255" y="2553" /><text dominant-baseline="middle" fill="white" font-family="Arial" font-size="12.75px" transform="rotate(-90,263.5,2757)" x="263.5" y="2757">Looking for Alaska</text><rect class="bookcase-book" fill="#F2EFD6" height="208" id="book-16353" stroke="black" width="23" x="272" y="2553" /><text dominant-baseline="middle" fill="black" font-family="Arial" font-size="17.25px" transform="rotate(-90,283.5,2757)" x="283.5" y="2757">Paper Towns</text><rect class="bookcase-book" fill="#DC6716" height="216" id="book-20312" stroke="black" width="26" x="295" y="2545" /><text dominant-baseline="middle" fill="black" font-family="Arial" font-size="18px" transform="rotate(-90,308.0,2757)" x="308.0" y="2757">Turtles All the Way Down</text><rect class="bookcase-book" fill="#443018" height="216" id="book-22700" stroke="black" width="26" x="324" y="2561" /><text dominant-baseline="middle" fill="white" font-family="Arial" font-size="18px" transform="rotate(-90,337.0,2773)" x="337.0" y="2773">Ford Country</text><rect class="bookcase-book" fill="#388330" height="242" id="book-21620" stroke="black" width="39" x="350" y="2535" /><text dominant-baseline="middle" fill="white" font-family="Arial" font-size="18px" transform="rotate(-90,369.5,2773)" x="369.5" y="2773">The Chamber</text><rect class="bookcase-book" fill="#BD3391" height="242" id="book-21622" stroke="black" width="29" x="389" y="2535" /><text dominant-baseline="middle" fill="white" font-family="Arial" font-size="18px" transform="rotate(-90,403.5,2773)" x="403.5" y="2773">The Innocent Man</text><rect class="bookcase-book" fill="#1565C7" height="242" id="book-21616" stroke="black" width="29" x="418" y="2535" /><text dominant-baseline="middle" fill="white" font-family="Arial" font-size="18px" transform="rotate(-90,432.5,2773)" x="432.5" y="2773">The Partner</text><rect class="bookcase-book" fill="#B29C10" height="242" id="book-21619" stroke="black" width="36" x="447" y="2535" /><text dominant-baseline="middle" fill="black" font-family="Arial" font-size="18px" transform="rotate(-90,465.0,2773)" x="465.0" y="2773">The Rainmaker</text><rect class="bookcase-book" fill="#16C0A3" height="242" id="book-21621" stroke="black" width="28" x="483" y="2535" /><text dominant-baseline="middle" fill="black" font-family="Arial" font-size="18px" transform="rotate(-90,497.0,2773)" x="497.0" y="2773">The Street Lawyer</text><rect class="bookcase-book" fill="#86A947" height="242" id="book-21617" stroke="black" width="36" x="511" y="2535" /><text dominant-baseline="middle" fill="black" font-family="Arial" font-size="18px" transform="rotate(-90,529.0,2773)" x="529.0" y="2773">The Testament</text><rect class="bookcase-book" fill="#E9EDEA" height="234" id="book-20348" stroke="black" width="21" x="547" y="2543" /><text dominant-baseline="middle" fill="black" font-family="Arial" font-size="15.75px" transform="rotate(-90,557.5,2773)" x="557.5" y="2773">The Magician King</text><rect height="310" width="20" x="50" y="2777" /><rect height="310" width="20" x="582" y="2777" /><rect height="20" width="512" x="70" y="2777" /><rect height="20" width="552" x="50" y="3087" /><rect class="bookcase-book" fill="#313023" height="237" id="book-13541" stroke="black" width="24" x="84" y="2850" /><text dominant-baseline="middle" fill="white" font-family="Arial" font-size="18px" transform="rotate(-90,96.0,3083)" x="96.0" y="3083">King Solomon's Mines</text><rect class="bookcase-book" fill="#382230" height="203" id="book-16752" stroke="black" width="23" x="108" y="2884" /><text dominant-baseline="middle" fill="white" font-family="Arial" font-size="17.25px" transform="rotate(-90,119.5,3083)" x="119.5" y="3083">A Map of the World</text><rect class="bookcase-book" fill="#484635" height="15" id="book-13744" stroke="black" width="203" x="131" y="3072" /><text dominant-baseline="middle" fill="white" font-family="Arial" font-size="11.25px" x="131" y="3079.5">The Maltese Falcon</text><rect class="bookcase-book" fill="#6D8A9D" height="243" id="book-22242" stroke="black" width="34" x="131" y="2829" /><text dominant-baseline="middle" fill="black" font-family="Arial" font-size="18px" transform="rotate(-90,148.0,3068)" x="148.0" y="3068">The Nightingale</text><rect class="bookcase-book" fill="#C254D0" height="190" id="book-20745" stroke="black" width="25" x="165" y="2882" /><text dominant-baseline="middle" fill="black" font-family="Arial" font-size="18px" transform="rotate(-90,177.5,3068)" x="177.5" y="3068">Red Dragon</text><rect class="bookcase-book" fill="#F7F5E4" height="233" id="book-20746" stroke="black" width="24" x="190" y="2839" /><text dominant-baseline="middle" fill="black" font-family="Arial" font-size="18px" transform="rotate(-90,202.0,3068)" x="202.0" y="3068">The Silence of the Lambs</text><rect class="bookcase-book" fill="#70312A" height="174" id="book-20747" stroke="black" width="33" x="214" y="2898" /><text dominant-baseline="middle" fill="white" font-family="Arial" font-size="18px" transform="rotate(-90,230.5,3068)" x="230.5" y="3068">Hannibal</text><rect class="bookcase-book" fill="#11221F" height="174" id="book-20748" stroke="black" width="26" x="247" y="2898" /><text dominant-baseline="middle" fill="white" font-family="Arial" font-size="18px" transform="rotate(-90,260.0,3068)" x="260.0" y="3068">Hannibal Rising</text><rect class="bookcase-book" fill="#6A6760" height="235" id="book-16751" stroke="black" width="26" x="273" y="2837" /><text dominant-baseline="middle" fill="white" font-family="Arial" font-size="18px" transform="rotate(-90,286.0,3068)" x="286.0" y="3068">The Asylum</text><rect class="bookcase-book" fill="#7AC0C6" height="189" id="book-20530" stroke="black" width="29" x="299" y="2883" /><text dominant-baseline="middle" fill="black" font-family="Arial" font-size="18px" transform="rotate(-90,313.5,3068)" x="313.5" y="3068">The Girl on the Train</text><rect class="bookcase-book" fill="#AB4021" height="232" id="book-13766" stroke="black" width="30" x="334" y="2855" /><text dominant-baseline="middle" fill="white" font-family="Arial" font-size="18px" transform="rotate(-90,349.0,3083)" x="349.0" y="3083">The Scarlet Letter</text><rect class="bookcase-book" fill="#8D8D7F" height="222" id="book-13682" stroke="black" width="27" x="364" y="2865" /><text dominant-baseline="middle" fill="black" font-family="Arial" font-size="18px" transform="rotate(-90,377.5,3083)" x="377.5" y="3083">The Arabian Nights</text><rect class="bookcase-book" fill="#496A78" height="29" id="book-13929" stroke="black" width="170" x="391" y="3058" /><text dominant-baseline="middle" fill="white" font-family="Arial" font-size="18px" x="391" y="3072.5">Catch-22</text><rect class="bookcase-book" fill="#173429" height="203" id="book-13888" stroke="black" width="20" x="391" y="2855" /><text dominant-baseline="middle" fill="white" font-family="Arial" font-size="15.0px" transform="rotate(-90,401.0,3054)" x="401.0" y="3054">A Farewell to Arms</text><rect class="bookcase-book" fill="#ABA7B1" height="203" id="book-13932" stroke="black" width="8" x="411" y="2855" /><text dominant-baseline="middle" fill="black" font-family="Arial" font-size="6.0px" transform="rotate(-90,415.0,3054)" x="415.0" y="3054">The Old Man and the Sea</text><rect class="bookcase-book" fill="#7F2F26" height="209" id="book-16397" stroke="black" width="6" x="419" y="2849" /><text dominant-baseline="middle" fill="white" font-family="Arial" font-size="4.5px" transform="rotate(-90,422.0,3054)" x="422.0" y="3054">The Gift of the Magi</text><rect class="bookcase-book" fill="#221DE0" height="217" id="book-22194" stroke="black" width="33" x="425" y="2841" /><text dominant-baseline="middle" fill="white" font-family="Arial" font-size="18px" transform="rotate(-90,441.5,3054)" x="441.5" y="3054">House Harkonnen</text><rect class="bookcase-book" fill="#CC6000" height="192" id="book-13861" stroke="black" width="48" x="458" y="2866" /><text dominant-baseline="middle" fill="white" font-family="Arial" font-size="18px" transform="rotate(-90,482.0,3054)" x="482.0" y="3054">Dune</text><rect class="bookcase-book" fill="#175484" height="189" id="book-22563" stroke="black" width="23" x="506" y="2869" /><text dominant-baseline="middle" fill="white" font-family="Arial" font-size="17.25px" transform="rotate(-90,517.5,3054)" x="517.5" y="3054">Dune Messiah</text><rect class="bookcase-book" fill="#DF611F" height="174" id="book-22421" stroke="black" width="20" x="529" y="2884" /><text dominant-baseline="middle" fill="black" font-family="Arial" font-size="15.0px" transform="rotate(-90,539.0,3054)" x="539.0" y="3054">Children of Dune</text></svg>