<?xml version="1.0" encoding="utf-8" ?>
<svg baseProfile="full" height="3107" version="1.1" width="652" xmlns="http://www.w3.org/2000/svg" xmlns:ev="http://www.w3.org/2001/xml-events" xmlns:xlink="http://www.w3.org/1999/xlink"><defs /><rect height="359" width="20" x="50" y="1187" /><rect height="359" width="20" x="582" y="1187" /><rect height="20" width="512" x="70" y="1187" /><rect height="20" width="552" x="50" y="1546" /><rect class="bookcase-book" fill="#EF7435" height="30" id="book-22363" stroke="black" width="174" x="84" y="1516" /><text dominant-baseline="middle" fill="black" font-family="Arial" font-size="18px" x="84" y="1531.0">God Emperor of Dun</text><rect class="bookcase-book" fill="#B25E35" height="30" id="book-22364" stroke="black" width="174" x="84" y="1486" /><text dominant-baseline="middle" fill="white" font-family="Arial" font-size="18px" x="84" y="1501.0">Heretics of Dune</text><rect class="bookcase-book" fill="#222651" height="211" id="book-13863" stroke="black" width="15" x="84" y="1275" /><text dominant-baseline="middle" fill="white" font-family="Arial" font-size="11.25px" transform="rotate(-90,91.5,1482)" x="91.5" y="1482">Siddhartha</text><rect class="bookcase-book" fill="#635C54" height="208" id="book-13946" stroke="black" width="16" x="99" y="1278" /><text dominant-baseline="middle" fill="white" font-family="Arial" font-size="12.0px" transform="rotate(-90,107.0,1482)" x="107.0" y="1482">The Outsiders</text><rect class="bookcase-book" fill="#B09A77" height="199" id="book-13754" stroke="black" width="30" x="115" y="1287" /><text dominant-baseline="middle" fill="black" font-family="Arial" font-size="18px" transform="rotate(-90,130.0,1482)" x="130.0" y="1482">The Odyssey</text><rect class="bookcase-book" fill="#B29B78" height="199" id="book-13734" stroke="black" width="35" x="145" y="1287" /><text dominant-baseline="middle" fill="black" font-family="Arial" font-size="18px" transform="rotate(-90,162.5,1482)" x="162.5" y="1482">The Iliad</text><rect class="bookcase-book" fill="#252827" height="209" id="book-22697" stroke="black" width="37" x="180" y="1277" /><text dominant-baseline="middle" fill="white" font-family="Arial" font-size="18px" transform="rotate(-90,198.5,1482)" x="198.5" y="1482">Crank</text><rect class="bookcase-book" fill="#F33E00" height="203" id="book-26226" stroke="black" width="20" x="217" y="1283" /><text dominant-baseline="middle" fill="white" font-family="Arial" font-size="15.0px" transform="rotate(-90,227.0,1482)" x="227.0" y="1482">High Fidelity</text><rect class="bookcase-book" fill="#182280" height="198" id="book-12908" stroke="black" width="14" x="237" y="1288" /><text dominant-baseline="middle" fill="white" font-family="Arial" font-size="10.5px" transform="rotate(-90,244.0,1482)" x="244.0" y="1482">Stormbreaker</text><rect class="bookcase-book" fill="#4EAEC3" height="198" id="book-12909" stroke="black" width="16" x="258" y="1348" /><text dominant-baseline="middle" fill="black" font-family="Arial" font-size="12.0px" transform="rotate(-90,266.0,1542)" x="266.0" y="1542">Point Blank</text><rect class="bookcase-book" fill="#CEDDD8" height="198" id="book-12910" stroke="black" width="18" x="274" y="1348" /><text dominant-baseline="middle" fill="black" font-family="Arial" font-size="13.5px" transform="rotate(-90,283.0,1542)" x="283.0" y="1542">Skeleton Key</text><rect class="bookcase-book" fill="#712120" height="198" id="book-12911" stroke="black" width="17" x="292" y="1348" /><text dominant-baseline="middle" fill="white" font-family="Arial" font-size="12.75px" transform="rotate(-90,300.5,1542)" x="300.5" y="1542">Eagle Strike</text><rect class="bookcase-book" fill="#D68637" height="198" id="book-12912" stroke="black" width="31" x="309" y="1348" /><text dominant-baseline="middle" fill="black" font-family="Arial" font-size="18px" transform="rotate(-90,324.5,1542)" x="324.5" y="1542">Scorpia</text><rect class="bookcase-book" fill="#DCDACA" height="25" id="book-12913" stroke="black" width="198" x="340" y="1521" /><text dominant-baseline="middle" fill="black" font-family="Arial" font-size="18px" x="340" y="1533.5">Ark Angel</text><rect class="bookcase-book" fill="#DBE3D7" height="29" id="book-12914" stroke="black" width="198" x="340" y="1492" /><text dominant-baseline="middle" fill="black" font-family="Arial" font-size="18px" x="340" y="1506.5">Crocodile Tears</text><rect class="bookcase-book" fill="#C8D1D8" height="29" id="book-12915" stroke="black" width="198" x="340" y="1463" /><text dominant-baseline="middle" fill="black" font-family="Arial" font-size="18px" x="340" y="1477.5">Snakehead</text><rect class="bookcase-book" fill="#EA8A38" height="218" id="book-12916" stroke="black" width="35" x="340" y="1245" /><text dominant-baseline="middle" fill="black" font-family="Arial" font-size="18px" transform="rotate(-90,357.5,1459)" x="357.5" y="1459">Scorpia Rising</text><rect class="bookcase-book" fill="#746858" height="198" id="book-12917" stroke="black" width="28" x="375" y="1265" /><text dominant-baseline="middle" fill="white" font-family="Arial" font-size="18px" transform="rotate(-90,389.0,1459)" x="389.0" y="1459">Russian Roulette</text><rect class="bookcase-book" fill="#342719" height="198" id="book-20448" stroke="black" width="17" x="403" y="1265" /><text dominant-baseline="middle" fill="white" font-family="Arial" font-size="12.75px" transform="rotate(-90,411.5,1459)" x="411.5" y="1459">Never Say Die</text><rect class="bookcase-book" fill="#5D4822" height="203" id="book-20445" stroke="black" width="25" x="420" y="1260" /><text dominant-baseline="middle" fill="white" font-family="Arial" font-size="18px" transform="rotate(-90,432.5,1459)" x="432.5" y="1459">The Kite Runner</text><rect class="bookcase-book" fill="#989180" height="236" id="book-22193" stroke="black" width="31" x="445" y="1227" /><text dominant-baseline="middle" fill="black" font-family="Arial" font-size="18px" transform="rotate(-90,460.5,1459)" x="460.5" y="1459">A Thousand Splendid Suns</text><rect class="bookcase-book" fill="#34EA00" height="192" id="book-22285" stroke="black" width="9" x="476" y="1271" /><text dominant-baseline="middle" fill="black" font-family="Arial" font-size="6.75px" transform="rotate(-90,480.5,1459)" x="480.5" y="1459">Bunnicula</text><rect class="bookcase-book" fill="#4D4566" height="203" id="book-13890" stroke="black" width="20" x="485" y="1260" /><text dominant-baseline="middle" fill="white" font-family="Arial" font-size="15.0px" transform="rotate(-90,495.0,1459)" x="495.0" y="1459">A High Wind in Jamaica</text><rect class="bookcase-book" fill="#3A3B46" height="173" id="book-13937" stroke="black" width="30" x="505" y="1290" /><text dominant-baseline="middle" fill="white" font-family="Arial" font-size="18px" transform="rotate(-90,520.0,1459)" x="520.0" y="1459">The Hunchback of N</text><rect height="308" width="20" x="50" y="1546" /><rect height="308" width="20" x="582" y="1546" /><rect height="20" width="512" x="70" y="1546" /><rect height="20" width="552" x="50" y="1854" /><rect class="bookcase-book" fill="#BDBBC1" height="236" id="book-13938" stroke="black" width="67" x="84" y="1618" /><text dominant-baseline="middle" fill="black" font-family="Arial" font-size="18px" transform="rotate(-90,117.5,1850)" x="117.5" y="1850">Les Miserables</text><rect class="bookcase-book" fill="#56444F" height="176" id="book-13930" stroke="black" width="15" x="151" y="1678" /><text dominant-baseline="middle" fill="white" font-family="Arial" font-size="11.25px" transform="rotate(-90,158.5,1850)" x="158.5" y="1850">Brave New World</text><rect class="bookcase-book" fill="#BFB69F" height="22" id="book-22375" stroke="black" width="176" x="166" y="1832" /><text dominant-baseline="middle" fill="black" font-family="Arial" font-size="16.5px" x="166" y="1843.0">Island</text><rect class="bookcase-book" fill="#3A2D19" height="203" id="book-26225" stroke="black" width="34" x="166" y="1629" /><text dominant-baseline="middle" fill="white" font-family="Arial" font-size="18px" transform="rotate(-90,183.0,1828)" x="183.0" y="1828">The Cider House Rules</text><rect class="bookcase-book" fill="#C5DAC7" height="242" id="book-20540" stroke="black" width="42" x="200" y="1590" /><text dominant-baseline="middle" fill="black" font-family="Arial" font-size="18px" transform="rotate(-90,221.0,1828)" x="221.0" y="1828">A Prayer for Owen Meany</text><rect class="bookcase-book" fill="#B79E8E" height="234" id="book-20441" stroke="black" width="24" x="242" y="1598" /><text dominant-baseline="middle" fill="black" font-family="Arial" font-size="18px" transform="rotate(-90,254.0,1828)" x="254.0" y="1828">The Legend of Sleepy Hollo</text><rect class="bookcase-book" fill="#5210A0" height="197" id="book-21975" stroke="black" width="16" x="266" y="1635" /><text dominant-baseline="middle" fill="white" font-family="Arial" font-size="12.0px" transform="rotate(-90,274.0,1828)" x="274.0" y="1828">The Haunting of Hill House</text><rect class="bookcase-book" fill="#799A10" height="235" id="book-21988" stroke="black" width="29" x="282" y="1597" /><text dominant-baseline="middle" fill="black" font-family="Arial" font-size="18px" transform="rotate(-90,296.5,1828)" x="296.5" y="1828">The Long Patrol</text><rect class="bookcase-book" fill="#8C876D" height="196" id="book-21990" stroke="black" width="26" x="311" y="1636" /><text dominant-baseline="middle" fill="black" font-family="Arial" font-size="18px" transform="rotate(-90,324.0,1828)" x="324.0" y="1828">Taggerung</text><rect class="bookcase-book" fill="#59261F" height="236" id="book-22192" stroke="black" width="34" x="342" y="1618" /><text dominant-baseline="middle" fill="white" font-family="Arial" font-size="18px" transform="rotate(-90,359.0,1850)" x="359.0" y="1850">Triss</text><rect class="bookcase-book" fill="#8F9164" height="196" id="book-21992" stroke="black" width="25" x="376" y="1658" /><text dominant-baseline="middle" fill="black" font-family="Arial" font-size="18px" transform="rotate(-90,388.5,1850)" x="388.5" y="1850">Loamhedge</text><rect class="bookcase-book" fill="#D0C8AC" height="196" id="book-21993" stroke="black" width="26" x="401" y="1658" /><text dominant-baseline="middle" fill="black" font-family="Arial" font-size="18px" transform="rotate(-90,414.0,1850)" x="414.0" y="1850">Rakkety Tam</text><rect class="bookcase-book" fill="#D5D2CE" height="191" id="book-13913" stroke="black" width="23" x="427" y="1663" /><text dominant-baseline="middle" fill="black" font-family="Arial" font-size="17.25px" transform="rotate(-90,438.5,1850)" x="438.5" y="1850">The Ambassadors</text><rect class="bookcase-book" fill="#967D55" height="202" id="book-13720" stroke="black" width="29" x="450" y="1652" /><text dominant-baseline="middle" fill="black" font-family="Arial" font-size="18px" transform="rotate(-90,464.5,1850)" x="464.5" y="1850">The Golden Bowl</text><rect class="bookcase-book" fill="#3C263D" height="209" id="book-22418" stroke="black" width="6" x="479" y="1645" /><text dominant-baseline="middle" fill="white" font-family="Arial" font-size="4.5px" transform="rotate(-90,482.0,1850)" x="482.0" y="1850">The Turn of the Screw</text><rect class="bookcase-book" fill="#4C3224" height="230" id="book-13761" stroke="black" width="40" x="485" y="1624" /><text dominant-baseline="middle" fill="white" font-family="Arial" font-size="18px" transform="rotate(-90,505.0,1850)" x="505.0" y="1850">The Portrait of a Lady</text><rect class="bookcase-book" fill="#EF442C" height="175" id="book-13099" stroke="black" width="12" x="525" y="1679" /><text dominant-baseline="middle" fill="white" font-family="Arial" font-size="9.0px" transform="rotate(-90,531.0,1850)" x="531.0" y="1850">The Vanishings</text><rect class="bookcase-book" fill="#2F2567" height="175" id="book-13100" stroke="black" width="11" x="537" y="1679" /><text dominant-baseline="middle" fill="white" font-family="Arial" font-size="8.25px" transform="rotate(-90,542.5,1850)" x="542.5" y="1850">Second Chance</text><rect class="bookcase-book" fill="#5E9F61" height="175" id="book-13101" stroke="black" width="12" x="548" y="1679" /><text dominant-baseline="middle" fill="black" font-family="Arial" font-size="9.0px" transform="rotate(-90,554.0,1850)" x="554.0" y="1850">Through the Flames</text><rect height="309" width="20" x="50" y="1854" /><rect height="309" width="20" x="582" y="1854" /><rect height="20" width="512" x="70" y="1854" /><rect height="20" width="552" x="50" y="2163" /><rect class="bookcase-book" fill="#E6942F" height="11" id="book-13102" stroke="black" width="175" x="84" y="2152" /><text dominant-baseline="middle" fill="black" font-family="Arial" font-size="8.25px" x="84" y="2157.5">Facing the Future</text><rect class="bookcase-book" fill="#9868D0" height="10" id="book-13103" stroke="black" width="175" x="84" y="2142" /><text dominant-baseline="middle" fill="black" font-family="Arial" font-size="7.5px" x="84" y="2147.0">Nicolae High</text><rect class="bookcase-book" fill="#392B65" height="10" id="book-13104" stroke="black" width="175" x="84" y="2132" /><text dominant-baseline="middle" fill="white" font-family="Arial" font-size="7.5px" x="84" y="2137.0">The Underground</text><rect class="bookcase-book" fill="#D05847" height="9" id="book-13105" stroke="black" width="175" x="84" y="2123" /><text dominant-baseline="middle" fill="white" font-family="Arial" font-size="6.75px" x="84" y="2127.5">Busted!</text><rect class="bookcase-book" fill="#526A1C" height="10" id="book-13106" stroke="black" width="175" x="84" y="2113" /><text dominant-baseline="middle" fill="white" font-family="Arial" font-size="7.5px" x="84" y="2118.0">Death Strike</text><rect class="bookcase-book" fill="#EF755F" height="11" id="book-13107" stroke="black" width="175" x="84" y="2102" /><text dominant-baseline="middle" fill="black" font-family="Arial" font-size="8.25px" x="84" y="2107.5">The Search</text><rect class="bookcase-book" fill="#262161" height="12" id="book-13108" stroke="black" width="175" x="84" y="2090" /><text dominant-baseline="middle" fill="white" font-family="Arial" font-size="9.0px" x="84" y="2096.0">On the Run</text><rect class="bookcase-book" fill="#496946" height="11" id="book-13109" stroke="black" width="175" x="84" y="2079" /><text dominant-baseline="middle" fill="white" font-family="Arial" font-size="8.25px" x="84" y="2084.5">Into the Storm</text><rect class="bookcase-book" fill="#E9AC2F" height="11" id="book-13110" stroke="black" width="175" x="84" y="2068" /><text dominant-baseline="middle" fill="black" font-family="Arial" font-size="8.25px" x="84" y="2073.5">Earthquake!</text><rect class="bookcase-book" fill="#115D72" height="11" id="book-13111" stroke="black" width="175" x="84" y="2057" /><text dominant-baseline="middle" fill="white" font-family="Arial" font-size="8.25px" x="84" y="2062.5">The Showdown</text><rect class="bookcase-book" fill="#323069" height="10" id="book-13112" stroke="black" width="175" x="84" y="2047" /><text dominant-baseline="middle" fill="white" font-family="Arial" font-size="7.5px" x="84" y="2052.0">Judgment Day</text><rect class="bookcase-book" fill="#C95429" height="12" id="book-13113" stroke="black" width="175" x="84" y="2035" /><text dominant-baseline="middle" fill="white" font-family="Arial" font-size="9.0px" x="84" y="2041.0">Battling the Commander</text><rect class="bookcase-book" fill="#6D804A" height="12" id="book-13114" stroke="black" width="175" x="84" y="2023" /><text dominant-baseline="middle" fill="white" font-family="Arial" font-size="9.0px" x="84" y="2029.0">Fire From Heaven</text><rect class="bookcase-book" fill="#DD5743" height="12" id="book-13115" stroke="black" width="175" x="84" y="2011" /><text dominant-baseline="middle" fill="white" font-family="Arial" font-size="9.0px" x="84" y="2017.0">Terror in the Stadium</text><rect class="bookcase-book" fill="#515599" height="12" id="book-13116" stroke="black" width="175" x="84" y="1999" /><text dominant-baseline="middle" fill="white" font-family="Arial" font-size="9.0px" x="84" y="2005.0">Darkening Skies</text><rect class="bookcase-book" fill="#49A664" height="13" id="book-13117" stroke="black" width="175" x="84" y="1986" /><text dominant-baseline="middle" fill="black" font-family="Arial" font-size="9.75px" x="84" y="1992.5">Attack of Apollyon</text><rect class="bookcase-book" fill="#EAAC2D" height="13" id="book-13118" stroke="black" width="175" x="84" y="1973" /><text dominant-baseline="middle" fill="black" font-family="Arial" font-size="9.75px" x="84" y="1979.5">A Dangerous Plan</text><rect class="bookcase-book" fill="#427AAA" height="10" id="book-13119" stroke="black" width="175" x="84" y="1963" /><text dominant-baseline="middle" fill="white" font-family="Arial" font-size="7.5px" x="84" y="1968.0">Secrets of New Babylon</text><rect class="bookcase-book" fill="#363169" height="12" id="book-13120" stroke="black" width="175" x="84" y="1951" /><text dominant-baseline="middle" fill="white" font-family="Arial" font-size="9.0px" x="84" y="1957.0">Escape From New Babylon</text><rect class="bookcase-book" fill="#CA532A" height="13" id="book-13121" stroke="black" width="175" x="84" y="1938" /><text dominant-baseline="middle" fill="white" font-family="Arial" font-size="9.75px" x="84" y="1944.5">Horsemen of Terror</text><rect class="bookcase-book" fill="#6E834B" height="12" id="book-13122" stroke="black" width="175" x="84" y="1926" /><text dominant-baseline="middle" fill="white" font-family="Arial" font-size="9.0px" x="84" y="1932.0">Uplink From the Underground</text><rect class="bookcase-book" fill="#DA5846" height="12" id="book-13123" stroke="black" width="175" x="84" y="1914" /><text dominant-baseline="middle" fill="white" font-family="Arial" font-size="9.0px" x="84" y="1920.0">Death At the Gala</text><rect class="bookcase-book" fill="#52569A" height="12" id="book-13124" stroke="black" width="175" x="84" y="1902" /><text dominant-baseline="middle" fill="white" font-family="Arial" font-size="9.0px" x="84" y="1908.0">The Beast Arises</text><rect class="bookcase-book" fill="#49A964" height="12" id="book-13125" stroke="black" width="175" x="84" y="1890" /><text dominant-baseline="middle" fill="black" font-family="Arial" font-size="9.0px" x="84" y="1896.0">Wildfire!</text><rect class="bookcase-book" fill="#D6A1C0" height="12" id="book-13126" stroke="black" width="175" x="259" y="2151" /><text dominant-baseline="middle" fill="black" font-family="Arial" font-size="9.0px" x="259" y="2157.0">The Mark of the Beast</text><rect class="bookcase-book" fill="#C78910" height="12" id="book-13127" stroke="black" width="175" x="259" y="2139" /><text dominant-baseline="middle" fill="black" font-family="Arial" font-size="9.0px" x="259" y="2145.0">Breakout!</text><rect class="bookcase-book" fill="#35306B" height="12" id="book-13128" stroke="black" width="175" x="259" y="2127" /><text dominant-baseline="middle" fill="white" font-family="Arial" font-size="9.0px" x="259" y="2133.0">Murder in the Holy Place</text><rect class="bookcase-book" fill="#CD572A" height="13" id="book-13129" stroke="black" width="175" x="259" y="2114" /><text dominant-baseline="middle" fill="white" font-family="Arial" font-size="9.75px" x="259" y="2120.5">Escape to Masada</text><rect class="bookcase-book" fill="#6A8049" height="13" id="book-13130" stroke="black" width="175" x="259" y="2101" /><text dominant-baseline="middle" fill="white" font-family="Arial" font-size="9.75px" x="259" y="2107.5">War of the Dragon</text><rect class="bookcase-book" fill="#DB5745" height="15" id="book-13131" stroke="black" width="175" x="259" y="2086" /><text dominant-baseline="middle" fill="white" font-family="Arial" font-size="11.25px" x="259" y="2093.5">Attack on Petra</text><rect class="bookcase-book" fill="#3B539A" height="16" id="book-13132" stroke="black" width="175" x="259" y="2070" /><text dominant-baseline="middle" fill="white" font-family="Arial" font-size="12.0px" x="259" y="2078.0">Bounty Hunters</text><rect class="bookcase-book" fill="#4CA865" height="15" id="book-13133" stroke="black" width="175" x="259" y="2055" /><text dominant-baseline="middle" fill="black" font-family="Arial" font-size="11.25px" x="259" y="2062.5">The Rise of False Messiahs</text><rect class="bookcase-book" fill="#ECAD2A" height="15" id="book-13134" stroke="black" width="175" x="259" y="2040" /><text dominant-baseline="middle" fill="black" font-family="Arial" font-size="11.25px" x="259" y="2047.5">Ominous Choices</text><rect class="bookcase-book" fill="#10201D" height="14" id="book-13135" stroke="black" width="175" x="259" y="2026" /><text dominant-baseline="middle" fill="white" font-family="Arial" font-size="10.5px" x="259" y="2033.0">Heat Wave</text><rect class="bookcase-book" fill="#4E3850" height="15" id="book-13136" stroke="black" width="175" x="259" y="2011" /><text dominant-baseline="middle" fill="white" font-family="Arial" font-size="11.25px" x="259" y="2018.5">The Perils of Love</text><rect class="bookcase-book" fill="#3C1912" height="15" id="book-13137" stroke="black" width="175" x="259" y="1996" /><text dominant-baseline="middle" fill="white" font-family="Arial" font-size="11.25px" x="259" y="2003.5">The Road to War</text><rect class="bookcase-book" fill="#7B9C51" height="15" id="book-13138" stroke="black" width="175" x="259" y="1981" /><text dominant-baseline="middle" fill="black" font-family="Arial" font-size="11.25px" x="259" y="1988.5">Triumphant Return</text><rect class="bookcase-book" fill="#141A14" height="209" id="book-13314" stroke="black" width="25" x="434" y="1954" /><text dominant-baseline="middle" fill="white" font-family="Arial" font-size="18px" transform="rotate(-90,446.5,2159)" x="446.5" y="2159">Soon</text><rect class="bookcase-book" fill="#C4CACB" height="209" id="book-13315" stroke="black" width="28" x="459" y="1954" /><text dominant-baseline="middle" fill="black" font-family="Arial" font-size="18px" transform="rotate(-90,473.0,2159)" x="473.0" y="2159">Silenced</text><rect class="bookcase-book" fill="#181524" height="209" id="book-13316" stroke="black" width="23" x="487" y="1954" /><text dominant-baseline="middle" fill="white" font-family="Arial" font-size="17.25px" transform="rotate(-90,498.5,2159)" x="498.5" y="2159">Shadowed</text><rect class="bookcase-book" fill="#3F1A90" height="209" id="book-13014" stroke="black" width="27" x="510" y="1954" /><text dominant-baseline="middle" fill="white" font-family="Arial" font-size="18px" transform="rotate(-90,523.5,2159)" x="523.5" y="2159">The Rapture</text><rect class="bookcase-book" fill="#92A34D" height="209" id="book-13013" stroke="black" width="28" x="537" y="1954" /><text dominant-baseline="middle" fill="black" font-family="Arial" font-size="18px" transform="rotate(-90,551.0,2159)" x="551.0" y="2159">The Regime</text><rect height="314" width="20" x="50" y="2163" /><rect height="314" width="20" x="582" y="2163" /><rect height="20" width="512" x="70" y="2163" /><rect height="20" width="552" x="50" y="2477" /><rect class="bookcase-book" fill="#BD6330" height="28" id="book-13012" stroke="black" width="209" x="84" y="2449" /><text dominant-baseline="middle" fill="white" font-family="Arial" font-size="18px" x="84" y="2463.0">The Rising</text><rect class="bookcase-book" fill="#3A2617" height="34" id="book-13086" stroke="black" width="209" x="84" y="2415" /><text dominant-baseline="middle" fill="white" font-family="Arial" font-size="18px" x="84" y="2432.0">Left Behind</text><rect class="bookcase-book" fill="#731B2D" height="33" id="book-13087" stroke="black" width="209" x="84" y="2382" /><text dominant-baseline="middle" fill="white" font-family="Arial" font-size="18px" x="84" y="2398.5">Tribulation Force</text><rect class="bookcase-book" fill="#202047" height="32" id="book-13088" stroke="black" width="209" x="84" y="2350" /><text dominant-baseline="middle" fill="white" font-family="Arial" font-size="18px" x="84" y="2366.0">Nicolae</text><rect class="bookcase-book" fill="#20352E" height="31" id="book-13089" stroke="black" width="209" x="84" y="2319" /><text dominant-baseline="middle" fill="white" font-family="Arial" font-size="18px" x="84" y="2334.5">Soul Harvest</text><rect class="bookcase-book" fill="#5B264D" height="29" id="book-13090" stroke="black" width="209" x="84" y="2290" /><text dominant-baseline="middle" fill="white" font-family="Arial" font-size="18px" x="84" y="2304.5">Apollyon</text><rect class="bookcase-book" fill="#179B00" height="30" id="book-13091" stroke="black" width="209" x="84" y="2260" /><text dominant-baseline="middle" fill="white" font-family="Arial" font-size="18px" x="84" y="2275.0">Assassins</text><rect class="bookcase-book" fill="#52A390" height="29" id="book-13092" stroke="black" width="209" x="84" y="2231" /><text dominant-baseline="middle" fill="black" font-family="Arial" font-size="18px" x="84" y="2245.5">The Indwelling</text><rect class="bookcase-book" fill="#4E3A41" height="28" id="book-13093" stroke="black" width="209" x="84" y="2203" /><text dominant-baseline="middle" fill="white" font-family="Arial" font-size="18px" x="84" y="2217.0">The Mark</text><rect class="bookcase-book" fill="#1F1925" height="38" id="book-13094" stroke="black" width="235" x="293" y="2439" /><text dominant-baseline="middle" fill="white" font-family="Arial" font-size="18px" x="293" y="2458.0">Desecration</text><rect class="bookcase-book" fill="#32F500" height="36" id="book-13095" stroke="black" width="235" x="293" y="2403" /><text dominant-baseline="middle" fill="black" font-family="Arial" font-size="18px" x="293" y="2421.0">The Remnant</text><rect class="bookcase-book" fill="#2F2C5F" height="29" id="book-13096" stroke="black" width="209" x="293" y="2374" /><text dominant-baseline="middle" fill="white" font-family="Arial" font-size="18px" x="293" y="2388.5">Armageddon</text><rect class="bookcase-book" fill="#FAF1D2" height="31" id="book-13097" stroke="black" width="209" x="293" y="2343" /><text dominant-baseline="middle" fill="black" font-family="Arial" font-size="18px" x="293" y="2358.5">Glorious Appearing</text><rect class="bookcase-book" fill="#DA8422" height="31" id="book-13098" stroke="black" width="209" x="293" y="2312" /><text dominant-baseline="middle" fill="black" font-family="Arial" font-size="18px" x="293" y="2327.5">Kingdom Come</text><rect class="bookcase-book" fill="#1B1451" height="46" id="book-13893" stroke="black" width="203" x="293" y="2266" /><text dominant-baseline="middle" fill="white" font-family="Arial" font-size="18px" x="293" y="2289.0">From Here to Eternity</text><rect class="bookcase-book" fill="#6D6A6B" height="28" id="book-20368" stroke="black" width="172" x="293" y="2238" /><text dominant-baseline="middle" fill="white" font-family="Arial" font-size="18px" x="293" y="2252.0">New Spring</text><rect class="bookcase-book" fill="#615B6A" height="36" id="book-20369" stroke="black" width="172" x="293" y="2202" /><text dominant-baseline="middle" fill="white" font-family="Arial" font-size="18px" x="293" y="2220.0">The Eye of the Worl</text><rect height="300" width="20" x="50" y="2477" /><rect height="300" width="20" x="582" y="2477" /><rect height="20" width="512" x="70" y="2477" /><rect height="20" width="552" x="50" y="2777" /><rect class="bookcase-book" fill="#3A3C30" height="42" id="book-20370" stroke="black" width="172" x="84" y="2735" /><text dominant-baseline="middle" fill="white" font-family="Arial" font-size="18px" x="84" y="2756.0">The Great Hunt</text><rect class="bookcase-book" fill="#D04E21" height="45" id="book-20371" stroke="black" width="172" x="84" y="2690" /><text dominant-baseline="middle" fill="white" font-family="Arial" font-size="18px" x="84" y="2712.5">The Dragon Reborn</text><rect class="bookcase-book" fill="#7F552E" height="44" id="book-20372" stroke="black" width="172" x="84" y="2646" /><text dominant-baseline="middle" fill="white" font-family="Arial" font-size="18px" x="84" y="2668.0">The Shadow Rising</text><rect class="bookcase-book" fill="#AC6850" height="54" id="book-20373" stroke="black" width="172" x="84" y="2592" /><text dominant-baseline="middle" fill="white" font-family="Arial" font-size="18px" x="84" y="2619.0">The Fires of Heaven</text><rect class="bookcase-book" fill="#EAA54B" height="45" id="book-20374" stroke="black" width="172" x="84" y="2547" /><text dominant-baseline="middle" fill="black" font-family="Arial" font-size="18px" x="84" y="2569.5">Lord of Chaos</text><rect class="bookcase-book" fill="#2C2D38" height="39" id="book-20375" stroke="black" width="172" x="256" y="2738" /><text dominant-baseline="middle" fill="white" font-family="Arial" font-size="18px" x="256" y="2757.5">A Crown of Swords</text><rect class="bookcase-book" fill="#65565D" height="40" id="book-20376" stroke="black" width="172" x="256" y="2698" /><text dominant-baseline="middle" fill="white" font-family="Arial" font-size="18px" x="256" y="2718.0">The Path of Daggers</text><rect class="bookcase-book" fill="#45372A" height="47" id="book-20377" stroke="black" width="172" x="256" y="2651" /><text dominant-baseline="middle" fill="white" font-family="Arial" font-size="18px" x="256" y="2674.5">Winter's Heart</text><rect class="bookcase-book" fill="#2D2A24" height="37" id="book-20378" stroke="black" width="172" x="256" y="2614" /><text dominant-baseline="middle" fill="white" font-family="Arial" font-size="18px" x="256" y="2632.5">Crossroads of Twilig</text><rect class="bookcase-book" fill="#CDA352" height="41" id="book-20379" stroke="black" width="172" x="256" y="2573" /><text dominant-baseline="middle" fill="black" font-family="Arial" font-size="18px" x="256" y="2593.5">Knife of Dreams</text><rect class="bookcase-book" fill="#513A3A" height="48" id="book-20380" stroke="black" width="172" x="256" y="2525" /><text dominant-baseline="middle" fill="white" font-family="Arial" font-size="18px" x="256" y="2549.0">The Gathering Stor</text><rect class="bookcase-book" fill="#A2BCBF" height="172" id="book-20381" stroke="black" width="52" x="428" y="2605" /><text dominant-baseline="middle" fill="black" font-family="Arial" font-size="18px" transform="rotate(-90,454.0,2773)" x="454.0" y="2773">Towers of Midnight</text><rect class="bookcase-book" fill="#7496A5" height="172" id="book-20382" stroke="black" width="51" x="480" y="2605" /><text dominant-baseline="middle" fill="black" font-family="Arial" font-size="18px" transform="rotate(-90,505.5,2773)" x="505.5" y="2773">A Memory of Light</text><rect class="bookcase-book" fill="#577C56" height="203" id="book-13859" stroke="black" width="13" x="531" y="2574" /><text dominant-baseline="middle" fill="white" font-family="Arial" font-size="9.75px" transform="rotate(-90,537.5,2773)" x="537.5" y="2773">Dubliners</text><rect class="bookcase-book" fill="#DFDDC7" height="203" id="book-13926" stroke="black" width="13" x="544" y="2574" /><text dominant-baseline="middle" fill="black" font-family="Arial" font-size="9.75px" transform="rotate(-90,550.5,2773)" x="550.5" y="2773">A Portrait of the Artist as a Young Man</text><rect height="310" width="20" x="50" y="2777" /><rect height="310" width="20" x="582" y="2777" /><rect height="20" width="512" x="70" y="2777" /><rect height="20" width="552" x="50" y="3087" /><rect class="bookcase-book" fill="#F5E9C3" height="36" id="book-22611" stroke="black" width="203" x="84" y="3051" /><text dominant-baseline="middle" fill="black" font-family="Arial" font-size="18px" x="84" y="3069.0">Ulysses</text><rect class="bookcase-book" fill="#7C1DF0" height="214" id="book-13885" stroke="black" width="40" x="84" y="2837" /><text dominant-baseline="middle" fill="white" font-family="Arial" font-size="18px" transform="rotate(-90,104.0,3047)" x="104.0" y="3047">Finnegans Wake</text><rect class="bookcase-book" fill="#553C37" height="232" id="book-21049" stroke="black" width="11" x="124" y="2819" /><text dominant-baseline="middle" fill="white" font-family="Arial" font-size="8.25px" transform="rotate(-90,129.5,3047)" x="129.5" y="3047">The Final Quest</text><rect class="bookcase-book" fill="#8FEAE6" height="229" id="book-13947" stroke="black" width="3" x="135" y="2822" /><text dominant-baseline="middle" fill="black" font-family="Arial" font-size="2.25px" transform="rotate(-90,136.5,3047)" x="136.5" y="3047">The Metamorphosis</text><rect class="bookcase-book" fill="#C76724" height="229" id="book-13871" stroke="black" width="11" x="138" y="2822" /><text dominant-baseline="middle" fill="white" font-family="Arial" font-size="8.25px" transform="rotate(-90,143.5,3047)" x="143.5" y="3047">The Trial</text><rect class="bookcase-book" fill="#1D1919" height="214" id="book-22203" stroke="black" width="23" x="149" y="2837" /><text dominant-baseline="middle" fill="white" font-family="Arial" font-size="17.25px" transform="rotate(-90,160.5,3047)" x="160.5" y="3047">Schindler's List</text><rect class="bookcase-book" fill="#EFE2CB" height="196" id="book-13531" stroke="black" width="13" x="172" y="2855" /><text dominant-baseline="middle" fill="black" font-family="Arial" font-size="9.75px" transform="rotate(-90,178.5,3047)" x="178.5" y="3047">Ironweed</text><rect class="bookcase-book" fill="#2A2722" height="196" id="book-13849" stroke="black" width="16" x="185" y="2855" /><text dominant-baseline="middle" fill="white" font-family="Arial" font-size="12.0px" transform="rotate(-90,193.0,3047)" x="193.0" y="3047">On the Road</text><rect class="bookcase-book" fill="#41A418" height="196" id="book-15840" stroke="black" width="15" x="201" y="2855" /><text dominant-baseline="middle" fill="white" font-family="Arial" font-size="11.25px" transform="rotate(-90,208.5,3047)" x="208.5" y="3047">One Flew Over the Cuckoo's Nest</text><rect class="bookcase-book" fill="#D87123" height="209" id="book-20446" stroke="black" width="39" x="216" y="2842" /><text dominant-baseline="middle" fill="black" font-family="Arial" font-size="18px" transform="rotate(-90,235.5,3047)" x="235.5" y="3047">The Poisonwood Bible</text><rect class="bookcase-book" fill="#3F237B" height="44" id="book-22378" stroke="black" width="174" x="287" y="3043" /><text dominant-baseline="middle" fill="white" font-family="Arial" font-size="18px" x="287" y="3065.0">It</text><rect class="bookcase-book" fill="#63502F" height="177" id="book-13739" stroke="black" width="14" x="287" y="2866" /><text dominant-baseline="middle" fill="white" font-family="Arial" font-size="10.5px" transform="rotate(-90,294.0,3039)" x="294.0" y="3039">The Jungle Book</text><rect class="bookcase-book" fill="#CCCE97" height="196" id="book-16395" stroke="black" width="16" x="301" y="2847" /><text dominant-baseline="middle" fill="black" font-family="Arial" font-size="12.0px" transform="rotate(-90,309.0,3039)" x="309.0" y="3039">Soldiers Three in Black and White</text><rect class="bookcase-book" fill="#605735" height="203" id="book-13884" stroke="black" width="15" x="317" y="2840" /><text dominant-baseline="middle" fill="white" font-family="Arial" font-size="11.25px" transform="rotate(-90,324.5,3039)" x="324.5" y="3039">Kim</text><rect class="bookcase-book" fill="#393723" height="228" id="book-16396" stroke="black" width="6" x="332" y="2815" /><text dominant-baseline="middle" fill="white" font-family="Arial" font-size="4.5px" transform="rotate(-90,335.0,3039)" x="335.0" y="3039">The Light that Failed</text><rect class="bookcase-book" fill="#41502C" height="222" id="book-13364" stroke="black" width="22" x="338" y="2821" /><text dominant-baseline="middle" fill="white" font-family="Arial" font-size="16.5px" transform="rotate(-90,349.0,3039)" x="349.0" y="3039">A Separate Peace</text><rect class="bookcase-book" fill="#B19656" height="174" id="book-13924" stroke="black" width="15" x="360" y="2869" /><text dominant-baseline="middle" fill="black" font-family="Arial" font-size="11.25px" transform="rotate(-90,367.5,3039)" x="367.5" y="3039">Darkness at Noon</text><rect class="bookcase-book" fill="#124D4C" height="216" id="book-22134" stroke="black" width="28" x="375" y="2827" /><text dominant-baseline="middle" fill="white" font-family="Arial" font-size="18px" transform="rotate(-90,389.0,3039)" x="389.0" y="3039">The Graveyard Apartment</text><rect class="bookcase-book" fill="#1E1819" height="173" id="book-15843" stroke="black" width="13" x="403" y="2870" /><text dominant-baseline="middle" fill="white" font-family="Arial" font-size="9.75px" transform="rotate(-90,409.5,3039)" x="409.5" y="3039">From the Mixed-Up Files of Mrs. Basil </text><rect class="bookcase-book" fill="#918D60" height="198" id="book-15829" stroke="black" width="15" x="416" y="2845" /><text dominant-baseline="middle" fill="black" font-family="Arial" font-size="11.25px" transform="rotate(-90,423.5,3039)" x="423.5" y="3039">A Wrinkle in Time</text><rect class="bookcase-book" fill="#2B1A11" height="175" id="book-12997" stroke="black" width="30" x="431" y="2868" /><text dominant-baseline="middle" fill="white" font-family="Arial" font-size="18px" transform="rotate(-90,446.0,3039)" x="446.0" y="3039">Babylon Rising</text><rect class="bookcase-book" fill="#2B5300" height="175" id="book-12998" stroke="black" width="29" x="461" y="2912" /><text dominant-baseline="middle" fill="white" font-family="Arial" font-size="18px" transform="rotate(-90,475.5,3083)" x="475.5" y="3083">The Secret on Ararat</text><rect class="bookcase-book" fill="#261D17" height="175" id="book-12999" stroke="black" width="30" x="490" y="2912" /><text dominant-baseline="middle" fill="white" font-family="Arial" font-size="18px" transform="rotate(-90,505.0,3083)" x="505.0" y="3083">The Europa Conspir</text><rect class="bookcase-book" fill="#1B1129" height="175" id="book-13000" stroke="black" width="30" x="520" y="2912" /><text dominant-baseline="middle" fill="white" font-family="Arial" font-size="18px" transform="rotate(-90,535.0,3083)" x="535.0" y="3083">The Edge of Darknes</text></svg>