<?xml version="1.0" encoding="utf-8" ?>
<svg baseProfile="full" height="3107" version="1.1" width="858" xmlns="http://www.w3.org/2000/svg" xmlns:ev="http://www.w3.org/2001/xml-events" xmlns:xlink="http://www.w3.org/1999/xlink"><defs /><rect height="20" width="758" x="50" y="1287" /><rect class="bookcase-book" fill="#CCB49A" height="280" id="book-20978" stroke="black" width="15" x="84" y="1007" /><text dominant-baseline="middle" fill="black" font-family="Arial" font-size="11.25px" transform="rotate(-90,91.5,1283)" x="91.5" y="1283">13th Annual Summer Undergraduate Research Sympo</text><rect class="bookcase-book" fill="#136CA3" height="240" id="book-13524" stroke="black" width="24" x="99" y="1047" /><text dominant-baseline="middle" fill="white" font-family="Arial" font-size="18px" transform="rotate(-90,111.0,1283)" x="111.0" y="1283">Introducing the Theory of Co</text><rect class="bookcase-book" fill="#F5F8EB" height="282" id="book-16499" stroke="black" width="27" x="123" y="1005" /><text dominant-baseline="middle" fill="black" font-family="Arial" font-size="18px" transform="rotate(-90,136.5,1283)" x="136.5" y="1283">The New Way Things Work</text><rect class="bookcase-book" fill="#544738" height="274" id="book-16734" stroke="black" width="7" x="150" y="1013" /><text dominant-baseline="middle" fill="white" font-family="Arial" font-size="5.25px" transform="rotate(-90,153.5,1283)" x="153.5" y="1283">Revolution</text><rect class="bookcase-book" fill="#F9E9B8" height="203" id="book-16455" stroke="black" width="24" x="157" y="1084" /><text dominant-baseline="middle" fill="black" font-family="Arial" font-size="18px" transform="rotate(-90,169.0,1283)" x="169.0" y="1283">Turing's Cathedral</text><rect class="bookcase-book" fill="#C4C7C8" height="240" id="book-13439" stroke="black" width="38" x="181" y="1047" /><text dominant-baseline="middle" fill="black" font-family="Arial" font-size="18px" transform="rotate(-90,200.0,1283)" x="200.0" y="1283">Computer Networking</text><rect class="bookcase-book" fill="#1A181A" height="26" id="book-16611" stroke="black" width="217" x="219" y="1261" /><text dominant-baseline="middle" fill="white" font-family="Arial" font-size="18px" x="219" y="1274.0">The Filter Bubble</text><rect class="bookcase-book" fill="#CCCDCD" height="232" id="book-13445" stroke="black" width="43" x="219" y="1029" /><text dominant-baseline="middle" fill="black" font-family="Arial" font-size="18px" transform="rotate(-90,240.5,1257)" x="240.5" y="1257">Data Abstraction &amp; Problem </text><rect class="bookcase-book" fill="#F3F3F2" height="235" id="book-13629" stroke="black" width="20" x="262" y="1026" /><text dominant-baseline="middle" fill="black" font-family="Arial" font-size="15.0px" transform="rotate(-90,272.0,1257)" x="272.0" y="1257">Programming for the Absolute Beg</text><rect class="bookcase-book" fill="#14304A" height="240" id="book-13380" stroke="black" width="28" x="282" y="1021" /><text dominant-baseline="middle" fill="white" font-family="Arial" font-size="18px" transform="rotate(-90,296.0,1257)" x="296.0" y="1257">Analysis of Algorithms</text><rect class="bookcase-book" fill="#3B313C" height="240" id="book-13655" stroke="black" width="49" x="310" y="1021" /><text dominant-baseline="middle" fill="white" font-family="Arial" font-size="18px" transform="rotate(-90,334.5,1257)" x="334.5" y="1257">Software Engineering</text><rect class="bookcase-book" fill="#B8B3AE" height="261" id="book-16614" stroke="black" width="36" x="359" y="1000" /><text dominant-baseline="middle" fill="black" font-family="Arial" font-size="18px" transform="rotate(-90,377.0,1257)" x="377.0" y="1257">Introduction to Mathematical Pr</text><rect class="bookcase-book" fill="#EBE3D4" height="217" id="book-20232" stroke="black" width="23" x="395" y="1044" /><text dominant-baseline="middle" fill="black" font-family="Arial" font-size="17.25px" transform="rotate(-90,406.5,1257)" x="406.5" y="1257">Algorithms on Graphs</text><rect class="bookcase-book" fill="#C7AFA0" height="234" id="book-13502" stroke="black" width="35" x="436" y="1053" /><text dominant-baseline="middle" fill="black" font-family="Arial" font-size="18px" transform="rotate(-90,453.5,1283)" x="453.5" y="1283">Headfirst Java</text><rect class="bookcase-book" fill="#B9DBE8" height="234" id="book-14803" stroke="black" width="20" x="471" y="1053" /><text dominant-baseline="middle" fill="black" font-family="Arial" font-size="15.0px" transform="rotate(-90,481.0,1283)" x="481.0" y="1283">Learning Perl</text><rect class="bookcase-book" fill="#2A19D0" height="234" id="book-13548" stroke="black" width="23" x="491" y="1053" /><text dominant-baseline="middle" fill="white" font-family="Arial" font-size="17.25px" transform="rotate(-90,502.5,1283)" x="502.5" y="1283">Learning Ext Js 4</text><rect class="bookcase-book" fill="#2720C0" height="234" id="book-13651" stroke="black" width="32" x="514" y="1053" /><text dominant-baseline="middle" fill="white" font-family="Arial" font-size="18px" transform="rotate(-90,530.0,1283)" x="530.0" y="1283">Semantics of Programming </text><rect class="bookcase-book" fill="#7B1F00" height="280" id="book-13528" stroke="black" width="30" x="546" y="1007" /><text dominant-baseline="middle" fill="white" font-family="Arial" font-size="18px" transform="rotate(-90,561.0,1283)" x="561.0" y="1283">Introduction to Programming Usin</text><rect class="bookcase-book" fill="#7D2B00" height="234" id="book-22485" stroke="black" width="42" x="576" y="1053" /><text dominant-baseline="middle" fill="white" font-family="Arial" font-size="18px" transform="rotate(-90,597.0,1283)" x="597.0" y="1283">JUnit Recipes</text><rect class="bookcase-book" fill="#E5DDDE" height="228" id="book-20499" stroke="black" width="30" x="618" y="1059" /><text dominant-baseline="middle" fill="black" font-family="Arial" font-size="18px" transform="rotate(-90,633.0,1283)" x="633.0" y="1283">Learning Perl</text><rect class="bookcase-book" fill="#DEE4E8" height="235" id="book-13631" stroke="black" width="35" x="648" y="1052" /><text dominant-baseline="middle" fill="black" font-family="Arial" font-size="18px" transform="rotate(-90,665.5,1283)" x="665.5" y="1283">Programming Language Pra</text><rect class="bookcase-book" fill="#3D4B62" height="240" id="book-13440" stroke="black" width="33" x="683" y="1047" /><text dominant-baseline="middle" fill="white" font-family="Arial" font-size="18px" transform="rotate(-90,699.5,1283)" x="699.5" y="1283">Concepts of Programming La</text><rect class="bookcase-book" fill="#F2F2F4" height="228" id="book-13630" stroke="black" width="25" x="716" y="1059" /><text dominant-baseline="middle" fill="black" font-family="Arial" font-size="18px" transform="rotate(-90,728.5,1283)" x="728.5" y="1283">Programming in Go</text><rect height="319" width="20" x="50" y="1287" /><rect height="319" width="20" x="788" y="1287" /><rect height="20" width="718" x="70" y="1287" /><rect height="20" width="758" x="50" y="1606" /><rect class="bookcase-book" fill="#F7C938" height="235" id="book-13400" stroke="black" width="35" x="84" y="1371" /><text dominant-baseline="middle" fill="black" font-family="Arial" font-size="18px" transform="rotate(-90,101.5,1602)" x="101.5" y="1602">Beginning Ruby</text><rect class="bookcase-book" fill="#1F1627" height="230" id="book-13399" stroke="black" width="25" x="119" y="1376" /><text dominant-baseline="middle" fill="white" font-family="Arial" font-size="18px" transform="rotate(-90,131.5,1602)" x="131.5" y="1602">Beginning C++ Through Ga</text><rect class="bookcase-book" fill="#942E1E" height="12" id="book-13830" stroke="black" width="230" x="144" y="1594" /><text dominant-baseline="middle" fill="white" font-family="Arial" font-size="9.0px" x="144" y="1600.0">The Little SAS Book</text><rect class="bookcase-book" fill="#F3B660" height="254" id="book-13663" stroke="black" width="45" x="144" y="1340" /><text dominant-baseline="middle" fill="black" font-family="Arial" font-size="18px" transform="rotate(-90,166.5,1590)" x="166.5" y="1590">Starting out With Java</text><rect class="bookcase-book" fill="#DDC8D7" height="235" id="book-13550" stroke="black" width="30" x="189" y="1359" /><text dominant-baseline="middle" fill="black" font-family="Arial" font-size="18px" transform="rotate(-90,204.0,1590)" x="204.0" y="1590">Learning the Vi and Vim Edit</text><rect class="bookcase-book" fill="#B3B1B2" height="252" id="book-26433" stroke="black" width="13" x="219" y="1342" /><text dominant-baseline="middle" fill="black" font-family="Arial" font-size="9.75px" transform="rotate(-90,225.5,1590)" x="225.5" y="1590">Introduction to Excel</text><rect class="bookcase-book" fill="#484838" height="235" id="book-13555" stroke="black" width="42" x="232" y="1359" /><text dominant-baseline="middle" fill="white" font-family="Arial" font-size="18px" transform="rotate(-90,253.0,1590)" x="253.0" y="1590">Linux Bible</text><rect class="bookcase-book" fill="#776F73" height="235" id="book-13549" stroke="black" width="18" x="274" y="1359" /><text dominant-baseline="middle" fill="white" font-family="Arial" font-size="13.5px" transform="rotate(-90,283.0,1590)" x="283.0" y="1590">Learning the Bash Shell</text><rect class="bookcase-book" fill="#4C4642" height="235" id="book-26235" stroke="black" width="20" x="292" y="1359" /><text dominant-baseline="middle" fill="white" font-family="Arial" font-size="15.0px" transform="rotate(-90,302.0,1590)" x="302.0" y="1590">High Performance MySQL</text><rect class="bookcase-book" fill="#DBDAD5" height="235" id="book-22484" stroke="black" width="22" x="312" y="1359" /><text dominant-baseline="middle" fill="black" font-family="Arial" font-size="16.5px" transform="rotate(-90,323.0,1590)" x="323.0" y="1590">The Data Asset</text><rect class="bookcase-book" fill="#8609C0" height="244" id="book-13354" stroke="black" width="39" x="334" y="1350" /><text dominant-baseline="middle" fill="white" font-family="Arial" font-size="18px" transform="rotate(-90,353.5,1590)" x="353.5" y="1590">A First Course in Database S</text><rect class="bookcase-book" fill="#E37B1B" height="231" id="book-13446" stroke="black" width="27" x="374" y="1375" /><text dominant-baseline="middle" fill="black" font-family="Arial" font-size="18px" transform="rotate(-90,387.5,1602)" x="387.5" y="1602">Data Structures</text><rect class="bookcase-book" fill="#9A9491" height="242" id="book-22486" stroke="black" width="22" x="401" y="1364" /><text dominant-baseline="middle" fill="black" font-family="Arial" font-size="16.5px" transform="rotate(-90,412.0,1602)" x="412.0" y="1602">File Organization and Processin</text><rect class="bookcase-book" fill="#715757" height="233" id="book-13421" stroke="black" width="17" x="423" y="1373" /><text dominant-baseline="middle" fill="white" font-family="Arial" font-size="12.75px" transform="rotate(-90,431.5,1602)" x="431.5" y="1602">Cassandra</text><rect class="bookcase-book" fill="#625052" height="233" id="book-13498" stroke="black" width="35" x="440" y="1373" /><text dominant-baseline="middle" fill="white" font-family="Arial" font-size="18px" transform="rotate(-90,457.5,1602)" x="457.5" y="1602">Hadoop</text><rect class="bookcase-book" fill="#16292D" height="19" id="book-16345" stroke="black" width="198" x="475" y="1587" /><text dominant-baseline="middle" fill="white" font-family="Arial" font-size="14.25px" x="475" y="1596.5">How to Disappear</text><rect class="bookcase-book" fill="#646259" height="236" id="book-23128" stroke="black" width="32" x="475" y="1351" /><text dominant-baseline="middle" fill="white" font-family="Arial" font-size="18px" transform="rotate(-90,491.0,1583)" x="491.0" y="1583">Dignity in a Digital Age</text><rect class="bookcase-book" fill="#86867B" height="196" id="book-20795" stroke="black" width="22" x="507" y="1391" /><text dominant-baseline="middle" fill="black" font-family="Arial" font-size="16.5px" transform="rotate(-90,518.0,1583)" x="518.0" y="1583">Superintelligence</text><rect class="bookcase-book" fill="#C2C5C0" height="260" id="book-13387" stroke="black" width="51" x="529" y="1327" /><text dominant-baseline="middle" fill="black" font-family="Arial" font-size="18px" transform="rotate(-90,554.5,1583)" x="554.5" y="1583">Artificial Intelligence</text><rect class="bookcase-book" fill="#C72236" height="235" id="book-13563" stroke="black" width="16" x="580" y="1352" /><text dominant-baseline="middle" fill="white" font-family="Arial" font-size="12.0px" transform="rotate(-90,588.0,1583)" x="588.0" y="1583">Machine Learning for Hackers</text><rect class="bookcase-book" fill="#A19178" height="235" id="book-13827" stroke="black" width="20" x="596" y="1352" /><text dominant-baseline="middle" fill="black" font-family="Arial" font-size="15.0px" transform="rotate(-90,606.0,1583)" x="606.0" y="1583">Data Mining</text><rect class="bookcase-book" fill="#F6B369" height="235" id="book-13628" stroke="black" width="28" x="616" y="1352" /><text dominant-baseline="middle" fill="black" font-family="Arial" font-size="18px" transform="rotate(-90,630.0,1583)" x="630.0" y="1583">Principles of Data Mining</text><rect class="bookcase-book" fill="#4E5358" height="240" id="book-13828" stroke="black" width="26" x="644" y="1347" /><text dominant-baseline="middle" fill="white" font-family="Arial" font-size="18px" transform="rotate(-90,657.0,1583)" x="657.0" y="1583">Data Mining</text><rect class="bookcase-book" fill="#E4DACF" height="254" id="book-13526" stroke="black" width="31" x="673" y="1352" /><text dominant-baseline="middle" fill="black" font-family="Arial" font-size="18px" transform="rotate(-90,688.5,1602)" x="688.5" y="1602">Introduction to Data Mining</text><rect class="bookcase-book" fill="#3438F0" height="227" id="book-13829" stroke="black" width="21" x="704" y="1379" /><text dominant-baseline="middle" fill="white" font-family="Arial" font-size="15.75px" transform="rotate(-90,714.5,1602)" x="714.5" y="1602">Machine Learning</text><rect class="bookcase-book" fill="#368051" height="235" id="book-13821" stroke="black" width="21" x="725" y="1371" /><text dominant-baseline="middle" fill="white" font-family="Arial" font-size="15.75px" transform="rotate(-90,735.5,1602)" x="735.5" y="1602">Mathematical Logic for Compute</text><rect class="bookcase-book" fill="#A6A7A7" height="235" id="book-13822" stroke="black" width="26" x="746" y="1371" /><text dominant-baseline="middle" fill="black" font-family="Arial" font-size="18px" transform="rotate(-90,759.0,1602)" x="759.0" y="1602">Logic for Computer Science</text><rect height="292" width="20" x="50" y="1606" /><rect height="292" width="20" x="788" y="1606" /><rect height="20" width="718" x="70" y="1606" /><rect height="20" width="758" x="50" y="1898" /><rect height="295" width="20" x="50" y="1898" /><rect height="295" width="20" x="788" y="1898" /><rect height="20" width="718" x="70" y="1898" /><rect height="20" width="758" x="50" y="2193" /><rect class="bookcase-book" fill="#628B30" height="245" id="book-13560" stroke="black" width="26" x="84" y="1948" /><text dominant-baseline="middle" fill="white" font-family="Arial" font-size="18px" transform="rotate(-90,97.0,2189)" x="97.0" y="2189">Logic in Computer Science</text><rect class="bookcase-book" fill="#B6BABB" height="241" id="book-13820" stroke="black" width="32" x="110" y="1952" /><text dominant-baseline="middle" fill="black" font-family="Arial" font-size="18px" transform="rotate(-90,126.0,2189)" x="126.0" y="2189">Logic for Applications</text><rect class="bookcase-book" fill="#807575" height="233" id="book-13584" stroke="black" width="27" x="142" y="1960" /><text dominant-baseline="middle" fill="white" font-family="Arial" font-size="18px" transform="rotate(-90,155.5,2189)" x="155.5" y="2189">Natural Language Processin</text><rect class="bookcase-book" fill="#233A3C" height="230" id="book-13414" stroke="black" width="18" x="169" y="1963" /><text dominant-baseline="middle" fill="white" font-family="Arial" font-size="13.5px" transform="rotate(-90,178.0,2189)" x="178.0" y="2189">Building Natural Language Generatio</text><rect class="bookcase-book" fill="#6D4D22" height="243" id="book-13659" stroke="black" width="39" x="187" y="1950" /><text dominant-baseline="middle" fill="white" font-family="Arial" font-size="18px" transform="rotate(-90,206.5,2189)" x="206.5" y="2189">Speech and Language Proce</text><rect class="bookcase-book" fill="#4C3D21" height="236" id="book-13375" stroke="black" width="17" x="226" y="1957" /><text dominant-baseline="middle" fill="white" font-family="Arial" font-size="12.75px" transform="rotate(-90,234.5,2189)" x="234.5" y="2189">AJAX and PHP</text><rect class="bookcase-book" fill="#A17DCB" height="228" id="book-13416" stroke="black" width="10" x="243" y="1965" /><text dominant-baseline="middle" fill="black" font-family="Arial" font-size="7.5px" transform="rotate(-90,248.0,2189)" x="248.0" y="2189">Bulletproof Ajax</text><rect class="bookcase-book" fill="#CEC4BE" height="247" id="book-13804" stroke="black" width="41" x="253" y="1946" /><text dominant-baseline="middle" fill="black" font-family="Arial" font-size="18px" transform="rotate(-90,273.5,2189)" x="273.5" y="2189">Web Programming Step By St</text><rect class="bookcase-book" fill="#85482D" height="255" id="book-13318" stroke="black" width="45" x="294" y="1938" /><text dominant-baseline="middle" fill="white" font-family="Arial" font-size="18px" transform="rotate(-90,316.5,2189)" x="316.5" y="2189">The World Book Encyclopedia</text><rect class="bookcase-book" fill="#8F392C" height="255" id="book-13319" stroke="black" width="32" x="339" y="1938" /><text dominant-baseline="middle" fill="white" font-family="Arial" font-size="18px" transform="rotate(-90,355.0,2189)" x="355.0" y="2189">The World Book Encyclopedia</text><rect class="bookcase-book" fill="#924635" height="255" id="book-13320" stroke="black" width="26" x="371" y="1938" /><text dominant-baseline="middle" fill="white" font-family="Arial" font-size="18px" transform="rotate(-90,384.0,2189)" x="384.0" y="2189">The World Book Encyclopedia</text><rect class="bookcase-book" fill="#9D4835" height="255" id="book-13321" stroke="black" width="29" x="397" y="1938" /><text dominant-baseline="middle" fill="white" font-family="Arial" font-size="18px" transform="rotate(-90,411.5,2189)" x="411.5" y="2189">The World Book Encyclopedia</text><rect class="bookcase-book" fill="#954432" height="255" id="book-13322" stroke="black" width="20" x="426" y="1938" /><text dominant-baseline="middle" fill="white" font-family="Arial" font-size="15.0px" transform="rotate(-90,436.0,2189)" x="436.0" y="2189">The World Book Encyclopedia</text><rect class="bookcase-book" fill="#954635" height="255" id="book-13323" stroke="black" width="23" x="446" y="1938" /><text dominant-baseline="middle" fill="white" font-family="Arial" font-size="17.25px" transform="rotate(-90,457.5,2189)" x="457.5" y="2189">The World Book Encyclopedia</text><rect class="bookcase-book" fill="#A24337" height="255" id="book-13324" stroke="black" width="29" x="469" y="1938" /><text dominant-baseline="middle" fill="white" font-family="Arial" font-size="18px" transform="rotate(-90,483.5,2189)" x="483.5" y="2189">The World Book Encyclopedia</text><rect class="bookcase-book" fill="#9F3C35" height="255" id="book-13325" stroke="black" width="23" x="498" y="1938" /><text dominant-baseline="middle" fill="white" font-family="Arial" font-size="17.25px" transform="rotate(-90,509.5,2189)" x="509.5" y="2189">The World Book Encyclopedia</text><rect class="bookcase-book" fill="#914137" height="255" id="book-13326" stroke="black" width="24" x="521" y="1938" /><text dominant-baseline="middle" fill="white" font-family="Arial" font-size="18px" transform="rotate(-90,533.0,2189)" x="533.0" y="2189">The World Book Encyclopedia</text><rect class="bookcase-book" fill="#993F34" height="255" id="book-13327" stroke="black" width="25" x="545" y="1938" /><text dominant-baseline="middle" fill="white" font-family="Arial" font-size="18px" transform="rotate(-90,557.5,2189)" x="557.5" y="2189">The World Book Encyclopedia</text><rect class="bookcase-book" fill="#994333" height="255" id="book-13328" stroke="black" width="21" x="570" y="1938" /><text dominant-baseline="middle" fill="white" font-family="Arial" font-size="15.75px" transform="rotate(-90,580.5,2189)" x="580.5" y="2189">The World Book Encyclopedia</text><rect class="bookcase-book" fill="#A34136" height="255" id="book-13329" stroke="black" width="26" x="591" y="1938" /><text dominant-baseline="middle" fill="white" font-family="Arial" font-size="18px" transform="rotate(-90,604.0,2189)" x="604.0" y="2189">The World Book Encyclopedia</text><rect class="bookcase-book" fill="#A44339" height="255" id="book-13330" stroke="black" width="43" x="617" y="1938" /><text dominant-baseline="middle" fill="white" font-family="Arial" font-size="18px" transform="rotate(-90,638.5,2189)" x="638.5" y="2189">The World Book Encyclopedia</text><rect class="bookcase-book" fill="#983C2E" height="255" id="book-13331" stroke="black" width="39" x="660" y="1938" /><text dominant-baseline="middle" fill="white" font-family="Arial" font-size="18px" transform="rotate(-90,679.5,2189)" x="679.5" y="2189">The World Book Encyclopedia</text><rect class="bookcase-book" fill="#943F2D" height="255" id="book-13332" stroke="black" width="40" x="699" y="1938" /><text dominant-baseline="middle" fill="white" font-family="Arial" font-size="18px" transform="rotate(-90,719.0,2189)" x="719.0" y="2189">The World Book Encyclopedia</text><rect class="bookcase-book" fill="#913C30" height="255" id="book-13333" stroke="black" width="29" x="739" y="1938" /><text dominant-baseline="middle" fill="white" font-family="Arial" font-size="18px" transform="rotate(-90,753.5,2189)" x="753.5" y="2189">The World Book Encyclopedia</text><rect height="307" width="20" x="50" y="2193" /><rect height="307" width="20" x="788" y="2193" /><rect height="20" width="718" x="70" y="2193" /><rect height="20" width="758" x="50" y="2500" /><rect class="bookcase-book" fill="#964134" height="255" id="book-13334" stroke="black" width="26" x="84" y="2245" /><text dominant-baseline="middle" fill="white" font-family="Arial" font-size="18px" transform="rotate(-90,97.0,2496)" x="97.0" y="2496">The World Book Encyclopedia</text><rect class="bookcase-book" fill="#9B3F31" height="255" id="book-13335" stroke="black" width="26" x="110" y="2245" /><text dominant-baseline="middle" fill="white" font-family="Arial" font-size="18px" transform="rotate(-90,123.0,2496)" x="123.0" y="2496">The World Book Encyclopedia</text><rect class="bookcase-book" fill="#BC5F48" height="255" id="book-13336" stroke="black" width="25" x="136" y="2245" /><text dominant-baseline="middle" fill="white" font-family="Arial" font-size="18px" transform="rotate(-90,148.5,2496)" x="148.5" y="2496">The World Book Encyclopedia</text><rect class="bookcase-book" fill="#A84C33" height="255" id="book-13337" stroke="black" width="23" x="161" y="2245" /><text dominant-baseline="middle" fill="white" font-family="Arial" font-size="17.25px" transform="rotate(-90,172.5,2496)" x="172.5" y="2496">The World Book Encyclopedia</text><rect class="bookcase-book" fill="#924128" height="255" id="book-13338" stroke="black" width="30" x="184" y="2245" /><text dominant-baseline="middle" fill="white" font-family="Arial" font-size="18px" transform="rotate(-90,199.0,2496)" x="199.0" y="2496">The World Book Encyclopedia</text><rect class="bookcase-book" fill="#AB4730" height="255" id="book-13339" stroke="black" width="44" x="214" y="2245" /><text dominant-baseline="middle" fill="white" font-family="Arial" font-size="18px" transform="rotate(-90,236.0,2496)" x="236.0" y="2496">The World Book Encyclopedia</text><rect class="bookcase-book" fill="#D4CEB4" height="217" id="book-16748" stroke="black" width="23" x="258" y="2283" /><text dominant-baseline="middle" fill="black" font-family="Arial" font-size="17.25px" transform="rotate(-90,269.5,2496)" x="269.5" y="2496">The Book of General Ignora</text><rect class="bookcase-book" fill="#E8E7DE" height="202" id="book-22249" stroke="black" width="17" x="281" y="2298" /><text dominant-baseline="middle" fill="black" font-family="Arial" font-size="12.75px" transform="rotate(-90,289.5,2496)" x="289.5" y="2496">The Amazing Book of Useless Info</text><rect class="bookcase-book" fill="#E5E5DE" height="202" id="book-22070" stroke="black" width="15" x="298" y="2298" /><text dominant-baseline="middle" fill="black" font-family="Arial" font-size="11.25px" transform="rotate(-90,305.5,2496)" x="305.5" y="2496">The Best Book of Useless Information</text><rect class="bookcase-book" fill="#9F2325" height="202" id="book-22073" stroke="black" width="20" x="313" y="2298" /><text dominant-baseline="middle" fill="white" font-family="Arial" font-size="15.0px" transform="rotate(-90,323.0,2496)" x="323.0" y="2496">The Book of Useless Informat</text><rect class="bookcase-book" fill="#EAE8E5" height="202" id="book-22248" stroke="black" width="18" x="333" y="2298" /><text dominant-baseline="middle" fill="black" font-family="Arial" font-size="13.5px" transform="rotate(-90,342.0,2496)" x="342.0" y="2496">The Essential Book of Useless I</text><rect class="bookcase-book" fill="#B4A38C" height="202" id="book-22069" stroke="black" width="16" x="351" y="2298" /><text dominant-baseline="middle" fill="black" font-family="Arial" font-size="12.0px" transform="rotate(-90,359.0,2496)" x="359.0" y="2496">The Extraordinary Book of Useless I</text><rect class="bookcase-book" fill="#F3F1DA" height="202" id="book-22216" stroke="black" width="18" x="367" y="2298" /><text dominant-baseline="middle" fill="black" font-family="Arial" font-size="13.5px" transform="rotate(-90,376.0,2496)" x="376.0" y="2496">The Incredible Book of Useless I</text><rect class="bookcase-book" fill="#EAEAE4" height="202" id="book-22251" stroke="black" width="18" x="385" y="2298" /><text dominant-baseline="middle" fill="black" font-family="Arial" font-size="13.5px" transform="rotate(-90,394.0,2496)" x="394.0" y="2496">The Indispensable Book of Usel</text><rect class="bookcase-book" fill="#EEEBE2" height="202" id="book-22071" stroke="black" width="18" x="403" y="2298" /><text dominant-baseline="middle" fill="black" font-family="Arial" font-size="13.5px" transform="rotate(-90,412.0,2496)" x="412.0" y="2496">The Super Book of Useless Infor</text><rect class="bookcase-book" fill="#D6C7B3" height="202" id="book-22250" stroke="black" width="14" x="421" y="2298" /><text dominant-baseline="middle" fill="black" font-family="Arial" font-size="10.5px" transform="rotate(-90,428.0,2496)" x="428.0" y="2496">The Ultimate Book of Useless Information</text><rect class="bookcase-book" fill="#EBEFE3" height="14" id="book-22068" stroke="black" width="202" x="435" y="2486" /><text dominant-baseline="middle" fill="black" font-family="Arial" font-size="10.5px" x="435" y="2493.0">The World's Greatest Book of Useless Info</text><rect class="bookcase-book" fill="#E72533" height="254" id="book-22371" stroke="black" width="28" x="435" y="2232" /><text dominant-baseline="middle" fill="white" font-family="Arial" font-size="18px" transform="rotate(-90,449.0,2482)" x="449.0" y="2482">The Dangerous Book for Boys</text><rect class="bookcase-book" fill="#A7A8A5" height="225" id="book-21494" stroke="black" width="2" x="463" y="2261" /><text dominant-baseline="middle" fill="black" font-family="Arial" font-size="1.5px" transform="rotate(-90,464.0,2482)" x="464.0" y="2482">Parliamentary Law</text><rect class="bookcase-book" fill="#126B89" height="199" id="book-21176" stroke="black" width="8" x="465" y="2287" /><text dominant-baseline="middle" fill="white" font-family="Arial" font-size="6.0px" transform="rotate(-90,469.0,2482)" x="469.0" y="2482">Mister/Madam Chairman</text><rect class="bookcase-book" fill="#943F24" height="165" id="book-21171" stroke="black" width="35" x="473" y="2321" /><text dominant-baseline="middle" fill="white" font-family="Arial" font-size="18px" transform="rotate(-90,490.5,2482)" x="490.5" y="2482">Robert's Rules of O</text><rect class="bookcase-book" fill="#715C5A" height="175" id="book-21172" stroke="black" width="15" x="508" y="2311" /><text dominant-baseline="middle" fill="white" font-family="Arial" font-size="11.25px" transform="rotate(-90,515.5,2482)" x="515.5" y="2482">Robert's Rules of Order</text><rect class="bookcase-book" fill="#388500" height="242" id="book-20293" stroke="black" width="46" x="523" y="2244" /><text dominant-baseline="middle" fill="white" font-family="Arial" font-size="18px" transform="rotate(-90,546.0,2482)" x="546.0" y="2482">Respectfully Quoted</text><rect class="bookcase-book" fill="#99EDEA" height="242" id="book-22297" stroke="black" width="54" x="569" y="2244" /><text dominant-baseline="middle" fill="black" font-family="Arial" font-size="18px" transform="rotate(-90,596.0,2482)" x="596.0" y="2482">Quotationary</text><rect class="bookcase-book" fill="#F7E090" height="203" id="book-16362" stroke="black" width="18" x="637" y="2297" /><text dominant-baseline="middle" fill="black" font-family="Arial" font-size="13.5px" transform="rotate(-90,646.0,2496)" x="646.0" y="2496">The Pig the Wants to Be Eaten</text><rect class="bookcase-book" fill="#473B2E" height="213" id="book-21181" stroke="black" width="10" x="655" y="2287" /><text dominant-baseline="middle" fill="white" font-family="Arial" font-size="7.5px" transform="rotate(-90,660.0,2496)" x="660.0" y="2496">Uncertain Men and Certain Change</text><rect class="bookcase-book" fill="#3F3B44" height="235" id="book-21341" stroke="black" width="27" x="665" y="2265" /><text dominant-baseline="middle" fill="white" font-family="Arial" font-size="18px" transform="rotate(-90,678.5,2496)" x="678.5" y="2496">Philosophies Men Live By</text><rect class="bookcase-book" fill="#413530" height="229" id="book-16720" stroke="black" width="53" x="692" y="2271" /><text dominant-baseline="middle" fill="white" font-family="Arial" font-size="18px" transform="rotate(-90,718.5,2496)" x="718.5" y="2496">The Oxford Companion to P</text><rect height="290" width="20" x="50" y="2500" /><rect height="290" width="20" x="788" y="2500" /><rect height="20" width="718" x="70" y="2500" /><rect height="20" width="758" x="50" y="2790" /><rect class="bookcase-book" fill="#DCCAA5" height="242" id="book-19091" stroke="black" width="31" x="84" y="2548" /><text dominant-baseline="middle" fill="black" font-family="Arial" font-size="18px" transform="rotate(-90,99.5,2786)" x="99.5" y="2786">Life's Ultimate Questions</text><rect class="bookcase-book" fill="#43F200" height="235" id="book-13610" stroke="black" width="30" x="115" y="2555" /><text dominant-baseline="middle" fill="black" font-family="Arial" font-size="18px" transform="rotate(-90,130.0,2786)" x="130.0" y="2786">Philosophy</text><rect class="bookcase-book" fill="#525F55" height="204" id="book-16381" stroke="black" width="21" x="145" y="2586" /><text dominant-baseline="middle" fill="white" font-family="Arial" font-size="15.75px" transform="rotate(-90,155.5,2786)" x="155.5" y="2786">501 Things You Should Hav</text><rect class="bookcase-book" fill="#8E7AA4" height="228" id="book-22138" stroke="black" width="14" x="166" y="2562" /><text dominant-baseline="middle" fill="black" font-family="Arial" font-size="10.5px" transform="rotate(-90,173.0,2786)" x="173.0" y="2786">Philosophy</text><rect class="bookcase-book" fill="#A4877B" height="201" id="book-22442" stroke="black" width="19" x="180" y="2589" /><text dominant-baseline="middle" fill="black" font-family="Arial" font-size="14.25px" transform="rotate(-90,189.5,2786)" x="189.5" y="2786">This is Not a Book</text><rect class="bookcase-book" fill="#2D231C" height="211" id="book-19092" stroke="black" width="20" x="199" y="2579" /><text dominant-baseline="middle" fill="white" font-family="Arial" font-size="15.0px" transform="rotate(-90,209.0,2786)" x="209.0" y="2786">The Concise Encyclopedia of </text><rect class="bookcase-book" fill="#D0D2D7" height="234" id="book-19093" stroke="black" width="23" x="219" y="2556" /><text dominant-baseline="middle" fill="black" font-family="Arial" font-size="17.25px" transform="rotate(-90,230.5,2786)" x="230.5" y="2786">A Short History of Philosophy</text><rect class="bookcase-book" fill="#373B3A" height="228" id="book-16329" stroke="black" width="43" x="242" y="2562" /><text dominant-baseline="middle" fill="white" font-family="Arial" font-size="18px" transform="rotate(-90,263.5,2786)" x="263.5" y="2786">The Seven Mysteries of Life</text><rect class="bookcase-book" fill="#98D000" height="228" id="book-14244" stroke="black" width="18" x="285" y="2562" /><text dominant-baseline="middle" fill="black" font-family="Arial" font-size="13.5px" transform="rotate(-90,294.0,2786)" x="294.0" y="2786">The Taming of Chance</text><rect class="bookcase-book" fill="#542370" height="217" id="book-14225" stroke="black" width="7" x="303" y="2573" /><text dominant-baseline="middle" fill="white" font-family="Arial" font-size="5.25px" transform="rotate(-90,306.5,2786)" x="306.5" y="2786">The Ego and the Id</text><rect class="bookcase-book" fill="#CB6318" height="228" id="book-22139" stroke="black" width="14" x="310" y="2562" /><text dominant-baseline="middle" fill="white" font-family="Arial" font-size="10.5px" transform="rotate(-90,317.0,2786)" x="317.0" y="2786">Psychology</text><rect class="bookcase-book" fill="#AFC4DA" height="202" id="book-16339" stroke="black" width="27" x="324" y="2588" /><text dominant-baseline="middle" fill="black" font-family="Arial" font-size="18px" transform="rotate(-90,337.5,2786)" x="337.5" y="2786">Quirkology</text><rect class="bookcase-book" fill="#7BAC00" height="216" id="book-22564" stroke="black" width="27" x="351" y="2574" /><text dominant-baseline="middle" fill="black" font-family="Arial" font-size="18px" transform="rotate(-90,364.5,2786)" x="364.5" y="2786">Everything is Fucked</text><rect class="bookcase-book" fill="#E9857F" height="243" id="book-22140" stroke="black" width="25" x="378" y="2547" /><text dominant-baseline="middle" fill="black" font-family="Arial" font-size="18px" transform="rotate(-90,390.5,2786)" x="390.5" y="2786">Loneliness</text><rect class="bookcase-book" fill="#D6433D" height="202" id="book-22141" stroke="black" width="17" x="403" y="2588" /><text dominant-baseline="middle" fill="white" font-family="Arial" font-size="12.75px" transform="rotate(-90,411.5,2786)" x="411.5" y="2786">Emotional First Aid</text><rect class="bookcase-book" fill="#EBDCBE" height="210" id="book-16468" stroke="black" width="16" x="420" y="2580" /><text dominant-baseline="middle" fill="black" font-family="Arial" font-size="12.0px" transform="rotate(-90,428.0,2786)" x="428.0" y="2786">The Expression of Emotions in Man a</text><rect class="bookcase-book" fill="#F0DBB2" height="204" id="book-21414" stroke="black" width="11" x="436" y="2586" /><text dominant-baseline="middle" fill="black" font-family="Arial" font-size="8.25px" transform="rotate(-90,441.5,2786)" x="441.5" y="2786">Emotions</text><rect class="bookcase-book" fill="#DC3456" height="208" id="book-20798" stroke="black" width="23" x="447" y="2582" /><text dominant-baseline="middle" fill="white" font-family="Arial" font-size="17.25px" transform="rotate(-90,458.5,2786)" x="458.5" y="2786">So You've Been Publicly S</text><rect class="bookcase-book" fill="#D6D6D6" height="202" id="book-22080" stroke="black" width="16" x="470" y="2588" /><text dominant-baseline="middle" fill="black" font-family="Arial" font-size="12.0px" transform="rotate(-90,478.0,2786)" x="478.0" y="2786">Laughter</text><rect class="bookcase-book" fill="#7F1D1B" height="216" id="book-20738" stroke="black" width="22" x="486" y="2574" /><text dominant-baseline="middle" fill="white" font-family="Arial" font-size="16.5px" transform="rotate(-90,497.0,2786)" x="497.0" y="2786">StandOut 2.0</text><rect class="bookcase-book" fill="#DB6F34" height="29" id="book-22081" stroke="black" width="197" x="508" y="2761" /><text dominant-baseline="middle" fill="black" font-family="Arial" font-size="18px" x="508" y="2775.5">The Act of Creation</text><rect class="bookcase-book" fill="#FAF9F1" height="202" id="book-16356" stroke="black" width="18" x="508" y="2559" /><text dominant-baseline="middle" fill="black" font-family="Arial" font-size="13.5px" transform="rotate(-90,517.0,2757)" x="517.0" y="2757">The 7 Laws of Magical Thinking</text><rect class="bookcase-book" fill="#154061" height="202" id="book-13575" stroke="black" width="16" x="526" y="2559" /><text dominant-baseline="middle" fill="white" font-family="Arial" font-size="12.0px" transform="rotate(-90,534.0,2757)" x="534.0" y="2757">Mindset</text><rect class="bookcase-book" fill="#FAF8F6" height="217" id="book-20800" stroke="black" width="23" x="542" y="2544" /><text dominant-baseline="middle" fill="black" font-family="Arial" font-size="17.25px" transform="rotate(-90,553.5,2757)" x="553.5" y="2757">Essentialism</text><rect class="bookcase-book" fill="#B9B89C" height="210" id="book-14192" stroke="black" width="21" x="565" y="2551" /><text dominant-baseline="middle" fill="black" font-family="Arial" font-size="15.75px" transform="rotate(-90,575.5,2757)" x="575.5" y="2757">The Mismeasure of Man</text><rect class="bookcase-book" fill="#F8F12C" height="202" id="book-16496" stroke="black" width="16" x="586" y="2559" /><text dominant-baseline="middle" fill="black" font-family="Arial" font-size="12.0px" transform="rotate(-90,594.0,2757)" x="594.0" y="2757">Incognito</text><rect class="bookcase-book" fill="#22C000" height="202" id="book-22131" stroke="black" width="21" x="602" y="2559" /><text dominant-baseline="middle" fill="white" font-family="Arial" font-size="15.75px" transform="rotate(-90,612.5,2757)" x="612.5" y="2757">Subliminal</text><rect class="bookcase-book" fill="#E5ECC5" height="216" id="book-16346" stroke="black" width="18" x="623" y="2545" /><text dominant-baseline="middle" fill="black" font-family="Arial" font-size="13.5px" transform="rotate(-90,632.0,2757)" x="632.0" y="2757">Boredom</text><rect class="bookcase-book" fill="#4A77B2" height="129" id="book-16756" stroke="black" width="44" x="641" y="2632" /><text dominant-baseline="middle" fill="white" font-family="Arial" font-size="18px" transform="rotate(-90,663.0,2757)" x="663.0" y="2757">1001 Dreams</text><rect class="bookcase-book" fill="#E3CC9D" height="208" id="book-14226" stroke="black" width="37" x="705" y="2582" /><text dominant-baseline="middle" fill="black" font-family="Arial" font-size="18px" transform="rotate(-90,723.5,2786)" x="723.5" y="2786">The Interpretation of Dre</text><rect class="bookcase-book" fill="#F171E0" height="243" id="book-20233" stroke="black" width="33" x="742" y="2547" /><text dominant-baseline="middle" fill="black" font-family="Arial" font-size="18px" transform="rotate(-90,758.5,2786)" x="758.5" y="2786">Developmental Psychology</text><rect height="297" width="20" x="50" y="2790" /><rect height="297" width="20" x="788" y="2790" /><rect height="20" width="718" x="70" y="2790" /><rect height="20" width="758" x="50" y="3087" /><rect class="bookcase-book" fill="#C0C9CD" height="182" id="book-16357" stroke="black" width="15" x="84" y="2905" /><text dominant-baseline="middle" fill="black" font-family="Arial" font-size="11.25px" transform="rotate(-90,91.5,3083)" x="91.5" y="3083">Everyone Loves a Good Train Wre</text><rect class="bookcase-book" fill="#ECD5BC" height="261" id="book-13608" stroke="black" width="33" x="99" y="2826" /><text dominant-baseline="middle" fill="black" font-family="Arial" font-size="18px" transform="rotate(-90,115.5,3083)" x="115.5" y="3083">Personality Psychology</text><rect class="bookcase-book" fill="#868583" height="203" id="book-20549" stroke="black" width="26" x="132" y="2884" /><text dominant-baseline="middle" fill="black" font-family="Arial" font-size="18px" transform="rotate(-90,145.0,3083)" x="145.0" y="3083">Quiet</text><rect class="bookcase-book" fill="#312B1D" height="242" id="book-16613" stroke="black" width="29" x="158" y="2845" /><text dominant-baseline="middle" fill="white" font-family="Arial" font-size="18px" transform="rotate(-90,172.5,3083)" x="172.5" y="3083">Personality</text><rect class="bookcase-book" fill="#6F5437" height="204" id="book-20149" stroke="black" width="14" x="187" y="2883" /><text dominant-baseline="middle" fill="white" font-family="Arial" font-size="10.5px" transform="rotate(-90,194.0,3083)" x="194.0" y="3083">Personality Plus</text><rect class="bookcase-book" fill="#E4DFD9" height="223" id="book-21413" stroke="black" width="18" x="201" y="2864" /><text dominant-baseline="middle" fill="black" font-family="Arial" font-size="13.5px" transform="rotate(-90,210.0,3083)" x="210.0" y="3083">Self-Esteem</text><rect class="bookcase-book" fill="#928571" height="215" id="book-21415" stroke="black" width="19" x="219" y="2872" /><text dominant-baseline="middle" fill="black" font-family="Arial" font-size="14.25px" transform="rotate(-90,228.5,3083)" x="228.5" y="3083">Almost Grown</text><rect class="bookcase-book" fill="#D7AF80" height="200" id="book-21416" stroke="black" width="9" x="238" y="2887" /><text dominant-baseline="middle" fill="black" font-family="Arial" font-size="6.75px" transform="rotate(-90,242.5,3083)" x="242.5" y="3083">Understanding Today's Adults</text><rect class="bookcase-book" fill="#F8FCF8" height="209" id="book-16610" stroke="black" width="18" x="247" y="2878" /><text dominant-baseline="middle" fill="black" font-family="Arial" font-size="13.5px" transform="rotate(-90,256.0,3083)" x="256.0" y="3083">The Shallows</text><rect class="bookcase-book" fill="#3A6714" height="209" id="book-22114" stroke="black" width="16" x="265" y="2878" /><text dominant-baseline="middle" fill="white" font-family="Arial" font-size="12.0px" transform="rotate(-90,273.0,3083)" x="273.0" y="3083">The Nature Fix</text><rect class="bookcase-book" fill="#D3CBC3" height="209" id="book-22754" stroke="black" width="17" x="281" y="2878" /><text dominant-baseline="middle" fill="black" font-family="Arial" font-size="12.75px" transform="rotate(-90,289.5,3083)" x="289.5" y="3083">The Antidote</text><rect class="bookcase-book" fill="#ED7845" height="229" id="book-22759" stroke="black" width="19" x="298" y="2858" /><text dominant-baseline="middle" fill="black" font-family="Arial" font-size="14.25px" transform="rotate(-90,307.5,3083)" x="307.5" y="3083">The Happiness Trap</text><rect class="bookcase-book" fill="#E0D0C0" height="181" id="book-21023" stroke="black" width="14" x="317" y="2906" /><text dominant-baseline="middle" fill="black" font-family="Arial" font-size="10.5px" transform="rotate(-90,324.0,3083)" x="324.0" y="3083">The Art of Understanding Yourself</text><rect class="bookcase-book" fill="#D7D3CF" height="178" id="book-20328" stroke="black" width="17" x="331" y="2909" /><text dominant-baseline="middle" fill="black" font-family="Arial" font-size="12.75px" transform="rotate(-90,339.5,3083)" x="339.5" y="3083">How to Be Miserable</text><rect class="bookcase-book" fill="#C16333" height="261" id="book-20526" stroke="black" width="20" x="348" y="2826" /><text dominant-baseline="middle" fill="white" font-family="Arial" font-size="15.0px" transform="rotate(-90,358.0,3083)" x="358.0" y="3083">Looking Out Looking In</text><rect class="bookcase-book" fill="#E3E6EA" height="222" id="book-13809" stroke="black" width="17" x="368" y="2865" /><text dominant-baseline="middle" fill="black" font-family="Arial" font-size="12.75px" transform="rotate(-90,376.5,3083)" x="376.5" y="3083">Whale Done!</text><rect class="bookcase-book" fill="#1C1912" height="15" id="book-13398" stroke="black" width="214" x="385" y="3072" /><text dominant-baseline="middle" fill="white" font-family="Arial" font-size="11.25px" x="385" y="3079.5">Becoming a Person of Influence</text><rect class="bookcase-book" fill="#7A4742" height="227" id="book-16512" stroke="black" width="12" x="385" y="2845" /><text dominant-baseline="middle" fill="white" font-family="Arial" font-size="9.0px" transform="rotate(-90,391.0,3068)" x="391.0" y="3068">How to Get People to Do Stuff</text><rect class="bookcase-book" fill="#131D9B" height="221" id="book-13767" stroke="black" width="17" x="397" y="2851" /><text dominant-baseline="middle" fill="white" font-family="Arial" font-size="12.75px" transform="rotate(-90,405.5,3068)" x="405.5" y="3068">The Secret</text><rect class="bookcase-book" fill="#C12190" height="221" id="book-13511" stroke="black" width="26" x="414" y="2851" /><text dominant-baseline="middle" fill="white" font-family="Arial" font-size="18px" transform="rotate(-90,427.0,3068)" x="427.0" y="3068">How to Win Friends and In</text><rect class="bookcase-book" fill="#39393F" height="241" id="book-20159" stroke="black" width="31" x="440" y="2831" /><text dominant-baseline="middle" fill="white" font-family="Arial" font-size="18px" transform="rotate(-90,455.5,3068)" x="455.5" y="3068">Leadership</text><rect class="bookcase-book" fill="#F8B534" height="235" id="book-20500" stroke="black" width="33" x="471" y="2837" /><text dominant-baseline="middle" fill="black" font-family="Arial" font-size="18px" transform="rotate(-90,487.5,3068)" x="487.5" y="3068">The Leadership Challenge</text><rect class="bookcase-book" fill="#C03C25" height="235" id="book-13673" stroke="black" width="25" x="504" y="2837" /><text dominant-baseline="middle" fill="white" font-family="Arial" font-size="18px" transform="rotate(-90,516.5,3068)" x="516.5" y="3068">The 21 Irrefutable Laws of L</text><rect class="bookcase-book" fill="#264B48" height="203" id="book-21630" stroke="black" width="9" x="529" y="2869" /><text dominant-baseline="middle" fill="white" font-family="Arial" font-size="6.75px" transform="rotate(-90,533.5,3068)" x="533.5" y="3068">Getting the Lead out of Leadership</text><rect class="bookcase-book" fill="#A3A2A7" height="234" id="book-20991" stroke="black" width="25" x="538" y="2838" /><text dominant-baseline="middle" fill="black" font-family="Arial" font-size="18px" transform="rotate(-90,550.5,3068)" x="550.5" y="3068">Leading By Design</text><rect class="bookcase-book" fill="#EE6820" height="209" id="book-13768" stroke="black" width="25" x="563" y="2863" /><text dominant-baseline="middle" fill="black" font-family="Arial" font-size="18px" transform="rotate(-90,575.5,3068)" x="575.5" y="3068">The Secret Life of Prono</text><rect class="bookcase-book" fill="#DC5634" height="190" id="book-16493" stroke="black" width="21" x="599" y="2897" /><text dominant-baseline="middle" fill="white" font-family="Arial" font-size="15.75px" transform="rotate(-90,609.5,3083)" x="609.5" y="3083">You Are Not So Smart</text><rect class="bookcase-book" fill="#F5F9F3" height="228" id="book-16332" stroke="black" width="19" x="620" y="2859" /><text dominant-baseline="middle" fill="black" font-family="Arial" font-size="14.25px" transform="rotate(-90,629.5,3083)" x="629.5" y="3083">There Are Two Errors in the the Titl</text><rect class="bookcase-book" fill="#F42D14" height="234" id="book-20750" stroke="black" width="48" x="639" y="2853" /><text dominant-baseline="middle" fill="white" font-family="Arial" font-size="18px" transform="rotate(-90,663.0,3083)" x="663.0" y="3083">The Chicago Manual of Styl</text><rect class="bookcase-book" fill="#233FC3" height="254" id="book-20508" stroke="black" width="16" x="687" y="2833" /><text dominant-baseline="middle" fill="white" font-family="Arial" font-size="12.0px" transform="rotate(-90,695.0,3083)" x="695.0" y="3083">Publication Manual of the American Psychologi</text><rect class="bookcase-book" fill="#A15918" height="210" id="book-20513" stroke="black" width="32" x="703" y="2877" /><text dominant-baseline="middle" fill="white" font-family="Arial" font-size="18px" transform="rotate(-90,719.0,3083)" x="719.0" y="3083">The Brief Wadsworth Han</text><rect class="bookcase-book" fill="#739630" height="231" id="book-13774" stroke="black" width="19" x="735" y="2856" /><text dominant-baseline="middle" fill="black" font-family="Arial" font-size="14.25px" transform="rotate(-90,744.5,3083)" x="744.5" y="3083">The Structure of Argument</text><rect class="bookcase-book" fill="#7A7489" height="181" id="book-14191" stroke="black" width="7" x="754" y="2906" /><text dominant-baseline="middle" fill="white" font-family="Arial" font-size="5.25px" transform="rotate(-90,757.5,3083)" x="757.5" y="3083">The Elements of Style</text><rect class="bookcase-book" fill="#F2E9CA" height="203" id="book-21423" stroke="black" width="11" x="761" y="2884" /><text dominant-baseline="middle" fill="black" font-family="Arial" font-size="8.25px" transform="rotate(-90,766.5,3083)" x="766.5" y="3083">A Manual for Writers of Term Papers, Theses, and Dis</text></svg>