<?xml version="1.0" encoding="utf-8" ?>
<svg baseProfile="full" height="3107" version="1.1" width="858" xmlns="http://www.w3.org/2000/svg" xmlns:ev="http://www.w3.org/2001/xml-events" xmlns:xlink="http://www.w3.org/1999/xlink"><defs /><rect height="20" width="758" x="50" y="1276" /><rect class="bookcase-book" fill="#F5F9F1" height="9" id="book-19090" stroke="black" width="278" x="84" y="1267" /><text dominant-baseline="middle" fill="black" font-family="Arial" font-size="6.75px" x="84" y="1271.5">Chronological and Thematic Charts of Philosophies and Philosophers</text><rect class="bookcase-book" fill="#2D3B62" height="282" id="book-21936" stroke="black" width="19" x="84" y="985" /><text dominant-baseline="middle" fill="white" font-family="Arial" font-size="14.25px" transform="rotate(-90,93.5,1263)" x="93.5" y="1263">Book of 1001 Lists</text><rect class="bookcase-book" fill="#565046" height="282" id="book-14797" stroke="black" width="14" x="103" y="985" /><text dominant-baseline="middle" fill="white" font-family="Arial" font-size="10.5px" transform="rotate(-90,110.0,1263)" x="110.0" y="1263">Natural Language Processing for Foreign Language Learni</text><rect class="bookcase-book" fill="#A95156" height="284" id="book-13459" stroke="black" width="32" x="117" y="983" /><text dominant-baseline="middle" fill="white" font-family="Arial" font-size="18px" transform="rotate(-90,133.0,1263)" x="133.0" y="1263">Essentials of Abnormal Psycholog</text><rect class="bookcase-book" fill="#12302F" height="276" id="book-20515" stroke="black" width="25" x="149" y="991" /><text dominant-baseline="middle" fill="white" font-family="Arial" font-size="18px" transform="rotate(-90,161.5,1263)" x="161.5" y="1263">Exploring Psychology</text><rect class="bookcase-book" fill="#2B2725" height="286" id="book-13373" stroke="black" width="36" x="174" y="981" /><text dominant-baseline="middle" fill="white" font-family="Arial" font-size="18px" transform="rotate(-90,192.0,1263)" x="192.0" y="1263">Abnormal Psychology</text><rect class="bookcase-book" fill="#818888" height="283" id="book-13632" stroke="black" width="31" x="210" y="984" /><text dominant-baseline="middle" fill="black" font-family="Arial" font-size="18px" transform="rotate(-90,225.5,1263)" x="225.5" y="1263">Psychology</text><rect class="bookcase-book" fill="#484D7A" height="286" id="book-21318" stroke="black" width="35" x="241" y="981" /><text dominant-baseline="middle" fill="white" font-family="Arial" font-size="18px" transform="rotate(-90,258.5,1263)" x="258.5" y="1263">Understanding Human Behavior</text><rect class="bookcase-book" fill="#DAEDA0" height="289" id="book-13633" stroke="black" width="37" x="276" y="978" /><text dominant-baseline="middle" fill="black" font-family="Arial" font-size="18px" transform="rotate(-90,294.5,1263)" x="294.5" y="1263">Psychology</text><rect class="bookcase-book" fill="#D4C09C" height="288" id="book-13784" stroke="black" width="38" x="313" y="979" /><text dominant-baseline="middle" fill="black" font-family="Arial" font-size="18px" transform="rotate(-90,332.0,1263)" x="332.0" y="1263">The World of Psychology</text><rect class="bookcase-book" fill="#DAB3AB" height="277" id="book-16327" stroke="black" width="10" x="351" y="990" /><text dominant-baseline="middle" fill="black" font-family="Arial" font-size="7.5px" transform="rotate(-90,356.0,1263)" x="356.0" y="1263">The Mind Test</text><rect class="bookcase-book" fill="#B16330" height="283" id="book-20529" stroke="black" width="33" x="362" y="993" /><text dominant-baseline="middle" fill="white" font-family="Arial" font-size="18px" transform="rotate(-90,378.5,1272)" x="378.5" y="1272">The Developing Person</text><rect class="bookcase-book" fill="#CDBCAE" height="268" id="book-20523" stroke="black" width="25" x="395" y="1008" /><text dominant-baseline="middle" fill="black" font-family="Arial" font-size="18px" transform="rotate(-90,407.5,1272)" x="407.5" y="1272">Developing Across the Life Span</text><rect class="bookcase-book" fill="#D8D1CF" height="21" id="book-14221" stroke="black" width="228" x="420" y="1255" /><text dominant-baseline="middle" fill="black" font-family="Arial" font-size="15.75px" x="420" y="1265.5">A Preface to Morals</text><rect class="bookcase-book" fill="#DDDED5" height="18" id="book-14198" stroke="black" width="202" x="420" y="1237" /><text dominant-baseline="middle" fill="black" font-family="Arial" font-size="13.5px" x="420" y="1246.0">Principia Ethica</text><rect class="bookcase-book" fill="#615E54" height="233" id="book-14799" stroke="black" width="29" x="420" y="1004" /><text dominant-baseline="middle" fill="white" font-family="Arial" font-size="18px" transform="rotate(-90,434.5,1233)" x="434.5" y="1233">Theories of Ethics</text><rect class="bookcase-book" fill="#363537" height="229" id="book-19094" stroke="black" width="13" x="449" y="1008" /><text dominant-baseline="middle" fill="white" font-family="Arial" font-size="9.75px" transform="rotate(-90,455.5,1233)" x="455.5" y="1233">Dietrich Bonhoeffer and Business Ethics</text><rect class="bookcase-book" fill="#2A165A" height="241" id="book-20761" stroke="black" width="33" x="462" y="996" /><text dominant-baseline="middle" fill="white" font-family="Arial" font-size="18px" transform="rotate(-90,478.5,1233)" x="478.5" y="1233">Contemporary Issues in Bioet</text><rect class="bookcase-book" fill="#3E7B68" height="235" id="book-20506" stroke="black" width="27" x="495" y="1002" /><text dominant-baseline="middle" fill="white" font-family="Arial" font-size="18px" transform="rotate(-90,508.5,1233)" x="508.5" y="1233">Issues and Ethics in the Hel</text><rect class="bookcase-book" fill="#EFEFEE" height="255" id="book-20507" stroke="black" width="19" x="522" y="982" /><text dominant-baseline="middle" fill="black" font-family="Arial" font-size="14.25px" transform="rotate(-90,531.5,1233)" x="531.5" y="1233">Integrative Approaches to Psychology a</text><rect class="bookcase-book" fill="#4B3223" height="209" id="book-14218" stroke="black" width="19" x="541" y="1028" /><text dominant-baseline="middle" fill="white" font-family="Arial" font-size="14.25px" transform="rotate(-90,550.5,1233)" x="550.5" y="1233">Thus Spoke Zarathustra</text><rect class="bookcase-book" fill="#A2B9C7" height="230" id="book-16347" stroke="black" width="30" x="560" y="1007" /><text dominant-baseline="middle" fill="black" font-family="Arial" font-size="18px" transform="rotate(-90,575.0,1233)" x="575.0" y="1233">The Whys of a Philosophica</text><rect class="bookcase-book" fill="#384678" height="202" id="book-13593" stroke="black" width="32" x="590" y="1035" /><text dominant-baseline="middle" fill="white" font-family="Arial" font-size="18px" transform="rotate(-90,606.0,1233)" x="606.0" y="1233">Objectivism</text><rect class="bookcase-book" fill="#AFDAEE" height="282" id="book-20763" stroke="black" width="27" x="648" y="994" /><text dominant-baseline="middle" fill="black" font-family="Arial" font-size="18px" transform="rotate(-90,661.5,1272)" x="661.5" y="1272">Sociology in Our Times</text><rect class="bookcase-book" fill="#5B574B" height="276" id="book-13654" stroke="black" width="29" x="675" y="1000" /><text dominant-baseline="middle" fill="white" font-family="Arial" font-size="18px" transform="rotate(-90,689.5,1272)" x="689.5" y="1272">Sociology</text><rect class="bookcase-book" fill="#322217" height="276" id="book-20505" stroke="black" width="19" x="704" y="1000" /><text dominant-baseline="middle" fill="white" font-family="Arial" font-size="14.25px" transform="rotate(-90,713.5,1272)" x="713.5" y="1272">Society</text><rect class="bookcase-book" fill="#D08A3D" height="228" id="book-14224" stroke="black" width="5" x="723" y="1048" /><text dominant-baseline="middle" fill="black" font-family="Arial" font-size="3.75px" transform="rotate(-90,725.5,1272)" x="725.5" y="1272">Civilization and Its Discontents</text><rect class="bookcase-book" fill="#BDCEE8" height="196" id="book-13741" stroke="black" width="11" x="728" y="1080" /><text dominant-baseline="middle" fill="black" font-family="Arial" font-size="8.25px" transform="rotate(-90,733.5,1272)" x="733.5" y="1272">The Lives of a Cell</text><rect height="319" width="20" x="50" y="1276" /><rect height="319" width="20" x="788" y="1276" /><rect height="20" width="718" x="70" y="1276" /><rect height="20" width="758" x="50" y="1595" /><rect class="bookcase-book" fill="#D85038" height="201" id="book-13998" stroke="black" width="38" x="84" y="1394" /><text dominant-baseline="middle" fill="white" font-family="Arial" font-size="18px" transform="rotate(-90,103.0,1591)" x="103.0" y="1591">The City in History</text><rect class="bookcase-book" fill="#4B2A10" height="242" id="book-22103" stroke="black" width="30" x="122" y="1353" /><text dominant-baseline="middle" fill="white" font-family="Arial" font-size="18px" transform="rotate(-90,137.0,1591)" x="137.0" y="1591">The Square and the Tower</text><rect class="bookcase-book" fill="#8A7F6B" height="283" id="book-13653" stroke="black" width="31" x="152" y="1312" /><text dominant-baseline="middle" fill="black" font-family="Arial" font-size="18px" transform="rotate(-90,167.5,1591)" x="167.5" y="1591">Social Psychology</text><rect class="bookcase-book" fill="#E1F3D3" height="31" id="book-22396" stroke="black" width="209" x="183" y="1564" /><text dominant-baseline="middle" fill="black" font-family="Arial" font-size="18px" x="183" y="1579.5">Talking to Strangers</text><rect class="bookcase-book" fill="#31231C" height="213" id="book-16344" stroke="black" width="33" x="183" y="1351" /><text dominant-baseline="middle" fill="white" font-family="Arial" font-size="18px" transform="rotate(-90,199.5,1560)" x="199.5" y="1560">Bowling Alone</text><rect class="bookcase-book" fill="#17A600" height="209" id="book-16609" stroke="black" width="28" x="216" y="1355" /><text dominant-baseline="middle" fill="white" font-family="Arial" font-size="18px" transform="rotate(-90,230.0,1560)" x="230.0" y="1560">Born Digital</text><rect class="bookcase-book" fill="#525B5A" height="196" id="book-20796" stroke="black" width="20" x="244" y="1368" /><text dominant-baseline="middle" fill="white" font-family="Arial" font-size="15.0px" transform="rotate(-90,254.0,1560)" x="254.0" y="1560">Tribe</text><rect class="bookcase-book" fill="#82674B" height="235" id="book-16320" stroke="black" width="35" x="264" y="1329" /><text dominant-baseline="middle" fill="white" font-family="Arial" font-size="18px" transform="rotate(-90,281.5,1560)" x="281.5" y="1560">Guns, Germs, and Steel</text><rect class="bookcase-book" fill="#AD863B" height="208" id="book-16523" stroke="black" width="25" x="299" y="1356" /><text dominant-baseline="middle" fill="black" font-family="Arial" font-size="18px" transform="rotate(-90,311.5,1560)" x="311.5" y="1560">The Dictator's Handbook</text><rect class="bookcase-book" fill="#3E3836" height="216" id="book-23121" stroke="black" width="23" x="324" y="1348" /><text dominant-baseline="middle" fill="white" font-family="Arial" font-size="17.25px" transform="rotate(-90,335.5,1560)" x="335.5" y="1560">How to Do Nothing</text><rect class="bookcase-book" fill="#D4D0BF" height="208" id="book-22569" stroke="black" width="21" x="347" y="1356" /><text dominant-baseline="middle" fill="black" font-family="Arial" font-size="15.75px" transform="rotate(-90,357.5,1560)" x="357.5" y="1560">Nonviolence</text><rect class="bookcase-book" fill="#D5C4B0" height="283" id="book-13611" stroke="black" width="23" x="392" y="1312" /><text dominant-baseline="middle" fill="black" font-family="Arial" font-size="17.25px" transform="rotate(-90,403.5,1591)" x="403.5" y="1591">Human Geography</text><rect class="bookcase-book" fill="#C2C7AF" height="23" id="book-22436" stroke="black" width="204" x="415" y="1572" /><text dominant-baseline="middle" fill="black" font-family="Arial" font-size="17.25px" x="415" y="1583.5">Plundering Paradise</text><rect class="bookcase-book" fill="#989793" height="213" id="book-22104" stroke="black" width="36" x="415" y="1359" /><text dominant-baseline="middle" fill="black" font-family="Arial" font-size="18px" transform="rotate(-90,433.0,1568)" x="433.0" y="1568">Collapse</text><rect class="bookcase-book" fill="#6D942D" height="208" id="book-22113" stroke="black" width="19" x="451" y="1364" /><text dominant-baseline="middle" fill="white" font-family="Arial" font-size="14.25px" transform="rotate(-90,460.5,1568)" x="460.5" y="1568">The World Without Us</text><rect class="bookcase-book" fill="#ECE8D3" height="242" id="book-22703" stroke="black" width="27" x="470" y="1330" /><text dominant-baseline="middle" fill="black" font-family="Arial" font-size="18px" transform="rotate(-90,483.5,1568)" x="483.5" y="1568">Shaping Our Nation</text><rect class="bookcase-book" fill="#F9F5D9" height="201" id="book-16341" stroke="black" width="22" x="497" y="1371" /><text dominant-baseline="middle" fill="black" font-family="Arial" font-size="16.5px" transform="rotate(-90,508.0,1568)" x="508.0" y="1568">Behind the Beautiful Forev</text><rect class="bookcase-book" fill="#25777E" height="213" id="book-16343" stroke="black" width="30" x="519" y="1359" /><text dominant-baseline="middle" fill="white" font-family="Arial" font-size="18px" transform="rotate(-90,534.0,1568)" x="534.0" y="1568">The World Until Yesterday</text><rect class="bookcase-book" fill="#E1C76D" height="242" id="book-22437" stroke="black" width="13" x="549" y="1330" /><text dominant-baseline="middle" fill="black" font-family="Arial" font-size="9.75px" transform="rotate(-90,555.5,1568)" x="555.5" y="1568">Social Inequality</text><rect class="bookcase-book" fill="#7D7A56" height="198" id="book-14808" stroke="black" width="29" x="562" y="1374" /><text dominant-baseline="middle" fill="white" font-family="Arial" font-size="18px" transform="rotate(-90,576.5,1568)" x="576.5" y="1568">It Takes a Village</text><rect class="bookcase-book" fill="#30291F" height="202" id="book-14195" stroke="black" width="8" x="591" y="1370" /><text dominant-baseline="middle" fill="white" font-family="Arial" font-size="6.0px" transform="rotate(-90,595.0,1568)" x="595.0" y="1568">A Room of One's Own</text><rect class="bookcase-book" fill="#F4F4E9" height="236" id="book-26252" stroke="black" width="35" x="619" y="1359" /><text dominant-baseline="middle" fill="black" font-family="Arial" font-size="18px" transform="rotate(-90,636.5,1591)" x="636.5" y="1591">Invisible Women</text><rect class="bookcase-book" fill="#102B4E" height="209" id="book-22756" stroke="black" width="24" x="654" y="1386" /><text dominant-baseline="middle" fill="white" font-family="Arial" font-size="18px" transform="rotate(-90,666.0,1591)" x="666.0" y="1591">A Vindication of the Right</text><rect class="bookcase-book" fill="#F7F4F2" height="216" id="book-20288" stroke="black" width="14" x="678" y="1379" /><text dominant-baseline="middle" fill="black" font-family="Arial" font-size="10.5px" transform="rotate(-90,685.0,1591)" x="685.0" y="1591">Men are Like Waffles; Women are Like Spag</text><rect class="bookcase-book" fill="#EEE2D4" height="185" id="book-22368" stroke="black" width="19" x="692" y="1410" /><text dominant-baseline="middle" fill="black" font-family="Arial" font-size="14.25px" transform="rotate(-90,701.5,1591)" x="701.5" y="1591">For Men Only</text><rect class="bookcase-book" fill="#F5F5F5" height="216" id="book-16738" stroke="black" width="27" x="711" y="1379" /><text dominant-baseline="middle" fill="black" font-family="Arial" font-size="18px" transform="rotate(-90,724.5,1591)" x="724.5" y="1591">Men are from Mars, Wom</text><rect class="bookcase-book" fill="#A49792" height="216" id="book-22400" stroke="black" width="23" x="738" y="1379" /><text dominant-baseline="middle" fill="black" font-family="Arial" font-size="17.25px" transform="rotate(-90,749.5,1591)" x="749.5" y="1591">Uncomfortable Conversatio</text><rect height="292" width="20" x="50" y="1595" /><rect height="292" width="20" x="788" y="1595" /><rect height="20" width="718" x="70" y="1595" /><rect height="20" width="758" x="50" y="1887" /><rect height="295" width="20" x="50" y="1887" /><rect height="295" width="20" x="788" y="1887" /><rect height="20" width="718" x="70" y="1887" /><rect height="20" width="758" x="50" y="2182" /><rect class="bookcase-book" fill="#63584D" height="216" id="book-22254" stroke="black" width="30" x="84" y="1966" /><text dominant-baseline="middle" fill="white" font-family="Arial" font-size="18px" transform="rotate(-90,99.0,2178)" x="99.0" y="2178">The New Jim Crow</text><rect class="bookcase-book" fill="#191616" height="227" id="book-22235" stroke="black" width="14" x="114" y="1955" /><text dominant-baseline="middle" fill="white" font-family="Arial" font-size="10.5px" transform="rotate(-90,121.0,2178)" x="121.0" y="2178">White Fragility</text><rect class="bookcase-book" fill="#D2D2D2" height="19" id="book-23120" stroke="black" width="213" x="128" y="2163" /><text dominant-baseline="middle" fill="black" font-family="Arial" font-size="14.25px" x="128" y="2172.5">Why I'm No Longer Talking to W</text><rect class="bookcase-book" fill="#87271E" height="217" id="book-23123" stroke="black" width="28" x="128" y="1946" /><text dominant-baseline="middle" fill="white" font-family="Arial" font-size="18px" transform="rotate(-90,142.0,2159)" x="142.0" y="2159">Stamped</text><rect class="bookcase-book" fill="#608E14" height="217" id="book-22239" stroke="black" width="28" x="156" y="1946" /><text dominant-baseline="middle" fill="white" font-family="Arial" font-size="18px" transform="rotate(-90,170.0,2159)" x="170.0" y="2159">How to Be An Antiracist</text><rect class="bookcase-book" fill="#2A10D0" height="233" id="book-22238" stroke="black" width="41" x="184" y="1930" /><text dominant-baseline="middle" fill="white" font-family="Arial" font-size="18px" transform="rotate(-90,204.5,2159)" x="204.5" y="2159">Stamped from the Beginning</text><rect class="bookcase-book" fill="#131427" height="171" id="book-14201" stroke="black" width="12" x="225" y="1992" /><text dominant-baseline="middle" fill="white" font-family="Arial" font-size="9.0px" transform="rotate(-90,231.0,2159)" x="231.0" y="2159">Why We Can't Wait</text><rect class="bookcase-book" fill="#D1D4AE" height="209" id="book-22237" stroke="black" width="24" x="237" y="1954" /><text dominant-baseline="middle" fill="black" font-family="Arial" font-size="18px" transform="rotate(-90,249.0,2159)" x="249.0" y="2159">The Color of Law</text><rect class="bookcase-book" fill="#10DB00" height="228" id="book-23125" stroke="black" width="20" x="261" y="1935" /><text dominant-baseline="middle" fill="black" font-family="Arial" font-size="15.0px" transform="rotate(-90,271.0,2159)" x="271.0" y="2159">Race Talk and the Conspiracy of </text><rect class="bookcase-book" fill="#1A17A0" height="209" id="book-22236" stroke="black" width="32" x="281" y="1954" /><text dominant-baseline="middle" fill="white" font-family="Arial" font-size="18px" transform="rotate(-90,297.0,2159)" x="297.0" y="2159">Why Are All the Black Kid</text><rect class="bookcase-book" fill="#E0E0DF" height="212" id="book-22399" stroke="black" width="14" x="313" y="1951" /><text dominant-baseline="middle" fill="black" font-family="Arial" font-size="10.5px" transform="rotate(-90,320.0,2159)" x="320.0" y="2159">The Color of Compromise</text><rect class="bookcase-book" fill="#EFE7E8" height="197" id="book-22102" stroke="black" width="13" x="327" y="1966" /><text dominant-baseline="middle" fill="black" font-family="Arial" font-size="9.75px" transform="rotate(-90,333.5,2159)" x="333.5" y="2159">The Great Degeneration</text><rect class="bookcase-book" fill="#334347" height="15" id="book-16297" stroke="black" width="185" x="341" y="2167" /><text dominant-baseline="middle" fill="white" font-family="Arial" font-size="11.25px" x="341" y="2174.5">The Mathematics of Love</text><rect class="bookcase-book" fill="#DB3E28" height="203" id="book-16326" stroke="black" width="20" x="341" y="1964" /><text dominant-baseline="middle" fill="white" font-family="Arial" font-size="15.0px" transform="rotate(-90,351.0,2163)" x="351.0" y="2163">Everything Bad is Good for Y</text><rect class="bookcase-book" fill="#292929" height="236" id="book-23124" stroke="black" width="30" x="361" y="1931" /><text dominant-baseline="middle" fill="white" font-family="Arial" font-size="18px" transform="rotate(-90,376.0,2163)" x="376.0" y="2163">Why We're Polarized</text><rect class="bookcase-book" fill="#AA6D2C" height="227" id="book-22755" stroke="black" width="17" x="391" y="1940" /><text dominant-baseline="middle" fill="white" font-family="Arial" font-size="12.75px" transform="rotate(-90,399.5,2163)" x="399.5" y="2163">The Ethical Slut</text><rect class="bookcase-book" fill="#CA412F" height="130" id="book-14068" stroke="black" width="21" x="408" y="2037" /><text dominant-baseline="middle" fill="white" font-family="Arial" font-size="15.75px" transform="rotate(-90,418.5,2163)" x="418.5" y="2163">Necropolis</text><rect class="bookcase-book" fill="#A53000" height="216" id="book-22207" stroke="black" width="21" x="429" y="1951" /><text dominant-baseline="middle" fill="white" font-family="Arial" font-size="15.75px" transform="rotate(-90,439.5,2163)" x="439.5" y="2163">Will My Cat Eat My Eyeballs?</text><rect class="bookcase-book" fill="#604A39" height="202" id="book-13599" stroke="black" width="8" x="450" y="1965" /><text dominant-baseline="middle" fill="white" font-family="Arial" font-size="6.0px" transform="rotate(-90,454.0,2163)" x="454.0" y="2163">On the Social Contract</text><rect class="bookcase-book" fill="#F9F9F1" height="229" id="book-14207" stroke="black" width="28" x="458" y="1938" /><text dominant-baseline="middle" fill="black" font-family="Arial" font-size="18px" transform="rotate(-90,472.0,2163)" x="472.0" y="2163">The God of the Machine</text><rect class="bookcase-book" fill="#2C1920" height="229" id="book-14193" stroke="black" width="31" x="486" y="1938" /><text dominant-baseline="middle" fill="white" font-family="Arial" font-size="18px" transform="rotate(-90,501.5,2163)" x="501.5" y="2163">A Theory of Justice</text><rect class="bookcase-book" fill="#432F1A" height="19" id="book-16741" stroke="black" width="209" x="526" y="2163" /><text dominant-baseline="middle" fill="white" font-family="Arial" font-size="14.25px" x="526" y="2172.5">The 5000 Year Leap</text><rect class="bookcase-book" fill="#71AECB" height="234" id="book-20250" stroke="black" width="17" x="526" y="1929" /><text dominant-baseline="middle" fill="black" font-family="Arial" font-size="12.75px" transform="rotate(-90,534.5,2159)" x="534.5" y="2159">Introduction to Political Science and Poli</text><rect class="bookcase-book" fill="#F4F6F2" height="210" id="book-26242" stroke="black" width="25" x="543" y="1953" /><text dominant-baseline="middle" fill="black" font-family="Arial" font-size="18px" transform="rotate(-90,555.5,2159)" x="555.5" y="2159">What's the Matter with Ka</text><rect class="bookcase-book" fill="#754A34" height="236" id="book-13642" stroke="black" width="46" x="568" y="1927" /><text dominant-baseline="middle" fill="white" font-family="Arial" font-size="18px" transform="rotate(-90,591.0,2159)" x="591.0" y="2159">Republic</text><rect class="bookcase-book" fill="#322716" height="236" id="book-22398" stroke="black" width="26" x="614" y="1927" /><text dominant-baseline="middle" fill="white" font-family="Arial" font-size="18px" transform="rotate(-90,627.0,2159)" x="627.0" y="2159">Un-Trumping America</text><rect class="bookcase-book" fill="#2A2A2A" height="216" id="book-23129" stroke="black" width="28" x="640" y="1947" /><text dominant-baseline="middle" fill="white" font-family="Arial" font-size="18px" transform="rotate(-90,654.0,2159)" x="654.0" y="2159">How Democracies Die</text><rect class="bookcase-book" fill="#235891" height="216" id="book-20158" stroke="black" width="15" x="668" y="1947" /><text dominant-baseline="middle" fill="white" font-family="Arial" font-size="11.25px" transform="rotate(-90,675.5,2159)" x="675.5" y="2159">The Myth of a Christian Nation</text><rect class="bookcase-book" fill="#50B639" height="241" id="book-26245" stroke="black" width="33" x="683" y="1922" /><text dominant-baseline="middle" fill="black" font-family="Arial" font-size="18px" transform="rotate(-90,699.5,2159)" x="699.5" y="2159">One Nation Under God</text><rect class="bookcase-book" fill="#613325" height="203" id="book-13551" stroke="black" width="17" x="716" y="1960" /><text dominant-baseline="middle" fill="white" font-family="Arial" font-size="12.75px" transform="rotate(-90,724.5,2159)" x="724.5" y="2159">Leviathan</text><rect class="bookcase-book" fill="#7A7461" height="222" id="book-13762" stroke="black" width="25" x="735" y="1960" /><text dominant-baseline="middle" fill="white" font-family="Arial" font-size="18px" transform="rotate(-90,747.5,2178)" x="747.5" y="2178">The Prince and Other Writi</text><rect height="311" width="20" x="50" y="2182" /><rect height="311" width="20" x="788" y="2182" /><rect height="20" width="718" x="70" y="2182" /><rect height="20" width="758" x="50" y="2493" /><rect class="bookcase-book" fill="#B78C69" height="19" id="book-13436" stroke="black" width="203" x="84" y="2474" /><text dominant-baseline="middle" fill="black" font-family="Arial" font-size="14.25px" x="84" y="2483.5">Common Sense and Other Writ</text><rect class="bookcase-book" fill="#DCA26A" height="13" id="book-13645" stroke="black" width="203" x="84" y="2461" /><text dominant-baseline="middle" fill="black" font-family="Arial" font-size="9.75px" x="84" y="2467.5">Rights of Man</text><rect class="bookcase-book" fill="#EEC343" height="228" id="book-14227" stroke="black" width="44" x="84" y="2233" /><text dominant-baseline="middle" fill="black" font-family="Arial" font-size="18px" transform="rotate(-90,106.0,2457)" x="106.0" y="2457">The Open Society and Its E</text><rect class="bookcase-book" fill="#777D5B" height="160" id="book-22590" stroke="black" width="29" x="128" y="2301" /><text dominant-baseline="middle" fill="white" font-family="Arial" font-size="18px" transform="rotate(-90,142.5,2457)" x="142.5" y="2457">Battling the Big Lie</text><rect class="bookcase-book" fill="#8C445F" height="230" id="book-22393" stroke="black" width="38" x="157" y="2231" /><text dominant-baseline="middle" fill="white" font-family="Arial" font-size="18px" transform="rotate(-90,176.0,2457)" x="176.0" y="2457">Dynamics of the Party Syst</text><rect class="bookcase-book" fill="#F3EEE9" height="203" id="book-26263" stroke="black" width="24" x="195" y="2258" /><text dominant-baseline="middle" fill="black" font-family="Arial" font-size="18px" transform="rotate(-90,207.0,2457)" x="207.0" y="2457">Identity Crisis</text><rect class="bookcase-book" fill="#C530A2" height="236" id="book-22336" stroke="black" width="25" x="219" y="2225" /><text dominant-baseline="middle" fill="white" font-family="Arial" font-size="18px" transform="rotate(-90,231.5,2457)" x="231.5" y="2457">One Billion Americans</text><rect class="bookcase-book" fill="#3E16A0" height="227" id="book-26244" stroke="black" width="32" x="244" y="2234" /><text dominant-baseline="middle" fill="white" font-family="Arial" font-size="18px" transform="rotate(-90,260.0,2457)" x="260.0" y="2457">Bury the Chains</text><rect class="bookcase-book" fill="#181E20" height="241" id="book-16643" stroke="black" width="46" x="287" y="2252" /><text dominant-baseline="middle" fill="white" font-family="Arial" font-size="18px" transform="rotate(-90,310.0,2489)" x="310.0" y="2489">Spies</text><rect class="bookcase-book" fill="#AAAAA9" height="241" id="book-22658" stroke="black" width="45" x="333" y="2252" /><text dominant-baseline="middle" fill="black" font-family="Arial" font-size="18px" transform="rotate(-90,355.5,2489)" x="355.5" y="2489">A Problem from Hell</text><rect class="bookcase-book" fill="#55504D" height="241" id="book-22386" stroke="black" width="32" x="378" y="2252" /><text dominant-baseline="middle" fill="white" font-family="Arial" font-size="18px" transform="rotate(-90,394.0,2489)" x="394.0" y="2489">After the Fall</text><rect class="bookcase-book" fill="#A2ACB0" height="228" id="book-16590" stroke="black" width="15" x="410" y="2265" /><text dominant-baseline="middle" fill="black" font-family="Arial" font-size="11.25px" transform="rotate(-90,417.5,2489)" x="417.5" y="2489">Early Cold War Spies</text><rect class="bookcase-book" fill="#142B41" height="25" id="book-14802" stroke="black" width="228" x="425" y="2468" /><text dominant-baseline="middle" fill="white" font-family="Arial" font-size="18px" x="425" y="2480.5">The Great Divide</text><rect class="bookcase-book" fill="#EDF7E3" height="236" id="book-22704" stroke="black" width="22" x="425" y="2232" /><text dominant-baseline="middle" fill="black" font-family="Arial" font-size="16.5px" transform="rotate(-90,436.0,2464)" x="436.0" y="2464">Freakonomics</text><rect class="bookcase-book" fill="#6D6A5E" height="208" id="book-13677" stroke="black" width="19" x="447" y="2260" /><text dominant-baseline="middle" fill="white" font-family="Arial" font-size="14.25px" transform="rotate(-90,456.5,2464)" x="456.5" y="2464">The Affluent Society</text><rect class="bookcase-book" fill="#387B51" height="216" id="book-16620" stroke="black" width="7" x="466" y="2252" /><text dominant-baseline="middle" fill="white" font-family="Arial" font-size="5.25px" transform="rotate(-90,469.5,2464)" x="469.5" y="2464">A Biblical Economics Manifesto</text><rect class="bookcase-book" fill="#628C7C" height="242" id="book-14805" stroke="black" width="28" x="473" y="2226" /><text dominant-baseline="middle" fill="black" font-family="Arial" font-size="18px" transform="rotate(-90,487.0,2464)" x="487.0" y="2464">Macroeconomics</text><rect class="bookcase-book" fill="#AF4760" height="174" id="book-14208" stroke="black" width="52" x="501" y="2294" /><text dominant-baseline="middle" fill="white" font-family="Arial" font-size="18px" transform="rotate(-90,527.0,2464)" x="527.0" y="2464">The Wealth of Nation</text><rect class="bookcase-book" fill="#C4C730" height="203" id="book-20809" stroke="black" width="17" x="553" y="2265" /><text dominant-baseline="middle" fill="black" font-family="Arial" font-size="12.75px" transform="rotate(-90,561.5,2464)" x="561.5" y="2464">Average Is Over</text><rect class="bookcase-book" fill="#553F4C" height="208" id="book-14807" stroke="black" width="30" x="570" y="2260" /><text dominant-baseline="middle" fill="white" font-family="Arial" font-size="18px" transform="rotate(-90,585.0,2464)" x="585.0" y="2464">Working</text><rect class="bookcase-book" fill="#474036" height="203" id="book-14189" stroke="black" width="28" x="600" y="2265" /><text dominant-baseline="middle" fill="white" font-family="Arial" font-size="18px" transform="rotate(-90,614.0,2464)" x="614.0" y="2464">The General Theory of E</text><rect class="bookcase-book" fill="#598DC1" height="233" id="book-16604" stroke="black" width="10" x="628" y="2235" /><text dominant-baseline="middle" fill="black" font-family="Arial" font-size="7.5px" transform="rotate(-90,633.0,2464)" x="633.0" y="2464">Everyday Economics</text><rect class="bookcase-book" fill="#6E5B4C" height="228" id="book-13990" stroke="black" width="44" x="653" y="2265" /><text dominant-baseline="middle" fill="white" font-family="Arial" font-size="18px" transform="rotate(-90,675.0,2489)" x="675.0" y="2489">The House of Morgan</text><rect class="bookcase-book" fill="#8D6F32" height="236" id="book-14063" stroke="black" width="38" x="697" y="2257" /><text dominant-baseline="middle" fill="white" font-family="Arial" font-size="18px" transform="rotate(-90,716.0,2489)" x="716.0" y="2489">The Ascent of Money</text><rect class="bookcase-book" fill="#D71916" height="209" id="book-22701" stroke="black" width="20" x="735" y="2284" /><text dominant-baseline="middle" fill="white" font-family="Arial" font-size="15.0px" transform="rotate(-90,745.0,2489)" x="745.0" y="2489">But Will the Planet Notice?</text><rect height="292" width="20" x="50" y="2493" /><rect height="292" width="20" x="788" y="2493" /><rect height="20" width="718" x="70" y="2493" /><rect height="20" width="758" x="50" y="2785" /><rect class="bookcase-book" fill="#DBCCBE" height="213" id="book-13989" stroke="black" width="30" x="84" y="2572" /><text dominant-baseline="middle" fill="black" font-family="Arial" font-size="18px" transform="rotate(-90,99.0,2781)" x="99.0" y="2781">Cadillac Desert</text><rect class="bookcase-book" fill="#D3D5D0" height="181" id="book-20802" stroke="black" width="15" x="114" y="2604" /><text dominant-baseline="middle" fill="black" font-family="Arial" font-size="11.25px" transform="rotate(-90,121.5,2781)" x="121.5" y="2781">Cod</text><rect class="bookcase-book" fill="#D2D4D4" height="254" id="book-14210" stroke="black" width="13" x="129" y="2531" /><text dominant-baseline="middle" fill="black" font-family="Arial" font-size="9.75px" transform="rotate(-90,135.5,2781)" x="135.5" y="2781">Das Kapital</text><rect class="bookcase-book" fill="#F1E0E0" height="190" id="book-13565" stroke="black" width="4" x="142" y="2595" /><text dominant-baseline="middle" fill="black" font-family="Arial" font-size="3.0px" transform="rotate(-90,144.0,2781)" x="144.0" y="2781">Manifesto of the Communist Party</text><rect class="bookcase-book" fill="#CBCABF" height="201" id="book-22335" stroke="black" width="25" x="146" y="2584" /><text dominant-baseline="middle" fill="black" font-family="Arial" font-size="18px" transform="rotate(-90,158.5,2781)" x="158.5" y="2781">Evicted</text><rect class="bookcase-book" fill="#CCB000" height="228" id="book-13340" stroke="black" width="13" x="171" y="2557" /><text dominant-baseline="middle" fill="black" font-family="Arial" font-size="9.75px" transform="rotate(-90,177.5,2781)" x="177.5" y="2781">Philosophy of Law</text><rect class="bookcase-book" fill="#D7BA83" height="228" id="book-14213" stroke="black" width="7" x="184" y="2557" /><text dominant-baseline="middle" fill="black" font-family="Arial" font-size="5.25px" transform="rotate(-90,187.5,2781)" x="187.5" y="2781">The Code of Hammurabi</text><rect class="bookcase-book" fill="#918E69" height="233" id="book-22438" stroke="black" width="42" x="191" y="2552" /><text dominant-baseline="middle" fill="black" font-family="Arial" font-size="18px" transform="rotate(-90,212.0,2781)" x="212.0" y="2781">Governing America</text><rect class="bookcase-book" fill="#60634F" height="227" id="book-22055" stroke="black" width="36" x="233" y="2558" /><text dominant-baseline="middle" fill="white" font-family="Arial" font-size="18px" transform="rotate(-90,251.0,2781)" x="251.0" y="2781">A People's History of the Su</text><rect class="bookcase-book" fill="#DDD6CD" height="196" id="book-14017" stroke="black" width="17" x="269" y="2589" /><text dominant-baseline="middle" fill="black" font-family="Arial" font-size="12.75px" transform="rotate(-90,277.5,2781)" x="277.5" y="2781">The Face of Battle</text><rect class="bookcase-book" fill="#F3ECE8" height="229" id="book-13683" stroke="black" width="6" x="286" y="2556" /><text dominant-baseline="middle" fill="black" font-family="Arial" font-size="4.5px" transform="rotate(-90,289.0,2781)" x="289.0" y="2781">The Art of War</text><rect class="bookcase-book" fill="#E9975C" height="194" id="book-21086" stroke="black" width="21" x="292" y="2591" /><text dominant-baseline="middle" fill="black" font-family="Arial" font-size="15.75px" transform="rotate(-90,302.5,2781)" x="302.5" y="2781">2008 Emergency Respons</text><rect class="bookcase-book" fill="#C3AA88" height="242" id="book-16340" stroke="black" width="58" x="313" y="2543" /><text dominant-baseline="middle" fill="black" font-family="Arial" font-size="18px" transform="rotate(-90,342.0,2781)" x="342.0" y="2781">Command and Control</text><rect class="bookcase-book" fill="#FAFAF3" height="204" id="book-22240" stroke="black" width="19" x="371" y="2581" /><text dominant-baseline="middle" fill="black" font-family="Arial" font-size="14.25px" transform="rotate(-90,380.5,2781)" x="380.5" y="2781">The End of Policing</text><rect class="bookcase-book" fill="#F7DB5E" height="214" id="book-16488" stroke="black" width="20" x="390" y="2571" /><text dominant-baseline="middle" fill="black" font-family="Arial" font-size="15.0px" transform="rotate(-90,400.0,2781)" x="400.0" y="2781">The Poisoner's Handbook</text><rect class="bookcase-book" fill="#1D1BD0" height="241" id="book-26191" stroke="black" width="22" x="410" y="2544" /><text dominant-baseline="middle" fill="white" font-family="Arial" font-size="16.5px" transform="rotate(-90,421.0,2781)" x="421.0" y="2781">Saving Justice</text><rect class="bookcase-book" fill="#D8CFA5" height="241" id="book-22651" stroke="black" width="41" x="432" y="2544" /><text dominant-baseline="middle" fill="black" font-family="Arial" font-size="18px" transform="rotate(-90,452.5,2781)" x="452.5" y="2781">Terror and Consent</text><rect class="bookcase-book" fill="#282D27" height="228" id="book-16601" stroke="black" width="24" x="473" y="2557" /><text dominant-baseline="middle" fill="white" font-family="Arial" font-size="18px" transform="rotate(-90,485.0,2781)" x="485.0" y="2781">The Global Environment</text><rect class="bookcase-book" fill="#252016" height="229" id="book-16607" stroke="black" width="25" x="497" y="2556" /><text dominant-baseline="middle" fill="white" font-family="Arial" font-size="18px" transform="rotate(-90,509.5,2781)" x="509.5" y="2781">Global Environmental Politi</text><rect class="bookcase-book" fill="#357139" height="208" id="book-14196" stroke="black" width="20" x="522" y="2577" /><text dominant-baseline="middle" fill="white" font-family="Arial" font-size="15.0px" transform="rotate(-90,532.0,2781)" x="532.0" y="2781">Silent Spring</text><rect class="bookcase-book" fill="#F3F2F2" height="242" id="book-22594" stroke="black" width="25" x="542" y="2543" /><text dominant-baseline="middle" fill="black" font-family="Arial" font-size="18px" transform="rotate(-90,554.5,2781)" x="554.5" y="2781">How to Avoid a Climate Disas</text><rect class="bookcase-book" fill="#EBB420" height="212" id="book-26190" stroke="black" width="14" x="567" y="2573" /><text dominant-baseline="middle" fill="black" font-family="Arial" font-size="10.5px" transform="rotate(-90,574.0,2781)" x="574.0" y="2781">How Are We Going to Explain This?</text><rect class="bookcase-book" fill="#F1F3F2" height="228" id="book-22435" stroke="black" width="23" x="581" y="2557" /><text dominant-baseline="middle" fill="black" font-family="Arial" font-size="17.25px" transform="rotate(-90,592.5,2781)" x="592.5" y="2781">An Inconvenient Truth</text><rect class="bookcase-book" fill="#F4DFBD" height="209" id="book-16333" stroke="black" width="18" x="604" y="2576" /><text dominant-baseline="middle" fill="black" font-family="Arial" font-size="13.5px" transform="rotate(-90,613.0,2781)" x="613.0" y="2781">Smoke Gets in Your Eyes</text><rect class="bookcase-book" fill="#333B46" height="216" id="book-22565" stroke="black" width="22" x="622" y="2569" /><text dominant-baseline="middle" fill="white" font-family="Arial" font-size="16.5px" transform="rotate(-90,633.0,2781)" x="633.0" y="2781">From Here to Eternity</text><rect class="bookcase-book" fill="#EDE5E3" height="203" id="book-14008" stroke="black" width="18" x="644" y="2582" /><text dominant-baseline="middle" fill="black" font-family="Arial" font-size="13.5px" transform="rotate(-90,653.0,2781)" x="653.0" y="2781">In Cold Blood</text><rect class="bookcase-book" fill="#DACDB4" height="203" id="book-14010" stroke="black" width="22" x="662" y="2582" /><text dominant-baseline="middle" fill="black" font-family="Arial" font-size="16.5px" transform="rotate(-90,673.0,2781)" x="673.0" y="2781">True Story</text><rect class="bookcase-book" fill="#F8F6BA" height="203" id="book-14009" stroke="black" width="14" x="684" y="2582" /><text dominant-baseline="middle" fill="black" font-family="Arial" font-size="10.5px" transform="rotate(-90,691.0,2781)" x="691.0" y="2781">The Journalist and the Murderer</text><rect class="bookcase-book" fill="#73A4C0" height="208" id="book-21373" stroke="black" width="9" x="698" y="2577" /><text dominant-baseline="middle" fill="black" font-family="Arial" font-size="6.75px" transform="rotate(-90,702.5,2781)" x="702.5" y="2781">I Left the Lodge</text><rect class="bookcase-book" fill="#E3D0D9" height="208" id="book-22548" stroke="black" width="9" x="707" y="2577" /><text dominant-baseline="middle" fill="black" font-family="Arial" font-size="6.75px" transform="rotate(-90,711.5,2781)" x="711.5" y="2781">How to Talk to Your Cat about Gun Safety</text><rect class="bookcase-book" fill="#CC4535" height="227" id="book-23119" stroke="black" width="17" x="716" y="2558" /><text dominant-baseline="middle" fill="white" font-family="Arial" font-size="12.75px" transform="rotate(-90,724.5,2781)" x="724.5" y="2781">Pedagogy of the Oppressed</text><rect class="bookcase-book" fill="#676652" height="242" id="book-20292" stroke="black" width="26" x="733" y="2543" /><text dominant-baseline="middle" fill="white" font-family="Arial" font-size="18px" transform="rotate(-90,746.0,2781)" x="746.0" y="2781">Education in Ancient Israel</text><rect height="302" width="20" x="50" y="2785" /><rect height="302" width="20" x="788" y="2785" /><rect height="20" width="718" x="70" y="2785" /><rect height="20" width="758" x="50" y="3087" /><rect class="bookcase-book" fill="#CCC3AF" height="261" id="book-13458" stroke="black" width="25" x="84" y="2826" /><text dominant-baseline="middle" fill="black" font-family="Arial" font-size="18px" transform="rotate(-90,96.5,3083)" x="96.5" y="3083">Environmental Science</text><rect class="bookcase-book" fill="#D0AA82" height="262" id="book-14798" stroke="black" width="35" x="109" y="2825" /><text dominant-baseline="middle" fill="black" font-family="Arial" font-size="18px" transform="rotate(-90,126.5,3083)" x="126.5" y="3083">The Politics of American Govern</text><rect class="bookcase-book" fill="#1D4880" height="205" id="book-26206" stroke="black" width="17" x="144" y="2882" /><text dominant-baseline="middle" fill="white" font-family="Arial" font-size="12.75px" transform="rotate(-90,152.5,3083)" x="152.5" y="3083">SHS Yearbook</text><rect class="bookcase-book" fill="#F3EEED" height="261" id="book-20762" stroke="black" width="27" x="161" y="2826" /><text dominant-baseline="middle" fill="black" font-family="Arial" font-size="18px" transform="rotate(-90,174.5,3083)" x="174.5" y="3083">Everyday Life Through the Ages</text><rect class="bookcase-book" fill="#DCDDA8" height="214" id="book-21938" stroke="black" width="15" x="188" y="2873" /><text dominant-baseline="middle" fill="black" font-family="Arial" font-size="11.25px" transform="rotate(-90,195.5,3083)" x="195.5" y="3083">The Origins of Popular Superstitions and </text><rect class="bookcase-book" fill="#D6DCDF" height="208" id="book-26230" stroke="black" width="14" x="203" y="2879" /><text dominant-baseline="middle" fill="black" font-family="Arial" font-size="10.5px" transform="rotate(-90,210.0,3083)" x="210.0" y="3083">Don't Take the Last Donut</text><rect class="bookcase-book" fill="#46B8C1" height="233" id="book-16376" stroke="black" width="23" x="217" y="2854" /><text dominant-baseline="middle" fill="black" font-family="Arial" font-size="17.25px" transform="rotate(-90,228.5,3083)" x="228.5" y="3083">The Languages of the World</text><rect class="bookcase-book" fill="#15243A" height="203" id="book-16230" stroke="black" width="15" x="240" y="2884" /><text dominant-baseline="middle" fill="white" font-family="Arial" font-size="11.25px" transform="rotate(-90,247.5,3083)" x="247.5" y="3083">Fluent in 3 Months</text><rect class="bookcase-book" fill="#559200" height="229" id="book-14081" stroke="black" width="29" x="255" y="2858" /><text dominant-baseline="middle" fill="white" font-family="Arial" font-size="18px" transform="rotate(-90,269.5,3083)" x="269.5" y="3083">A Guide to the World's Lang</text><rect class="bookcase-book" fill="#636A6E" height="212" id="book-13573" stroke="black" width="20" x="284" y="2875" /><text dominant-baseline="middle" fill="white" font-family="Arial" font-size="15.0px" transform="rotate(-90,294.0,3083)" x="294.0" y="3083">Metaphors We Live By</text><rect class="bookcase-book" fill="#DCD772" height="203" id="book-13758" stroke="black" width="8" x="304" y="2884" /><text dominant-baseline="middle" fill="black" font-family="Arial" font-size="6.0px" transform="rotate(-90,308.0,3083)" x="308.0" y="3083">The Philosophy Of Rhetoric</text><rect class="bookcase-book" fill="#93AEB9" height="203" id="book-14085" stroke="black" width="26" x="312" y="2884" /><text dominant-baseline="middle" fill="black" font-family="Arial" font-size="18px" transform="rotate(-90,325.0,3083)" x="325.0" y="3083">The Language Instinct</text><rect class="bookcase-book" fill="#CFD6BE" height="245" id="book-13726" stroke="black" width="44" x="338" y="2842" /><text dominant-baseline="middle" fill="black" font-family="Arial" font-size="18px" transform="rotate(-90,360.0,3083)" x="360.0" y="3083">The Handbook of Linguistics</text><rect class="bookcase-book" fill="#8AC3E2" height="236" id="book-22079" stroke="black" width="28" x="382" y="2851" /><text dominant-baseline="middle" fill="black" font-family="Arial" font-size="18px" transform="rotate(-90,396.0,3083)" x="396.0" y="3083">Because Internet</text><rect class="bookcase-book" fill="#5F88B7" height="245" id="book-13554" stroke="black" width="23" x="410" y="2842" /><text dominant-baseline="middle" fill="black" font-family="Arial" font-size="17.25px" transform="rotate(-90,421.5,3083)" x="421.5" y="3083">Linguistics</text><rect class="bookcase-book" fill="#232625" height="213" id="book-22078" stroke="black" width="28" x="433" y="2874" /><text dominant-baseline="middle" fill="white" font-family="Arial" font-size="18px" transform="rotate(-90,447.0,3083)" x="447.0" y="3083">The Stuff of Thought</text><rect class="bookcase-book" fill="#222422" height="256" id="book-14084" stroke="black" width="10" x="461" y="2831" /><text dominant-baseline="middle" fill="white" font-family="Arial" font-size="7.5px" transform="rotate(-90,466.0,3083)" x="466.0" y="3083">Writing Systems of the World</text><rect class="bookcase-book" fill="#6F72A0" height="227" id="book-13679" stroke="black" width="13" x="471" y="2860" /><text dominant-baseline="middle" fill="white" font-family="Arial" font-size="9.75px" transform="rotate(-90,477.5,3083)" x="477.5" y="3083">The American Heritage Dictionary of Indo-Europea</text><rect class="bookcase-book" fill="#E47DA4" height="216" id="book-13483" stroke="black" width="3" x="484" y="2871" /><text dominant-baseline="middle" fill="black" font-family="Arial" font-size="2.25px" transform="rotate(-90,485.5,3083)" x="485.5" y="3083">Glossary Of Grammatical Terms</text><rect class="bookcase-book" fill="#F6DAA3" height="235" id="book-14083" stroke="black" width="17" x="487" y="2852" /><text dominant-baseline="middle" fill="black" font-family="Arial" font-size="12.75px" transform="rotate(-90,495.5,3083)" x="495.5" y="3083">The Origin of Language</text><rect class="bookcase-book" fill="#F5F4EA" height="235" id="book-14080" stroke="black" width="39" x="504" y="2852" /><text dominant-baseline="middle" fill="black" font-family="Arial" font-size="18px" transform="rotate(-90,523.5,3083)" x="523.5" y="3083">The American Language</text><rect class="bookcase-book" fill="#D07A6B" height="252" id="book-20294" stroke="black" width="29" x="543" y="2835" /><text dominant-baseline="middle" fill="black" font-family="Arial" font-size="18px" transform="rotate(-90,557.5,3083)" x="557.5" y="3083">The Story of English</text><rect class="bookcase-book" fill="#543450" height="36" id="book-20276" stroke="black" width="197" x="572" y="3051" /><text dominant-baseline="middle" fill="white" font-family="Arial" font-size="18px" x="572" y="3069.0">The Concise Dictionary </text><rect class="bookcase-book" fill="#EE6552" height="209" id="book-22278" stroke="black" width="35" x="572" y="2842" /><text dominant-baseline="middle" fill="black" font-family="Arial" font-size="18px" transform="rotate(-90,589.5,3047)" x="589.5" y="3047">Dictionary of Foreign Ter</text><rect class="bookcase-book" fill="#2CA552" height="171" id="book-21143" stroke="black" width="35" x="607" y="2880" /><text dominant-baseline="middle" fill="white" font-family="Arial" font-size="18px" transform="rotate(-90,624.5,3047)" x="624.5" y="3047">The Merriam-Webst</text><rect class="bookcase-book" fill="#1C7C00" height="178" id="book-21455" stroke="black" width="31" x="642" y="2873" /><text dominant-baseline="middle" fill="white" font-family="Arial" font-size="18px" transform="rotate(-90,657.5,3047)" x="657.5" y="3047">The New American </text><rect class="bookcase-book" fill="#231540" height="197" id="book-13434" stroke="black" width="63" x="673" y="2854" /><text dominant-baseline="middle" fill="white" font-family="Arial" font-size="18px" transform="rotate(-90,704.5,3047)" x="704.5" y="3047">Collins English Dictiona</text><rect class="bookcase-book" fill="#F3F5F4" height="215" id="book-14214" stroke="black" width="24" x="736" y="2836" /><text dominant-baseline="middle" fill="black" font-family="Arial" font-size="18px" transform="rotate(-90,748.0,3047)" x="748.0" y="3047">Merriam-Webster's Rhymi</text></svg>