<?xml version="1.0" encoding="utf-8" ?>
<svg baseProfile="full" height="3107" version="1.1" width="500" xmlns="http://www.w3.org/2000/svg" xmlns:ev="http://www.w3.org/2001/xml-events" xmlns:xlink="http://www.w3.org/1999/xlink"><defs /><rect height="20" width="400" x="50" y="1159" /><rect class="bookcase-book" fill="#4A595C" height="276" id="book-14082" stroke="black" width="24" x="84" y="883" /><text dominant-baseline="middle" fill="white" font-family="Arial" font-size="18px" transform="rotate(-90,96.0,1155)" x="96.0" y="1155">The Cambridge Encyclopedia of t</text><rect class="bookcase-book" fill="#D3CCB9" height="279" id="book-13594" stroke="black" width="7" x="108" y="880" /><text dominant-baseline="middle" fill="black" font-family="Arial" font-size="5.25px" transform="rotate(-90,111.5,1155)" x="111.5" y="1155">OBU Experience</text><rect class="bookcase-book" fill="#C8BFB0" height="305" id="book-14796" stroke="black" width="28" x="115" y="854" /><text dominant-baseline="middle" fill="black" font-family="Arial" font-size="18px" transform="rotate(-90,129.0,1155)" x="129.0" y="1155">Ouachitonian</text><rect class="bookcase-book" fill="#906B34" height="305" id="book-13287" stroke="black" width="22" x="143" y="854" /><text dominant-baseline="middle" fill="white" font-family="Arial" font-size="16.5px" transform="rotate(-90,154.0,1155)" x="154.0" y="1155">Ouachitonian</text><rect class="bookcase-book" fill="#BCBCAE" height="305" id="book-13286" stroke="black" width="23" x="165" y="854" /><text dominant-baseline="middle" fill="black" font-family="Arial" font-size="17.25px" transform="rotate(-90,176.5,1155)" x="176.5" y="1155">Ouachitonian</text><rect class="bookcase-book" fill="#766477" height="305" id="book-13285" stroke="black" width="25" x="188" y="854" /><text dominant-baseline="middle" fill="white" font-family="Arial" font-size="18px" transform="rotate(-90,200.5,1155)" x="200.5" y="1155">Ouachitonian</text><rect class="bookcase-book" fill="#575141" height="286" id="book-13224" stroke="black" width="26" x="213" y="873" /><text dominant-baseline="middle" fill="white" font-family="Arial" font-size="18px" transform="rotate(-90,226.0,1155)" x="226.0" y="1155">MHS Yearbook</text><rect class="bookcase-book" fill="#CABE94" height="286" id="book-13223" stroke="black" width="33" x="239" y="873" /><text dominant-baseline="middle" fill="black" font-family="Arial" font-size="18px" transform="rotate(-90,255.5,1155)" x="255.5" y="1155">MHS Yearbook</text><rect class="bookcase-book" fill="#648844" height="286" id="book-13222" stroke="black" width="23" x="272" y="873" /><text dominant-baseline="middle" fill="white" font-family="Arial" font-size="17.25px" transform="rotate(-90,283.5,1155)" x="283.5" y="1155">MHS Yearbook</text><rect class="bookcase-book" fill="#DBD1B9" height="277" id="book-13221" stroke="black" width="10" x="295" y="882" /><text dominant-baseline="middle" fill="black" font-family="Arial" font-size="7.5px" transform="rotate(-90,300.0,1155)" x="300.0" y="1155">MHS Yearbook</text><rect class="bookcase-book" fill="#9B9A89" height="286" id="book-13220" stroke="black" width="27" x="305" y="873" /><text dominant-baseline="middle" fill="black" font-family="Arial" font-size="18px" transform="rotate(-90,318.5,1155)" x="318.5" y="1155">MHS Yearbook</text><rect class="bookcase-book" fill="#CE3726" height="286" id="book-13219" stroke="black" width="28" x="332" y="873" /><text dominant-baseline="middle" fill="white" font-family="Arial" font-size="18px" transform="rotate(-90,346.0,1155)" x="346.0" y="1155">MHS Yearbook</text><rect class="bookcase-book" fill="#414037" height="286" id="book-13218" stroke="black" width="27" x="360" y="873" /><text dominant-baseline="middle" fill="white" font-family="Arial" font-size="18px" transform="rotate(-90,373.5,1155)" x="373.5" y="1155">MHS Yearbook</text><rect class="bookcase-book" fill="#324471" height="273" id="book-21613" stroke="black" width="15" x="387" y="886" /><text dominant-baseline="middle" fill="white" font-family="Arial" font-size="11.25px" transform="rotate(-90,394.5,1155)" x="394.5" y="1155">MTHS Yearbook</text><rect height="327" width="20" x="50" y="1159" /><rect height="327" width="20" x="430" y="1159" /><rect height="20" width="360" x="70" y="1159" /><rect height="20" width="400" x="50" y="1486" /><rect class="bookcase-book" fill="#B6134B" height="273" id="book-26202" stroke="black" width="20" x="84" y="1213" /><text dominant-baseline="middle" fill="white" font-family="Arial" font-size="15.0px" transform="rotate(-90,94.0,1482)" x="94.0" y="1482">SHS Yearbook</text><rect class="bookcase-book" fill="#F13A39" height="280" id="book-13795" stroke="black" width="4" x="104" y="1206" /><text dominant-baseline="middle" fill="white" font-family="Arial" font-size="3.0px" transform="rotate(-90,106.0,1482)" x="106.0" y="1482">US Constitution</text><rect class="bookcase-book" fill="#906D54" height="289" id="book-22675" stroke="black" width="18" x="108" y="1197" /><text dominant-baseline="middle" fill="white" font-family="Arial" font-size="13.5px" transform="rotate(-90,117.0,1482)" x="117.0" y="1482">The Windjammers</text><rect class="bookcase-book" fill="#AD9F7D" height="289" id="book-22674" stroke="black" width="18" x="126" y="1197" /><text dominant-baseline="middle" fill="black" font-family="Arial" font-size="13.5px" transform="rotate(-90,135.0,1482)" x="135.0" y="1482">The Frigates</text><rect class="bookcase-book" fill="#7D7469" height="289" id="book-22676" stroke="black" width="18" x="144" y="1197" /><text dominant-baseline="middle" fill="white" font-family="Arial" font-size="13.5px" transform="rotate(-90,153.0,1482)" x="153.0" y="1482">The Northwest Passage</text><rect class="bookcase-book" fill="#C5C38A" height="289" id="book-22677" stroke="black" width="18" x="162" y="1197" /><text dominant-baseline="middle" fill="black" font-family="Arial" font-size="13.5px" transform="rotate(-90,171.0,1482)" x="171.0" y="1482">The Great Liners</text><rect class="bookcase-book" fill="#999394" height="289" id="book-22679" stroke="black" width="18" x="180" y="1197" /><text dominant-baseline="middle" fill="black" font-family="Arial" font-size="13.5px" transform="rotate(-90,189.0,1482)" x="189.0" y="1482">The East Indiamen</text><rect class="bookcase-book" fill="#443528" height="289" id="book-22678" stroke="black" width="18" x="198" y="1197" /><text dominant-baseline="middle" fill="white" font-family="Arial" font-size="13.5px" transform="rotate(-90,207.0,1482)" x="207.0" y="1482">The Armada</text><rect class="bookcase-book" fill="#C5C2B7" height="289" id="book-22681" stroke="black" width="19" x="216" y="1197" /><text dominant-baseline="middle" fill="black" font-family="Arial" font-size="14.25px" transform="rotate(-90,225.5,1482)" x="225.5" y="1482">Fighting Sail</text><rect class="bookcase-book" fill="#BCAEA2" height="289" id="book-22680" stroke="black" width="18" x="235" y="1197" /><text dominant-baseline="middle" fill="black" font-family="Arial" font-size="13.5px" transform="rotate(-90,244.0,1482)" x="244.0" y="1482">The Racing Yachts</text><rect class="bookcase-book" fill="#C5C0AD" height="276" id="book-13558" stroke="black" width="29" x="253" y="1210" /><text dominant-baseline="middle" fill="black" font-family="Arial" font-size="18px" transform="rotate(-90,267.5,1482)" x="267.5" y="1482">Living in the Environment</text><rect class="bookcase-book" fill="#816E55" height="284" id="book-13457" stroke="black" width="30" x="282" y="1202" /><text dominant-baseline="middle" fill="white" font-family="Arial" font-size="18px" transform="rotate(-90,297.0,1482)" x="297.0" y="1482">Environmental Science</text><rect class="bookcase-book" fill="#333276" height="276" id="book-20514" stroke="black" width="28" x="312" y="1210" /><text dominant-baseline="middle" fill="white" font-family="Arial" font-size="18px" transform="rotate(-90,326.0,1482)" x="326.0" y="1482">Educational Psychology</text><rect class="bookcase-book" fill="#337C99" height="276" id="book-26204" stroke="black" width="10" x="340" y="1210" /><text dominant-baseline="middle" fill="white" font-family="Arial" font-size="7.5px" transform="rotate(-90,345.0,1482)" x="345.0" y="1482">Tucker Capps Yearbook</text><rect class="bookcase-book" fill="#8BB530" height="276" id="book-26210" stroke="black" width="10" x="350" y="1210" /><text dominant-baseline="middle" fill="black" font-family="Arial" font-size="7.5px" transform="rotate(-90,355.0,1482)" x="355.0" y="1482">Tucker Capps Yearbook</text><rect class="bookcase-book" fill="#69A842" height="286" id="book-26205" stroke="black" width="4" x="360" y="1200" /><text dominant-baseline="middle" fill="black" font-family="Arial" font-size="3.0px" transform="rotate(-90,362.0,1482)" x="362.0" y="1482">WES Yearbook</text><rect class="bookcase-book" fill="#3478AC" height="276" id="book-26203" stroke="black" width="10" x="364" y="1210" /><text dominant-baseline="middle" fill="white" font-family="Arial" font-size="7.5px" transform="rotate(-90,369.0,1482)" x="369.0" y="1482">SMS Yearbook</text><rect class="bookcase-book" fill="#B316B6" height="276" id="book-26209" stroke="black" width="10" x="374" y="1210" /><text dominant-baseline="middle" fill="white" font-family="Arial" font-size="7.5px" transform="rotate(-90,379.0,1482)" x="379.0" y="1482">SMS Yearbook</text><rect class="bookcase-book" fill="#FA9820" height="273" id="book-26208" stroke="black" width="21" x="384" y="1213" /><text dominant-baseline="middle" fill="black" font-family="Arial" font-size="15.75px" transform="rotate(-90,394.5,1482)" x="394.5" y="1482">SHS Yearbook</text><rect height="321" width="20" x="50" y="1486" /><rect height="321" width="20" x="430" y="1486" /><rect height="20" width="360" x="70" y="1486" /><rect height="20" width="400" x="50" y="1807" /><rect class="bookcase-book" fill="#702870" height="273" id="book-26207" stroke="black" width="20" x="84" y="1534" /><text dominant-baseline="middle" fill="white" font-family="Arial" font-size="15.0px" transform="rotate(-90,94.0,1803)" x="94.0" y="1803">SHS Yearbook</text><rect class="bookcase-book" fill="#4AA66D" height="240" id="book-21129" stroke="black" width="53" x="104" y="1567" /><text dominant-baseline="middle" fill="black" font-family="Arial" font-size="18px" transform="rotate(-90,130.5,1803)" x="130.5" y="1803">Webster's New World Diction</text><rect class="bookcase-book" fill="#2E7C84" height="251" id="book-22483" stroke="black" width="52" x="157" y="1556" /><text dominant-baseline="middle" fill="white" font-family="Arial" font-size="18px" transform="rotate(-90,183.0,1803)" x="183.0" y="1803">Webster's Ninth New Collegiat</text><rect class="bookcase-book" fill="#8F223B" height="256" id="book-21141" stroke="black" width="54" x="209" y="1551" /><text dominant-baseline="middle" fill="white" font-family="Arial" font-size="18px" transform="rotate(-90,236.0,1803)" x="236.0" y="1803">Webster's II New Riverside Uni</text><rect class="bookcase-book" fill="#7EB222" height="178" id="book-13806" stroke="black" width="34" x="263" y="1629" /><text dominant-baseline="middle" fill="black" font-family="Arial" font-size="18px" transform="rotate(-90,280.0,1803)" x="280.0" y="1803">Webster's New World</text><rect class="bookcase-book" fill="#CA3824" height="204" id="book-13805" stroke="black" width="24" x="297" y="1603" /><text dominant-baseline="middle" fill="white" font-family="Arial" font-size="18px" transform="rotate(-90,309.0,1803)" x="309.0" y="1803">Webster's 21st Century </text><rect class="bookcase-book" fill="#C9181C" height="180" id="book-21490" stroke="black" width="17" x="321" y="1627" /><text dominant-baseline="middle" fill="white" font-family="Arial" font-size="12.75px" transform="rotate(-90,329.5,1803)" x="329.5" y="1803">Roget's College Thesaurus</text><rect class="bookcase-book" fill="#2CA599" height="193" id="book-21174" stroke="black" width="14" x="338" y="1614" /><text dominant-baseline="middle" fill="black" font-family="Arial" font-size="10.5px" transform="rotate(-90,345.0,1803)" x="345.0" y="1803">Webster's Thesaurus</text><rect class="bookcase-book" fill="#1348B2" height="201" id="book-21177" stroke="black" width="23" x="352" y="1606" /><text dominant-baseline="middle" fill="white" font-family="Arial" font-size="17.25px" transform="rotate(-90,363.5,1803)" x="363.5" y="1803">Roget's 21st Century The</text><rect class="bookcase-book" fill="#F8F4E9" height="178" id="book-13807" stroke="black" width="30" x="375" y="1629" /><text dominant-baseline="middle" fill="black" font-family="Arial" font-size="18px" transform="rotate(-90,390.0,1803)" x="390.0" y="1803">Webster's New World</text><rect height="317" width="20" x="50" y="1807" /><rect height="317" width="20" x="430" y="1807" /><rect height="20" width="360" x="70" y="1807" /><rect height="20" width="400" x="50" y="2124" /><rect class="bookcase-book" fill="#B43B18" height="30" id="book-13747" stroke="black" width="178" x="84" y="2094" /><text dominant-baseline="middle" fill="white" font-family="Arial" font-size="18px" x="84" y="2109.0">The New American R</text><rect class="bookcase-book" fill="#24E790" height="214" id="book-21422" stroke="black" width="30" x="84" y="1880" /><text dominant-baseline="middle" fill="black" font-family="Arial" font-size="18px" transform="rotate(-90,99.0,2090)" x="99.0" y="2090">Grammar for Grown-Ups</text><rect class="bookcase-book" fill="#A55467" height="197" id="book-21421" stroke="black" width="32" x="114" y="1897" /><text dominant-baseline="middle" fill="white" font-family="Arial" font-size="18px" transform="rotate(-90,130.0,2090)" x="130.0" y="2090">English Grammar and </text><rect class="bookcase-book" fill="#8123A3" height="229" id="book-21632" stroke="black" width="4" x="146" y="1865" /><text dominant-baseline="middle" fill="white" font-family="Arial" font-size="3.0px" transform="rotate(-90,148.0,2090)" x="148.0" y="2090">English Grammar and Composition</text><rect class="bookcase-book" fill="#7D9654" height="213" id="book-21631" stroke="black" width="12" x="150" y="1881" /><text dominant-baseline="middle" fill="black" font-family="Arial" font-size="9.0px" transform="rotate(-90,156.0,2090)" x="156.0" y="2090">American English Today</text><rect class="bookcase-book" fill="#656C90" height="220" id="book-21424" stroke="black" width="34" x="162" y="1874" /><text dominant-baseline="middle" fill="white" font-family="Arial" font-size="18px" transform="rotate(-90,179.0,2090)" x="179.0" y="2090">American English Today</text><rect class="bookcase-book" fill="#D694B8" height="209" id="book-20324" stroke="black" width="15" x="196" y="1885" /><text dominant-baseline="middle" fill="black" font-family="Arial" font-size="11.25px" transform="rotate(-90,203.5,2090)" x="203.5" y="2090">Crazy English</text><rect class="bookcase-book" fill="#E46F25" height="144" id="book-20168" stroke="black" width="16" x="211" y="1950" /><text dominant-baseline="middle" fill="black" font-family="Arial" font-size="12.0px" transform="rotate(-90,219.0,2090)" x="219.0" y="2090">German English Dictionar</text><rect class="bookcase-book" fill="#E7A212" height="171" id="book-20172" stroke="black" width="31" x="227" y="1923" /><text dominant-baseline="middle" fill="black" font-family="Arial" font-size="18px" transform="rotate(-90,242.5,2090)" x="242.5" y="2090">Langenscheidt's Ger</text><rect class="bookcase-book" fill="#5804A0" height="174" id="book-20171" stroke="black" width="29" x="262" y="1950" /><text dominant-baseline="middle" fill="white" font-family="Arial" font-size="18px" transform="rotate(-90,276.5,2120)" x="276.5" y="2120">The Oxford New Ger</text><rect class="bookcase-book" fill="#EAEDEB" height="228" id="book-20249" stroke="black" width="28" x="291" y="1896" /><text dominant-baseline="middle" fill="black" font-family="Arial" font-size="18px" transform="rotate(-90,305.0,2120)" x="305.0" y="2120">Ultimate German</text><rect class="bookcase-book" fill="#76544E" height="143" id="book-20177" stroke="black" width="9" x="319" y="1981" /><text dominant-baseline="middle" fill="white" font-family="Arial" font-size="6.75px" transform="rotate(-90,323.5,2120)" x="323.5" y="2120">Dutch Dictionary and Phrase Book</text><rect class="bookcase-book" fill="#2D348F" height="143" id="book-20178" stroke="black" width="14" x="328" y="1981" /><text dominant-baseline="middle" fill="white" font-family="Arial" font-size="10.5px" transform="rotate(-90,335.0,2120)" x="335.0" y="2120">Dutch English Dictionary</text><rect class="bookcase-book" fill="#CA2725" height="209" id="book-14102" stroke="black" width="17" x="342" y="1915" /><text dominant-baseline="middle" fill="white" font-family="Arial" font-size="12.75px" transform="rotate(-90,350.5,2120)" x="350.5" y="2120">A New Introduction to Old Norse</text><rect class="bookcase-book" fill="#53AE1E" height="209" id="book-14103" stroke="black" width="25" x="359" y="1915" /><text dominant-baseline="middle" fill="black" font-family="Arial" font-size="18px" transform="rotate(-90,371.5,2120)" x="371.5" y="2120">A New Introduction to Old</text><rect class="bookcase-book" fill="#E9952F" height="209" id="book-14104" stroke="black" width="20" x="384" y="1915" /><text dominant-baseline="middle" fill="black" font-family="Arial" font-size="15.0px" transform="rotate(-90,394.0,2120)" x="394.0" y="2120">A New Introduction to Old Nor</text><rect class="bookcase-book" fill="#DBBFC2" height="144" id="book-20179" stroke="black" width="10" x="404" y="1980" /><text dominant-baseline="middle" fill="black" font-family="Arial" font-size="7.5px" transform="rotate(-90,409.0,2120)" x="409.0" y="2120">Norwegian Phrase Book and Dictionary</text><rect height="327" width="20" x="50" y="2124" /><rect height="327" width="20" x="430" y="2124" /><rect height="20" width="360" x="70" y="2124" /><rect height="20" width="400" x="50" y="2451" /><rect class="bookcase-book" fill="#F0ECC1" height="171" id="book-20180" stroke="black" width="25" x="84" y="2280" /><text dominant-baseline="middle" fill="black" font-family="Arial" font-size="18px" transform="rotate(-90,96.5,2447)" x="96.5" y="2447">Larousse's French-E</text><rect class="bookcase-book" fill="#EADAD5" height="179" id="book-20181" stroke="black" width="23" x="109" y="2272" /><text dominant-baseline="middle" fill="black" font-family="Arial" font-size="17.25px" transform="rotate(-90,120.5,2447)" x="120.5" y="2447">Conversational French</text><rect class="bookcase-book" fill="#3A81C2" height="201" id="book-20182" stroke="black" width="63" x="132" y="2250" /><text dominant-baseline="middle" fill="white" font-family="Arial" font-size="18px" transform="rotate(-90,163.5,2447)" x="163.5" y="2447">Larousse French Englis</text><rect class="bookcase-book" fill="#639C53" height="219" id="book-22706" stroke="black" width="22" x="195" y="2232" /><text dominant-baseline="middle" fill="black" font-family="Arial" font-size="16.5px" transform="rotate(-90,206.0,2447)" x="206.0" y="2447">Living Language French</text><rect class="bookcase-book" fill="#316740" height="219" id="book-22705" stroke="black" width="23" x="217" y="2232" /><text dominant-baseline="middle" fill="white" font-family="Arial" font-size="17.25px" transform="rotate(-90,228.5,2447)" x="228.5" y="2447">Living Language French</text><rect class="bookcase-book" fill="#D5C3A5" height="278" id="book-20184" stroke="black" width="33" x="240" y="2173" /><text dominant-baseline="middle" fill="black" font-family="Arial" font-size="18px" transform="rotate(-90,256.5,2447)" x="256.5" y="2447">AP French Language and Culture</text><rect class="bookcase-book" fill="#AA9D49" height="261" id="book-20183" stroke="black" width="26" x="273" y="2190" /><text dominant-baseline="middle" fill="black" font-family="Arial" font-size="18px" transform="rotate(-90,286.0,2447)" x="286.0" y="2447">Vis-a-vis</text><rect class="bookcase-book" fill="#D6B950" height="152" id="book-20173" stroke="black" width="9" x="299" y="2299" /><text dominant-baseline="middle" fill="black" font-family="Arial" font-size="6.75px" transform="rotate(-90,303.5,2447)" x="303.5" y="2447">Italian Phrase Book &amp; Dictionary</text><rect class="bookcase-book" fill="#62C229" height="209" id="book-20174" stroke="black" width="10" x="308" y="2242" /><text dominant-baseline="middle" fill="black" font-family="Arial" font-size="7.5px" transform="rotate(-90,313.0,2447)" x="313.0" y="2447">Italian Dictionary for Beginners</text><rect class="bookcase-book" fill="#26C8E0" height="139" id="book-22217" stroke="black" width="14" x="318" y="2312" /><text dominant-baseline="middle" fill="black" font-family="Arial" font-size="10.5px" transform="rotate(-90,325.0,2447)" x="325.0" y="2447">Rick Steves' Italian Phrase B</text><rect class="bookcase-book" fill="#2B2010" height="143" id="book-13640" stroke="black" width="16" x="332" y="2308" /><text dominant-baseline="middle" fill="white" font-family="Arial" font-size="12.0px" transform="rotate(-90,340.0,2447)" x="340.0" y="2447">Random House Webster'</text><rect class="bookcase-book" fill="#352726" height="143" id="book-20176" stroke="black" width="12" x="348" y="2308" /><text dominant-baseline="middle" fill="white" font-family="Arial" font-size="9.0px" transform="rotate(-90,354.0,2447)" x="354.0" y="2447">Spanish Dictionary and Phrase Bo</text><rect class="bookcase-book" fill="#C97A46" height="175" id="book-13392" stroke="black" width="18" x="360" y="2276" /><text dominant-baseline="middle" fill="black" font-family="Arial" font-size="13.5px" transform="rotate(-90,369.0,2447)" x="369.0" y="2447">Living Language Spanish Di</text><rect class="bookcase-book" fill="#F6BBA0" height="198" id="book-16438" stroke="black" width="26" x="378" y="2253" /><text dominant-baseline="middle" fill="black" font-family="Arial" font-size="18px" transform="rotate(-90,391.0,2447)" x="391.0" y="2447">Webster's Spanish-Engl</text><rect height="321" width="20" x="50" y="2451" /><rect height="321" width="20" x="430" y="2451" /><rect height="20" width="360" x="70" y="2451" /><rect height="20" width="400" x="50" y="2772" /><rect class="bookcase-book" fill="#F7F8F7" height="243" id="book-13798" stroke="black" width="70" x="84" y="2529" /><text dominant-baseline="middle" fill="black" font-family="Arial" font-size="18px" transform="rotate(-90,119.0,2768)" x="119.0" y="2768">Vox New College Spanish an</text><rect class="bookcase-book" fill="#CCC7B6" height="266" id="book-13658" stroke="black" width="12" x="154" y="2506" /><text dominant-baseline="middle" fill="black" font-family="Arial" font-size="9.0px" transform="rotate(-90,160.0,2768)" x="160.0" y="2768">Spanish Picture Dictionary</text><rect class="bookcase-book" fill="#F0AF85" height="275" id="book-13796" stroke="black" width="30" x="166" y="2497" /><text dominant-baseline="middle" fill="black" font-family="Arial" font-size="18px" transform="rotate(-90,181.0,2768)" x="181.0" y="2768">Vistas</text><rect class="bookcase-book" fill="#F0F3D8" height="230" id="book-13707" stroke="black" width="26" x="196" y="2542" /><text dominant-baseline="middle" fill="black" font-family="Arial" font-size="18px" transform="rotate(-90,209.0,2768)" x="209.0" y="2768">The Complete Idiot's Guide </text><rect class="bookcase-book" fill="#F67B38" height="254" id="book-13547" stroke="black" width="19" x="222" y="2518" /><text dominant-baseline="middle" fill="black" font-family="Arial" font-size="14.25px" transform="rotate(-90,231.5,2768)" x="231.5" y="2768">Learn Spanish the Fast and Fun Way</text><rect class="bookcase-book" fill="#F4F6F0" height="174" id="book-13657" stroke="black" width="22" x="241" y="2598" /><text dominant-baseline="middle" fill="black" font-family="Arial" font-size="16.5px" transform="rotate(-90,252.0,2768)" x="252.0" y="2768">Spanish Coursebook</text><rect class="bookcase-book" fill="#C51B48" height="228" id="book-16513" stroke="black" width="21" x="263" y="2544" /><text dominant-baseline="middle" fill="white" font-family="Arial" font-size="15.75px" transform="rotate(-90,273.5,2768)" x="273.5" y="2768">Conversational Latin for Oral Pr</text><rect class="bookcase-book" fill="#F3F4EC" height="228" id="book-22550" stroke="black" width="13" x="284" y="2544" /><text dominant-baseline="middle" fill="black" font-family="Arial" font-size="9.75px" transform="rotate(-90,290.5,2768)" x="290.5" y="2768">Lingua Latina Per Se Illustrata</text><rect class="bookcase-book" fill="#55B730" height="228" id="book-22552" stroke="black" width="5" x="297" y="2544" /><text dominant-baseline="middle" fill="black" font-family="Arial" font-size="3.75px" transform="rotate(-90,299.5,2768)" x="299.5" y="2768">Lingua Latina Per Se Illustrata</text><rect class="bookcase-book" fill="#EC7529" height="276" id="book-22551" stroke="black" width="6" x="302" y="2496" /><text dominant-baseline="middle" fill="black" font-family="Arial" font-size="4.5px" transform="rotate(-90,305.0,2768)" x="305.0" y="2768">Lingua Latina Per Se Illustrata</text><rect class="bookcase-book" fill="#BDFDEB" height="214" id="book-14091" stroke="black" width="9" x="308" y="2558" /><text dominant-baseline="middle" fill="black" font-family="Arial" font-size="6.75px" transform="rotate(-90,312.5,2768)" x="312.5" y="2768">Vox Latina</text><rect class="bookcase-book" fill="#382F1C" height="235" id="book-13817" stroke="black" width="25" x="317" y="2537" /><text dominant-baseline="middle" fill="white" font-family="Arial" font-size="18px" transform="rotate(-90,329.5,2768)" x="329.5" y="2768">Workbook for Wheelock's La</text><rect class="bookcase-book" fill="#874F29" height="235" id="book-13649" stroke="black" width="23" x="342" y="2537" /><text dominant-baseline="middle" fill="white" font-family="Arial" font-size="17.25px" transform="rotate(-90,353.5,2768)" x="353.5" y="2768">Scribblers, Sculptors, and Scr</text><rect class="bookcase-book" fill="#AEA991" height="235" id="book-13812" stroke="black" width="42" x="365" y="2537" /><text dominant-baseline="middle" fill="black" font-family="Arial" font-size="18px" transform="rotate(-90,386.0,2768)" x="386.0" y="2768">Wheelock's Latin</text><rect class="bookcase-book" fill="#F5F2F0" height="203" id="book-13539" stroke="black" width="7" x="407" y="2569" /><text dominant-baseline="middle" fill="black" font-family="Arial" font-size="5.25px" transform="rotate(-90,410.5,2768)" x="410.5" y="2768">Keep Your Greek</text><rect height="315" width="20" x="50" y="2772" /><rect height="315" width="20" x="430" y="2772" /><rect height="20" width="360" x="70" y="2772" /><rect height="20" width="400" x="50" y="3087" /><rect class="bookcase-book" fill="#6C6C34" height="229" id="book-13374" stroke="black" width="15" x="84" y="2858" /><text dominant-baseline="middle" fill="white" font-family="Arial" font-size="11.25px" transform="rotate(-90,91.5,3083)" x="91.5" y="3083">Advances in the Study of Greek</text><rect class="bookcase-book" fill="#9E5556" height="210" id="book-14109" stroke="black" width="9" x="99" y="2877" /><text dominant-baseline="middle" fill="white" font-family="Arial" font-size="6.75px" transform="rotate(-90,103.5,3083)" x="103.5" y="3083">Style and Discourse</text><rect class="bookcase-book" fill="#F1DB90" height="228" id="book-14093" stroke="black" width="30" x="108" y="2859" /><text dominant-baseline="middle" fill="black" font-family="Arial" font-size="18px" transform="rotate(-90,123.0,3083)" x="123.0" y="3083">Linguistic Analysis of the Gr</text><rect class="bookcase-book" fill="#9838D0" height="214" id="book-14107" stroke="black" width="11" x="138" y="2873" /><text dominant-baseline="middle" fill="white" font-family="Arial" font-size="8.25px" transform="rotate(-90,143.5,3083)" x="143.5" y="3083">Semantics of New Testament Greek</text><rect class="bookcase-book" fill="#B5ABAB" height="222" id="book-22333" stroke="black" width="45" x="149" y="2865" /><text dominant-baseline="middle" fill="black" font-family="Arial" font-size="18px" transform="rotate(-90,171.5,3083)" x="171.5" y="3083">The Greek Particles</text><rect class="bookcase-book" fill="#8D9198" height="228" id="book-22487" stroke="black" width="52" x="194" y="2859" /><text dominant-baseline="middle" fill="black" font-family="Arial" font-size="18px" transform="rotate(-90,220.0,3083)" x="220.0" y="3083">An Intermediate Greek Engl</text><rect class="bookcase-book" fill="#705049" height="241" id="book-13341" stroke="black" width="32" x="246" y="2846" /><text dominant-baseline="middle" fill="white" font-family="Arial" font-size="18px" transform="rotate(-90,262.0,3083)" x="262.0" y="3083">A Reader's Greek-English Le</text><rect class="bookcase-book" fill="#513D2F" height="241" id="book-22360" stroke="black" width="40" x="278" y="2846" /><text dominant-baseline="middle" fill="white" font-family="Arial" font-size="18px" transform="rotate(-90,298.0,3083)" x="298.0" y="3083">The Analytical Lexicon to the </text><rect class="bookcase-book" fill="#16351C" height="241" id="book-14079" stroke="black" width="34" x="318" y="2846" /><text dominant-baseline="middle" fill="white" font-family="Arial" font-size="18px" transform="rotate(-90,335.0,3083)" x="335.0" y="3083">Thayer's Greek-English Lexic</text><rect class="bookcase-book" fill="#B688C0" height="235" id="book-13438" stroke="black" width="28" x="352" y="2852" /><text dominant-baseline="middle" fill="black" font-family="Arial" font-size="18px" transform="rotate(-90,366.0,3083)" x="366.0" y="3083">Complete Vocabulary Guide </text></svg>