<?xml version="1.0" encoding="utf-8" ?>
<svg baseProfile="full" height="3107" version="1.1" width="900" xmlns="http://www.w3.org/2000/svg" xmlns:ev="http://www.w3.org/2001/xml-events" xmlns:xlink="http://www.w3.org/1999/xlink"><defs /><rect height="20" width="800" x="50" y="1159" /><rect class="bookcase-book" fill="#5A5C60" height="296" id="book-22253" stroke="black" width="69" x="84" y="863" /><text dominant-baseline="middle" fill="white" font-family="Arial" font-size="18px" transform="rotate(-90,118.5,1155)" x="118.5" y="1155">Greek English Lexicon</text><rect class="bookcase-book" fill="#3D71B6" height="213" id="book-22332" stroke="black" width="51" x="153" y="946" /><text dominant-baseline="middle" fill="white" font-family="Arial" font-size="18px" transform="rotate(-90,178.5,1155)" x="178.5" y="1155">English-Greek Dictionary</text><rect class="bookcase-book" fill="#22231E" height="247" id="book-22245" stroke="black" width="14" x="204" y="912" /><text dominant-baseline="middle" fill="white" font-family="Arial" font-size="10.5px" transform="rotate(-90,211.0,1155)" x="211.0" y="1155">Reading Greek</text><rect class="bookcase-book" fill="#231260" height="247" id="book-22247" stroke="black" width="24" x="218" y="912" /><text dominant-baseline="middle" fill="white" font-family="Arial" font-size="18px" transform="rotate(-90,230.0,1155)" x="230.0" y="1155">Reading Greek</text><rect class="bookcase-book" fill="#261390" height="247" id="book-22246" stroke="black" width="15" x="242" y="912" /><text dominant-baseline="middle" fill="white" font-family="Arial" font-size="11.25px" transform="rotate(-90,249.5,1155)" x="249.5" y="1155">Reading Greek</text><rect class="bookcase-book" fill="#DFD9D2" height="228" id="book-20007" stroke="black" width="12" x="257" y="931" /><text dominant-baseline="middle" fill="black" font-family="Arial" font-size="9.0px" transform="rotate(-90,263.0,1155)" x="263.0" y="1155">It's Still Greek to Me</text><rect class="bookcase-book" fill="#C7BDA1" height="254" id="book-22244" stroke="black" width="17" x="269" y="905" /><text dominant-baseline="middle" fill="black" font-family="Arial" font-size="12.75px" transform="rotate(-90,277.5,1155)" x="277.5" y="1155">Attica</text><rect class="bookcase-book" fill="#655547" height="245" id="book-22316" stroke="black" width="15" x="286" y="914" /><text dominant-baseline="middle" fill="white" font-family="Arial" font-size="11.25px" transform="rotate(-90,293.5,1155)" x="293.5" y="1155">An Introduction to the Composition and Analysis</text><rect class="bookcase-book" fill="#7A52A5" height="279" id="book-13404" stroke="black" width="12" x="301" y="880" /><text dominant-baseline="middle" fill="white" font-family="Arial" font-size="9.0px" transform="rotate(-90,307.0,1155)" x="307.0" y="1155">Biblical Greek Exegesis</text><rect class="bookcase-book" fill="#F6F8EA" height="205" id="book-13456" stroke="black" width="8" x="313" y="954" /><text dominant-baseline="middle" fill="black" font-family="Arial" font-size="6.0px" transform="rotate(-90,317.0,1155)" x="317.0" y="1155">English Grammar to Ace New Testament Greek</text><rect class="bookcase-book" fill="#403D35" height="20" id="book-13588" stroke="black" width="210" x="321" y="1139" /><text dominant-baseline="middle" fill="white" font-family="Arial" font-size="15.0px" x="321" y="1149.0">New Testament Greek for Begi</text><rect class="bookcase-book" fill="#F1E8D3" height="253" id="book-13525" stroke="black" width="34" x="321" y="886" /><text dominant-baseline="middle" fill="black" font-family="Arial" font-size="18px" transform="rotate(-90,338.0,1135)" x="338.0" y="1135">Introduction to Attic Greek</text><rect class="bookcase-book" fill="#F2EDD4" height="253" id="book-22274" stroke="black" width="5" x="355" y="886" /><text dominant-baseline="middle" fill="black" font-family="Arial" font-size="3.75px" transform="rotate(-90,357.5,1135)" x="357.5" y="1135">Introduction to Attic Greek</text><rect class="bookcase-book" fill="#2086C0" height="227" id="book-13746" stroke="black" width="28" x="360" y="912" /><text dominant-baseline="middle" fill="white" font-family="Arial" font-size="18px" transform="rotate(-90,374.0,1135)" x="374.0" y="1135">The Morphology of Biblical </text><rect class="bookcase-book" fill="#295263" height="231" id="book-20155" stroke="black" width="21" x="388" y="908" /><text dominant-baseline="middle" fill="white" font-family="Arial" font-size="15.75px" transform="rotate(-90,398.5,1135)" x="398.5" y="1135">Greek for the Rest of Us</text><rect class="bookcase-book" fill="#95F9B0" height="278" id="book-13393" stroke="black" width="15" x="409" y="861" /><text dominant-baseline="middle" fill="black" font-family="Arial" font-size="11.25px" transform="rotate(-90,416.5,1135)" x="416.5" y="1135">Basics of Biblical Greek</text><rect class="bookcase-book" fill="#96B9F0" height="283" id="book-13394" stroke="black" width="29" x="424" y="856" /><text dominant-baseline="middle" fill="black" font-family="Arial" font-size="18px" transform="rotate(-90,438.5,1135)" x="438.5" y="1135">Basics of Biblical Greek</text><rect class="bookcase-book" fill="#3274C0" height="255" id="book-13479" stroke="black" width="31" x="453" y="884" /><text dominant-baseline="middle" fill="white" font-family="Arial" font-size="18px" transform="rotate(-90,468.5,1135)" x="468.5" y="1135">Fundamentals of New Testame</text><rect class="bookcase-book" fill="#E7E7E7" height="243" id="book-22314" stroke="black" width="24" x="484" y="896" /><text dominant-baseline="middle" fill="black" font-family="Arial" font-size="18px" transform="rotate(-90,496.0,1135)" x="496.0" y="1135">Polis</text><rect class="bookcase-book" fill="#E7E7E7" height="243" id="book-22315" stroke="black" width="6" x="508" y="896" /><text dominant-baseline="middle" fill="black" font-family="Arial" font-size="4.5px" transform="rotate(-90,511.0,1135)" x="511.0" y="1135">Polis</text><rect class="bookcase-book" fill="#9B5924" height="234" id="book-22328" stroke="black" width="48" x="531" y="925" /><text dominant-baseline="middle" fill="white" font-family="Arial" font-size="18px" transform="rotate(-90,555.0,1155)" x="555.0" y="1155">Greek Grammar</text><rect class="bookcase-book" fill="#E2401F" height="20" id="book-13460" stroke="black" width="207" x="579" y="1139" /><text dominant-baseline="middle" fill="white" font-family="Arial" font-size="15.0px" x="579" y="1149.0">Essentials of New Testament </text><rect class="bookcase-book" fill="#EBF2F0" height="228" id="book-13494" stroke="black" width="15" x="579" y="911" /><text dominant-baseline="middle" fill="black" font-family="Arial" font-size="11.25px" transform="rotate(-90,586.5,1135)" x="586.5" y="1135">Greek Verbs in the New Testament and Thei</text><rect class="bookcase-book" fill="#30327D" height="239" id="book-13686" stroke="black" width="22" x="594" y="900" /><text dominant-baseline="middle" fill="white" font-family="Arial" font-size="16.5px" transform="rotate(-90,605.0,1135)" x="605.0" y="1135">The Basics of New Testament S</text><rect class="bookcase-book" fill="#1E1146" height="239" id="book-22243" stroke="black" width="48" x="616" y="900" /><text dominant-baseline="middle" fill="white" font-family="Arial" font-size="18px" transform="rotate(-90,640.0,1135)" x="640.0" y="1135">Greek Grammar</text><rect class="bookcase-book" fill="#AF9E94" height="236" id="book-13521" stroke="black" width="22" x="664" y="903" /><text dominant-baseline="middle" fill="black" font-family="Arial" font-size="16.5px" transform="rotate(-90,675.0,1135)" x="675.0" y="1135">Intermediate New Testament G</text><rect class="bookcase-book" fill="#F1CA78" height="228" id="book-13395" stroke="black" width="11" x="686" y="911" /><text dominant-baseline="middle" fill="black" font-family="Arial" font-size="8.25px" transform="rotate(-90,691.5,1135)" x="691.5" y="1135">Basics of Verbal Aspect in Biblical Greek</text><rect class="bookcase-book" fill="#ED9E2A" height="218" id="book-14092" stroke="black" width="13" x="697" y="921" /><text dominant-baseline="middle" fill="black" font-family="Arial" font-size="9.75px" transform="rotate(-90,703.5,1135)" x="703.5" y="1135">Vox Graeca</text><rect class="bookcase-book" fill="#D615B0" height="204" id="book-13378" stroke="black" width="8" x="710" y="935" /><text dominant-baseline="middle" fill="white" font-family="Arial" font-size="6.0px" transform="rotate(-90,714.0,1135)" x="714.0" y="1135">An Interpretive Lexicon of New Testament Greek</text><rect class="bookcase-book" fill="#EC8B11" height="250" id="book-14097" stroke="black" width="28" x="718" y="889" /><text dominant-baseline="middle" fill="black" font-family="Arial" font-size="18px" transform="rotate(-90,732.0,1135)" x="732.0" y="1135">Introduction to Sanskrit</text><rect class="bookcase-book" fill="#B56623" height="250" id="book-14098" stroke="black" width="27" x="746" y="889" /><text dominant-baseline="middle" fill="white" font-family="Arial" font-size="18px" transform="rotate(-90,759.5,1135)" x="759.5" y="1135">Introduction to Sanskrit</text><rect class="bookcase-book" fill="#632413" height="233" id="book-14090" stroke="black" width="15" x="786" y="926" /><text dominant-baseline="middle" fill="white" font-family="Arial" font-size="11.25px" transform="rotate(-90,793.5,1155)" x="793.5" y="1155">Hebrew for the Rest of Us</text><rect height="327" width="20" x="50" y="1159" /><rect height="327" width="20" x="830" y="1159" /><rect height="20" width="760" x="70" y="1159" /><rect height="20" width="800" x="50" y="1486" /><rect class="bookcase-book" fill="#727856" height="233" id="book-13362" stroke="black" width="43" x="84" y="1253" /><text dominant-baseline="middle" fill="white" font-family="Arial" font-size="18px" transform="rotate(-90,105.5,1482)" x="105.5" y="1482">A Reader's Hebrew-English </text><rect class="bookcase-book" fill="#BD8D46" height="241" id="book-13690" stroke="black" width="58" x="127" y="1245" /><text dominant-baseline="middle" fill="black" font-family="Arial" font-size="18px" transform="rotate(-90,156.0,1482)" x="156.0" y="1482">The Brown-Driver-Briggs Heb</text><rect class="bookcase-book" fill="#F7EFE5" height="203" id="book-13369" stroke="black" width="9" x="185" y="1283" /><text dominant-baseline="middle" fill="black" font-family="Arial" font-size="6.75px" transform="rotate(-90,189.5,1482)" x="189.5" y="1482">A Student's Vocabulary for Biblical Hebrew and Aramaic</text><rect class="bookcase-book" fill="#A16A62" height="236" id="book-13356" stroke="black" width="26" x="194" y="1250" /><text dominant-baseline="middle" fill="white" font-family="Arial" font-size="18px" transform="rotate(-90,207.0,1482)" x="207.0" y="1482">A Grammar for Biblical Hebr</text><rect class="bookcase-book" fill="#5A5370" height="279" id="book-13693" stroke="black" width="24" x="220" y="1207" /><text dominant-baseline="middle" fill="white" font-family="Arial" font-size="18px" transform="rotate(-90,232.0,1482)" x="232.0" y="1482">The Cambridge Introduction to Bib</text><rect class="bookcase-book" fill="#291E10" height="228" id="book-13559" stroke="black" width="81" x="244" y="1258" /><text dominant-baseline="middle" fill="white" font-family="Arial" font-size="18px" transform="rotate(-90,284.5,1482)" x="284.5" y="1482">Living Language Arabic</text><rect class="bookcase-book" fill="#F4DE23" height="209" id="book-20175" stroke="black" width="60" x="325" y="1277" /><text dominant-baseline="middle" fill="black" font-family="Arial" font-size="18px" transform="rotate(-90,355.0,1482)" x="355.0" y="1482">Students' Practical Englis</text><rect class="bookcase-book" fill="#D58025" height="278" id="book-13529" stroke="black" width="13" x="385" y="1208" /><text dominant-baseline="middle" fill="black" font-family="Arial" font-size="9.75px" transform="rotate(-90,391.5,1482)" x="391.5" y="1482">Introduction to Sumerian Grammar</text><rect class="bookcase-book" fill="#F4B931" height="229" id="book-13666" stroke="black" width="25" x="398" y="1257" /><text dominant-baseline="middle" fill="black" font-family="Arial" font-size="18px" transform="rotate(-90,410.5,1482)" x="410.5" y="1482">Sumerian Lexicon</text><rect class="bookcase-book" fill="#989883" height="279" id="book-13353" stroke="black" width="59" x="423" y="1207" /><text dominant-baseline="middle" fill="black" font-family="Arial" font-size="18px" transform="rotate(-90,452.5,1482)" x="452.5" y="1482">A Descriptive Grammar of Sumeri</text><rect class="bookcase-book" fill="#E9ADF0" height="234" id="book-13727" stroke="black" width="34" x="482" y="1252" /><text dominant-baseline="middle" fill="black" font-family="Arial" font-size="18px" transform="rotate(-90,499.0,1482)" x="499.0" y="1482">The Handy Science Answer </text><rect class="bookcase-book" fill="#E4ABF0" height="183" id="book-22112" stroke="black" width="21" x="516" y="1303" /><text dominant-baseline="middle" fill="black" font-family="Arial" font-size="15.75px" transform="rotate(-90,526.5,1482)" x="526.5" y="1482">The Last Unknowns</text><rect class="bookcase-book" fill="#292C27" height="10" id="book-16321" stroke="black" width="209" x="537" y="1476" /><text dominant-baseline="middle" fill="white" font-family="Arial" font-size="7.5px" x="537" y="1481.0">The Meaning of it All</text><rect class="bookcase-book" fill="#813180" height="16" id="book-14241" stroke="black" width="203" x="537" y="1460" /><text dominant-baseline="middle" fill="white" font-family="Arial" font-size="12.0px" x="537" y="1468.0">The Structure of Scientific Revolution</text><rect class="bookcase-book" fill="#151F26" height="236" id="book-22397" stroke="black" width="22" x="537" y="1224" /><text dominant-baseline="middle" fill="white" font-family="Arial" font-size="16.5px" transform="rotate(-90,548.0,1456)" x="548.0" y="1456">How To</text><rect class="bookcase-book" fill="#624542" height="236" id="book-16319" stroke="black" width="28" x="559" y="1224" /><text dominant-baseline="middle" fill="white" font-family="Arial" font-size="18px" transform="rotate(-90,573.0,1456)" x="573.0" y="1456">What If?</text><rect class="bookcase-book" fill="#DFEEEC" height="214" id="book-16348" stroke="black" width="18" x="587" y="1246" /><text dominant-baseline="middle" fill="black" font-family="Arial" font-size="13.5px" transform="rotate(-90,596.0,1456)" x="596.0" y="1456">The Half-Life of Facts</text><rect class="bookcase-book" fill="#776D54" height="262" id="book-14806" stroke="black" width="42" x="605" y="1198" /><text dominant-baseline="middle" fill="white" font-family="Arial" font-size="18px" transform="rotate(-90,626.0,1456)" x="626.0" y="1456">Mathematical Ideas</text><rect class="bookcase-book" fill="#867D70" height="235" id="book-16372" stroke="black" width="50" x="647" y="1225" /><text dominant-baseline="middle" fill="black" font-family="Arial" font-size="18px" transform="rotate(-90,672.0,1456)" x="672.0" y="1456">The Universal History of Nu</text><rect class="bookcase-book" fill="#263144" height="203" id="book-16342" stroke="black" width="18" x="697" y="1257" /><text dominant-baseline="middle" fill="white" font-family="Arial" font-size="13.5px" transform="rotate(-90,706.0,1456)" x="706.0" y="1456">The Universe and the Teacup</text><rect class="bookcase-book" fill="#443F69" height="197" id="book-20253" stroke="black" width="25" x="715" y="1263" /><text dominant-baseline="middle" fill="white" font-family="Arial" font-size="18px" transform="rotate(-90,727.5,1456)" x="727.5" y="1456">The Penguin Dictionary </text><rect class="bookcase-book" fill="#A45C40" height="274" id="book-13441" stroke="black" width="63" x="746" y="1212" /><text dominant-baseline="middle" fill="white" font-family="Arial" font-size="18px" transform="rotate(-90,777.5,1482)" x="777.5" y="1482">CRC Handbook Of Tables For Ma</text><rect class="bookcase-book" fill="#D7B069" height="278" id="book-13569" stroke="black" width="8" x="809" y="1208" /><text dominant-baseline="middle" fill="black" font-family="Arial" font-size="6.0px" transform="rotate(-90,813.0,1482)" x="813.0" y="1482">Mathematical Inquiry</text><rect height="321" width="20" x="50" y="1486" /><rect height="321" width="20" x="830" y="1486" /><rect height="20" width="760" x="70" y="1486" /><rect height="20" width="800" x="50" y="1807" /><rect height="317" width="20" x="50" y="1807" /><rect height="317" width="20" x="830" y="1807" /><rect height="20" width="760" x="70" y="1807" /><rect height="20" width="800" x="50" y="2124" /><rect class="bookcase-book" fill="#494558" height="222" id="book-16313" stroke="black" width="28" x="84" y="1902" /><text dominant-baseline="middle" fill="white" font-family="Arial" font-size="18px" transform="rotate(-90,98.0,2120)" x="98.0" y="2120">The Outer Limits of Reaso</text><rect class="bookcase-book" fill="#D8CDA0" height="261" id="book-14814" stroke="black" width="27" x="112" y="1863" /><text dominant-baseline="middle" fill="black" font-family="Arial" font-size="18px" transform="rotate(-90,125.5,2120)" x="125.5" y="2120">College Algebra</text><rect class="bookcase-book" fill="#E0B861" height="261" id="book-13433" stroke="black" width="30" x="139" y="1863" /><text dominant-baseline="middle" fill="black" font-family="Arial" font-size="18px" transform="rotate(-90,154.0,2120)" x="154.0" y="2120">College Algebra</text><rect class="bookcase-book" fill="#434F47" height="239" id="book-20255" stroke="black" width="31" x="169" y="1885" /><text dominant-baseline="middle" fill="white" font-family="Arial" font-size="18px" transform="rotate(-90,184.5,2120)" x="184.5" y="2120">Algebra Two</text><rect class="bookcase-book" fill="#DC4328" height="260" id="book-20256" stroke="black" width="43" x="200" y="1864" /><text dominant-baseline="middle" fill="white" font-family="Arial" font-size="18px" transform="rotate(-90,221.5,2120)" x="221.5" y="2120">Beginning and Intermediate Alg</text><rect class="bookcase-book" fill="#AEBD40" height="260" id="book-20257" stroke="black" width="29" x="243" y="1864" /><text dominant-baseline="middle" fill="black" font-family="Arial" font-size="18px" transform="rotate(-90,257.5,2120)" x="257.5" y="2120">College Algebra</text><rect class="bookcase-book" fill="#1E6393" height="278" id="book-20259" stroke="black" width="36" x="272" y="1846" /><text dominant-baseline="middle" fill="white" font-family="Arial" font-size="18px" transform="rotate(-90,290.0,2120)" x="290.0" y="2120">College Algebra</text><rect class="bookcase-book" fill="#3E527D" height="174" id="book-16314" stroke="black" width="30" x="308" y="1950" /><text dominant-baseline="middle" fill="white" font-family="Arial" font-size="18px" transform="rotate(-90,323.0,2120)" x="323.0" y="2120">Infinity and the Mind</text><rect class="bookcase-book" fill="#AE5837" height="241" id="book-14804" stroke="black" width="32" x="338" y="1883" /><text dominant-baseline="middle" fill="white" font-family="Arial" font-size="18px" transform="rotate(-90,354.0,2120)" x="354.0" y="2120">Geometry</text><rect class="bookcase-book" fill="#BD8010" height="241" id="book-20510" stroke="black" width="29" x="370" y="1883" /><text dominant-baseline="middle" fill="black" font-family="Arial" font-size="18px" transform="rotate(-90,384.5,2120)" x="384.5" y="2120">College Geometry</text><rect class="bookcase-book" fill="#5E4C42" height="261" id="book-16729" stroke="black" width="24" x="399" y="1863" /><text dominant-baseline="middle" fill="white" font-family="Arial" font-size="18px" transform="rotate(-90,411.0,2120)" x="411.0" y="2120">Calculus and Its Applications</text><rect class="bookcase-book" fill="#4C4132" height="261" id="book-22543" stroke="black" width="46" x="423" y="1863" /><text dominant-baseline="middle" fill="white" font-family="Arial" font-size="18px" transform="rotate(-90,446.0,2120)" x="446.0" y="2120">Calculus and Analytic Geometry</text><rect class="bookcase-book" fill="#F44000" height="279" id="book-12982" stroke="black" width="18" x="469" y="1845" /><text dominant-baseline="middle" fill="white" font-family="Arial" font-size="13.5px" transform="rotate(-90,478.0,2120)" x="478.0" y="2120">Calculus 1</text><rect class="bookcase-book" fill="#FDF390" height="279" id="book-12983" stroke="black" width="19" x="487" y="1845" /><text dominant-baseline="middle" fill="black" font-family="Arial" font-size="14.25px" transform="rotate(-90,496.5,2120)" x="496.5" y="2120">Calculus 2</text><rect class="bookcase-book" fill="#922000" height="279" id="book-12984" stroke="black" width="23" x="506" y="1845" /><text dominant-baseline="middle" fill="white" font-family="Arial" font-size="17.25px" transform="rotate(-90,517.5,2120)" x="517.5" y="2120">Calculus 3</text><rect class="bookcase-book" fill="#B01110" height="272" id="book-20258" stroke="black" width="26" x="529" y="1852" /><text dominant-baseline="middle" fill="white" font-family="Arial" font-size="18px" transform="rotate(-90,542.0,2120)" x="542.0" y="2120">Precalculus</text><rect class="bookcase-book" fill="#C58500" height="272" id="book-26195" stroke="black" width="26" x="555" y="1852" /><text dominant-baseline="middle" fill="black" font-family="Arial" font-size="18px" transform="rotate(-90,568.0,2120)" x="568.0" y="2120">Calculus I</text><rect class="bookcase-book" fill="#AA612F" height="260" id="book-20504" stroke="black" width="38" x="581" y="1864" /><text dominant-baseline="middle" fill="white" font-family="Arial" font-size="18px" transform="rotate(-90,600.0,2120)" x="600.0" y="2120">Calculus</text><rect class="bookcase-book" fill="#4C6CC7" height="253" id="book-20517" stroke="black" width="3" x="619" y="1871" /><text dominant-baseline="middle" fill="white" font-family="Arial" font-size="2.25px" transform="rotate(-90,620.5,2120)" x="620.5" y="2120">Calculus</text><rect class="bookcase-book" fill="#92A8BF" height="253" id="book-20525" stroke="black" width="26" x="622" y="1871" /><text dominant-baseline="middle" fill="black" font-family="Arial" font-size="18px" transform="rotate(-90,635.0,2120)" x="635.0" y="2120">Essentials of Statistics for the </text><rect class="bookcase-book" fill="#AFAFAF" height="210" id="book-16331" stroke="black" width="20" x="648" y="1914" /><text dominant-baseline="middle" fill="black" font-family="Arial" font-size="15.0px" transform="rotate(-90,658.0,2120)" x="658.0" y="2120">The Improbability Principle</text><rect class="bookcase-book" fill="#F5F9DE" height="241" id="book-22109" stroke="black" width="25" x="668" y="1883" /><text dominant-baseline="middle" fill="black" font-family="Arial" font-size="18px" transform="rotate(-90,680.5,2120)" x="680.5" y="2120">The Drunkard's Walk</text><rect class="bookcase-book" fill="#653E79" height="241" id="book-22482" stroke="black" width="29" x="693" y="1883" /><text dominant-baseline="middle" fill="white" font-family="Arial" font-size="18px" transform="rotate(-90,707.5,2120)" x="707.5" y="2120">Probability and Statistics in th</text><rect class="bookcase-book" fill="#4E321F" height="253" id="book-26194" stroke="black" width="18" x="722" y="1871" /><text dominant-baseline="middle" fill="white" font-family="Arial" font-size="13.5px" transform="rotate(-90,731.0,2120)" x="731.0" y="2120">Mathematical Statistics</text><rect class="bookcase-book" fill="#202428" height="228" id="book-16448" stroke="black" width="15" x="740" y="1896" /><text dominant-baseline="middle" fill="white" font-family="Arial" font-size="11.25px" transform="rotate(-90,747.5,2120)" x="747.5" y="2120">A Brief History of Time</text><rect class="bookcase-book" fill="#37C000" height="208" id="book-16447" stroke="black" width="22" x="755" y="1916" /><text dominant-baseline="middle" fill="black" font-family="Arial" font-size="16.5px" transform="rotate(-90,766.0,2120)" x="766.0" y="2120">Space Chronicles</text><rect class="bookcase-book" fill="#1F2C22" height="234" id="book-16363" stroke="black" width="25" x="777" y="1890" /><text dominant-baseline="middle" fill="white" font-family="Arial" font-size="18px" transform="rotate(-90,789.5,2120)" x="789.5" y="2120">The Life of the Cosmos</text><rect height="327" width="20" x="50" y="2124" /><rect height="327" width="20" x="830" y="2124" /><rect height="20" width="760" x="70" y="2124" /><rect height="20" width="800" x="50" y="2451" /><rect class="bookcase-book" fill="#E9EBE8" height="286" id="book-20511" stroke="black" width="31" x="84" y="2165" /><text dominant-baseline="middle" fill="black" font-family="Arial" font-size="18px" transform="rotate(-90,99.5,2447)" x="99.5" y="2447">Precalculus</text><rect class="bookcase-book" fill="#E2E010" height="283" id="book-20260" stroke="black" width="44" x="115" y="2168" /><text dominant-baseline="middle" fill="black" font-family="Arial" font-size="18px" transform="rotate(-90,137.0,2447)" x="137.0" y="2447">Algebra</text><rect class="bookcase-book" fill="#123144" height="21" id="book-20327" stroke="black" width="191" x="159" y="2430" /><text dominant-baseline="middle" fill="white" font-family="Arial" font-size="15.75px" x="159" y="2440.5">Astrophysics for People in </text><rect class="bookcase-book" fill="#67CD22" height="209" id="book-22767" stroke="black" width="18" x="159" y="2221" /><text dominant-baseline="middle" fill="black" font-family="Arial" font-size="13.5px" transform="rotate(-90,168.0,2426)" x="168.0" y="2426">In the Beginning</text><rect class="bookcase-book" fill="#F17340" height="240" id="book-16364" stroke="black" width="21" x="177" y="2190" /><text dominant-baseline="middle" fill="black" font-family="Arial" font-size="15.75px" transform="rotate(-90,187.5,2426)" x="187.5" y="2426">In Search of the Multiverse</text><rect class="bookcase-book" fill="#283D91" height="213" id="book-16450" stroke="black" width="15" x="198" y="2217" /><text dominant-baseline="middle" fill="white" font-family="Arial" font-size="11.25px" transform="rotate(-90,205.5,2426)" x="205.5" y="2426">A Universe from Nothing</text><rect class="bookcase-book" fill="#E9E9EE" height="235" id="book-20326" stroke="black" width="29" x="213" y="2195" /><text dominant-baseline="middle" fill="black" font-family="Arial" font-size="18px" transform="rotate(-90,227.5,2426)" x="227.5" y="2426">We Have No Idea</text><rect class="bookcase-book" fill="#65523F" height="186" id="book-20187" stroke="black" width="23" x="242" y="2244" /><text dominant-baseline="middle" fill="white" font-family="Arial" font-size="17.25px" transform="rotate(-90,253.5,2426)" x="253.5" y="2426">The Case for Pluto</text><rect class="bookcase-book" fill="#BFD7BF" height="241" id="book-20190" stroke="black" width="24" x="265" y="2189" /><text dominant-baseline="middle" fill="black" font-family="Arial" font-size="18px" transform="rotate(-90,277.0,2426)" x="277.0" y="2426">Is Pluto a Planet?</text><rect class="bookcase-book" fill="#F0EAD9" height="236" id="book-20254" stroke="black" width="27" x="289" y="2194" /><text dominant-baseline="middle" fill="black" font-family="Arial" font-size="18px" transform="rotate(-90,302.5,2426)" x="302.5" y="2426">Meteorite Hunter</text><rect class="bookcase-book" fill="#202480" height="209" id="book-16324" stroke="black" width="24" x="316" y="2221" /><text dominant-baseline="middle" fill="white" font-family="Arial" font-size="18px" transform="rotate(-90,328.0,2426)" x="328.0" y="2426">Death by Black Hole</text><rect class="bookcase-book" fill="#2F3D35" height="234" id="book-16602" stroke="black" width="45" x="350" y="2217" /><text dominant-baseline="middle" fill="white" font-family="Arial" font-size="18px" transform="rotate(-90,372.5,2447)" x="372.5" y="2447">Air Pollution Control</text><rect class="bookcase-book" fill="#6354B5" height="276" id="book-20192" stroke="black" width="28" x="395" y="2175" /><text dominant-baseline="middle" fill="white" font-family="Arial" font-size="18px" transform="rotate(-90,409.0,2447)" x="409.0" y="2447">Physics</text><rect class="bookcase-book" fill="#E9C562" height="12" id="book-14243" stroke="black" width="209" x="423" y="2439" /><text dominant-baseline="middle" fill="black" font-family="Arial" font-size="9.0px" x="423" y="2445.0">Six Easy Pieces</text><rect class="bookcase-book" fill="#5F3C29" height="258" id="book-22108" stroke="black" width="21" x="423" y="2181" /><text dominant-baseline="middle" fill="white" font-family="Arial" font-size="15.75px" transform="rotate(-90,433.5,2435)" x="433.5" y="2435">The Universe in a Nutshell</text><rect class="bookcase-book" fill="#EE4C3F" height="216" id="book-16446" stroke="black" width="30" x="444" y="2223" /><text dominant-baseline="middle" fill="white" font-family="Arial" font-size="18px" transform="rotate(-90,459.0,2435)" x="459.0" y="2435">Death from the Skies!</text><rect class="bookcase-book" fill="#4E6360" height="235" id="book-20322" stroke="black" width="18" x="474" y="2204" /><text dominant-baseline="middle" fill="white" font-family="Arial" font-size="13.5px" transform="rotate(-90,483.0,2435)" x="483.0" y="2435">A Most Incomprehensible Thing</text><rect class="bookcase-book" fill="#1582B4" height="212" id="book-20321" stroke="black" width="14" x="492" y="2227" /><text dominant-baseline="middle" fill="white" font-family="Arial" font-size="10.5px" transform="rotate(-90,499.0,2435)" x="499.0" y="2435">Relativity Simply Explained</text><rect class="bookcase-book" fill="#706245" height="203" id="book-16453" stroke="black" width="21" x="506" y="2236" /><text dominant-baseline="middle" fill="white" font-family="Arial" font-size="15.75px" transform="rotate(-90,516.5,2435)" x="516.5" y="2435">The Particle at the End of th</text><rect class="bookcase-book" fill="#F8F367" height="209" id="book-16452" stroke="black" width="19" x="527" y="2230" /><text dominant-baseline="middle" fill="black" font-family="Arial" font-size="14.25px" transform="rotate(-90,536.5,2435)" x="536.5" y="2435">The Quantum Universe</text><rect class="bookcase-book" fill="#1A1524" height="242" id="book-16451" stroke="black" width="33" x="546" y="2197" /><text dominant-baseline="middle" fill="white" font-family="Arial" font-size="18px" transform="rotate(-90,562.5,2435)" x="562.5" y="2435">The Hidden Reality</text><rect class="bookcase-book" fill="#635B32" height="242" id="book-14228" stroke="black" width="27" x="579" y="2197" /><text dominant-baseline="middle" fill="white" font-family="Arial" font-size="18px" transform="rotate(-90,592.5,2435)" x="592.5" y="2435">Present at the Creation</text><rect class="bookcase-book" fill="#395700" height="203" id="book-22698" stroke="black" width="24" x="606" y="2236" /><text dominant-baseline="middle" fill="white" font-family="Arial" font-size="18px" transform="rotate(-90,618.0,2435)" x="618.0" y="2435">The Elegant Universe</text><rect class="bookcase-book" fill="#847D88" height="251" id="book-20509" stroke="black" width="40" x="632" y="2200" /><text dominant-baseline="middle" fill="black" font-family="Arial" font-size="18px" transform="rotate(-90,652.0,2447)" x="652.0" y="2447">Chemistry and Chemical Reac</text><rect class="bookcase-book" fill="#40382D" height="284" id="book-13482" stroke="black" width="44" x="672" y="2167" /><text dominant-baseline="middle" fill="white" font-family="Arial" font-size="18px" transform="rotate(-90,694.0,2447)" x="694.0" y="2447">General Chemistry</text><rect class="bookcase-book" fill="#E4EED8" height="209" id="book-16478" stroke="black" width="28" x="716" y="2242" /><text dominant-baseline="middle" fill="black" font-family="Arial" font-size="18px" transform="rotate(-90,730.0,2447)" x="730.0" y="2447">The Disappearing Spoon</text><rect class="bookcase-book" fill="#C46A77" height="228" id="book-22126" stroke="black" width="14" x="744" y="2223" /><text dominant-baseline="middle" fill="black" font-family="Arial" font-size="10.5px" transform="rotate(-90,751.0,2447)" x="751.0" y="2447">Chemistry</text><rect class="bookcase-book" fill="#DDEBF4" height="283" id="book-22544" stroke="black" width="33" x="758" y="2168" /><text dominant-baseline="middle" fill="black" font-family="Arial" font-size="18px" transform="rotate(-90,774.5,2447)" x="774.5" y="2447">Principles of General Chemistry</text><rect class="bookcase-book" fill="#F8F8D5" height="176" id="book-16479" stroke="black" width="24" x="791" y="2275" /><text dominant-baseline="middle" fill="black" font-family="Arial" font-size="18px" transform="rotate(-90,803.0,2447)" x="803.0" y="2447">Wonderful Life with t</text><rect height="321" width="20" x="50" y="2451" /><rect height="321" width="20" x="830" y="2451" /><rect height="20" width="760" x="70" y="2451" /><rect height="20" width="800" x="50" y="2772" /><rect class="bookcase-book" fill="#37372D" height="274" id="book-13461" stroke="black" width="21" x="84" y="2498" /><text dominant-baseline="middle" fill="white" font-family="Arial" font-size="15.75px" transform="rotate(-90,94.5,2768)" x="94.5" y="2768">Essentials Of Physical Chemistry</text><rect class="bookcase-book" fill="#CFB386" height="236" id="book-20439" stroke="black" width="16" x="105" y="2536" /><text dominant-baseline="middle" fill="black" font-family="Arial" font-size="12.0px" transform="rotate(-90,113.0,2768)" x="113.0" y="2768">30 Second Elements</text><rect class="bookcase-book" fill="#CFC2B2" height="282" id="book-13603" stroke="black" width="44" x="121" y="2490" /><text dominant-baseline="middle" fill="black" font-family="Arial" font-size="18px" transform="rotate(-90,143.0,2768)" x="143.0" y="2768">Organic Chemistry</text><rect class="bookcase-book" fill="#C6D9E4" height="236" id="book-22118" stroke="black" width="22" x="165" y="2536" /><text dominant-baseline="middle" fill="black" font-family="Arial" font-size="16.5px" transform="rotate(-90,176.0,2768)" x="176.0" y="2768">The Weather Machine</text><rect class="bookcase-book" fill="#D0C3AC" height="227" id="book-16444" stroke="black" width="18" x="187" y="2545" /><text dominant-baseline="middle" fill="black" font-family="Arial" font-size="13.5px" transform="rotate(-90,196.0,2768)" x="196.0" y="2768">The Secret Life of Dust</text><rect class="bookcase-book" fill="#5A5B42" height="242" id="book-16469" stroke="black" width="29" x="205" y="2530" /><text dominant-baseline="middle" fill="white" font-family="Arial" font-size="18px" transform="rotate(-90,219.5,2768)" x="219.5" y="2768">Wonderful Life</text><rect class="bookcase-book" fill="#9C6335" height="211" id="book-16473" stroke="black" width="23" x="234" y="2561" /><text dominant-baseline="middle" fill="white" font-family="Arial" font-size="17.25px" transform="rotate(-90,245.5,2768)" x="245.5" y="2768">My Beloved Brontosaurus</text><rect class="bookcase-book" fill="#6D4F39" height="276" id="book-13407" stroke="black" width="21" x="257" y="2496" /><text dominant-baseline="middle" fill="white" font-family="Arial" font-size="15.75px" transform="rotate(-90,267.5,2768)" x="267.5" y="2768">Test Items for Biology</text><rect class="bookcase-book" fill="#585D4A" height="276" id="book-13520" stroke="black" width="20" x="278" y="2496" /><text dominant-baseline="middle" fill="white" font-family="Arial" font-size="15.0px" transform="rotate(-90,288.0,2768)" x="288.0" y="2768">Instructor's Resource Manual for Biology</text><rect class="bookcase-book" fill="#E9F5EA" height="276" id="book-13462" stroke="black" width="23" x="298" y="2496" /><text dominant-baseline="middle" fill="black" font-family="Arial" font-size="17.25px" transform="rotate(-90,309.5,2768)" x="309.5" y="2768">Essentials of the Living World</text><rect class="bookcase-book" fill="#794625" height="209" id="book-16459" stroke="black" width="29" x="321" y="2563" /><text dominant-baseline="middle" fill="white" font-family="Arial" font-size="18px" transform="rotate(-90,335.5,2768)" x="335.5" y="2768">The Violinist's Thumb</text><rect class="bookcase-book" fill="#C2B857" height="260" id="book-16483" stroke="black" width="19" x="350" y="2512" /><text dominant-baseline="middle" fill="black" font-family="Arial" font-size="14.25px" transform="rotate(-90,359.5,2768)" x="359.5" y="2768">The Where, the Why, and the How</text><rect class="bookcase-book" fill="#35694C" height="203" id="book-22121" stroke="black" width="25" x="369" y="2569" /><text dominant-baseline="middle" fill="white" font-family="Arial" font-size="18px" transform="rotate(-90,381.5,2768)" x="381.5" y="2768">The Third Chimpanzee</text><rect class="bookcase-book" fill="#EBF4F2" height="223" id="book-22593" stroke="black" width="23" x="394" y="2549" /><text dominant-baseline="middle" fill="black" font-family="Arial" font-size="17.25px" transform="rotate(-90,405.5,2768)" x="405.5" y="2768">Do Fish Feel Pain</text><rect class="bookcase-book" fill="#F2C884" height="202" id="book-16457" stroke="black" width="12" x="417" y="2570" /><text dominant-baseline="middle" fill="black" font-family="Arial" font-size="9.0px" transform="rotate(-90,423.0,2768)" x="423.0" y="2768">What Mad Pursuit</text><rect class="bookcase-book" fill="#356544" height="276" id="book-16440" stroke="black" width="34" x="429" y="2496" /><text dominant-baseline="middle" fill="white" font-family="Arial" font-size="18px" transform="rotate(-90,446.0,2768)" x="446.0" y="2768">Prescott's Microbiology</text><rect class="bookcase-book" fill="#DCAF73" height="181" id="book-13604" stroke="black" width="30" x="463" y="2591" /><text dominant-baseline="middle" fill="black" font-family="Arial" font-size="18px" transform="rotate(-90,478.0,2768)" x="478.0" y="2768">Origin of Species</text><rect class="bookcase-book" fill="#131C14" height="283" id="book-20261" stroke="black" width="29" x="493" y="2489" /><text dominant-baseline="middle" fill="white" font-family="Arial" font-size="18px" transform="rotate(-90,507.5,2768)" x="507.5" y="2768">Concepts of Genetics</text><rect class="bookcase-book" fill="#F7FAF0" height="20" id="book-16470" stroke="black" width="196" x="522" y="2752" /><text dominant-baseline="middle" fill="black" font-family="Arial" font-size="15.0px" x="522" y="2762.0">The Selfish Gene</text><rect class="bookcase-book" fill="#F1D5D2" height="243" id="book-20829" stroke="black" width="53" x="522" y="2509" /><text dominant-baseline="middle" fill="black" font-family="Arial" font-size="18px" transform="rotate(-90,548.5,2748)" x="548.5" y="2748">She Has Her Mother's Laugh</text><rect class="bookcase-book" fill="#D94480" height="215" id="book-16467" stroke="black" width="35" x="575" y="2537" /><text dominant-baseline="middle" fill="white" font-family="Arial" font-size="18px" transform="rotate(-90,592.5,2748)" x="592.5" y="2748">The Descent of Man</text><rect class="bookcase-book" fill="#5E5941" height="235" id="book-16477" stroke="black" width="26" x="610" y="2517" /><text dominant-baseline="middle" fill="white" font-family="Arial" font-size="18px" transform="rotate(-90,623.0,2748)" x="623.0" y="2748">Darwin's Dangerous Idea</text><rect class="bookcase-book" fill="#EAEBEA" height="178" id="book-16475" stroke="black" width="18" x="636" y="2574" /><text dominant-baseline="middle" fill="black" font-family="Arial" font-size="13.5px" transform="rotate(-90,645.0,2748)" x="645.0" y="2748">The Panda's Thumb</text><rect class="bookcase-book" fill="#F1E9D8" height="209" id="book-16476" stroke="black" width="23" x="654" y="2543" /><text dominant-baseline="middle" fill="black" font-family="Arial" font-size="17.25px" transform="rotate(-90,665.5,2748)" x="665.5" y="2748">Darwin's Ghosts</text><rect class="bookcase-book" fill="#EDE5BA" height="229" id="book-16472" stroke="black" width="22" x="677" y="2523" /><text dominant-baseline="middle" fill="black" font-family="Arial" font-size="16.5px" transform="rotate(-90,688.0,2748)" x="688.0" y="2748">Written in Stone</text><rect class="bookcase-book" fill="#749DA2" height="209" id="book-26188" stroke="black" width="24" x="718" y="2563" /><text dominant-baseline="middle" fill="black" font-family="Arial" font-size="18px" transform="rotate(-90,730.0,2768)" x="730.0" y="2768">The Death and Life of the</text><rect class="bookcase-book" fill="#434440" height="283" id="book-20195" stroke="black" width="48" x="742" y="2489" /><text dominant-baseline="middle" fill="white" font-family="Arial" font-size="18px" transform="rotate(-90,766.0,2768)" x="766.0" y="2768">Biology</text><rect height="315" width="20" x="50" y="2772" /><rect height="315" width="20" x="830" y="2772" /><rect height="20" width="760" x="70" y="2772" /><rect height="20" width="800" x="50" y="3087" /><rect class="bookcase-book" fill="#C1DEE3" height="186" id="book-16299" stroke="black" width="15" x="84" y="2901" /><text dominant-baseline="middle" fill="black" font-family="Arial" font-size="11.25px" transform="rotate(-90,91.5,3083)" x="91.5" y="3083">Follow Your Gut</text><rect class="bookcase-book" fill="#2C4120" height="183" id="book-16288" stroke="black" width="20" x="99" y="2904" /><text dominant-baseline="middle" fill="white" font-family="Arial" font-size="15.0px" transform="rotate(-90,109.0,3083)" x="109.0" y="3083">Edible Wild Plants</text><rect class="bookcase-book" fill="#7AA79F" height="202" id="book-16465" stroke="black" width="23" x="119" y="2885" /><text dominant-baseline="middle" fill="black" font-family="Arial" font-size="17.25px" transform="rotate(-90,130.5,3083)" x="130.5" y="3083">Zoobiquity</text><rect class="bookcase-book" fill="#D2C9B8" height="23" id="book-22116" stroke="black" width="198" x="142" y="3064" /><text dominant-baseline="middle" fill="black" font-family="Arial" font-size="17.25px" x="142" y="3075.5">The Inner Life of Animals</text><rect class="bookcase-book" fill="#323327" height="209" id="book-22119" stroke="black" width="28" x="142" y="2855" /><text dominant-baseline="middle" fill="white" font-family="Arial" font-size="18px" transform="rotate(-90,156.0,3060)" x="156.0" y="3060">The Mosquito</text><rect class="bookcase-book" fill="#213734" height="209" id="book-22205" stroke="black" width="21" x="170" y="2855" /><text dominant-baseline="middle" fill="white" font-family="Arial" font-size="15.75px" transform="rotate(-90,180.5,3060)" x="180.5" y="3060">What a Fish Knows</text><rect class="bookcase-book" fill="#ACA28D" height="209" id="book-20102" stroke="black" width="26" x="191" y="2855" /><text dominant-baseline="middle" fill="black" font-family="Arial" font-size="18px" transform="rotate(-90,204.0,3060)" x="204.0" y="3060">Audubon's Birds of Ameri</text><rect class="bookcase-book" fill="#E6E7DD" height="203" id="book-20189" stroke="black" width="19" x="217" y="2861" /><text dominant-baseline="middle" fill="black" font-family="Arial" font-size="14.25px" transform="rotate(-90,226.5,3060)" x="226.5" y="3060">The Beak of the Finch</text><rect class="bookcase-book" fill="#191E1C" height="236" id="book-21924" stroke="black" width="31" x="236" y="2828" /><text dominant-baseline="middle" fill="white" font-family="Arial" font-size="18px" transform="rotate(-90,251.5,3060)" x="251.5" y="3060">How to Invent Everything</text><rect class="bookcase-book" fill="#E8F0EE" height="185" id="book-16304" stroke="black" width="14" x="267" y="2879" /><text dominant-baseline="middle" fill="black" font-family="Arial" font-size="10.5px" transform="rotate(-90,274.0,3060)" x="274.0" y="3060">The Laws of Medicine</text><rect class="bookcase-book" fill="#122D32" height="217" id="book-16754" stroke="black" width="28" x="281" y="2847" /><text dominant-baseline="middle" fill="white" font-family="Arial" font-size="18px" transform="rotate(-90,295.0,3060)" x="295.0" y="3060">The Woman Who Swallow</text><rect class="bookcase-book" fill="#C41B1E" height="210" id="book-20808" stroke="black" width="17" x="309" y="2854" /><text dominant-baseline="middle" fill="white" font-family="Arial" font-size="12.75px" transform="rotate(-90,317.5,3060)" x="317.5" y="3060">The Checklist Manifesto</text><rect class="bookcase-book" fill="#681EB2" height="241" id="book-22387" stroke="black" width="27" x="340" y="2846" /><text dominant-baseline="middle" fill="white" font-family="Arial" font-size="18px" transform="rotate(-90,353.5,3083)" x="353.5" y="3083">The New Complete Medical a</text><rect class="bookcase-book" fill="#799234" height="241" id="book-22390" stroke="black" width="28" x="367" y="2846" /><text dominant-baseline="middle" fill="black" font-family="Arial" font-size="18px" transform="rotate(-90,381.0,3083)" x="381.0" y="3083">The New Complete Medical a</text><rect class="bookcase-book" fill="#933E7C" height="241" id="book-22389" stroke="black" width="28" x="395" y="2846" /><text dominant-baseline="middle" fill="white" font-family="Arial" font-size="18px" transform="rotate(-90,409.0,3083)" x="409.0" y="3083">The New Complete Medical a</text><rect class="bookcase-book" fill="#9B507D" height="241" id="book-22388" stroke="black" width="28" x="423" y="2846" /><text dominant-baseline="middle" fill="white" font-family="Arial" font-size="18px" transform="rotate(-90,437.0,3083)" x="437.0" y="3083">The New Complete Medical a</text><rect class="bookcase-book" fill="#303E54" height="238" id="book-20191" stroke="black" width="67" x="451" y="2849" /><text dominant-baseline="middle" fill="white" font-family="Arial" font-size="18px" transform="rotate(-90,484.5,3083)" x="484.5" y="3083">Gray's Anatomy</text><rect class="bookcase-book" fill="#BC3997" height="241" id="book-20528" stroke="black" width="41" x="518" y="2846" /><text dominant-baseline="middle" fill="white" font-family="Arial" font-size="18px" transform="rotate(-90,538.5,3083)" x="538.5" y="3083">Human Anatomy &amp; Physiolog</text><rect class="bookcase-book" fill="#BCA7AD" height="209" id="book-20814" stroke="black" width="21" x="559" y="2878" /><text dominant-baseline="middle" fill="black" font-family="Arial" font-size="15.75px" transform="rotate(-90,569.5,3083)" x="569.5" y="3083">Stiff</text><rect class="bookcase-book" fill="#C0CBB4" height="218" id="book-22558" stroke="black" width="23" x="580" y="2869" /><text dominant-baseline="middle" fill="black" font-family="Arial" font-size="17.25px" transform="rotate(-90,591.5,3083)" x="591.5" y="3083">Your Inner Fish</text><rect class="bookcase-book" fill="#C3C3B9" height="210" id="book-16498" stroke="black" width="23" x="603" y="2877" /><text dominant-baseline="middle" fill="black" font-family="Arial" font-size="17.25px" transform="rotate(-90,614.5,3083)" x="614.5" y="3083">The Tell-Tale Brain</text><rect class="bookcase-book" fill="#F8F8B2" height="234" id="book-16497" stroke="black" width="30" x="626" y="2853" /><text dominant-baseline="middle" fill="black" font-family="Arial" font-size="18px" transform="rotate(-90,641.0,3083)" x="641.0" y="3083">Connectome</text><rect class="bookcase-book" fill="#F0F26A" height="228" id="book-16495" stroke="black" width="13" x="656" y="2859" /><text dominant-baseline="middle" fill="black" font-family="Arial" font-size="9.75px" transform="rotate(-90,662.5,3083)" x="662.5" y="3083">The Vision Revolution</text><rect class="bookcase-book" fill="#2115E0" height="210" id="book-22469" stroke="black" width="7" x="669" y="2877" /><text dominant-baseline="middle" fill="white" font-family="Arial" font-size="5.25px" transform="rotate(-90,672.5,3083)" x="672.5" y="3083">Treat Your Own Back</text><rect class="bookcase-book" fill="#63301D" height="232" id="book-21920" stroke="black" width="5" x="676" y="2855" /><text dominant-baseline="middle" fill="white" font-family="Arial" font-size="3.75px" transform="rotate(-90,678.5,3083)" x="678.5" y="3083">Treat Your Own Neck</text><rect class="bookcase-book" fill="#F1E0A3" height="228" id="book-22225" stroke="black" width="18" x="681" y="2859" /><text dominant-baseline="middle" fill="black" font-family="Arial" font-size="13.5px" transform="rotate(-90,690.0,3083)" x="690.0" y="3083">Neuroscience</text><rect class="bookcase-book" fill="#294547" height="249" id="book-16482" stroke="black" width="20" x="699" y="2838" /><text dominant-baseline="middle" fill="white" font-family="Arial" font-size="15.0px" transform="rotate(-90,709.0,3083)" x="709.0" y="3083">Portraits of the Mind</text><rect class="bookcase-book" fill="#D6D3DE" height="202" id="book-22758" stroke="black" width="16" x="719" y="2885" /><text dominant-baseline="middle" fill="black" font-family="Arial" font-size="12.0px" transform="rotate(-90,727.0,3083)" x="727.0" y="3083">Body Kindness</text><rect class="bookcase-book" fill="#4C5046" height="177" id="book-16282" stroke="black" width="17" x="735" y="2910" /><text dominant-baseline="middle" fill="white" font-family="Arial" font-size="12.75px" transform="rotate(-90,743.5,3083)" x="743.5" y="3083">How to Stay Alive in the Wood</text><rect class="bookcase-book" fill="#857655" height="273" id="book-22434" stroke="black" width="22" x="752" y="2814" /><text dominant-baseline="middle" fill="white" font-family="Arial" font-size="16.5px" transform="rotate(-90,763.0,3083)" x="763.0" y="3083">The Art and Science of Taking to the</text><rect class="bookcase-book" fill="#F5DDB5" height="229" id="book-16289" stroke="black" width="20" x="774" y="2858" /><text dominant-baseline="middle" fill="black" font-family="Arial" font-size="15.0px" transform="rotate(-90,784.0,3083)" x="784.0" y="3083">Tom Brown's Field Guide to Wilde</text></svg>