<?xml version="1.0" encoding="utf-8" ?>
<svg baseProfile="full" height="3107" version="1.1" width="900" xmlns="http://www.w3.org/2000/svg" xmlns:ev="http://www.w3.org/2001/xml-events" xmlns:xlink="http://www.w3.org/1999/xlink"><defs /><rect height="20" width="800" x="50" y="1159" /><rect class="bookcase-book" fill="#7C933E" height="304" id="book-22721" stroke="black" width="22" x="84" y="855" /><text dominant-baseline="middle" fill="black" font-family="Arial" font-size="16.5px" transform="rotate(-90,95.0,1155)" x="95.0" y="1155">Encyclopedia of the Cat</text><rect class="bookcase-book" fill="#3B3630" height="307" id="book-16765" stroke="black" width="24" x="106" y="852" /><text dominant-baseline="middle" fill="white" font-family="Arial" font-size="18px" transform="rotate(-90,118.0,1155)" x="118.0" y="1155">Encyclopedia of the Horse</text><rect class="bookcase-book" fill="#E7E5DC" height="303" id="book-20844" stroke="black" width="7" x="130" y="856" /><text dominant-baseline="middle" fill="black" font-family="Arial" font-size="5.25px" transform="rotate(-90,133.5,1155)" x="133.5" y="1155">Castle</text><rect class="bookcase-book" fill="#271490" height="293" id="book-16639" stroke="black" width="12" x="137" y="866" /><text dominant-baseline="middle" fill="white" font-family="Arial" font-size="9.0px" transform="rotate(-90,143.0,1155)" x="143.0" y="1155">Masterpieces of the Bible</text><rect class="bookcase-book" fill="#2C89BF" height="305" id="book-22695" stroke="black" width="1" x="149" y="854" /><text dominant-baseline="middle" fill="white" font-family="Arial" font-size="0.75px" transform="rotate(-90,149.5,1155)" x="149.5" y="1155">The Mirror of History</text><rect class="bookcase-book" fill="#1B1D16" height="305" id="book-13423" stroke="black" width="12" x="150" y="854" /><text dominant-baseline="middle" fill="white" font-family="Arial" font-size="9.0px" transform="rotate(-90,156.0,1155)" x="156.0" y="1155">Celtic Art</text><rect class="bookcase-book" fill="#323129" height="290" id="book-16385" stroke="black" width="5" x="162" y="869" /><text dominant-baseline="middle" fill="white" font-family="Arial" font-size="3.75px" transform="rotate(-90,164.5,1155)" x="164.5" y="1155">Model Railroading for All</text><rect class="bookcase-book" fill="#76592E" height="209" id="book-14810" stroke="black" width="24" x="167" y="950" /><text dominant-baseline="middle" fill="white" font-family="Arial" font-size="18px" transform="rotate(-90,179.0,1155)" x="179.0" y="1155">The Blind Side</text><rect class="bookcase-book" fill="#EEF2E9" height="209" id="book-16330" stroke="black" width="33" x="191" y="950" /><text dominant-baseline="middle" fill="black" font-family="Arial" font-size="18px" transform="rotate(-90,207.5,1155)" x="207.5" y="1155">Soccernomics</text><rect class="bookcase-book" fill="#D2EEF9" height="203" id="book-20806" stroke="black" width="26" x="224" y="956" /><text dominant-baseline="middle" fill="black" font-family="Arial" font-size="18px" transform="rotate(-90,237.0,1155)" x="237.0" y="1155">High Crimes</text><rect class="bookcase-book" fill="#DCD2CA" height="23" id="book-20813" stroke="black" width="203" x="250" y="1136" /><text dominant-baseline="middle" fill="black" font-family="Arial" font-size="17.25px" x="250" y="1147.5">K2</text><rect class="bookcase-book" fill="#574943" height="18" id="book-14240" stroke="black" width="197" x="250" y="1118" /><text dominant-baseline="middle" fill="white" font-family="Arial" font-size="13.5px" x="250" y="1127.0">The Sweet Science</text><rect class="bookcase-book" fill="#10C900" height="209" id="book-20142" stroke="black" width="17" x="250" y="909" /><text dominant-baseline="middle" fill="white" font-family="Arial" font-size="12.75px" transform="rotate(-90,258.5,1114)" x="258.5" y="1114">The World's Religions</text><rect class="bookcase-book" fill="#887C71" height="233" id="book-20091" stroke="black" width="23" x="267" y="885" /><text dominant-baseline="middle" fill="black" font-family="Arial" font-size="17.25px" transform="rotate(-90,278.5,1114)" x="278.5" y="1114">World Religions</text><rect class="bookcase-book" fill="#977C60" height="194" id="book-21134" stroke="black" width="16" x="290" y="924" /><text dominant-baseline="middle" fill="black" font-family="Arial" font-size="12.0px" transform="rotate(-90,298.0,1114)" x="298.0" y="1114">Major Religions of the World</text><rect class="bookcase-book" fill="#77696F" height="244" id="book-13743" stroke="black" width="24" x="306" y="874" /><text dominant-baseline="middle" fill="white" font-family="Arial" font-size="18px" transform="rotate(-90,318.0,1114)" x="318.0" y="1114">The Major Religions</text><rect class="bookcase-book" fill="#A3B0B7" height="254" id="book-19095" stroke="black" width="16" x="330" y="864" /><text dominant-baseline="middle" fill="black" font-family="Arial" font-size="12.0px" transform="rotate(-90,338.0,1114)" x="338.0" y="1114">Christianity &amp; World Religions</text><rect class="bookcase-book" fill="#8F8B88" height="190" id="book-20146" stroke="black" width="14" x="346" y="928" /><text dominant-baseline="middle" fill="black" font-family="Arial" font-size="10.5px" transform="rotate(-90,353.0,1114)" x="353.0" y="1114">Christianity and World Religions</text><rect class="bookcase-book" fill="#D9BA81" height="234" id="book-22707" stroke="black" width="24" x="360" y="884" /><text dominant-baseline="middle" fill="black" font-family="Arial" font-size="18px" transform="rotate(-90,372.0,1114)" x="372.0" y="1114">Living Religions</text><rect class="bookcase-book" fill="#F2C66A" height="228" id="book-22124" stroke="black" width="14" x="384" y="890" /><text dominant-baseline="middle" fill="black" font-family="Arial" font-size="10.5px" transform="rotate(-90,391.0,1114)" x="391.0" y="1114">Religion</text><rect class="bookcase-book" fill="#EEDFE1" height="179" id="book-14223" stroke="black" width="26" x="398" y="939" /><text dominant-baseline="middle" fill="black" font-family="Arial" font-size="18px" transform="rotate(-90,411.0,1114)" x="411.0" y="1114">The Varieties of Religi</text><rect class="bookcase-book" fill="#307DC5" height="208" id="book-20085" stroke="black" width="14" x="424" y="910" /><text dominant-baseline="middle" fill="white" font-family="Arial" font-size="10.5px" transform="rotate(-90,431.0,1114)" x="431.0" y="1114">The Age of Reason</text><rect class="bookcase-book" fill="#F9F9DB" height="243" id="book-13661" stroke="black" width="22" x="453" y="916" /><text dominant-baseline="middle" fill="black" font-family="Arial" font-size="16.5px" transform="rotate(-90,464.0,1155)" x="464.0" y="1155">Spiritual Evolution</text><rect class="bookcase-book" fill="#898577" height="209" id="book-13991" stroke="black" width="47" x="475" y="950" /><text dominant-baseline="middle" fill="black" font-family="Arial" font-size="18px" transform="rotate(-90,498.5,1155)" x="498.5" y="1155">Religion and the Decline </text><rect class="bookcase-book" fill="#FCFCF8" height="30" id="book-13771" stroke="black" width="198" x="522" y="1129" /><text dominant-baseline="middle" fill="black" font-family="Arial" font-size="18px" x="522" y="1144.0">The Stillborn God</text><rect class="bookcase-book" fill="#F4FAF4" height="15" id="book-16296" stroke="black" width="185" x="522" y="1114" /><text dominant-baseline="middle" fill="black" font-family="Arial" font-size="11.25px" x="522" y="1121.5">The Art of Stillness</text><rect class="bookcase-book" fill="#553A27" height="236" id="book-19098" stroke="black" width="39" x="522" y="878" /><text dominant-baseline="middle" fill="white" font-family="Arial" font-size="18px" transform="rotate(-90,541.5,1110)" x="541.5" y="1110">Christianity and Western Tho</text><rect class="bookcase-book" fill="#A0A8A7" height="233" id="book-19103" stroke="black" width="21" x="561" y="881" /><text dominant-baseline="middle" fill="black" font-family="Arial" font-size="15.75px" transform="rotate(-90,571.5,1110)" x="571.5" y="1110">Faith and Reason</text><rect class="bookcase-book" fill="#8F8E85" height="233" id="book-19104" stroke="black" width="17" x="582" y="881" /><text dominant-baseline="middle" fill="black" font-family="Arial" font-size="12.75px" transform="rotate(-90,590.5,1110)" x="590.5" y="1110">Reason and Religious Belief</text><rect class="bookcase-book" fill="#D0C4BB" height="209" id="book-26229" stroke="black" width="29" x="599" y="905" /><text dominant-baseline="middle" fill="black" font-family="Arial" font-size="18px" transform="rotate(-90,613.5,1110)" x="613.5" y="1110">The God Delusion</text><rect class="bookcase-book" fill="#4A443C" height="262" id="book-21073" stroke="black" width="47" x="628" y="852" /><text dominant-baseline="middle" fill="white" font-family="Arial" font-size="18px" transform="rotate(-90,651.5,1110)" x="651.5" y="1110">Golden Treasury of Bible Storie</text><rect class="bookcase-book" fill="#AE604C" height="136" id="book-22228" stroke="black" width="28" x="675" y="978" /><text dominant-baseline="middle" fill="white" font-family="Arial" font-size="18px" transform="rotate(-90,689.0,1110)" x="689.0" y="1110">What is the Bibl</text><rect class="bookcase-book" fill="#F7F1E5" height="228" id="book-13600" stroke="black" width="15" x="720" y="931" /><text dominant-baseline="middle" fill="black" font-family="Arial" font-size="11.25px" transform="rotate(-90,727.5,1155)" x="727.5" y="1155">One Bible, Many Versions</text><rect class="bookcase-book" fill="#D6CCAF" height="251" id="book-13432" stroke="black" width="20" x="735" y="908" /><text dominant-baseline="middle" fill="black" font-family="Arial" font-size="15.0px" transform="rotate(-90,745.0,1155)" x="745.0" y="1155">Codex Sinaiticus</text><rect class="bookcase-book" fill="#894270" height="228" id="book-20089" stroke="black" width="17" x="755" y="931" /><text dominant-baseline="middle" fill="white" font-family="Arial" font-size="12.75px" transform="rotate(-90,763.5,1155)" x="763.5" y="1155">Handbook of Biblical Criticism</text><rect class="bookcase-book" fill="#906342" height="228" id="book-13368" stroke="black" width="24" x="772" y="931" /><text dominant-baseline="middle" fill="white" font-family="Arial" font-size="18px" transform="rotate(-90,784.0,1155)" x="784.0" y="1155">A Student's Guide to Textua</text><rect height="327" width="20" x="50" y="1159" /><rect height="327" width="20" x="830" y="1159" /><rect height="20" width="760" x="70" y="1159" /><rect height="20" width="800" x="50" y="1486" /><rect class="bookcase-book" fill="#A62A21" height="210" id="book-20239" stroke="black" width="24" x="84" y="1276" /><text dominant-baseline="middle" fill="white" font-family="Arial" font-size="18px" transform="rotate(-90,96.0,1482)" x="96.0" y="1482">Cruden's Concordance</text><rect class="bookcase-book" fill="#4D4950" height="264" id="book-20167" stroke="black" width="45" x="108" y="1222" /><text dominant-baseline="middle" fill="white" font-family="Arial" font-size="18px" transform="rotate(-90,130.5,1482)" x="130.5" y="1482">Harper Topical Concordance</text><rect class="bookcase-book" fill="#55563C" height="233" id="book-20252" stroke="black" width="42" x="153" y="1253" /><text dominant-baseline="middle" fill="white" font-family="Arial" font-size="18px" transform="rotate(-90,174.0,1482)" x="174.0" y="1482">The Oxford Companion to th</text><rect class="bookcase-book" fill="#914B5D" height="283" id="book-20160" stroke="black" width="61" x="195" y="1203" /><text dominant-baseline="middle" fill="white" font-family="Arial" font-size="18px" transform="rotate(-90,225.5,1482)" x="225.5" y="1482">The NIV Exhaustive Concordance</text><rect class="bookcase-book" fill="#D3D0BC" height="187" id="book-13634" stroke="black" width="23" x="256" y="1299" /><text dominant-baseline="middle" fill="black" font-family="Arial" font-size="17.25px" transform="rotate(-90,267.5,1482)" x="267.5" y="1482">Quicknotes Bible Conc</text><rect class="bookcase-book" fill="#166693" height="234" id="book-21089" stroke="black" width="21" x="279" y="1252" /><text dominant-baseline="middle" fill="white" font-family="Arial" font-size="15.75px" transform="rotate(-90,289.5,1482)" x="289.5" y="1482">All the Doctrines of the Bible</text><rect class="bookcase-book" fill="#AC351F" height="234" id="book-21092" stroke="black" width="24" x="300" y="1252" /><text dominant-baseline="middle" fill="white" font-family="Arial" font-size="18px" transform="rotate(-90,312.0,1482)" x="312.0" y="1482">All the Men of the Bible</text><rect class="bookcase-book" fill="#AF2E28" height="234" id="book-21088" stroke="black" width="19" x="324" y="1252" /><text dominant-baseline="middle" fill="white" font-family="Arial" font-size="14.25px" transform="rotate(-90,333.5,1482)" x="333.5" y="1482">All the Prayers of the Bible</text><rect class="bookcase-book" fill="#3E7997" height="234" id="book-21091" stroke="black" width="21" x="343" y="1252" /><text dominant-baseline="middle" fill="white" font-family="Arial" font-size="15.75px" transform="rotate(-90,353.5,1482)" x="353.5" y="1482">All the Promises of the Bible</text><rect class="bookcase-book" fill="#88342E" height="234" id="book-21090" stroke="black" width="21" x="364" y="1252" /><text dominant-baseline="middle" fill="white" font-family="Arial" font-size="15.75px" transform="rotate(-90,374.5,1482)" x="374.5" y="1482">All the Women of the Bible</text><rect class="bookcase-book" fill="#DAD1B8" height="211" id="book-20141" stroke="black" width="19" x="385" y="1275" /><text dominant-baseline="middle" fill="black" font-family="Arial" font-size="14.25px" transform="rotate(-90,394.5,1482)" x="394.5" y="1482">Meredith's Book of Bible Lists</text><rect class="bookcase-book" fill="#BDC3C4" height="281" id="book-13751" stroke="black" width="63" x="404" y="1205" /><text dominant-baseline="middle" fill="black" font-family="Arial" font-size="18px" transform="rotate(-90,435.5,1482)" x="435.5" y="1482">The New Strong's Exhaustive Con</text><rect class="bookcase-book" fill="#EBE9D9" height="281" id="book-13717" stroke="black" width="58" x="467" y="1205" /><text dominant-baseline="middle" fill="black" font-family="Arial" font-size="18px" transform="rotate(-90,496.0,1482)" x="496.0" y="1482">Strong's Exhaustive Concordance </text><rect class="bookcase-book" fill="#601A2F" height="204" id="book-16625" stroke="black" width="20" x="525" y="1282" /><text dominant-baseline="middle" fill="white" font-family="Arial" font-size="15.0px" transform="rotate(-90,535.0,1482)" x="535.0" y="1482">Book of Bible Lists</text><rect class="bookcase-book" fill="#F4F6F3" height="134" id="book-13556" stroke="black" width="14" x="545" y="1352" /><text dominant-baseline="middle" fill="black" font-family="Arial" font-size="10.5px" transform="rotate(-90,552.0,1482)" x="552.0" y="1482">Little Book Of Where To Fin</text><rect class="bookcase-book" fill="#D5BFB6" height="228" id="book-20277" stroke="black" width="30" x="559" y="1258" /><text dominant-baseline="middle" fill="black" font-family="Arial" font-size="18px" transform="rotate(-90,574.0,1482)" x="574.0" y="1482">Unlock the Bible</text><rect class="bookcase-book" fill="#C6C9BA" height="178" id="book-13635" stroke="black" width="24" x="589" y="1308" /><text dominant-baseline="middle" fill="black" font-family="Arial" font-size="18px" transform="rotate(-90,601.0,1482)" x="601.0" y="1482">Quicknotes Bible Dict</text><rect class="bookcase-book" fill="#493D33" height="260" id="book-21270" stroke="black" width="43" x="613" y="1226" /><text dominant-baseline="middle" fill="white" font-family="Arial" font-size="18px" transform="rotate(-90,634.5,1482)" x="634.5" y="1482">A-Clemency</text><rect class="bookcase-book" fill="#463930" height="260" id="book-21271" stroke="black" width="44" x="656" y="1226" /><text dominant-baseline="middle" fill="white" font-family="Arial" font-size="18px" transform="rotate(-90,678.0,1482)" x="678.0" y="1482">Clement-Heresh</text><rect class="bookcase-book" fill="#4B3D34" height="260" id="book-21272" stroke="black" width="47" x="700" y="1226" /><text dominant-baseline="middle" fill="white" font-family="Arial" font-size="18px" transform="rotate(-90,723.5,1482)" x="723.5" y="1482">Heresy-Naarah</text><rect class="bookcase-book" fill="#4E4034" height="260" id="book-21273" stroke="black" width="45" x="747" y="1226" /><text dominant-baseline="middle" fill="white" font-family="Arial" font-size="18px" transform="rotate(-90,769.5,1482)" x="769.5" y="1482">Narrah-Socho</text><rect height="321" width="20" x="50" y="1486" /><rect height="321" width="20" x="830" y="1486" /><rect height="20" width="760" x="70" y="1486" /><rect height="20" width="800" x="50" y="1807" /><rect height="317" width="20" x="50" y="1807" /><rect height="317" width="20" x="830" y="1807" /><rect height="20" width="760" x="70" y="1807" /><rect height="20" width="800" x="50" y="2124" /><rect class="bookcase-book" fill="#4D4034" height="260" id="book-21274" stroke="black" width="46" x="84" y="1864" /><text dominant-baseline="middle" fill="white" font-family="Arial" font-size="18px" transform="rotate(-90,107.0,2120)" x="107.0" y="2120">Socket-Zuzim</text><rect class="bookcase-book" fill="#2A5591" height="240" id="book-21156" stroke="black" width="50" x="130" y="1884" /><text dominant-baseline="middle" fill="white" font-family="Arial" font-size="18px" transform="rotate(-90,155.0,2120)" x="155.0" y="2120">Expository Dictionary of Bible</text><rect class="bookcase-book" fill="#DAC479" height="204" id="book-21214" stroke="black" width="8" x="180" y="1920" /><text dominant-baseline="middle" fill="black" font-family="Arial" font-size="6.0px" transform="rotate(-90,184.0,2120)" x="184.0" y="2120">Pronouncing Bible Names</text><rect class="bookcase-book" fill="#F1ECC3" height="241" id="book-13750" stroke="black" width="46" x="188" y="1883" /><text dominant-baseline="middle" fill="black" font-family="Arial" font-size="18px" transform="rotate(-90,211.0,2120)" x="211.0" y="2120">The New Strong's Complete </text><rect class="bookcase-book" fill="#291817" height="248" id="book-21128" stroke="black" width="49" x="234" y="1876" /><text dominant-baseline="middle" fill="white" font-family="Arial" font-size="18px" transform="rotate(-90,258.5,2120)" x="258.5" y="2120">The Zondervan Pictorial Bible </text><rect class="bookcase-book" fill="#824915" height="23" id="book-21824" stroke="black" width="189" x="283" y="2101" /><text dominant-baseline="middle" fill="white" font-family="Arial" font-size="17.25px" x="283" y="2112.5">The New Topical Textbo</text><rect class="bookcase-book" fill="#893A26" height="197" id="book-21074" stroke="black" width="19" x="283" y="1904" /><text dominant-baseline="middle" fill="white" font-family="Arial" font-size="14.25px" transform="rotate(-90,292.5,2097)" x="292.5" y="2097">The New Topical Textbook</text><rect class="bookcase-book" fill="#363129" height="239" id="book-16264" stroke="black" width="52" x="302" y="1862" /><text dominant-baseline="middle" fill="white" font-family="Arial" font-size="18px" transform="rotate(-90,328.0,2097)" x="328.0" y="2097">A Reader's Hebrew and Gree</text><rect class="bookcase-book" fill="#96625A" height="232" id="book-20533" stroke="black" width="34" x="354" y="1869" /><text dominant-baseline="middle" fill="white" font-family="Arial" font-size="18px" transform="rotate(-90,371.0,2097)" x="371.0" y="2097">The Catholic Youth Bible</text><rect class="bookcase-book" fill="#5F4D41" height="162" id="book-20248" stroke="black" width="26" x="388" y="1939" /><text dominant-baseline="middle" fill="white" font-family="Arial" font-size="18px" transform="rotate(-90,401.0,2097)" x="401.0" y="2097">The Holy Bible</text><rect class="bookcase-book" fill="#796F58" height="186" id="book-13662" stroke="black" width="23" x="414" y="1915" /><text dominant-baseline="middle" fill="white" font-family="Arial" font-size="17.25px" transform="rotate(-90,425.5,2097)" x="425.5" y="2097">Sportsman's Bible</text><rect class="bookcase-book" fill="#8F836D" height="208" id="book-13506" stroke="black" width="30" x="437" y="1893" /><text dominant-baseline="middle" fill="black" font-family="Arial" font-size="18px" transform="rotate(-90,452.0,2097)" x="452.0" y="2097">Holman Christian Standa</text><rect class="bookcase-book" fill="#C7AD92" height="23" id="book-20282" stroke="black" width="213" x="472" y="2101" /><text dominant-baseline="middle" fill="black" font-family="Arial" font-size="17.25px" x="472" y="2112.5">Holy Bible</text><rect class="bookcase-book" fill="#57564F" height="216" id="book-13488" stroke="black" width="40" x="472" y="1885" /><text dominant-baseline="middle" fill="white" font-family="Arial" font-size="18px" transform="rotate(-90,492.0,2097)" x="492.0" y="2097">God's Word for Boys</text><rect class="bookcase-book" fill="#965A3F" height="238" id="book-21145" stroke="black" width="27" x="512" y="1863" /><text dominant-baseline="middle" fill="white" font-family="Arial" font-size="18px" transform="rotate(-90,525.5,2097)" x="525.5" y="2097">Holy Bible</text><rect class="bookcase-book" fill="#635B4F" height="242" id="book-21144" stroke="black" width="43" x="539" y="1859" /><text dominant-baseline="middle" fill="white" font-family="Arial" font-size="18px" transform="rotate(-90,560.5,2097)" x="560.5" y="2097">Disciple's Study Bible</text><rect class="bookcase-book" fill="#A16F4C" height="242" id="book-13586" stroke="black" width="53" x="582" y="1859" /><text dominant-baseline="middle" fill="white" font-family="Arial" font-size="18px" transform="rotate(-90,608.5,2097)" x="608.5" y="2097">NET Bible</text><rect class="bookcase-book" fill="#3F3F4A" height="242" id="book-21618" stroke="black" width="42" x="635" y="1859" /><text dominant-baseline="middle" fill="white" font-family="Arial" font-size="18px" transform="rotate(-90,656.0,2097)" x="656.0" y="2097">NIV/The Message</text><rect class="bookcase-book" fill="#EAE3D9" height="223" id="book-13772" stroke="black" width="46" x="685" y="1901" /><text dominant-baseline="middle" fill="black" font-family="Arial" font-size="18px" transform="rotate(-90,708.0,2120)" x="708.0" y="2120">The Story</text><rect class="bookcase-book" fill="#712F15" height="223" id="book-21228" stroke="black" width="37" x="731" y="1901" /><text dominant-baseline="middle" fill="white" font-family="Arial" font-size="18px" transform="rotate(-90,749.5,2120)" x="749.5" y="2120">Genesis to Esther</text><rect class="bookcase-book" fill="#722F16" height="223" id="book-21229" stroke="black" width="35" x="768" y="1901" /><text dominant-baseline="middle" fill="white" font-family="Arial" font-size="18px" transform="rotate(-90,785.5,2120)" x="785.5" y="2120">Job to Malachi</text><rect height="327" width="20" x="50" y="2124" /><rect height="327" width="20" x="830" y="2124" /><rect height="20" width="760" x="70" y="2124" /><rect height="20" width="800" x="50" y="2451" /><rect class="bookcase-book" fill="#76371E" height="223" id="book-21230" stroke="black" width="30" x="84" y="2228" /><text dominant-baseline="middle" fill="white" font-family="Arial" font-size="18px" transform="rotate(-90,99.0,2447)" x="99.0" y="2447">Matthew to Revelation</text><rect class="bookcase-book" fill="#8A6F33" height="121" id="book-16656" stroke="black" width="8" x="114" y="2330" /><text dominant-baseline="middle" fill="white" font-family="Arial" font-size="6.0px" transform="rotate(-90,118.0,2447)" x="118.0" y="2447">The Holy Bible</text><rect class="bookcase-book" fill="#EEF3E0" height="41" id="book-16603" stroke="black" width="233" x="122" y="2410" /><text dominant-baseline="middle" fill="black" font-family="Arial" font-size="18px" x="122" y="2430.5">The Harper Collins Study Bi</text><rect class="bookcase-book" fill="#14161C" height="243" id="book-13752" stroke="black" width="47" x="122" y="2167" /><text dominant-baseline="middle" fill="white" font-family="Arial" font-size="18px" transform="rotate(-90,145.5,2406)" x="145.5" y="2406">The NIV Study Bible</text><rect class="bookcase-book" fill="#DCCBAB" height="240" id="book-13730" stroke="black" width="55" x="169" y="2170" /><text dominant-baseline="middle" fill="black" font-family="Arial" font-size="18px" transform="rotate(-90,196.5,2406)" x="196.5" y="2406">The Hebrew-Greek Key Stud</text><rect class="bookcase-book" fill="#80C284" height="202" id="book-13485" stroke="black" width="32" x="224" y="2208" /><text dominant-baseline="middle" fill="black" font-family="Arial" font-size="18px" transform="rotate(-90,240.0,2406)" x="240.0" y="2406">God Sightings</text><rect class="bookcase-book" fill="#598844" height="214" id="book-13756" stroke="black" width="44" x="256" y="2196" /><text dominant-baseline="middle" fill="white" font-family="Arial" font-size="18px" transform="rotate(-90,278.0,2406)" x="278.0" y="2406">The One Year Chronologi</text><rect class="bookcase-book" fill="#F2C160" height="225" id="book-13444" stroke="black" width="35" x="300" y="2185" /><text dominant-baseline="middle" fill="black" font-family="Arial" font-size="18px" transform="rotate(-90,317.5,2406)" x="317.5" y="2406">The Daily Message Bible</text><rect class="bookcase-book" fill="#F5E7BD" height="236" id="book-19147" stroke="black" width="58" x="355" y="2215" /><text dominant-baseline="middle" fill="black" font-family="Arial" font-size="18px" transform="rotate(-90,384.0,2447)" x="384.0" y="2447">Hard Sayings of the Bible</text><rect class="bookcase-book" fill="#ADAA9C" height="36" id="book-21403" stroke="black" width="229" x="413" y="2415" /><text dominant-baseline="middle" fill="black" font-family="Arial" font-size="18px" x="413" y="2433.0">Eerdman's Concise Bible H</text><rect class="bookcase-book" fill="#6E3215" height="242" id="book-19150" stroke="black" width="41" x="413" y="2173" /><text dominant-baseline="middle" fill="white" font-family="Arial" font-size="18px" transform="rotate(-90,433.5,2411)" x="433.5" y="2411">Introduction to Biblical Interpr</text><rect class="bookcase-book" fill="#D1DBEF" height="216" id="book-14274" stroke="black" width="11" x="454" y="2199" /><text dominant-baseline="middle" fill="black" font-family="Arial" font-size="8.25px" transform="rotate(-90,459.5,2411)" x="459.5" y="2411">Exegetical Fallacies</text><rect class="bookcase-book" fill="#BEE000" height="243" id="book-13491" stroke="black" width="39" x="465" y="2172" /><text dominant-baseline="middle" fill="black" font-family="Arial" font-size="18px" transform="rotate(-90,484.5,2411)" x="484.5" y="2411">Grasping God's Word</text><rect class="bookcase-book" fill="#D6BD9C" height="165" id="book-21496" stroke="black" width="2" x="504" y="2250" /><text dominant-baseline="middle" fill="black" font-family="Arial" font-size="1.5px" transform="rotate(-90,505.0,2411)" x="505.0" y="2411">The Bible</text><rect class="bookcase-book" fill="#453625" height="225" id="book-19165" stroke="black" width="15" x="506" y="2190" /><text dominant-baseline="middle" fill="white" font-family="Arial" font-size="11.25px" transform="rotate(-90,513.5,2411)" x="513.5" y="2411">A Basic Guide to Interpreting the Bible</text><rect class="bookcase-book" fill="#133E68" height="244" id="book-18502" stroke="black" width="39" x="521" y="2171" /><text dominant-baseline="middle" fill="white" font-family="Arial" font-size="18px" transform="rotate(-90,540.5,2411)" x="540.5" y="2411">The Holman Bible Handbook</text><rect class="bookcase-book" fill="#E23E19" height="241" id="book-21139" stroke="black" width="18" x="560" y="2174" /><text dominant-baseline="middle" fill="white" font-family="Arial" font-size="13.5px" transform="rotate(-90,569.0,2411)" x="569.0" y="2411">Biblical Backgrounds</text><rect class="bookcase-book" fill="#101613" height="229" id="book-13523" stroke="black" width="18" x="578" y="2186" /><text dominant-baseline="middle" fill="white" font-family="Arial" font-size="13.5px" transform="rotate(-90,587.0,2411)" x="587.0" y="2411">Introducing the Bible</text><rect class="bookcase-book" fill="#A21B1D" height="216" id="book-16618" stroke="black" width="28" x="596" y="2199" /><text dominant-baseline="middle" fill="white" font-family="Arial" font-size="18px" transform="rotate(-90,610.0,2411)" x="610.0" y="2411">Exploring the Bible</text><rect class="bookcase-book" fill="#F1FAF1" height="240" id="book-13685" stroke="black" width="54" x="642" y="2211" /><text dominant-baseline="middle" fill="black" font-family="Arial" font-size="18px" transform="rotate(-90,669.0,2447)" x="669.0" y="2447">The Baker Illustrated Bible H</text><rect class="bookcase-book" fill="#42AA2B" height="171" id="book-20115" stroke="black" width="34" x="696" y="2280" /><text dominant-baseline="middle" fill="white" font-family="Arial" font-size="18px" transform="rotate(-90,713.0,2447)" x="713.0" y="2447">Halley's Bible Handb</text><rect class="bookcase-book" fill="#EBE2D4" height="177" id="book-13636" stroke="black" width="22" x="730" y="2274" /><text dominant-baseline="middle" fill="black" font-family="Arial" font-size="16.5px" transform="rotate(-90,741.0,2447)" x="741.0" y="2447">Quicknotes Bible Hand</text><rect class="bookcase-book" fill="#445237" height="242" id="book-21823" stroke="black" width="65" x="752" y="2209" /><text dominant-baseline="middle" fill="white" font-family="Arial" font-size="18px" transform="rotate(-90,784.5,2447)" x="784.5" y="2447">Explore the Book</text><rect height="321" width="20" x="50" y="2451" /><rect height="321" width="20" x="830" y="2451" /><rect height="20" width="760" x="70" y="2451" /><rect height="20" width="800" x="50" y="2772" /><rect class="bookcase-book" fill="#654238" height="242" id="book-13435" stroke="black" width="60" x="84" y="2530" /><text dominant-baseline="middle" fill="white" font-family="Arial" font-size="18px" transform="rotate(-90,114.0,2768)" x="114.0" y="2768">Commentary on the Whole Bi</text><rect class="bookcase-book" fill="#6D365A" height="221" id="book-22356" stroke="black" width="24" x="144" y="2551" /><text dominant-baseline="middle" fill="white" font-family="Arial" font-size="18px" transform="rotate(-90,156.0,2768)" x="156.0" y="2768">The Semantics of Biblical </text><rect class="bookcase-book" fill="#71543E" height="169" id="book-20164" stroke="black" width="42" x="168" y="2603" /><text dominant-baseline="middle" fill="white" font-family="Arial" font-size="18px" transform="rotate(-90,189.0,2768)" x="189.0" y="2768">Essential Visual Hist</text><rect class="bookcase-book" fill="#B7CCD6" height="184" id="book-20163" stroke="black" width="40" x="210" y="2588" /><text dominant-baseline="middle" fill="black" font-family="Arial" font-size="18px" transform="rotate(-90,230.0,2768)" x="230.0" y="2768">Unger's Bible Handbo</text><rect class="bookcase-book" fill="#CAD6C0" height="283" id="book-16599" stroke="black" width="29" x="250" y="2489" /><text dominant-baseline="middle" fill="black" font-family="Arial" font-size="18px" transform="rotate(-90,264.5,2768)" x="264.5" y="2768">Illustrated Dictionary of Bible Life a</text><rect class="bookcase-book" fill="#D7D2A6" height="231" id="book-20246" stroke="black" width="12" x="279" y="2541" /><text dominant-baseline="middle" fill="black" font-family="Arial" font-size="9.0px" transform="rotate(-90,285.0,2768)" x="285.0" y="2768">The Essential Bible Companion</text><rect class="bookcase-book" fill="#FA1B2C" height="275" id="book-21140" stroke="black" width="16" x="291" y="2497" /><text dominant-baseline="middle" fill="white" font-family="Arial" font-size="12.0px" transform="rotate(-90,299.0,2768)" x="299.0" y="2768">Discovering the Biblical World</text><rect class="bookcase-book" fill="#4F2C1D" height="283" id="book-20161" stroke="black" width="26" x="307" y="2489" /><text dominant-baseline="middle" fill="white" font-family="Arial" font-size="18px" transform="rotate(-90,320.0,2768)" x="320.0" y="2768">The Biblical World</text><rect class="bookcase-book" fill="#9EA6A9" height="16" id="book-20162" stroke="black" width="229" x="333" y="2756" /><text dominant-baseline="middle" fill="black" font-family="Arial" font-size="12.0px" x="333" y="2764.0">Bible Then &amp; Now</text><rect class="bookcase-book" fill="#BF2C2A" height="255" id="book-13402" stroke="black" width="12" x="333" y="2501" /><text dominant-baseline="middle" fill="white" font-family="Arial" font-size="9.0px" transform="rotate(-90,339.0,2752)" x="339.0" y="2752">Bible Atlas and Companion</text><rect class="bookcase-book" fill="#D1C6AC" height="16" id="book-20148" stroke="black" width="207" x="345" y="2740" /><text dominant-baseline="middle" fill="black" font-family="Arial" font-size="12.0px" x="345" y="2748.0">Bible Festivals and Holy Days</text><rect class="bookcase-book" fill="#4A4418" height="247" id="book-18440" stroke="black" width="18" x="345" y="2493" /><text dominant-baseline="middle" fill="white" font-family="Arial" font-size="13.5px" transform="rotate(-90,354.0,2736)" x="354.0" y="2736">Treasures from Bible Times</text><rect class="bookcase-book" fill="#202215" height="236" id="book-13671" stroke="black" width="20" x="363" y="2504" /><text dominant-baseline="middle" fill="white" font-family="Arial" font-size="15.0px" transform="rotate(-90,373.0,2736)" x="373.0" y="2736">Telling God's Story</text><rect class="bookcase-book" fill="#254D49" height="216" id="book-13597" stroke="black" width="13" x="383" y="2524" /><text dominant-baseline="middle" fill="white" font-family="Arial" font-size="9.75px" transform="rotate(-90,389.5,2736)" x="389.5" y="2736">Old Testament Textual Criticism</text><rect class="bookcase-book" fill="#532C27" height="222" id="book-14278" stroke="black" width="21" x="396" y="2518" /><text dominant-baseline="middle" fill="white" font-family="Arial" font-size="15.75px" transform="rotate(-90,406.5,2736)" x="406.5" y="2736">Invitation to the Septuagint</text><rect class="bookcase-book" fill="#F8FAE7" height="243" id="book-13815" stroke="black" width="37" x="417" y="2497" /><text dominant-baseline="middle" fill="black" font-family="Arial" font-size="18px" transform="rotate(-90,435.5,2736)" x="435.5" y="2736">Wilson's Old Testament Word</text><rect class="bookcase-book" fill="#823D22" height="190" id="book-13403" stroke="black" width="43" x="454" y="2550" /><text dominant-baseline="middle" fill="white" font-family="Arial" font-size="18px" transform="rotate(-90,475.5,2736)" x="475.5" y="2736">Biblia Hebraica Stuttga</text><rect class="bookcase-book" fill="#D56950" height="239" id="book-16262" stroke="black" width="43" x="497" y="2501" /><text dominant-baseline="middle" fill="black" font-family="Arial" font-size="18px" transform="rotate(-90,518.5,2736)" x="518.5" y="2736">A Reader's Hebrew Bible</text><rect class="bookcase-book" fill="#FA9780" height="192" id="book-22252" stroke="black" width="52" x="562" y="2580" /><text dominant-baseline="middle" fill="black" font-family="Arial" font-size="18px" transform="rotate(-90,588.0,2768)" x="588.0" y="2768">Lexham English Septu</text><rect class="bookcase-book" fill="#284152" height="241" id="book-22636" stroke="black" width="64" x="614" y="2531" /><text dominant-baseline="middle" fill="white" font-family="Arial" font-size="18px" transform="rotate(-90,646.0,2768)" x="646.0" y="2768">Septuaginta</text><rect class="bookcase-book" fill="#29404E" height="241" id="book-22638" stroke="black" width="57" x="678" y="2531" /><text dominant-baseline="middle" fill="white" font-family="Arial" font-size="18px" transform="rotate(-90,706.5,2768)" x="706.5" y="2768">Septuaginta</text><rect class="bookcase-book" fill="#514C70" height="216" id="book-20290" stroke="black" width="7" x="735" y="2556" /><text dominant-baseline="middle" fill="white" font-family="Arial" font-size="5.25px" transform="rotate(-90,738.5,2768)" x="738.5" y="2768">Form Criticism of the Old Testament</text><rect class="bookcase-book" fill="#CC893E" height="216" id="book-16630" stroke="black" width="20" x="742" y="2556" /><text dominant-baseline="middle" fill="black" font-family="Arial" font-size="15.0px" transform="rotate(-90,752.0,2768)" x="752.0" y="2768">The Bible Jesus Read</text><rect class="bookcase-book" fill="#3D5A60" height="236" id="book-21131" stroke="black" width="30" x="762" y="2536" /><text dominant-baseline="middle" fill="white" font-family="Arial" font-size="18px" transform="rotate(-90,777.0,2768)" x="777.0" y="2768">The Heart of Hebrew History</text><rect height="315" width="20" x="50" y="2772" /><rect height="315" width="20" x="830" y="2772" /><rect height="20" width="760" x="70" y="2772" /><rect height="20" width="800" x="50" y="3087" /><rect class="bookcase-book" fill="#9E5696" height="36" id="book-18521" stroke="black" width="236" x="84" y="3051" /><text dominant-baseline="middle" fill="white" font-family="Arial" font-size="18px" x="84" y="3069.0">Genesis 1:1-11:26</text><rect class="bookcase-book" fill="#5F7B41" height="55" id="book-18522" stroke="black" width="236" x="84" y="2996" /><text dominant-baseline="middle" fill="white" font-family="Arial" font-size="18px" x="84" y="3023.5">Genesis 11:27-50:26</text><rect class="bookcase-book" fill="#9E0910" height="42" id="book-18535" stroke="black" width="236" x="84" y="2954" /><text dominant-baseline="middle" fill="white" font-family="Arial" font-size="18px" x="84" y="2975.0">Exodus</text><rect class="bookcase-book" fill="#1D4F9A" height="29" id="book-18540" stroke="black" width="236" x="84" y="2925" /><text dominant-baseline="middle" fill="white" font-family="Arial" font-size="18px" x="84" y="2939.5">Leviticus</text><rect class="bookcase-book" fill="#EA8200" height="39" id="book-18545" stroke="black" width="236" x="84" y="2886" /><text dominant-baseline="middle" fill="black" font-family="Arial" font-size="18px" x="84" y="2905.5">Numbers</text><rect class="bookcase-book" fill="#28BDB3" height="32" id="book-18560" stroke="black" width="236" x="84" y="2854" /><text dominant-baseline="middle" fill="black" font-family="Arial" font-size="18px" x="84" y="2870.0">Deuteronomy</text><rect class="bookcase-book" fill="#2AB62A" height="22" id="book-18566" stroke="black" width="236" x="84" y="2832" /><text dominant-baseline="middle" fill="white" font-family="Arial" font-size="16.5px" x="84" y="2843.0">Joshua</text><rect class="bookcase-book" fill="#88675E" height="35" id="book-18580" stroke="black" width="236" x="320" y="3052" /><text dominant-baseline="middle" fill="white" font-family="Arial" font-size="18px" x="320" y="3069.5">1 &amp; 2 Samuel</text><rect class="bookcase-book" fill="#9EA220" height="30" id="book-18592" stroke="black" width="236" x="320" y="3022" /><text dominant-baseline="middle" fill="black" font-family="Arial" font-size="18px" x="320" y="3037.0">1, 2 Kings</text><rect class="bookcase-book" fill="#B70710" height="29" id="book-18608" stroke="black" width="236" x="320" y="2993" /><text dominant-baseline="middle" fill="white" font-family="Arial" font-size="18px" x="320" y="3007.5">1, 2 Chronicles</text><rect class="bookcase-book" fill="#A61CB0" height="27" id="book-18612" stroke="black" width="236" x="320" y="2966" /><text dominant-baseline="middle" fill="white" font-family="Arial" font-size="18px" x="320" y="2979.5">Ezra, Nehemiah, Esther</text><rect class="bookcase-book" fill="#847157" height="30" id="book-18624" stroke="black" width="236" x="320" y="2936" /><text dominant-baseline="middle" fill="white" font-family="Arial" font-size="18px" x="320" y="2951.0">Job</text><rect class="bookcase-book" fill="#76A490" height="42" id="book-20971" stroke="black" width="236" x="320" y="2894" /><text dominant-baseline="middle" fill="black" font-family="Arial" font-size="18px" x="320" y="2915.0">Psalms</text><rect class="bookcase-book" fill="#921E60" height="32" id="book-18646" stroke="black" width="236" x="320" y="2862" /><text dominant-baseline="middle" fill="white" font-family="Arial" font-size="18px" x="320" y="2878.0">Proverbs, Ecclesiastes, Son</text><rect class="bookcase-book" fill="#16B663" height="42" id="book-18681" stroke="black" width="236" x="320" y="2820" /><text dominant-baseline="middle" fill="white" font-family="Arial" font-size="18px" x="320" y="2841.0">Isaiah 1-39</text><rect class="bookcase-book" fill="#68905B" height="45" id="book-18682" stroke="black" width="236" x="556" y="3042" /><text dominant-baseline="middle" fill="black" font-family="Arial" font-size="18px" x="556" y="3064.5">Isaiah 40-66</text><rect class="bookcase-book" fill="#42247F" height="35" id="book-20304" stroke="black" width="236" x="556" y="3007" /><text dominant-baseline="middle" fill="white" font-family="Arial" font-size="18px" x="556" y="3024.5">Jeremiah, Lamentations</text><rect class="bookcase-book" fill="#2E8B2C" height="32" id="book-18704" stroke="black" width="236" x="556" y="2975" /><text dominant-baseline="middle" fill="white" font-family="Arial" font-size="18px" x="556" y="2991.0">Ezekiel</text><rect class="bookcase-book" fill="#B23024" height="26" id="book-18718" stroke="black" width="236" x="556" y="2949" /><text dominant-baseline="middle" fill="white" font-family="Arial" font-size="18px" x="556" y="2962.0">Daniel</text><rect class="bookcase-book" fill="#3C15BC" height="32" id="book-18734" stroke="black" width="236" x="556" y="2917" /><text dominant-baseline="middle" fill="white" font-family="Arial" font-size="18px" x="556" y="2933.0">Hosea, Joel</text><rect class="bookcase-book" fill="#4EB725" height="28" id="book-18749" stroke="black" width="236" x="556" y="2889" /><text dominant-baseline="middle" fill="black" font-family="Arial" font-size="18px" x="556" y="2903.0">Amos, Obadiah, Jonah</text><rect class="bookcase-book" fill="#3D5277" height="36" id="book-18756" stroke="black" width="236" x="556" y="2853" /><text dominant-baseline="middle" fill="white" font-family="Arial" font-size="18px" x="556" y="2871.0">Micah, Nahum, Habakkuk, Z</text><rect class="bookcase-book" fill="#86BC40" height="32" id="book-18778" stroke="black" width="236" x="556" y="2821" /><text dominant-baseline="middle" fill="black" font-family="Arial" font-size="18px" x="556" y="2837.0">Haggai, Malachi</text></svg>