<?xml version="1.0" encoding="utf-8" ?>
<svg baseProfile="full" height="3107" version="1.1" width="500" xmlns="http://www.w3.org/2000/svg" xmlns:ev="http://www.w3.org/2001/xml-events" xmlns:xlink="http://www.w3.org/1999/xlink"><defs /><rect height="20" width="400" x="50" y="1159" /><rect class="bookcase-book" fill="#899B7E" height="19" id="book-13448" stroke="black" width="286" x="84" y="1140" /><text dominant-baseline="middle" fill="black" font-family="Arial" font-size="14.25px" x="84" y="1149.5">Deluxe Then and Now Bible Maps</text><rect class="bookcase-book" fill="#1C3D70" height="287" id="book-13518" stroke="black" width="12" x="84" y="853" /><text dominant-baseline="middle" fill="white" font-family="Arial" font-size="9.0px" transform="rotate(-90,90.0,1136)" x="90.0" y="1136">Incredible Mysteries of the Bible</text><rect class="bookcase-book" fill="#2D16F0" height="287" id="book-13647" stroke="black" width="25" x="96" y="853" /><text dominant-baseline="middle" fill="white" font-family="Arial" font-size="18px" transform="rotate(-90,108.5,1136)" x="108.5" y="1136">Rose Book of Bible Charts, Maps, </text><rect class="bookcase-book" fill="#972B4F" height="29" id="book-18780" stroke="black" width="236" x="121" y="1111" /><text dominant-baseline="middle" fill="white" font-family="Arial" font-size="18px" x="121" y="1125.5">Zechariah</text><rect class="bookcase-book" fill="#C48330" height="19" id="book-16532" stroke="black" width="236" x="121" y="1092" /><text dominant-baseline="middle" fill="black" font-family="Arial" font-size="14.25px" x="121" y="1101.5">Deuteronomy</text><rect class="bookcase-book" fill="#142027" height="20" id="book-16535" stroke="black" width="236" x="121" y="1072" /><text dominant-baseline="middle" fill="white" font-family="Arial" font-size="15.0px" x="121" y="1082.0">Joshua</text><rect class="bookcase-book" fill="#8AA13F" height="31" id="book-16539" stroke="black" width="236" x="121" y="1041" /><text dominant-baseline="middle" fill="black" font-family="Arial" font-size="18px" x="121" y="1056.5">1 Samuel</text><rect class="bookcase-book" fill="#488B18" height="29" id="book-16541" stroke="black" width="236" x="121" y="1012" /><text dominant-baseline="middle" fill="white" font-family="Arial" font-size="18px" x="121" y="1026.5">1 Kings</text><rect class="bookcase-book" fill="#4F21C0" height="27" id="book-16544" stroke="black" width="236" x="121" y="985" /><text dominant-baseline="middle" fill="white" font-family="Arial" font-size="18px" x="121" y="998.5">2 Chronicles</text><rect class="bookcase-book" fill="#579234" height="35" id="book-16549" stroke="black" width="236" x="121" y="950" /><text dominant-baseline="middle" fill="white" font-family="Arial" font-size="18px" x="121" y="967.5">Psalms</text><rect class="bookcase-book" fill="#59A000" height="29" id="book-22401" stroke="black" width="236" x="121" y="921" /><text dominant-baseline="middle" fill="white" font-family="Arial" font-size="18px" x="121" y="935.5">Psalms</text><rect class="bookcase-book" fill="#7BE000" height="25" id="book-16556" stroke="black" width="236" x="121" y="896" /><text dominant-baseline="middle" fill="black" font-family="Arial" font-size="18px" x="121" y="908.5">Jeremiah</text><rect class="bookcase-book" fill="#A44153" height="30" id="book-16559" stroke="black" width="236" x="121" y="866" /><text dominant-baseline="middle" fill="white" font-family="Arial" font-size="18px" x="121" y="881.0">Ezekiel</text><rect class="bookcase-book" fill="#915D2C" height="228" id="book-21275" stroke="black" width="36" x="370" y="931" /><text dominant-baseline="middle" fill="white" font-family="Arial" font-size="18px" transform="rotate(-90,388.0,1155)" x="388.0" y="1155">Genesis</text><rect height="327" width="20" x="50" y="1159" /><rect height="327" width="20" x="430" y="1159" /><rect height="20" width="360" x="70" y="1159" /><rect height="20" width="400" x="50" y="1486" /><rect class="bookcase-book" fill="#936333" height="49" id="book-21276" stroke="black" width="228" x="84" y="1437" /><text dominant-baseline="middle" fill="white" font-family="Arial" font-size="18px" x="84" y="1461.5">Exodus to Esther</text><rect class="bookcase-book" fill="#8A5726" height="39" id="book-21277" stroke="black" width="228" x="84" y="1398" /><text dominant-baseline="middle" fill="white" font-family="Arial" font-size="18px" x="84" y="1417.5">Job</text><rect class="bookcase-book" fill="#936433" height="30" id="book-21278" stroke="black" width="228" x="84" y="1368" /><text dominant-baseline="middle" fill="white" font-family="Arial" font-size="18px" x="84" y="1383.0">Proberbs to Ezekiel</text><rect class="bookcase-book" fill="#936433" height="50" id="book-21279" stroke="black" width="228" x="84" y="1318" /><text dominant-baseline="middle" fill="white" font-family="Arial" font-size="18px" x="84" y="1343.0">Psalms</text><rect class="bookcase-book" fill="#936333" height="48" id="book-21280" stroke="black" width="228" x="84" y="1270" /><text dominant-baseline="middle" fill="white" font-family="Arial" font-size="18px" x="84" y="1294.0">Isaiah</text><rect class="bookcase-book" fill="#956631" height="34" id="book-21281" stroke="black" width="228" x="84" y="1236" /><text dominant-baseline="middle" fill="white" font-family="Arial" font-size="18px" x="84" y="1253.0">Daniel</text><rect class="bookcase-book" fill="#926334" height="228" id="book-21282" stroke="black" width="47" x="312" y="1258" /><text dominant-baseline="middle" fill="white" font-family="Arial" font-size="18px" transform="rotate(-90,335.5,1482)" x="335.5" y="1482">Minor Prophets</text><rect class="bookcase-book" fill="#958C78" height="264" id="book-13065" stroke="black" width="53" x="359" y="1222" /><text dominant-baseline="middle" fill="black" font-family="Arial" font-size="18px" transform="rotate(-90,385.5,1482)" x="385.5" y="1482">The Interpreter's Bible Comment</text><rect height="321" width="20" x="50" y="1486" /><rect height="321" width="20" x="430" y="1486" /><rect height="20" width="360" x="70" y="1486" /><rect height="20" width="400" x="50" y="1807" /><rect class="bookcase-book" fill="#AA9F89" height="58" id="book-13066" stroke="black" width="264" x="84" y="1749" /><text dominant-baseline="middle" fill="black" font-family="Arial" font-size="18px" x="84" y="1778.0">The Interpreter's Bible Comment</text><rect class="bookcase-book" fill="#A59A80" height="58" id="book-13067" stroke="black" width="264" x="84" y="1691" /><text dominant-baseline="middle" fill="black" font-family="Arial" font-size="18px" x="84" y="1720.0">The Interpreter's Bible Comment</text><rect class="bookcase-book" fill="#B5A68B" height="47" id="book-13068" stroke="black" width="264" x="84" y="1644" /><text dominant-baseline="middle" fill="black" font-family="Arial" font-size="18px" x="84" y="1667.5">The Interpreter's Bible Comment</text><rect class="bookcase-book" fill="#757064" height="58" id="book-13069" stroke="black" width="264" x="84" y="1586" /><text dominant-baseline="middle" fill="white" font-family="Arial" font-size="18px" x="84" y="1615.0">The Interpreter's Bible Comment</text><rect class="bookcase-book" fill="#646056" height="56" id="book-13070" stroke="black" width="264" x="84" y="1530" /><text dominant-baseline="middle" fill="white" font-family="Arial" font-size="18px" x="84" y="1558.0">The Interpreter's Bible Comment</text><rect class="bookcase-book" fill="#B9227F" height="201" id="book-21235" stroke="black" width="45" x="348" y="1606" /><text dominant-baseline="middle" fill="white" font-family="Arial" font-size="18px" transform="rotate(-90,370.5,1803)" x="370.5" y="1803">Genesis to Ruth</text><rect height="317" width="20" x="50" y="1807" /><rect height="317" width="20" x="430" y="1807" /><rect height="20" width="360" x="70" y="1807" /><rect height="20" width="400" x="50" y="2124" /><rect class="bookcase-book" fill="#B47B46" height="201" id="book-21236" stroke="black" width="37" x="84" y="1923" /><text dominant-baseline="middle" fill="black" font-family="Arial" font-size="18px" transform="rotate(-90,102.5,2120)" x="102.5" y="2120">The Poetical Books;The </text><rect class="bookcase-book" fill="#1A9DA2" height="201" id="book-21237" stroke="black" width="41" x="121" y="1923" /><text dominant-baseline="middle" fill="white" font-family="Arial" font-size="18px" transform="rotate(-90,141.5,2120)" x="141.5" y="2120">Prophets of the Assyrian</text><rect class="bookcase-book" fill="#305BAB" height="260" id="book-21287" stroke="black" width="39" x="162" y="1864" /><text dominant-baseline="middle" fill="white" font-family="Arial" font-size="18px" transform="rotate(-90,181.5,2120)" x="181.5" y="2120">Isaiah - Malachi</text><rect class="bookcase-book" fill="#119278" height="221" id="book-21260" stroke="black" width="66" x="201" y="1903" /><text dominant-baseline="middle" fill="white" font-family="Arial" font-size="18px" transform="rotate(-90,234.0,2120)" x="234.0" y="2120">The Pentateuch</text><rect class="bookcase-book" fill="#1B8D38" height="221" id="book-21261" stroke="black" width="54" x="267" y="1903" /><text dominant-baseline="middle" fill="white" font-family="Arial" font-size="18px" transform="rotate(-90,294.0,2120)" x="294.0" y="2120">Joshua;Judges;Ruth;1 &amp; 2 </text><rect class="bookcase-book" fill="#AE8F00" height="221" id="book-21262" stroke="black" width="72" x="321" y="1903" /><text dominant-baseline="middle" fill="black" font-family="Arial" font-size="18px" transform="rotate(-90,357.0,2120)" x="357.0" y="2120">1 &amp; 2 Kings;1 &amp; 2 Chronicl</text><rect height="327" width="20" x="50" y="2124" /><rect height="327" width="20" x="430" y="2124" /><rect height="20" width="360" x="70" y="2124" /><rect height="20" width="400" x="50" y="2451" /><rect class="bookcase-book" fill="#22B933" height="50" id="book-21263" stroke="black" width="221" x="84" y="2401" /><text dominant-baseline="middle" fill="white" font-family="Arial" font-size="18px" x="84" y="2426.0">Job</text><rect class="bookcase-book" fill="#5AC238" height="65" id="book-21264" stroke="black" width="221" x="84" y="2336" /><text dominant-baseline="middle" fill="black" font-family="Arial" font-size="18px" x="84" y="2368.5">Psalms</text><rect class="bookcase-book" fill="#2B3C00" height="62" id="book-21265" stroke="black" width="221" x="84" y="2274" /><text dominant-baseline="middle" fill="white" font-family="Arial" font-size="18px" x="84" y="2305.0">Proverbs;Ecclesiastes;Son</text><rect class="bookcase-book" fill="#467641" height="52" id="book-21266" stroke="black" width="221" x="84" y="2222" /><text dominant-baseline="middle" fill="white" font-family="Arial" font-size="18px" x="84" y="2248.0">Isaiah</text><rect class="bookcase-book" fill="#5DAC20" height="47" id="book-21267" stroke="black" width="221" x="84" y="2175" /><text dominant-baseline="middle" fill="black" font-family="Arial" font-size="18px" x="84" y="2198.5">Jeremiah;Lamentations</text><rect class="bookcase-book" fill="#8AB441" height="221" id="book-21268" stroke="black" width="72" x="305" y="2230" /><text dominant-baseline="middle" fill="black" font-family="Arial" font-size="18px" transform="rotate(-90,341.0,2447)" x="341.0" y="2447">Ezekiel;Daniel</text><rect height="321" width="20" x="50" y="2451" /><rect height="321" width="20" x="430" y="2451" /><rect height="20" width="360" x="70" y="2451" /><rect height="20" width="400" x="50" y="2772" /><rect class="bookcase-book" fill="#C20A10" height="221" id="book-21269" stroke="black" width="53" x="84" y="2551" /><text dominant-baseline="middle" fill="white" font-family="Arial" font-size="18px" transform="rotate(-90,110.5,2768)" x="110.5" y="2768">Minor Prophets</text><rect class="bookcase-book" fill="#238AB0" height="235" id="book-21182" stroke="black" width="56" x="137" y="2537" /><text dominant-baseline="middle" fill="white" font-family="Arial" font-size="18px" transform="rotate(-90,165.0,2768)" x="165.0" y="2768">Genesis</text><rect class="bookcase-book" fill="#61447D" height="235" id="book-21183" stroke="black" width="55" x="193" y="2537" /><text dominant-baseline="middle" fill="white" font-family="Arial" font-size="18px" transform="rotate(-90,220.5,2768)" x="220.5" y="2768">Exodus - Numbers</text><rect class="bookcase-book" fill="#6A9A37" height="235" id="book-21184" stroke="black" width="56" x="248" y="2537" /><text dominant-baseline="middle" fill="black" font-family="Arial" font-size="18px" transform="rotate(-90,276.0,2768)" x="276.0" y="2768">Deuteronomy - Ruth</text><rect class="bookcase-book" fill="#4234BC" height="235" id="book-21185" stroke="black" width="63" x="304" y="2537" /><text dominant-baseline="middle" fill="white" font-family="Arial" font-size="18px" transform="rotate(-90,335.5,2768)" x="335.5" y="2768">1 Samuel - 2 Kings</text><rect height="315" width="20" x="50" y="2772" /><rect height="315" width="20" x="430" y="2772" /><rect height="20" width="360" x="70" y="2772" /><rect height="20" width="400" x="50" y="3087" /><rect class="bookcase-book" fill="#BFC724" height="62" id="book-21186" stroke="black" width="235" x="84" y="3025" /><text dominant-baseline="middle" fill="black" font-family="Arial" font-size="18px" x="84" y="3056.0">1 Chronicles - Psalm 21:5</text><rect class="bookcase-book" fill="#75568A" height="64" id="book-21187" stroke="black" width="235" x="84" y="2961" /><text dominant-baseline="middle" fill="white" font-family="Arial" font-size="18px" x="84" y="2993.0">Psalm 21:6 - Psalm 118</text><rect class="bookcase-book" fill="#AD3BB5" height="60" id="book-21188" stroke="black" width="235" x="84" y="2901" /><text dominant-baseline="middle" fill="white" font-family="Arial" font-size="18px" x="84" y="2931.0">Psalm 119 - Song of Solomo</text><rect class="bookcase-book" fill="#2E6B6A" height="62" id="book-21189" stroke="black" width="235" x="84" y="2839" /><text dominant-baseline="middle" fill="white" font-family="Arial" font-size="18px" x="84" y="2870.0">Isaiah</text><rect class="bookcase-book" fill="#2C7781" height="235" id="book-21190" stroke="black" width="56" x="319" y="2852" /><text dominant-baseline="middle" fill="white" font-family="Arial" font-size="18px" transform="rotate(-90,347.0,3083)" x="347.0" y="3083">Jeremiah - Ezekiel</text></svg>