<?xml version="1.0" encoding="utf-8" ?>
<svg baseProfile="full" height="3107" version="1.1" width="900" xmlns="http://www.w3.org/2000/svg" xmlns:ev="http://www.w3.org/2001/xml-events" xmlns:xlink="http://www.w3.org/1999/xlink"><defs /><rect height="20" width="400" x="450" y="453" /><rect class="bookcase-book" fill="#AAAE3D" height="235" id="book-21191" stroke="black" width="65" x="484" y="218" /><text dominant-baseline="middle" fill="black" font-family="Arial" font-size="18px" transform="rotate(-90,516.5,449)" x="516.5" y="449">Daniel - Malachi</text><rect class="bookcase-book" fill="#ECD295" height="203" id="book-22324" stroke="black" width="29" x="549" y="250" /><text dominant-baseline="middle" fill="black" font-family="Arial" font-size="18px" transform="rotate(-90,563.5,449)" x="563.5" y="449">Walking the Bible</text><rect class="bookcase-book" fill="#1FAD40" height="242" id="book-21288" stroke="black" width="53" x="578" y="211" /><text dominant-baseline="middle" fill="white" font-family="Arial" font-size="18px" transform="rotate(-90,604.5,449)" x="604.5" y="449">Genesis to Deuteronomy</text><rect class="bookcase-book" fill="#A78A3A" height="242" id="book-21289" stroke="black" width="42" x="631" y="211" /><text dominant-baseline="middle" fill="black" font-family="Arial" font-size="18px" transform="rotate(-90,652.0,449)" x="652.0" y="449">Joshua to Esther</text><rect class="bookcase-book" fill="#61467C" height="242" id="book-21290" stroke="black" width="41" x="673" y="211" /><text dominant-baseline="middle" fill="white" font-family="Arial" font-size="18px" transform="rotate(-90,693.5,449)" x="693.5" y="449">Job to Song of Solomon</text><rect class="bookcase-book" fill="#C9562C" height="242" id="book-21291" stroke="black" width="34" x="714" y="211" /><text dominant-baseline="middle" fill="white" font-family="Arial" font-size="18px" transform="rotate(-90,731.0,449)" x="731.0" y="449">Isaiah to Malachi</text><rect class="bookcase-book" fill="#A425C0" height="223" id="book-21218" stroke="black" width="48" x="748" y="230" /><text dominant-baseline="middle" fill="white" font-family="Arial" font-size="18px" transform="rotate(-90,772.0,449)" x="772.0" y="449">Genesis to Numbers</text><rect height="353" width="20" x="50" y="453" /><rect height="353" width="20" x="830" y="453" /><rect height="20" width="760" x="70" y="453" /><rect height="333" width="19" x="450" y="473" /><rect height="20" width="800" x="50" y="806" /><rect class="bookcase-book" fill="#A2B332" height="52" id="book-21219" stroke="black" width="223" x="84" y="754" /><text dominant-baseline="middle" fill="black" font-family="Arial" font-size="18px" x="84" y="780.0">Deuteronomy to 2 Kings 7</text><rect class="bookcase-book" fill="#29AE40" height="54" id="book-21220" stroke="black" width="223" x="84" y="700" /><text dominant-baseline="middle" fill="white" font-family="Arial" font-size="18px" x="84" y="727.0">2 Kings 8 to Job; Proberbs;</text><rect class="bookcase-book" fill="#8B42E0" height="51" id="book-21221" stroke="black" width="223" x="84" y="649" /><text dominant-baseline="middle" fill="white" font-family="Arial" font-size="18px" x="84" y="674.5">Psalms</text><rect class="bookcase-book" fill="#793899" height="48" id="book-21222" stroke="black" width="223" x="84" y="601" /><text dominant-baseline="middle" fill="white" font-family="Arial" font-size="18px" x="84" y="625.0">Isaiah;Jeremiah</text><rect class="bookcase-book" fill="#95CC80" height="50" id="book-21223" stroke="black" width="223" x="84" y="551" /><text dominant-baseline="middle" fill="black" font-family="Arial" font-size="18px" x="84" y="576.0">Ezekiel;Daniel;Minor Proph</text><rect class="bookcase-book" fill="#AFA136" height="259" id="book-21205" stroke="black" width="28" x="307" y="547" /><text dominant-baseline="middle" fill="black" font-family="Arial" font-size="18px" transform="rotate(-90,321.0,802)" x="321.0" y="802">Genesis Through Deuteronomy</text><rect class="bookcase-book" fill="#9C4F8C" height="259" id="book-21206" stroke="black" width="37" x="335" y="547" /><text dominant-baseline="middle" fill="white" font-family="Arial" font-size="18px" transform="rotate(-90,353.5,802)" x="353.5" y="802">Joshua Through Psalms</text><rect class="bookcase-book" fill="#97803A" height="259" id="book-21207" stroke="black" width="38" x="372" y="547" /><text dominant-baseline="middle" fill="black" font-family="Arial" font-size="18px" transform="rotate(-90,391.0,802)" x="391.0" y="802">Proverbs Through Malachi</text><rect class="bookcase-book" fill="#2DC0C2" height="242" id="book-21241" stroke="black" width="34" x="410" y="564" /><text dominant-baseline="middle" fill="black" font-family="Arial" font-size="18px" transform="rotate(-90,427.0,802)" x="427.0" y="802">Psalms 1-57</text><rect class="bookcase-book" fill="#6B43A7" height="242" id="book-21242" stroke="black" width="35" x="483" y="564" /><text dominant-baseline="middle" fill="white" font-family="Arial" font-size="18px" transform="rotate(-90,500.5,802)" x="500.5" y="802">Psalms 58-110</text><rect class="bookcase-book" fill="#43858E" height="242" id="book-21243" stroke="black" width="36" x="518" y="564" /><text dominant-baseline="middle" fill="white" font-family="Arial" font-size="18px" transform="rotate(-90,536.0,802)" x="536.0" y="802">Psalms 111-150</text><rect class="bookcase-book" fill="#BD0940" height="60" id="book-21244" stroke="black" width="242" x="554" y="746" /><text dominant-baseline="middle" fill="white" font-family="Arial" font-size="18px" x="554" y="776.0">Old Testament</text><rect class="bookcase-book" fill="#42422F" height="253" id="book-18478" stroke="black" width="36" x="554" y="493" /><text dominant-baseline="middle" fill="white" font-family="Arial" font-size="18px" transform="rotate(-90,572.0,742)" x="572.0" y="742">Encountering the Old Testame</text><rect class="bookcase-book" fill="#20171A" height="235" id="book-20539" stroke="black" width="21" x="590" y="511" /><text dominant-baseline="middle" fill="white" font-family="Arial" font-size="15.75px" transform="rotate(-90,600.5,742)" x="600.5" y="742">A Brief Introduction to the Old Te</text><rect class="bookcase-book" fill="#D3CEC4" height="235" id="book-22409" stroke="black" width="29" x="611" y="511" /><text dominant-baseline="middle" fill="black" font-family="Arial" font-size="18px" transform="rotate(-90,625.5,742)" x="625.5" y="742">Everything You Always Want</text><rect class="bookcase-book" fill="#EAD3AA" height="214" id="book-13590" stroke="black" width="6" x="640" y="532" /><text dominant-baseline="middle" fill="black" font-family="Arial" font-size="4.5px" transform="rotate(-90,643.0,742)" x="643.0" y="742">New Testament Textual Criticism</text><rect class="bookcase-book" fill="#513D23" height="210" id="book-21132" stroke="black" width="28" x="646" y="536" /><text dominant-baseline="middle" fill="white" font-family="Arial" font-size="18px" transform="rotate(-90,660.0,742)" x="660.0" y="742">The Books and the Parch</text><rect class="bookcase-book" fill="#44464B" height="216" id="book-13776" stroke="black" width="10" x="674" y="530" /><text dominant-baseline="middle" fill="white" font-family="Arial" font-size="7.5px" transform="rotate(-90,679.0,742)" x="679.0" y="742">The Text of the New Testament</text><rect class="bookcase-book" fill="#F1B550" height="203" id="book-22276" stroke="black" width="19" x="684" y="543" /><text dominant-baseline="middle" fill="black" font-family="Arial" font-size="14.25px" transform="rotate(-90,693.5,742)" x="693.5" y="742">The Gospel and the Greeks</text><rect class="bookcase-book" fill="#84463E" height="221" id="book-21251" stroke="black" width="30" x="703" y="525" /><text dominant-baseline="middle" fill="white" font-family="Arial" font-size="18px" transform="rotate(-90,718.0,742)" x="718.0" y="742">Matthew;Mark</text><rect class="bookcase-book" fill="#A02BCA" height="221" id="book-21252" stroke="black" width="24" x="733" y="525" /><text dominant-baseline="middle" fill="white" font-family="Arial" font-size="18px" transform="rotate(-90,745.0,742)" x="745.0" y="742">Luke</text><rect class="bookcase-book" fill="#8EF790" height="221" id="book-21253" stroke="black" width="34" x="757" y="525" /><text dominant-baseline="middle" fill="black" font-family="Arial" font-size="18px" transform="rotate(-90,774.0,742)" x="774.0" y="742">Acts</text><rect height="353" width="20" x="50" y="806" /><rect height="353" width="20" x="830" y="806" /><rect height="20" width="760" x="70" y="806" /><rect height="20" width="800" x="50" y="1159" /><rect class="bookcase-book" fill="#AB2312" height="41" id="book-21254" stroke="black" width="221" x="84" y="1118" /><text dominant-baseline="middle" fill="white" font-family="Arial" font-size="18px" x="84" y="1138.5">Epistles of Paul</text><rect class="bookcase-book" fill="#40CE1D" height="32" id="book-21255" stroke="black" width="221" x="84" y="1086" /><text dominant-baseline="middle" fill="black" font-family="Arial" font-size="18px" x="84" y="1102.0">John;Hebrews</text><rect class="bookcase-book" fill="#B1D480" height="34" id="book-21256" stroke="black" width="221" x="84" y="1052" /><text dominant-baseline="middle" fill="black" font-family="Arial" font-size="18px" x="84" y="1069.0">General Epistles;Revelatio</text><rect class="bookcase-book" fill="#BB2CC0" height="58" id="book-21247" stroke="black" width="215" x="84" y="994" /><text dominant-baseline="middle" fill="white" font-family="Arial" font-size="18px" x="84" y="1023.0">Synoptic Gospels</text><rect class="bookcase-book" fill="#2E517F" height="43" id="book-21248" stroke="black" width="215" x="84" y="951" /><text dominant-baseline="middle" fill="white" font-family="Arial" font-size="18px" x="84" y="972.5">The Writings of John</text><rect class="bookcase-book" fill="#6AA570" height="43" id="book-21249" stroke="black" width="215" x="84" y="908" /><text dominant-baseline="middle" fill="black" font-family="Arial" font-size="18px" x="84" y="929.5">The Epistles of Paul</text><rect class="bookcase-book" fill="#6BBB20" height="43" id="book-21250" stroke="black" width="215" x="84" y="865" /><text dominant-baseline="middle" fill="black" font-family="Arial" font-size="18px" x="84" y="886.5">Thessalonian Epistles</text><rect class="bookcase-book" fill="#21362D" height="69" id="book-21246" stroke="black" width="222" x="305" y="1090" /><text dominant-baseline="middle" fill="white" font-family="Arial" font-size="18px" x="305" y="1124.5">Expository Dictionary of Ne</text><rect class="bookcase-book" fill="#534D84" height="53" id="book-21257" stroke="black" width="199" x="305" y="1037" /><text dominant-baseline="middle" fill="white" font-family="Arial" font-size="18px" x="305" y="1063.5">Word Studies in the Gre</text><rect class="bookcase-book" fill="#BF2C56" height="51" id="book-21258" stroke="black" width="199" x="305" y="986" /><text dominant-baseline="middle" fill="white" font-family="Arial" font-size="18px" x="305" y="1011.5">Word Studies in the Gre</text><rect class="bookcase-book" fill="#12AB92" height="43" id="book-21259" stroke="black" width="199" x="305" y="943" /><text dominant-baseline="middle" fill="white" font-family="Arial" font-size="18px" x="305" y="964.5">Word Studies in the Gre</text><rect class="bookcase-book" fill="#62FAC0" height="33" id="book-21147" stroke="black" width="191" x="305" y="910" /><text dominant-baseline="middle" fill="black" font-family="Arial" font-size="18px" x="305" y="926.5">Greek New Testament</text><rect class="bookcase-book" fill="#271B10" height="41" id="book-21146" stroke="black" width="213" x="527" y="1118" /><text dominant-baseline="middle" fill="white" font-family="Arial" font-size="18px" x="527" y="1138.5">Interlinear Greek-English </text><rect class="bookcase-book" fill="#6F3932" height="239" id="book-16263" stroke="black" width="19" x="527" y="879" /><text dominant-baseline="middle" fill="white" font-family="Arial" font-size="14.25px" transform="rotate(-90,536.5,1114)" x="536.5" y="1114">A Reader's Greek New Testament</text><rect class="bookcase-book" fill="#88372C" height="25" id="book-13724" stroke="black" width="190" x="546" y="1093" /><text dominant-baseline="middle" fill="white" font-family="Arial" font-size="18px" x="546" y="1105.5">The Greek New Testa</text><rect class="bookcase-book" fill="#8B5B32" height="197" id="book-13749" stroke="black" width="15" x="546" y="896" /><text dominant-baseline="middle" fill="white" font-family="Arial" font-size="11.25px" transform="rotate(-90,553.5,1089)" x="553.5" y="1089">The New International Version, Holy Bi</text><rect class="bookcase-book" fill="#E0F1EB" height="209" id="book-20242" stroke="black" width="8" x="561" y="884" /><text dominant-baseline="middle" fill="black" font-family="Arial" font-size="6.0px" transform="rotate(-90,565.0,1089)" x="565.0" y="1089">Holy Bible New Testament</text><rect class="bookcase-book" fill="#C9BB98" height="204" id="book-13589" stroke="black" width="14" x="569" y="889" /><text dominant-baseline="middle" fill="black" font-family="Arial" font-size="10.5px" transform="rotate(-90,576.0,1089)" x="576.0" y="1089">New Testament Interpretation Through Rh</text><rect class="bookcase-book" fill="#61B639" height="223" id="book-21325" stroke="black" width="34" x="583" y="870" /><text dominant-baseline="middle" fill="black" font-family="Arial" font-size="18px" transform="rotate(-90,600.0,1089)" x="600.0" y="1089">A Harmony of the Gospels</text><rect class="bookcase-book" fill="#A34524" height="230" id="book-19299" stroke="black" width="37" x="617" y="863" /><text dominant-baseline="middle" fill="white" font-family="Arial" font-size="18px" transform="rotate(-90,635.5,1089)" x="635.5" y="1089">The New Testament and the</text><rect class="bookcase-book" fill="#454232" height="230" id="book-19453" stroke="black" width="38" x="654" y="863" /><text dominant-baseline="middle" fill="white" font-family="Arial" font-size="18px" transform="rotate(-90,673.0,1089)" x="673.0" y="1089">Jesus and the Victory of Go</text><rect class="bookcase-book" fill="#2B3C38" height="230" id="book-19423" stroke="black" width="41" x="692" y="863" /><text dominant-baseline="middle" fill="white" font-family="Arial" font-size="18px" transform="rotate(-90,712.5,1089)" x="712.5" y="1089">The Resurrection of the Son</text><rect class="bookcase-book" fill="#2B3442" height="230" id="book-22573" stroke="black" width="32" x="740" y="929" /><text dominant-baseline="middle" fill="white" font-family="Arial" font-size="18px" transform="rotate(-90,756.0,1155)" x="756.0" y="1155">Paul and the Faithfulness of</text><rect height="327" width="20" x="50" y="1159" /><rect height="327" width="20" x="830" y="1159" /><rect height="20" width="760" x="70" y="1159" /><rect height="20" width="800" x="50" y="1486" /><rect class="bookcase-book" fill="#2A3341" height="46" id="book-22574" stroke="black" width="230" x="84" y="1440" /><text dominant-baseline="middle" fill="white" font-family="Arial" font-size="18px" x="84" y="1463.0">Paul and the Faithfulness of</text><rect class="bookcase-book" fill="#4F963B" height="236" id="book-21130" stroke="black" width="32" x="84" y="1204" /><text dominant-baseline="middle" fill="white" font-family="Arial" font-size="18px" transform="rotate(-90,100.0,1436)" x="100.0" y="1436">New Testament Times</text><rect class="bookcase-book" fill="#4AA686" height="18" id="book-21844" stroke="black" width="194" x="116" y="1422" /><text dominant-baseline="middle" fill="black" font-family="Arial" font-size="13.5px" x="116" y="1431.0">The Gospel of Matthew</text><rect class="bookcase-book" fill="#92761B" height="16" id="book-21292" stroke="black" width="194" x="116" y="1406" /><text dominant-baseline="middle" fill="white" font-family="Arial" font-size="12.0px" x="116" y="1414.0">The Gospel of Mark</text><rect class="bookcase-book" fill="#A1AB20" height="22" id="book-21293" stroke="black" width="194" x="116" y="1384" /><text dominant-baseline="middle" fill="black" font-family="Arial" font-size="16.5px" x="116" y="1395.0">The Gospel of Luke</text><rect class="bookcase-book" fill="#76325A" height="15" id="book-21294" stroke="black" width="194" x="116" y="1369" /><text dominant-baseline="middle" fill="white" font-family="Arial" font-size="11.25px" x="116" y="1376.5">The Gospel of John</text><rect class="bookcase-book" fill="#92112B" height="13" id="book-21845" stroke="black" width="194" x="116" y="1356" /><text dominant-baseline="middle" fill="white" font-family="Arial" font-size="9.75px" x="116" y="1362.5">The Acts of the Apostles</text><rect class="bookcase-book" fill="#A41489" height="18" id="book-21846" stroke="black" width="194" x="116" y="1338" /><text dominant-baseline="middle" fill="white" font-family="Arial" font-size="13.5px" x="116" y="1347.0">The Epistle to the Romans</text><rect class="bookcase-book" fill="#87A64A" height="17" id="book-21295" stroke="black" width="194" x="116" y="1321" /><text dominant-baseline="middle" fill="black" font-family="Arial" font-size="12.75px" x="116" y="1329.5">The First Epistle of Paul to the C</text><rect class="bookcase-book" fill="#335585" height="14" id="book-21847" stroke="black" width="194" x="116" y="1307" /><text dominant-baseline="middle" fill="white" font-family="Arial" font-size="10.5px" x="116" y="1314.0">The Second Epistle of Paul to the Corint</text><rect class="bookcase-book" fill="#7D7F1F" height="13" id="book-21848" stroke="black" width="194" x="116" y="1294" /><text dominant-baseline="middle" fill="white" font-family="Arial" font-size="9.75px" x="116" y="1300.5">The Epistle of Paul to the Galatians</text><rect class="bookcase-book" fill="#34C136" height="8" id="book-21849" stroke="black" width="194" x="116" y="1286" /><text dominant-baseline="middle" fill="black" font-family="Arial" font-size="6.0px" x="116" y="1290.0">The Epistle of Paul to the Colossians and Philemon</text><rect class="bookcase-book" fill="#5F7F33" height="12" id="book-21850" stroke="black" width="194" x="116" y="1274" /><text dominant-baseline="middle" fill="white" font-family="Arial" font-size="9.0px" x="116" y="1280.0">The Epistle of Paul to the Ephesians</text><rect class="bookcase-book" fill="#22BD00" height="12" id="book-21851" stroke="black" width="194" x="116" y="1262" /><text dominant-baseline="middle" fill="white" font-family="Arial" font-size="9.0px" x="116" y="1268.0">The Epistle of Paul to the Philippians</text><rect class="bookcase-book" fill="#865122" height="10" id="book-21852" stroke="black" width="194" x="116" y="1252" /><text dominant-baseline="middle" fill="white" font-family="Arial" font-size="7.5px" x="116" y="1257.0">The Epistles of Paul to the Thessalonians</text><rect class="bookcase-book" fill="#1C7D64" height="12" id="book-21853" stroke="black" width="194" x="116" y="1240" /><text dominant-baseline="middle" fill="white" font-family="Arial" font-size="9.0px" x="116" y="1246.0">The First Epistle of Peter</text><rect class="bookcase-book" fill="#A32339" height="12" id="book-21854" stroke="black" width="194" x="116" y="1228" /><text dominant-baseline="middle" fill="white" font-family="Arial" font-size="9.0px" x="116" y="1234.0">The Second Epistle of Peter and the Epistle of </text><rect class="bookcase-book" fill="#C8472D" height="15" id="book-21855" stroke="black" width="194" x="116" y="1213" /><text dominant-baseline="middle" fill="white" font-family="Arial" font-size="11.25px" x="116" y="1220.5">The Epistle to the Hebrews</text><rect class="bookcase-book" fill="#BAC3C0" height="15" id="book-21856" stroke="black" width="194" x="116" y="1198" /><text dominant-baseline="middle" fill="black" font-family="Arial" font-size="11.25px" x="116" y="1205.5">The Epistles of John</text><rect class="bookcase-book" fill="#2570B7" height="15" id="book-21857" stroke="black" width="194" x="314" y="1471" /><text dominant-baseline="middle" fill="white" font-family="Arial" font-size="11.25px" x="314" y="1478.5">The Pastoral Epistle</text><rect class="bookcase-book" fill="#BAC219" height="16" id="book-21858" stroke="black" width="194" x="314" y="1455" /><text dominant-baseline="middle" fill="black" font-family="Arial" font-size="12.0px" x="314" y="1463.0">The Epistle of Revelation</text><rect class="bookcase-book" fill="#395C6F" height="236" id="book-18802" stroke="black" width="32" x="314" y="1219" /><text dominant-baseline="middle" fill="white" font-family="Arial" font-size="18px" transform="rotate(-90,330.0,1451)" x="330.0" y="1451">Matthew</text><rect class="bookcase-book" fill="#422B78" height="236" id="book-20307" stroke="black" width="22" x="346" y="1219" /><text dominant-baseline="middle" fill="white" font-family="Arial" font-size="16.5px" transform="rotate(-90,357.0,1451)" x="357.0" y="1451">Mark</text><rect class="bookcase-book" fill="#27C000" height="236" id="book-18853" stroke="black" width="41" x="368" y="1219" /><text dominant-baseline="middle" fill="white" font-family="Arial" font-size="18px" transform="rotate(-90,388.5,1451)" x="388.5" y="1451">Luke</text><rect class="bookcase-book" fill="#2A1AA2" height="236" id="book-18863" stroke="black" width="30" x="409" y="1219" /><text dominant-baseline="middle" fill="white" font-family="Arial" font-size="18px" transform="rotate(-90,424.0,1451)" x="424.0" y="1451">John 1-11</text><rect class="bookcase-book" fill="#10699E" height="236" id="book-18864" stroke="black" width="28" x="439" y="1219" /><text dominant-baseline="middle" fill="white" font-family="Arial" font-size="18px" transform="rotate(-90,453.0,1451)" x="453.0" y="1451">John 12-21</text><rect class="bookcase-book" fill="#885AF0" height="236" id="book-18890" stroke="black" width="36" x="467" y="1219" /><text dominant-baseline="middle" fill="white" font-family="Arial" font-size="18px" transform="rotate(-90,485.0,1451)" x="485.0" y="1451">Acts</text><rect class="bookcase-book" fill="#A04C46" height="24" id="book-20306" stroke="black" width="236" x="508" y="1462" /><text dominant-baseline="middle" fill="white" font-family="Arial" font-size="18px" x="508" y="1474.0">Romans</text><rect class="bookcase-book" fill="#E63A40" height="30" id="book-18930" stroke="black" width="236" x="508" y="1432" /><text dominant-baseline="middle" fill="white" font-family="Arial" font-size="18px" x="508" y="1447.0">1 Corinthians</text><rect class="bookcase-book" fill="#3D83BD" height="37" id="book-20309" stroke="black" width="236" x="508" y="1395" /><text dominant-baseline="middle" fill="white" font-family="Arial" font-size="18px" x="508" y="1413.5">2 Corinthians</text><rect class="bookcase-book" fill="#B165D0" height="32" id="book-18943" stroke="black" width="236" x="508" y="1363" /><text dominant-baseline="middle" fill="black" font-family="Arial" font-size="18px" x="508" y="1379.0">Galatians</text><rect class="bookcase-book" fill="#BA8960" height="28" id="book-18975" stroke="black" width="236" x="508" y="1335" /><text dominant-baseline="middle" fill="black" font-family="Arial" font-size="18px" x="508" y="1349.0">Philippians, Colossians, Phil</text><rect class="bookcase-book" fill="#3DA87C" height="25" id="book-18996" stroke="black" width="236" x="508" y="1310" /><text dominant-baseline="middle" fill="black" font-family="Arial" font-size="18px" x="508" y="1322.5">1 and 2 Thessalonians</text><rect class="bookcase-book" fill="#A17140" height="26" id="book-19006" stroke="black" width="236" x="508" y="1284" /><text dominant-baseline="middle" fill="white" font-family="Arial" font-size="18px" x="508" y="1297.0">1, 2 Timothy, Titus</text><rect class="bookcase-book" fill="#5E9C6A" height="40" id="book-19014" stroke="black" width="236" x="508" y="1244" /><text dominant-baseline="middle" fill="black" font-family="Arial" font-size="18px" x="508" y="1264.0">Hebrews</text><rect class="bookcase-book" fill="#3A9AAB" height="24" id="book-20308" stroke="black" width="236" x="508" y="1220" /><text dominant-baseline="middle" fill="black" font-family="Arial" font-size="18px" x="508" y="1232.0">James</text><rect class="bookcase-book" fill="#B79090" height="236" id="book-19048" stroke="black" width="34" x="744" y="1250" /><text dominant-baseline="middle" fill="black" font-family="Arial" font-size="18px" transform="rotate(-90,761.0,1482)" x="761.0" y="1482">1, 2 Peter and Jude</text><rect class="bookcase-book" fill="#C729AA" height="236" id="book-19059" stroke="black" width="26" x="778" y="1250" /><text dominant-baseline="middle" fill="white" font-family="Arial" font-size="18px" transform="rotate(-90,791.0,1482)" x="791.0" y="1482">1, 2, 3 John</text><rect height="321" width="20" x="50" y="1486" /><rect height="321" width="20" x="830" y="1486" /><rect height="20" width="760" x="70" y="1486" /><rect height="20" width="800" x="50" y="1807" /><rect height="317" width="20" x="50" y="1807" /><rect height="317" width="20" x="830" y="1807" /><rect height="20" width="760" x="70" y="1807" /><rect height="20" width="800" x="50" y="2124" /><rect class="bookcase-book" fill="#3BB422" height="26" id="book-19075" stroke="black" width="236" x="84" y="2098" /><text dominant-baseline="middle" fill="black" font-family="Arial" font-size="18px" x="84" y="2111.0">Revelation</text><rect class="bookcase-book" fill="#913D00" height="35" id="book-16566" stroke="black" width="236" x="84" y="2063" /><text dominant-baseline="middle" fill="white" font-family="Arial" font-size="18px" x="84" y="2080.5">Mark</text><rect class="bookcase-book" fill="#5A6000" height="41" id="book-16571" stroke="black" width="236" x="84" y="2022" /><text dominant-baseline="middle" fill="white" font-family="Arial" font-size="18px" x="84" y="2042.5">John</text><rect class="bookcase-book" fill="#42A120" height="50" id="book-16573" stroke="black" width="236" x="84" y="1972" /><text dominant-baseline="middle" fill="white" font-family="Arial" font-size="18px" x="84" y="1997.0">Romans</text><rect class="bookcase-book" fill="#42A120" height="40" id="book-20132" stroke="black" width="236" x="84" y="1932" /><text dominant-baseline="middle" fill="white" font-family="Arial" font-size="18px" x="84" y="1952.0">Romans</text><rect class="bookcase-book" fill="#713C00" height="20" id="book-20230" stroke="black" width="236" x="84" y="1912" /><text dominant-baseline="middle" fill="white" font-family="Arial" font-size="15.0px" x="84" y="1922.0">Philippians</text><rect class="bookcase-book" fill="#474000" height="32" id="book-16584" stroke="black" width="236" x="84" y="1880" /><text dominant-baseline="middle" fill="white" font-family="Arial" font-size="18px" x="84" y="1896.0">1 Peter</text><rect class="bookcase-book" fill="#1C1E1D" height="33" id="book-16586" stroke="black" width="236" x="84" y="1847" /><text dominant-baseline="middle" fill="white" font-family="Arial" font-size="18px" x="84" y="1863.5">1, 2 &amp; 3 John</text><rect class="bookcase-book" fill="#BFC0B9" height="37" id="book-22322" stroke="black" width="228" x="320" y="2087" /><text dominant-baseline="middle" fill="black" font-family="Arial" font-size="18px" x="320" y="2105.5">Paul Through Mediterranea</text><rect class="bookcase-book" fill="#4F5638" height="24" id="book-22320" stroke="black" width="228" x="320" y="2063" /><text dominant-baseline="middle" fill="white" font-family="Arial" font-size="18px" x="320" y="2075.0">Poet &amp; Peasant and Throug</text><rect class="bookcase-book" fill="#444792" height="42" id="book-21834" stroke="black" width="228" x="320" y="2021" /><text dominant-baseline="middle" fill="white" font-family="Arial" font-size="18px" x="320" y="2042.0">Matthew to John</text><rect class="bookcase-book" fill="#522CA5" height="38" id="book-21835" stroke="black" width="228" x="320" y="1983" /><text dominant-baseline="middle" fill="white" font-family="Arial" font-size="18px" x="320" y="2002.0">Acts to Romans</text><rect class="bookcase-book" fill="#B3E430" height="38" id="book-21836" stroke="black" width="228" x="320" y="1945" /><text dominant-baseline="middle" fill="black" font-family="Arial" font-size="18px" x="320" y="1964.0">Corinthians to Galatians</text><rect class="bookcase-book" fill="#1E82B8" height="33" id="book-21837" stroke="black" width="228" x="320" y="1912" /><text dominant-baseline="middle" fill="white" font-family="Arial" font-size="18px" x="320" y="1928.5">Ephesians to Philemon</text><rect class="bookcase-book" fill="#DB6A90" height="37" id="book-21838" stroke="black" width="228" x="320" y="1875" /><text dominant-baseline="middle" fill="black" font-family="Arial" font-size="18px" x="320" y="1893.5">Hebrews to Jude</text><rect class="bookcase-book" fill="#292876" height="32" id="book-21839" stroke="black" width="228" x="320" y="1843" /><text dominant-baseline="middle" fill="white" font-family="Arial" font-size="18px" x="320" y="1859.0">Revelation</text><rect class="bookcase-book" fill="#228682" height="215" id="book-21231" stroke="black" width="30" x="548" y="1909" /><text dominant-baseline="middle" fill="white" font-family="Arial" font-size="18px" transform="rotate(-90,563.0,2120)" x="563.0" y="2120">Romans</text><rect class="bookcase-book" fill="#5D9498" height="215" id="book-21232" stroke="black" width="30" x="578" y="1909" /><text dominant-baseline="middle" fill="black" font-family="Arial" font-size="18px" transform="rotate(-90,593.0,2120)" x="593.0" y="2120">Romans</text><rect class="bookcase-book" fill="#897F52" height="215" id="book-21233" stroke="black" width="34" x="608" y="1909" /><text dominant-baseline="middle" fill="white" font-family="Arial" font-size="18px" transform="rotate(-90,625.0,2120)" x="625.0" y="2120">Romans</text><rect class="bookcase-book" fill="#8A3853" height="215" id="book-21234" stroke="black" width="30" x="642" y="1909" /><text dominant-baseline="middle" fill="white" font-family="Arial" font-size="18px" transform="rotate(-90,657.0,2120)" x="657.0" y="2120">Romans</text><rect class="bookcase-book" fill="#A69F8B" height="264" id="book-13071" stroke="black" width="47" x="672" y="1860" /><text dominant-baseline="middle" fill="black" font-family="Arial" font-size="18px" transform="rotate(-90,695.5,2120)" x="695.5" y="2120">The Interpreter's Bible Comment</text><rect class="bookcase-book" fill="#A79A84" height="264" id="book-13072" stroke="black" width="45" x="719" y="1860" /><text dominant-baseline="middle" fill="black" font-family="Arial" font-size="18px" transform="rotate(-90,741.5,2120)" x="741.5" y="2120">The Interpreter's Bible Comment</text><rect class="bookcase-book" fill="#A29984" height="264" id="book-13073" stroke="black" width="35" x="764" y="1860" /><text dominant-baseline="middle" fill="black" font-family="Arial" font-size="18px" transform="rotate(-90,781.5,2120)" x="781.5" y="2120">The Interpreter's Bible Comment</text><rect height="327" width="20" x="50" y="2124" /><rect height="327" width="20" x="830" y="2124" /><rect height="20" width="760" x="70" y="2124" /><rect height="20" width="800" x="50" y="2451" /><rect class="bookcase-book" fill="#AFA48E" height="264" id="book-13074" stroke="black" width="39" x="84" y="2187" /><text dominant-baseline="middle" fill="black" font-family="Arial" font-size="18px" transform="rotate(-90,103.5,2447)" x="103.5" y="2447">The Interpreter's Bible Comment</text><rect class="bookcase-book" fill="#ABA28C" height="264" id="book-13075" stroke="black" width="47" x="123" y="2187" /><text dominant-baseline="middle" fill="black" font-family="Arial" font-size="18px" transform="rotate(-90,146.5,2447)" x="146.5" y="2447">The Interpreter's Bible Comment</text><rect class="bookcase-book" fill="#AEA590" height="264" id="book-13076" stroke="black" width="43" x="170" y="2187" /><text dominant-baseline="middle" fill="black" font-family="Arial" font-size="18px" transform="rotate(-90,191.5,2447)" x="191.5" y="2447">The Interpreter's Bible Comment</text><rect class="bookcase-book" fill="#317CB5" height="201" id="book-21238" stroke="black" width="38" x="213" y="2250" /><text dominant-baseline="middle" fill="white" font-family="Arial" font-size="18px" transform="rotate(-90,232.0,2447)" x="232.0" y="2447">The Four Gospels</text><rect class="bookcase-book" fill="#4F9630" height="201" id="book-21239" stroke="black" width="44" x="251" y="2250" /><text dominant-baseline="middle" fill="white" font-family="Arial" font-size="18px" transform="rotate(-90,273.0,2447)" x="273.0" y="2447">The Acts;James;1 &amp; 2 T</text><rect class="bookcase-book" fill="#BC3E1F" height="201" id="book-21240" stroke="black" width="40" x="295" y="2250" /><text dominant-baseline="middle" fill="white" font-family="Arial" font-size="18px" transform="rotate(-90,315.0,2447)" x="315.0" y="2447">Colossians;Ephesians;H</text><rect class="bookcase-book" fill="#733988" height="45" id="book-21840" stroke="black" width="260" x="335" y="2406" /><text dominant-baseline="middle" fill="white" font-family="Arial" font-size="18px" x="335" y="2428.5">Matthew - Acts</text><rect class="bookcase-book" fill="#4A54AA" height="44" id="book-21841" stroke="black" width="260" x="335" y="2362" /><text dominant-baseline="middle" fill="white" font-family="Arial" font-size="18px" x="335" y="2384.0">Romans - Revelation</text><rect class="bookcase-book" fill="#E15A80" height="62" id="book-21192" stroke="black" width="235" x="335" y="2300" /><text dominant-baseline="middle" fill="black" font-family="Arial" font-size="18px" x="335" y="2331.0">Matthew - Mark</text><rect class="bookcase-book" fill="#269786" height="57" id="book-21193" stroke="black" width="235" x="335" y="2243" /><text dominant-baseline="middle" fill="white" font-family="Arial" font-size="18px" x="335" y="2271.5">Luke 1 - Luke 13</text><rect class="bookcase-book" fill="#62618F" height="57" id="book-21194" stroke="black" width="235" x="335" y="2186" /><text dominant-baseline="middle" fill="white" font-family="Arial" font-size="18px" x="335" y="2214.5">Luke 14 - John 7</text><rect class="bookcase-book" fill="#C9BC50" height="235" id="book-21195" stroke="black" width="50" x="595" y="2216" /><text dominant-baseline="middle" fill="black" font-family="Arial" font-size="18px" transform="rotate(-90,620.0,2447)" x="620.0" y="2447">John 8 - John 21</text><rect class="bookcase-book" fill="#805289" height="235" id="book-21196" stroke="black" width="57" x="645" y="2216" /><text dominant-baseline="middle" fill="white" font-family="Arial" font-size="18px" transform="rotate(-90,673.5,2447)" x="673.5" y="2447">Acts 1 - 17</text><rect class="bookcase-book" fill="#2AC575" height="235" id="book-21197" stroke="black" width="51" x="702" y="2216" /><text dominant-baseline="middle" fill="black" font-family="Arial" font-size="18px" transform="rotate(-90,727.5,2447)" x="727.5" y="2447">Acts 18 - Romans 8:10</text><rect class="bookcase-book" fill="#337085" height="235" id="book-21198" stroke="black" width="57" x="753" y="2216" /><text dominant-baseline="middle" fill="white" font-family="Arial" font-size="18px" transform="rotate(-90,781.5,2447)" x="781.5" y="2447">Romans 8:11 - 1 Corinthians</text><rect height="321" width="20" x="50" y="2451" /><rect height="321" width="20" x="830" y="2451" /><rect height="20" width="760" x="70" y="2451" /><rect height="20" width="800" x="50" y="2772" /><rect class="bookcase-book" fill="#4B6A9A" height="62" id="book-21199" stroke="black" width="235" x="84" y="2710" /><text dominant-baseline="middle" fill="white" font-family="Arial" font-size="18px" x="84" y="2741.0">1 Corinthians 10 - Galatians</text><rect class="bookcase-book" fill="#835366" height="58" id="book-21200" stroke="black" width="235" x="84" y="2652" /><text dominant-baseline="middle" fill="white" font-family="Arial" font-size="18px" x="84" y="2681.0">Ephesians - Colossians</text><rect class="bookcase-book" fill="#1EAE38" height="59" id="book-21201" stroke="black" width="235" x="84" y="2593" /><text dominant-baseline="middle" fill="white" font-family="Arial" font-size="18px" x="84" y="2622.5">1 Thessalonians - Philemon</text><rect class="bookcase-book" fill="#BC9C1E" height="57" id="book-21202" stroke="black" width="235" x="84" y="2536" /><text dominant-baseline="middle" fill="black" font-family="Arial" font-size="18px" x="84" y="2564.5">Hebrews</text><rect class="bookcase-book" fill="#9E25B7" height="235" id="book-21203" stroke="black" width="65" x="319" y="2537" /><text dominant-baseline="middle" fill="white" font-family="Arial" font-size="18px" transform="rotate(-90,351.5,2768)" x="351.5" y="2768">James - 1 John</text><rect class="bookcase-book" fill="#927368" height="235" id="book-21204" stroke="black" width="59" x="384" y="2537" /><text dominant-baseline="middle" fill="white" font-family="Arial" font-size="18px" transform="rotate(-90,413.5,2768)" x="413.5" y="2768">2 John - Revelation</text><rect class="bookcase-book" fill="#1554C1" height="45" id="book-21842" stroke="black" width="242" x="443" y="2727" /><text dominant-baseline="middle" fill="white" font-family="Arial" font-size="18px" x="443" y="2749.5">Matthew to John</text><rect class="bookcase-book" fill="#6BC715" height="42" id="book-21843" stroke="black" width="242" x="443" y="2685" /><text dominant-baseline="middle" fill="black" font-family="Arial" font-size="18px" x="443" y="2706.0">Acts to Revelation</text><rect class="bookcase-book" fill="#22B450" height="49" id="book-21827" stroke="black" width="223" x="443" y="2636" /><text dominant-baseline="middle" fill="white" font-family="Arial" font-size="18px" x="443" y="2660.5">Matthew 9-28</text><rect class="bookcase-book" fill="#3662A0" height="42" id="book-21828" stroke="black" width="223" x="443" y="2594" /><text dominant-baseline="middle" fill="white" font-family="Arial" font-size="18px" x="443" y="2615.0">Mark</text><rect class="bookcase-book" fill="#25791F" height="53" id="book-21224" stroke="black" width="223" x="443" y="2541" /><text dominant-baseline="middle" fill="white" font-family="Arial" font-size="18px" x="443" y="2567.5">Luke</text><rect class="bookcase-book" fill="#814846" height="50" id="book-21225" stroke="black" width="223" x="443" y="2491" /><text dominant-baseline="middle" fill="white" font-family="Arial" font-size="18px" x="443" y="2516.0">John 1-14</text><rect class="bookcase-book" fill="#7E6D49" height="223" id="book-21226" stroke="black" width="53" x="685" y="2549" /><text dominant-baseline="middle" fill="white" font-family="Arial" font-size="18px" transform="rotate(-90,711.5,2768)" x="711.5" y="2768">John 15-21;Acts 1-12</text><rect class="bookcase-book" fill="#81332C" height="223" id="book-21227" stroke="black" width="53" x="738" y="2549" /><text dominant-baseline="middle" fill="white" font-family="Arial" font-size="18px" transform="rotate(-90,764.5,2768)" x="764.5" y="2768">Acts 13-28;Romans</text><rect height="315" width="20" x="50" y="2772" /><rect height="315" width="20" x="830" y="2772" /><rect height="20" width="760" x="70" y="2772" /><rect height="20" width="800" x="50" y="3087" /><rect class="bookcase-book" fill="#A59B31" height="38" id="book-21829" stroke="black" width="223" x="84" y="3049" /><text dominant-baseline="middle" fill="black" font-family="Arial" font-size="18px" x="84" y="3068.0">Ephesians</text><rect class="bookcase-book" fill="#A79E80" height="50" id="book-21830" stroke="black" width="223" x="84" y="2999" /><text dominant-baseline="middle" fill="black" font-family="Arial" font-size="18px" x="84" y="3024.0">1 &amp; 2 Corinthians;Galatian</text><rect class="bookcase-book" fill="#316D69" height="51" id="book-21831" stroke="black" width="223" x="84" y="2948" /><text dominant-baseline="middle" fill="white" font-family="Arial" font-size="18px" x="84" y="2973.5">Philippians 4 to Hebrews 6</text><rect class="bookcase-book" fill="#301A89" height="51" id="book-21832" stroke="black" width="223" x="84" y="2897" /><text dominant-baseline="middle" fill="white" font-family="Arial" font-size="18px" x="84" y="2922.5">Hebrews 7 to 1 John 4</text><rect class="bookcase-book" fill="#3CB400" height="46" id="book-21833" stroke="black" width="223" x="84" y="2851" /><text dominant-baseline="middle" fill="white" font-family="Arial" font-size="18px" x="84" y="2874.0">1 John 5 to Revelation;Ind</text><rect class="bookcase-book" fill="#363C81" height="259" id="book-21208" stroke="black" width="31" x="307" y="2828" /><text dominant-baseline="middle" fill="white" font-family="Arial" font-size="18px" transform="rotate(-90,322.5,3083)" x="322.5" y="3083">Matthew Through Romans</text><rect class="bookcase-book" fill="#9A8928" height="259" id="book-21209" stroke="black" width="44" x="338" y="2828" /><text dominant-baseline="middle" fill="black" font-family="Arial" font-size="18px" transform="rotate(-90,360.0,3083)" x="360.0" y="3083">1 Corinthians Through Revelati</text><rect class="bookcase-book" fill="#77281D" height="22" id="book-14086" stroke="black" width="198" x="382" y="3065" /><text dominant-baseline="middle" fill="white" font-family="Arial" font-size="16.5px" x="382" y="3076.0">A Textual Commentary on </text><rect class="bookcase-book" fill="#286C40" height="242" id="book-21245" stroke="black" width="46" x="382" y="2823" /><text dominant-baseline="middle" fill="white" font-family="Arial" font-size="18px" transform="rotate(-90,405.0,3061)" x="405.0" y="3061">New Testament</text><rect class="bookcase-book" fill="#DFB072" height="222" id="book-20139" stroke="black" width="19" x="428" y="2843" /><text dominant-baseline="middle" fill="black" font-family="Arial" font-size="14.25px" transform="rotate(-90,437.5,3061)" x="437.5" y="3061">Cities of the New Testament</text><rect class="bookcase-book" fill="#A48059" height="181" id="book-20143" stroke="black" width="19" x="447" y="2884" /><text dominant-baseline="middle" fill="black" font-family="Arial" font-size="14.25px" transform="rotate(-90,456.5,3061)" x="456.5" y="3061">The First Christian</text><rect class="bookcase-book" fill="#D1665D" height="222" id="book-20133" stroke="black" width="18" x="466" y="2843" /><text dominant-baseline="middle" fill="black" font-family="Arial" font-size="13.5px" transform="rotate(-90,475.0,3061)" x="475.0" y="3061">An Archaeologist Looks at the Gosp</text><rect class="bookcase-book" fill="#7E7F76" height="120" id="book-21384" stroke="black" width="8" x="484" y="2945" /><text dominant-baseline="middle" fill="black" font-family="Arial" font-size="6.0px" transform="rotate(-90,488.0,3061)" x="488.0" y="3061">From Pentecost to Patmos</text><rect class="bookcase-book" fill="#2F27CE" height="209" id="book-21136" stroke="black" width="16" x="492" y="2856" /><text dominant-baseline="middle" fill="white" font-family="Arial" font-size="12.0px" transform="rotate(-90,500.0,3061)" x="500.0" y="3061">Paul and Jesus</text><rect class="bookcase-book" fill="#87897B" height="222" id="book-20108" stroke="black" width="9" x="508" y="2843" /><text dominant-baseline="middle" fill="black" font-family="Arial" font-size="6.75px" transform="rotate(-90,512.5,3061)" x="512.5" y="3061">An Atlas of the Life of Christ</text><rect class="bookcase-book" fill="#5D5F52" height="204" id="book-20110" stroke="black" width="23" x="517" y="2861" /><text dominant-baseline="middle" fill="white" font-family="Arial" font-size="17.25px" transform="rotate(-90,528.5,3061)" x="528.5" y="3061">The Travels and Adventur</text><rect class="bookcase-book" fill="#D88432" height="229" id="book-13731" stroke="black" width="30" x="540" y="2836" /><text dominant-baseline="middle" fill="black" font-family="Arial" font-size="18px" transform="rotate(-90,555.0,3061)" x="555.0" y="3061">The Historical Reliability of t</text><rect class="bookcase-book" fill="#AC956A" height="217" id="book-13811" stroke="black" width="21" x="580" y="2870" /><text dominant-baseline="middle" fill="black" font-family="Arial" font-size="15.75px" transform="rotate(-90,590.5,3083)" x="590.5" y="3083">What the Gospels Meant</text><rect class="bookcase-book" fill="#662C51" height="237" id="book-14795" stroke="black" width="40" x="601" y="2850" /><text dominant-baseline="middle" fill="white" font-family="Arial" font-size="18px" transform="rotate(-90,621.0,3083)" x="621.0" y="3083">Jesus and the Gospels</text><rect class="bookcase-book" fill="#EADBBF" height="237" id="book-13473" stroke="black" width="38" x="641" y="2850" /><text dominant-baseline="middle" fill="black" font-family="Arial" font-size="18px" transform="rotate(-90,660.0,3083)" x="660.0" y="3083">Four Portraits, One Jesus</text><rect class="bookcase-book" fill="#C19C6D" height="229" id="book-14275" stroke="black" width="29" x="679" y="2858" /><text dominant-baseline="middle" fill="black" font-family="Arial" font-size="18px" transform="rotate(-90,693.5,3083)" x="693.5" y="3083">Introducing the Apocrypha</text><rect class="bookcase-book" fill="#E3C397" height="177" id="book-13612" stroke="black" width="8" x="708" y="2910" /><text dominant-baseline="middle" fill="black" font-family="Arial" font-size="6.0px" transform="rotate(-90,712.0,3083)" x="712.0" y="3083">Pocket Dictionary of Theological Terms</text><rect class="bookcase-book" fill="#B1B08C" height="241" id="book-14267" stroke="black" width="41" x="716" y="2846" /><text dominant-baseline="middle" fill="black" font-family="Arial" font-size="18px" transform="rotate(-90,736.5,3083)" x="736.5" y="3083">A Theology of the New Testa</text><rect class="bookcase-book" fill="#F4E9C8" height="227" id="book-13477" stroke="black" width="19" x="757" y="2860" /><text dominant-baseline="middle" fill="black" font-family="Arial" font-size="14.25px" transform="rotate(-90,766.5,3083)" x="766.5" y="3083">From Plato to Jesus</text><rect class="bookcase-book" fill="#F7F8E8" height="228" id="book-19372" stroke="black" width="17" x="776" y="2859" /><text dominant-baseline="middle" fill="black" font-family="Arial" font-size="12.75px" transform="rotate(-90,784.5,3083)" x="784.5" y="3083">Is God a Moral Monster?</text><rect class="bookcase-book" fill="#F3E1A6" height="215" id="book-14256" stroke="black" width="9" x="793" y="2872" /><text dominant-baseline="middle" fill="black" font-family="Arial" font-size="6.75px" transform="rotate(-90,797.5,3083)" x="797.5" y="3083">The Attributes of God</text></svg>