<?xml version="1.0" encoding="utf-8" ?>
<svg baseProfile="full" height="3107" version="1.1" width="500" xmlns="http://www.w3.org/2000/svg" xmlns:ev="http://www.w3.org/2001/xml-events" xmlns:xlink="http://www.w3.org/1999/xlink"><defs /><rect height="353" width="20" x="50" y="100" /><rect height="353" width="20" x="430" y="100" /><rect height="20" width="360" x="70" y="100" /><rect height="20" width="400" x="50" y="453" /><rect class="bookcase-book" fill="#A36E34" height="283" id="book-20543" stroke="black" width="28" x="84" y="170" /><text dominant-baseline="middle" fill="white" font-family="Arial" font-size="18px" transform="rotate(-90,98.0,449)" x="98.0" y="449">Introduction to Catholicism</text><rect class="bookcase-book" fill="#767159" height="283" id="book-13703" stroke="black" width="41" x="112" y="170" /><text dominant-baseline="middle" fill="white" font-family="Arial" font-size="18px" transform="rotate(-90,132.5,449)" x="132.5" y="449">The Complete C.S. Lewis Signatur</text><rect class="bookcase-book" fill="#4F6BA1" height="16" id="book-13561" stroke="black" width="215" x="153" y="437" /><text dominant-baseline="middle" fill="white" font-family="Arial" font-size="12.0px" x="153" y="445.0">Love Beyond Reason</text><rect class="bookcase-book" fill="#795B38" height="18" id="book-19404" stroke="black" width="203" x="153" y="419" /><text dominant-baseline="middle" fill="white" font-family="Arial" font-size="13.5px" x="153" y="428.0">Miracles</text><rect class="bookcase-book" fill="#373A33" height="11" id="book-20217" stroke="black" width="203" x="153" y="408" /><text dominant-baseline="middle" fill="white" font-family="Arial" font-size="8.25px" x="153" y="413.5">The Problem of Pain</text><rect class="bookcase-book" fill="#723C6E" height="216" id="book-22559" stroke="black" width="16" x="153" y="192" /><text dominant-baseline="middle" fill="white" font-family="Arial" font-size="12.0px" transform="rotate(-90,161.0,404)" x="161.0" y="404">Evil and the Justice of God</text><rect class="bookcase-book" fill="#AE8759" height="209" id="book-22271" stroke="black" width="20" x="169" y="199" /><text dominant-baseline="middle" fill="black" font-family="Arial" font-size="15.0px" transform="rotate(-90,179.0,404)" x="179.0" y="404">Rabbi Jesus</text><rect class="bookcase-book" fill="#534F31" height="209" id="book-22272" stroke="black" width="17" x="189" y="199" /><text dominant-baseline="middle" fill="white" font-family="Arial" font-size="12.75px" transform="rotate(-90,197.5,404)" x="197.5" y="404">The Last Week</text><rect class="bookcase-book" fill="#DB2B20" height="203" id="book-22273" stroke="black" width="19" x="206" y="205" /><text dominant-baseline="middle" fill="white" font-family="Arial" font-size="14.25px" transform="rotate(-90,215.5,404)" x="215.5" y="404">Did God Kill Jesus</text><rect class="bookcase-book" fill="#F4D38E" height="214" id="book-22323" stroke="black" width="21" x="225" y="194" /><text dominant-baseline="middle" fill="black" font-family="Arial" font-size="15.75px" transform="rotate(-90,235.5,404)" x="235.5" y="404">Sitting at the Feet of Rabbi Je</text><rect class="bookcase-book" fill="#685023" height="201" id="book-16619" stroke="black" width="8" x="246" y="207" /><text dominant-baseline="middle" fill="white" font-family="Arial" font-size="6.0px" transform="rotate(-90,250.0,404)" x="250.0" y="404">The Passion of Jesus Christ</text><rect class="bookcase-book" fill="#F9D25A" height="228" id="book-14253" stroke="black" width="26" x="254" y="180" /><text dominant-baseline="middle" fill="black" font-family="Arial" font-size="18px" transform="rotate(-90,267.0,404)" x="267.0" y="404">The Nature and Destiny of </text><rect class="bookcase-book" fill="#FAD155" height="228" id="book-14254" stroke="black" width="26" x="280" y="180" /><text dominant-baseline="middle" fill="black" font-family="Arial" font-size="18px" transform="rotate(-90,293.0,404)" x="293.0" y="404">The Nature and Destiny of </text><rect class="bookcase-book" fill="#CAD7C4" height="234" id="book-22567" stroke="black" width="28" x="306" y="174" /><text dominant-baseline="middle" fill="black" font-family="Arial" font-size="18px" transform="rotate(-90,320.0,404)" x="320.0" y="404">The Unseen Realm</text><rect class="bookcase-book" fill="#543A2F" height="204" id="book-20222" stroke="black" width="13" x="334" y="204" /><text dominant-baseline="middle" fill="white" font-family="Arial" font-size="9.75px" transform="rotate(-90,340.5,404)" x="340.5" y="404">Screwtape Letters</text><rect class="bookcase-book" fill="#F10D00" height="204" id="book-22479" stroke="black" width="15" x="368" y="249" /><text dominant-baseline="middle" fill="white" font-family="Arial" font-size="11.25px" transform="rotate(-90,375.5,449)" x="375.5" y="449">Love Wins</text><rect class="bookcase-book" fill="#DFCEB7" height="209" id="book-22480" stroke="black" width="14" x="383" y="244" /><text dominant-baseline="middle" fill="black" font-family="Arial" font-size="10.5px" transform="rotate(-90,390.0,449)" x="390.0" y="449">Erasing Hell</text><rect height="353" width="20" x="50" y="453" /><rect height="353" width="20" x="430" y="453" /><rect height="20" width="360" x="70" y="453" /><rect height="20" width="400" x="50" y="806" /><rect class="bookcase-book" fill="#846848" height="234" id="book-22476" stroke="black" width="28" x="84" y="572" /><text dominant-baseline="middle" fill="white" font-family="Arial" font-size="18px" transform="rotate(-90,98.0,802)" x="98.0" y="802">Heaven and Hell</text><rect class="bookcase-book" fill="#BD8A76" height="203" id="book-14266" stroke="black" width="19" x="112" y="603" /><text dominant-baseline="middle" fill="black" font-family="Arial" font-size="14.25px" transform="rotate(-90,121.5,802)" x="121.5" y="802">The End of the Age Has Come</text><rect class="bookcase-book" fill="#E5D9C6" height="28" id="book-22566" stroke="black" width="234" x="131" y="778" /><text dominant-baseline="middle" fill="black" font-family="Arial" font-size="18px" x="131" y="792.0">Surprised by Hope</text><rect class="bookcase-book" fill="#442B3F" height="25" id="book-22562" stroke="black" width="220" x="131" y="753" /><text dominant-baseline="middle" fill="white" font-family="Arial" font-size="18px" x="131" y="765.5">The Language of God</text><rect class="bookcase-book" fill="#625A52" height="227" id="book-19514" stroke="black" width="14" x="131" y="526" /><text dominant-baseline="middle" fill="white" font-family="Arial" font-size="10.5px" transform="rotate(-90,138.0,749)" x="138.0" y="749">Moral Apologetics for Contemporary Christians</text><rect class="bookcase-book" fill="#C14631" height="227" id="book-13419" stroke="black" width="7" x="145" y="526" /><text dominant-baseline="middle" fill="white" font-family="Arial" font-size="5.25px" transform="rotate(-90,148.5,749)" x="148.5" y="749">But Don't All Religions Lead to God?</text><rect class="bookcase-book" fill="#2A2A28" height="234" id="book-13764" stroke="black" width="26" x="152" y="519" /><text dominant-baseline="middle" fill="white" font-family="Arial" font-size="18px" transform="rotate(-90,165.0,749)" x="165.0" y="749">The Reason for God</text><rect class="bookcase-book" fill="#842790" height="229" id="book-13500" stroke="black" width="27" x="178" y="524" /><text dominant-baseline="middle" fill="white" font-family="Arial" font-size="18px" transform="rotate(-90,191.5,749)" x="191.5" y="749">Handbook of Christian Apol</text><rect class="bookcase-book" fill="#D1262B" height="235" id="book-22471" stroke="black" width="22" x="205" y="518" /><text dominant-baseline="middle" fill="white" font-family="Arial" font-size="16.5px" transform="rotate(-90,216.0,749)" x="216.0" y="749">Confronting Christianity</text><rect class="bookcase-book" fill="#1A1915" height="214" id="book-19553" stroke="black" width="18" x="227" y="539" /><text dominant-baseline="middle" fill="white" font-family="Arial" font-size="13.5px" transform="rotate(-90,236.0,749)" x="236.0" y="749">Orphan Justice</text><rect class="bookcase-book" fill="#CD9A60" height="237" id="book-13543" stroke="black" width="45" x="245" y="516" /><text dominant-baseline="middle" fill="black" font-family="Arial" font-size="18px" transform="rotate(-90,267.5,749)" x="267.5" y="749">Kingdom Ethics</text><rect class="bookcase-book" fill="#9D1590" height="216" id="book-21656" stroke="black" width="9" x="290" y="537" /><text dominant-baseline="middle" fill="white" font-family="Arial" font-size="6.75px" transform="rotate(-90,294.5,749)" x="294.5" y="749">God and Human Sexuality</text><rect class="bookcase-book" fill="#7D8793" height="177" id="book-19569" stroke="black" width="7" x="299" y="576" /><text dominant-baseline="middle" fill="black" font-family="Arial" font-size="5.25px" transform="rotate(-90,302.5,749)" x="302.5" y="749">Is God Anti-Gay?</text><rect class="bookcase-book" fill="#9312E0" height="218" id="book-13507" stroke="black" width="8" x="306" y="535" /><text dominant-baseline="middle" fill="white" font-family="Arial" font-size="6.0px" transform="rotate(-90,310.0,749)" x="310.0" y="749">Homosexuality and the Bible</text><rect class="bookcase-book" fill="#28A38F" height="230" id="book-13427" stroke="black" width="11" x="314" y="523" /><text dominant-baseline="middle" fill="white" font-family="Arial" font-size="8.25px" transform="rotate(-90,319.5,749)" x="319.5" y="749">Changing Our Mind</text><rect class="bookcase-book" fill="#865771" height="209" id="book-22571" stroke="black" width="19" x="325" y="544" /><text dominant-baseline="middle" fill="white" font-family="Arial" font-size="14.25px" transform="rotate(-90,334.5,749)" x="334.5" y="749">Embodied</text><rect class="bookcase-book" fill="#857E77" height="212" id="book-22570" stroke="black" width="16" x="365" y="594" /><text dominant-baseline="middle" fill="black" font-family="Arial" font-size="12.0px" transform="rotate(-90,373.0,802)" x="373.0" y="802">People to Be Loved</text><rect class="bookcase-book" fill="#D38230" height="219" id="book-13484" stroke="black" width="20" x="381" y="587" /><text dominant-baseline="middle" fill="black" font-family="Arial" font-size="15.0px" transform="rotate(-90,391.0,802)" x="391.0" y="802">God and the Gay Christian</text><rect height="353" width="20" x="50" y="806" /><rect height="353" width="20" x="430" y="806" /><rect height="20" width="360" x="70" y="806" /><rect height="20" width="400" x="50" y="1159" /><rect class="bookcase-book" fill="#CE9D64" height="22" id="book-13581" stroke="black" width="189" x="84" y="1137" /><text dominant-baseline="middle" fill="black" font-family="Arial" font-size="16.5px" x="84" y="1148.0">My Utmost for His Highe</text><rect class="bookcase-book" fill="#353328" height="204" id="book-13449" stroke="black" width="12" x="84" y="933" /><text dominant-baseline="middle" fill="white" font-family="Arial" font-size="9.0px" transform="rotate(-90,90.0,1133)" x="90.0" y="1133">Devotions on the Greek New Testament</text><rect class="bookcase-book" fill="#485E99" height="216" id="book-16592" stroke="black" width="18" x="96" y="921" /><text dominant-baseline="middle" fill="white" font-family="Arial" font-size="13.5px" transform="rotate(-90,105.0,1133)" x="105.0" y="1133">Blue Like Jazz</text><rect class="bookcase-book" fill="#DBAF30" height="216" id="book-22357" stroke="black" width="14" x="114" y="921" /><text dominant-baseline="middle" fill="black" font-family="Arial" font-size="10.5px" transform="rotate(-90,121.0,1133)" x="121.0" y="1133">Stuff Christians Like</text><rect class="bookcase-book" fill="#42584F" height="178" id="book-14257" stroke="black" width="22" x="128" y="959" /><text dominant-baseline="middle" fill="white" font-family="Arial" font-size="16.5px" transform="rotate(-90,139.0,1133)" x="139.0" y="1133">The Cost of Discipleshi</text><rect class="bookcase-book" fill="#534937" height="223" id="book-13718" stroke="black" width="21" x="150" y="914" /><text dominant-baseline="middle" fill="white" font-family="Arial" font-size="15.75px" transform="rotate(-90,160.5,1133)" x="160.5" y="1133">The Explicit Gospel</text><rect class="bookcase-book" fill="#989690" height="216" id="book-19580" stroke="black" width="14" x="171" y="921" /><text dominant-baseline="middle" fill="black" font-family="Arial" font-size="10.5px" transform="rotate(-90,178.0,1133)" x="178.0" y="1133">Good News to the Poor</text><rect class="bookcase-book" fill="#352A1B" height="204" id="book-13508" stroke="black" width="25" x="185" y="933" /><text dominant-baseline="middle" fill="white" font-family="Arial" font-size="18px" transform="rotate(-90,197.5,1133)" x="197.5" y="1133">How People Grow</text><rect class="bookcase-book" fill="#EDA41D" height="218" id="book-22339" stroke="black" width="22" x="210" y="919" /><text dominant-baseline="middle" fill="black" font-family="Arial" font-size="16.5px" transform="rotate(-90,221.0,1133)" x="221.0" y="1133">The Road Back to You</text><rect class="bookcase-book" fill="#F4E8D2" height="218" id="book-13422" stroke="black" width="22" x="232" y="919" /><text dominant-baseline="middle" fill="black" font-family="Arial" font-size="16.5px" transform="rotate(-90,243.0,1133)" x="243.0" y="1133">Celebration of Discipline</text><rect class="bookcase-book" fill="#D8D7D7" height="223" id="book-20280" stroke="black" width="21" x="273" y="936" /><text dominant-baseline="middle" fill="black" font-family="Arial" font-size="15.75px" transform="rotate(-90,283.5,1155)" x="283.5" y="1155">Unchristian</text><rect class="bookcase-book" fill="#D17530" height="203" id="book-13637" stroke="black" width="14" x="294" y="956" /><text dominant-baseline="middle" fill="black" font-family="Arial" font-size="10.5px" transform="rotate(-90,301.0,1155)" x="301.0" y="1155">Radical</text><rect class="bookcase-book" fill="#F9A245" height="203" id="book-22229" stroke="black" width="16" x="308" y="956" /><text dominant-baseline="middle" fill="black" font-family="Arial" font-size="12.0px" transform="rotate(-90,316.0,1155)" x="316.0" y="1155">The Fidelity of Betrayal</text><rect class="bookcase-book" fill="#323C38" height="203" id="book-16526" stroke="black" width="8" x="324" y="956" /><text dominant-baseline="middle" fill="white" font-family="Arial" font-size="6.0px" transform="rotate(-90,328.0,1155)" x="328.0" y="1155">The Pursuit of God</text><rect class="bookcase-book" fill="#4C2638" height="235" id="book-13763" stroke="black" width="30" x="332" y="924" /><text dominant-baseline="middle" fill="white" font-family="Arial" font-size="18px" transform="rotate(-90,347.0,1155)" x="347.0" y="1155">The Purpose-Driven Life</text><rect height="327" width="20" x="50" y="1159" /><rect height="327" width="20" x="430" y="1159" /><rect height="20" width="360" x="70" y="1159" /><rect height="20" width="400" x="50" y="1486" /><rect class="bookcase-book" fill="#342919" height="235" id="book-22660" stroke="black" width="57" x="84" y="1251" /><text dominant-baseline="middle" fill="white" font-family="Arial" font-size="18px" transform="rotate(-90,112.5,1482)" x="112.5" y="1482">Constantine's Sword</text><rect class="bookcase-book" fill="#EEEEE9" height="14" id="book-22142" stroke="black" width="228" x="141" y="1472" /><text dominant-baseline="middle" fill="black" font-family="Arial" font-size="10.5px" x="141" y="1479.0">America and Its Guns</text><rect class="bookcase-book" fill="#967B50" height="15" id="book-21079" stroke="black" width="191" x="141" y="1457" /><text dominant-baseline="middle" fill="black" font-family="Arial" font-size="11.25px" x="141" y="1464.5">Religious Liberty</text><rect class="bookcase-book" fill="#FCDF6B" height="202" id="book-22373" stroke="black" width="23" x="141" y="1255" /><text dominant-baseline="middle" fill="black" font-family="Arial" font-size="17.25px" transform="rotate(-90,152.5,1453)" x="152.5" y="1453">Jesus for President</text><rect class="bookcase-book" fill="#5E8844" height="191" id="book-21000" stroke="black" width="12" x="164" y="1266" /><text dominant-baseline="middle" fill="white" font-family="Arial" font-size="9.0px" transform="rotate(-90,170.0,1453)" x="170.0" y="1453">The Christian and Politics</text><rect class="bookcase-book" fill="#2B1687" height="216" id="book-21646" stroke="black" width="2" x="176" y="1241" /><text dominant-baseline="middle" fill="white" font-family="Arial" font-size="1.5px" transform="rotate(-90,177.0,1453)" x="177.0" y="1453">Issues &amp; Effects</text><rect class="bookcase-book" fill="#F3F1F0" height="236" id="book-13512" stroke="black" width="23" x="178" y="1221" /><text dominant-baseline="middle" fill="black" font-family="Arial" font-size="17.25px" transform="rotate(-90,189.5,1453)" x="189.5" y="1453">How Would Jesus Vote?</text><rect class="bookcase-book" fill="#4A5F5C" height="236" id="book-22294" stroke="black" width="32" x="201" y="1221" /><text dominant-baseline="middle" fill="white" font-family="Arial" font-size="18px" transform="rotate(-90,217.0,1453)" x="217.0" y="1453">God's Politics</text><rect class="bookcase-book" fill="#8FA460" height="207" id="book-22407" stroke="black" width="11" x="233" y="1250" /><text dominant-baseline="middle" fill="black" font-family="Arial" font-size="8.25px" transform="rotate(-90,238.5,1453)" x="238.5" y="1453">Practical Justice</text><rect class="bookcase-book" fill="#474F53" height="203" id="book-22568" stroke="black" width="11" x="244" y="1254" /><text dominant-baseline="middle" fill="white" font-family="Arial" font-size="8.25px" transform="rotate(-90,249.5,1453)" x="249.5" y="1453">Divided By Faith</text><rect class="bookcase-book" fill="#D79700" height="215" id="book-19783" stroke="black" width="18" x="255" y="1242" /><text dominant-baseline="middle" fill="black" font-family="Arial" font-size="13.5px" transform="rotate(-90,264.0,1453)" x="264.0" y="1453">The Feminist Gospel</text><rect class="bookcase-book" fill="#4A4530" height="229" id="book-19817" stroke="black" width="13" x="273" y="1228" /><text dominant-baseline="middle" fill="white" font-family="Arial" font-size="9.75px" transform="rotate(-90,279.5,1453)" x="279.5" y="1453">A Brief History of Christian Worship</text><rect class="bookcase-book" fill="#B67863" height="229" id="book-19818" stroke="black" width="20" x="286" y="1228" /><text dominant-baseline="middle" fill="black" font-family="Arial" font-size="15.0px" transform="rotate(-90,296.0,1453)" x="296.0" y="1453">Introduction to Christian Worship</text><rect class="bookcase-book" fill="#A7673D" height="229" id="book-21915" stroke="black" width="35" x="332" y="1243" /><text dominant-baseline="middle" fill="white" font-family="Arial" font-size="18px" transform="rotate(-90,349.5,1468)" x="349.5" y="1468">Eerdmans' Handbook to the</text><rect class="bookcase-book" fill="#BC6300" height="234" id="book-19895" stroke="black" width="33" x="369" y="1252" /><text dominant-baseline="middle" fill="white" font-family="Arial" font-size="18px" transform="rotate(-90,385.5,1482)" x="385.5" y="1482">The Story of Christianity</text><rect height="321" width="20" x="50" y="1486" /><rect height="321" width="20" x="430" y="1486" /><rect height="20" width="360" x="70" y="1486" /><image height="245" width="80" x="210" xlink:href="http://library.jakekausler.com/web/res/vangogh.jpg" y="1562" /><rect height="20" width="400" x="50" y="1807" /><rect class="bookcase-book" fill="#B5781B" height="200" id="book-22440" stroke="black" width="40" x="84" y="1607" /><text dominant-baseline="middle" fill="black" font-family="Arial" font-size="18px" transform="rotate(-90,104.0,1803)" x="104.0" y="1803">The Story of the Church</text><rect class="bookcase-book" fill="#8D6848" height="236" id="book-14264" stroke="black" width="31" x="124" y="1571" /><text dominant-baseline="middle" fill="white" font-family="Arial" font-size="18px" transform="rotate(-90,139.5,1803)" x="139.5" y="1803">A History of Christian Thoug</text><rect class="bookcase-book" fill="#8D6848" height="236" id="book-14265" stroke="black" width="33" x="155" y="1571" /><text dominant-baseline="middle" fill="white" font-family="Arial" font-size="18px" transform="rotate(-90,171.5,1803)" x="171.5" y="1803">A History of Christian Thoug</text><rect class="bookcase-book" fill="#D0BB94" height="221" id="book-20247" stroke="black" width="24" x="188" y="1586" /><text dominant-baseline="middle" fill="black" font-family="Arial" font-size="18px" transform="rotate(-90,200.0,1803)" x="200.0" y="1803">After Jesus</text><rect class="bookcase-book" fill="#636854" height="228" id="book-22478" stroke="black" width="16" x="304" y="1579" /><text dominant-baseline="middle" fill="white" font-family="Arial" font-size="12.0px" transform="rotate(-90,312.0,1803)" x="312.0" y="1803">Understanding the Jewish Roots of Christi</text><rect class="bookcase-book" fill="#3E5147" height="191" id="book-13681" stroke="black" width="29" x="320" y="1616" /><text dominant-baseline="middle" fill="white" font-family="Arial" font-size="18px" transform="rotate(-90,334.5,1803)" x="334.5" y="1803">The Apostolic Fathers</text><rect class="bookcase-book" fill="#D8CDB0" height="203" id="book-14255" stroke="black" width="14" x="349" y="1604" /><text dominant-baseline="middle" fill="black" font-family="Arial" font-size="10.5px" transform="rotate(-90,356.0,1803)" x="356.0" y="1803">The Gnostic Gospels</text><rect class="bookcase-book" fill="#211535" height="229" id="book-20291" stroke="black" width="32" x="363" y="1578" /><text dominant-baseline="middle" fill="white" font-family="Arial" font-size="18px" transform="rotate(-90,379.0,1803)" x="379.0" y="1803">Concise Dictionary of Christ</text><rect height="317" width="20" x="50" y="1807" /><rect height="317" width="20" x="430" y="1807" /><rect height="20" width="360" x="70" y="1807" /><rect height="20" width="400" x="50" y="2124" /><rect class="bookcase-book" fill="#B177F0" height="241" id="book-23118" stroke="black" width="31" x="84" y="1883" /><text dominant-baseline="middle" fill="black" font-family="Arial" font-size="18px" transform="rotate(-90,99.5,2120)" x="99.5" y="2120">Jesus and John Wayne</text><rect class="bookcase-book" fill="#2B79A6" height="26" id="book-21158" stroke="black" width="223" x="115" y="2098" /><text dominant-baseline="middle" fill="white" font-family="Arial" font-size="18px" x="115" y="2111.0">Handbook of Denomination</text><rect class="bookcase-book" fill="#C62DB0" height="235" id="book-21163" stroke="black" width="41" x="115" y="1863" /><text dominant-baseline="middle" fill="white" font-family="Arial" font-size="18px" transform="rotate(-90,135.5,2094)" x="135.5" y="2094">The Southern Baptist Conve</text><rect class="bookcase-book" fill="#0B76B0" height="235" id="book-21160" stroke="black" width="35" x="156" y="1863" /><text dominant-baseline="middle" fill="white" font-family="Arial" font-size="18px" transform="rotate(-90,173.5,2094)" x="173.5" y="2094">The Southern Baptist Conve</text><rect class="bookcase-book" fill="#659075" height="225" id="book-21157" stroke="black" width="21" x="191" y="1873" /><text dominant-baseline="middle" fill="black" font-family="Arial" font-size="15.75px" transform="rotate(-90,201.5,2094)" x="201.5" y="2094">A History of Baptists in Arkansa</text><rect class="bookcase-book" fill="#2A1F10" height="198" id="book-20140" stroke="black" width="9" x="212" y="1900" /><text dominant-baseline="middle" fill="white" font-family="Arial" font-size="6.75px" transform="rotate(-90,216.5,2094)" x="216.5" y="2094">The Baptist Faith and Message</text><rect class="bookcase-book" fill="#2D3C79" height="234" id="book-21161" stroke="black" width="58" x="221" y="1864" /><text dominant-baseline="middle" fill="white" font-family="Arial" font-size="18px" transform="rotate(-90,250.0,2094)" x="250.0" y="2094">The Baptist Heritage</text><rect class="bookcase-book" fill="#54402F" height="230" id="book-13370" stroke="black" width="31" x="279" y="1868" /><text dominant-baseline="middle" fill="white" font-family="Arial" font-size="18px" transform="rotate(-90,294.5,2094)" x="294.5" y="2094">A System &amp; Plan</text><rect class="bookcase-book" fill="#693AD0" height="244" id="book-13391" stroke="black" width="13" x="310" y="1854" /><text dominant-baseline="middle" fill="white" font-family="Arial" font-size="9.75px" transform="rotate(-90,316.5,2094)" x="316.5" y="2094">Baptist Faith &amp; Message</text><rect class="bookcase-book" fill="#AB9116" height="187" id="book-21762" stroke="black" width="5" x="323" y="1911" /><text dominant-baseline="middle" fill="black" font-family="Arial" font-size="3.75px" transform="rotate(-90,325.5,2094)" x="325.5" y="2094">Major United Methodist Beliefs</text><rect class="bookcase-book" fill="#11204A" height="178" id="book-22408" stroke="black" width="17" x="338" y="1946" /><text dominant-baseline="middle" fill="white" font-family="Arial" font-size="12.75px" transform="rotate(-90,346.5,2120)" x="346.5" y="2120">The Book of Mormon</text><rect class="bookcase-book" fill="#F3E9C3" height="217" id="book-20443" stroke="black" width="28" x="355" y="1907" /><text dominant-baseline="middle" fill="black" font-family="Arial" font-size="18px" transform="rotate(-90,369.0,2120)" x="369.0" y="2120">How Did It Begin?</text><rect class="bookcase-book" fill="#3D2D32" height="197" id="book-13725" stroke="black" width="12" x="383" y="1927" /><text dominant-baseline="middle" fill="white" font-family="Arial" font-size="9.0px" transform="rotate(-90,389.0,2120)" x="389.0" y="2120">The Hand of God</text><rect class="bookcase-book" fill="#7E715E" height="198" id="book-14143" stroke="black" width="12" x="395" y="1926" /><text dominant-baseline="middle" fill="white" font-family="Arial" font-size="9.0px" transform="rotate(-90,401.0,2120)" x="401.0" y="2120">Mythologies</text><rect height="327" width="20" x="50" y="2124" /><rect height="327" width="20" x="430" y="2124" /><rect height="20" width="360" x="70" y="2124" /><rect height="20" width="400" x="50" y="2451" /><rect class="bookcase-book" fill="#93836C" height="208" id="book-13607" stroke="black" width="20" x="84" y="2243" /><text dominant-baseline="middle" fill="black" font-family="Arial" font-size="15.0px" transform="rotate(-90,94.0,2447)" x="94.0" y="2447">Parallel Myths</text><rect class="bookcase-book" fill="#161690" height="204" id="book-14167" stroke="black" width="19" x="104" y="2247" /><text dominant-baseline="middle" fill="white" font-family="Arial" font-size="14.25px" transform="rotate(-90,113.5,2447)" x="113.5" y="2447">The Power of Myth</text><rect class="bookcase-book" fill="#3B2A1F" height="262" id="book-14166" stroke="black" width="38" x="123" y="2189" /><text dominant-baseline="middle" fill="white" font-family="Arial" font-size="18px" transform="rotate(-90,142.0,2447)" x="142.0" y="2447">The Mythic Image</text><rect class="bookcase-book" fill="#555144" height="200" id="book-13700" stroke="black" width="30" x="161" y="2251" /><text dominant-baseline="middle" fill="white" font-family="Arial" font-size="18px" transform="rotate(-90,176.0,2447)" x="176.0" y="2447">The Classic Myths in En</text><rect class="bookcase-book" fill="#454838" height="235" id="book-14173" stroke="black" width="24" x="191" y="2216" /><text dominant-baseline="middle" fill="white" font-family="Arial" font-size="18px" transform="rotate(-90,203.0,2447)" x="203.0" y="2447">The World of Myth</text><rect class="bookcase-book" fill="#D1855B" height="235" id="book-13372" stroke="black" width="30" x="215" y="2216" /><text dominant-baseline="middle" fill="black" font-family="Arial" font-size="18px" transform="rotate(-90,230.0,2447)" x="230.0" y="2447">A Treasury of the World's Gr</text><rect class="bookcase-book" fill="#252215" height="235" id="book-14174" stroke="black" width="34" x="245" y="2216" /><text dominant-baseline="middle" fill="white" font-family="Arial" font-size="18px" transform="rotate(-90,262.0,2447)" x="262.0" y="2447">World Mythology</text><rect class="bookcase-book" fill="#735336" height="284" id="book-14172" stroke="black" width="16" x="279" y="2167" /><text dominant-baseline="middle" fill="white" font-family="Arial" font-size="12.0px" transform="rotate(-90,287.0,2447)" x="287.0" y="2447">Illustrated Dictionary of Mythology</text><rect class="bookcase-book" fill="#97154D" height="235" id="book-16403" stroke="black" width="40" x="295" y="2216" /><text dominant-baseline="middle" fill="white" font-family="Arial" font-size="18px" transform="rotate(-90,315.0,2447)" x="315.0" y="2447">The Rise of Modern Mytholo</text><rect class="bookcase-book" fill="#706D5D" height="241" id="book-13415" stroke="black" width="60" x="335" y="2210" /><text dominant-baseline="middle" fill="white" font-family="Arial" font-size="18px" transform="rotate(-90,365.0,2447)" x="365.0" y="2447">Bulfinch's Mythology</text><rect class="bookcase-book" fill="#2A2724" height="241" id="book-13139" stroke="black" width="8" x="395" y="2210" /><text dominant-baseline="middle" fill="white" font-family="Arial" font-size="6.0px" transform="rotate(-90,399.0,2447)" x="399.0" y="2447">Greek Myths</text><rect height="321" width="20" x="50" y="2451" /><rect height="321" width="20" x="430" y="2451" /><rect height="20" width="360" x="70" y="2451" /><rect height="20" width="400" x="50" y="2772" /><rect class="bookcase-book" fill="#814648" height="234" id="book-14205" stroke="black" width="52" x="84" y="2538" /><text dominant-baseline="middle" fill="white" font-family="Arial" font-size="18px" transform="rotate(-90,110.0,2768)" x="110.0" y="2768">The Golden Bough</text><rect class="bookcase-book" fill="#43312A" height="7" id="book-14164" stroke="black" width="241" x="136" y="2765" /><text dominant-baseline="middle" fill="white" font-family="Arial" font-size="5.25px" x="136" y="2768.5">Roman Myths</text><rect class="bookcase-book" fill="#533F2A" height="24" id="book-13582" stroke="black" width="174" x="136" y="2741" /><text dominant-baseline="middle" fill="white" font-family="Arial" font-size="18px" x="136" y="2753.0">Mythology</text><rect class="bookcase-book" fill="#968A68" height="204" id="book-13583" stroke="black" width="21" x="136" y="2537" /><text dominant-baseline="middle" fill="black" font-family="Arial" font-size="15.75px" transform="rotate(-90,146.5,2737)" x="146.5" y="2737">Myths of the Ancient Greeks</text><rect class="bookcase-book" fill="#22231C" height="228" id="book-14177" stroke="black" width="7" x="157" y="2513" /><text dominant-baseline="middle" fill="white" font-family="Arial" font-size="5.25px" transform="rotate(-90,160.5,2737)" x="160.5" y="2737">The Love of Destiny</text><rect class="bookcase-book" fill="#6A4C2B" height="241" id="book-14156" stroke="black" width="6" x="164" y="2500" /><text dominant-baseline="middle" fill="white" font-family="Arial" font-size="4.5px" transform="rotate(-90,167.0,2737)" x="167.0" y="2737">Bengali Myths</text><rect class="bookcase-book" fill="#F7C916" height="148" id="book-21383" stroke="black" width="14" x="170" y="2593" /><text dominant-baseline="middle" fill="black" font-family="Arial" font-size="10.5px" transform="rotate(-90,177.0,2737)" x="177.0" y="2737">The Teaching of Buddha</text><rect class="bookcase-book" fill="#9D9786" height="222" id="book-20134" stroke="black" width="11" x="184" y="2519" /><text dominant-baseline="middle" fill="black" font-family="Arial" font-size="8.25px" transform="rotate(-90,189.5,2737)" x="189.5" y="2737">Buddhism</text><rect class="bookcase-book" fill="#1F5943" height="228" id="book-22757" stroke="black" width="16" x="195" y="2513" /><text dominant-baseline="middle" fill="white" font-family="Arial" font-size="12.0px" transform="rotate(-90,203.0,2737)" x="203.0" y="2737">Buddhism in a Nutshell</text><rect class="bookcase-book" fill="#2C1D21" height="241" id="book-14157" stroke="black" width="6" x="211" y="2500" /><text dominant-baseline="middle" fill="white" font-family="Arial" font-size="4.5px" transform="rotate(-90,214.0,2737)" x="214.0" y="2737">Hindu Myths</text><rect class="bookcase-book" fill="#E08123" height="180" id="book-22557" stroke="black" width="30" x="217" y="2561" /><text dominant-baseline="middle" fill="black" font-family="Arial" font-size="18px" transform="rotate(-90,232.0,2737)" x="232.0" y="2737">Bhagavad Gita As It I</text><rect class="bookcase-book" fill="#8E4359" height="235" id="book-22639" stroke="black" width="43" x="247" y="2506" /><text dominant-baseline="middle" fill="white" font-family="Arial" font-size="18px" transform="rotate(-90,268.5,2737)" x="268.5" y="2737">Essential Judaism</text><rect class="bookcase-book" fill="#AFC2B4" height="217" id="book-20278" stroke="black" width="17" x="290" y="2524" /><text dominant-baseline="middle" fill="black" font-family="Arial" font-size="12.75px" transform="rotate(-90,298.5,2737)" x="298.5" y="2737">Islam, a Concise Introduction</text><rect class="bookcase-book" fill="#1710E0" height="197" id="book-14124" stroke="black" width="44" x="310" y="2568" /><text dominant-baseline="middle" fill="white" font-family="Arial" font-size="18px" transform="rotate(-90,332.0,2761)" x="332.0" y="2761">Celtic Myths and Legen</text><rect class="bookcase-book" fill="#E2CEAA" height="197" id="book-14119" stroke="black" width="18" x="354" y="2568" /><text dominant-baseline="middle" fill="black" font-family="Arial" font-size="13.5px" transform="rotate(-90,363.0,2761)" x="363.0" y="2761">Early Irish Myths and Sagas</text><rect class="bookcase-book" fill="#68534C" height="241" id="book-14116" stroke="black" width="17" x="377" y="2531" /><text dominant-baseline="middle" fill="white" font-family="Arial" font-size="12.75px" transform="rotate(-90,385.5,2768)" x="385.5" y="2768">Dictionary of Celtic Myth and Legend</text><rect class="bookcase-book" fill="#272019" height="241" id="book-14162" stroke="black" width="7" x="394" y="2531" /><text dominant-baseline="middle" fill="white" font-family="Arial" font-size="5.25px" transform="rotate(-90,397.5,2768)" x="397.5" y="2768">Celtic Myths</text><rect height="315" width="20" x="50" y="2772" /><rect height="315" width="20" x="430" y="2772" /><rect height="20" width="360" x="70" y="2772" /><rect height="20" width="400" x="50" y="3087" /><rect class="bookcase-book" fill="#A67E5B" height="209" id="book-14121" stroke="black" width="30" x="84" y="2878" /><text dominant-baseline="middle" fill="black" font-family="Arial" font-size="18px" transform="rotate(-90,99.0,3083)" x="99.0" y="3083">Celtic Heritage</text><rect class="bookcase-book" fill="#215243" height="213" id="book-14123" stroke="black" width="8" x="114" y="2874" /><text dominant-baseline="middle" fill="white" font-family="Arial" font-size="6.0px" transform="rotate(-90,118.0,3083)" x="118.0" y="3083">Celtic Gods and Heroes</text><rect class="bookcase-book" fill="#43302A" height="241" id="book-14155" stroke="black" width="6" x="122" y="2846" /><text dominant-baseline="middle" fill="white" font-family="Arial" font-size="4.5px" transform="rotate(-90,125.0,3083)" x="125.0" y="3083">Persian Myths</text><rect class="bookcase-book" fill="#E2DDC8" height="196" id="book-14145" stroke="black" width="23" x="128" y="2891" /><text dominant-baseline="middle" fill="black" font-family="Arial" font-size="17.25px" transform="rotate(-90,139.5,3083)" x="139.5" y="3083">Myths from Mesopotami</text><rect class="bookcase-book" fill="#909B72" height="241" id="book-13140" stroke="black" width="8" x="151" y="2846" /><text dominant-baseline="middle" fill="black" font-family="Arial" font-size="6.0px" transform="rotate(-90,155.0,3083)" x="155.0" y="3083">Mesopotamian Myths</text><rect class="bookcase-book" fill="#3F2A1A" height="241" id="book-14130" stroke="black" width="40" x="159" y="2846" /><text dominant-baseline="middle" fill="white" font-family="Arial" font-size="18px" transform="rotate(-90,179.0,3083)" x="179.0" y="3083">The Mind of Egypt</text><rect class="bookcase-book" fill="#E0B77C" height="197" id="book-13453" stroke="black" width="17" x="199" y="2890" /><text dominant-baseline="middle" fill="black" font-family="Arial" font-size="12.75px" transform="rotate(-90,207.5,3083)" x="207.5" y="3083">Egyptian Religion</text><rect class="bookcase-book" fill="#4B4322" height="178" id="book-13670" stroke="black" width="19" x="216" y="2909" /><text dominant-baseline="middle" fill="white" font-family="Arial" font-size="14.25px" transform="rotate(-90,225.5,3083)" x="225.5" y="3083">Tales of Ancient Egypt</text><rect class="bookcase-book" fill="#5F5A53" height="240" id="book-14163" stroke="black" width="7" x="235" y="2847" /><text dominant-baseline="middle" fill="white" font-family="Arial" font-size="5.25px" transform="rotate(-90,238.5,3083)" x="238.5" y="3083">Egyptian Myths</text><rect class="bookcase-book" fill="#365355" height="229" id="book-14136" stroke="black" width="19" x="242" y="2858" /><text dominant-baseline="middle" fill="white" font-family="Arial" font-size="14.25px" transform="rotate(-90,251.5,3083)" x="251.5" y="3083">Egyptian Mythology</text><rect class="bookcase-book" fill="#6A563C" height="196" id="book-14181" stroke="black" width="11" x="261" y="2891" /><text dominant-baseline="middle" fill="white" font-family="Arial" font-size="8.25px" transform="rotate(-90,266.5,3083)" x="266.5" y="3083">The Saga of the Volsungs</text><rect class="bookcase-book" fill="#E0AA84" height="240" id="book-14160" stroke="black" width="5" x="272" y="2847" /><text dominant-baseline="middle" fill="black" font-family="Arial" font-size="3.75px" transform="rotate(-90,274.5,3083)" x="274.5" y="3083">Etruscan Myths</text><rect class="bookcase-book" fill="#5F7C4D" height="233" id="book-14187" stroke="black" width="22" x="277" y="2854" /><text dominant-baseline="middle" fill="white" font-family="Arial" font-size="16.5px" transform="rotate(-90,288.0,3083)" x="288.0" y="3083">The Norse Myths</text><rect class="bookcase-book" fill="#C1A77E" height="181" id="book-14185" stroke="black" width="15" x="299" y="2906" /><text dominant-baseline="middle" fill="black" font-family="Arial" font-size="11.25px" transform="rotate(-90,306.5,3083)" x="306.5" y="3083">Gods and Myths of Northern Europ</text><rect class="bookcase-book" fill="#EDE6EA" height="228" id="book-14120" stroke="black" width="22" x="314" y="2859" /><text dominant-baseline="middle" fill="black" font-family="Arial" font-size="16.5px" transform="rotate(-90,325.0,3083)" x="325.0" y="3083">Myths and Symbols in Pagan </text><rect class="bookcase-book" fill="#809B9A" height="216" id="book-22146" stroke="black" width="25" x="336" y="2871" /><text dominant-baseline="middle" fill="black" font-family="Arial" font-size="18px" transform="rotate(-90,348.5,3083)" x="348.5" y="3083">Norse Mythology</text><rect class="bookcase-book" fill="#394F53" height="241" id="book-13141" stroke="black" width="8" x="361" y="2846" /><text dominant-baseline="middle" fill="white" font-family="Arial" font-size="6.0px" transform="rotate(-90,365.0,3083)" x="365.0" y="3083">Norse Myths</text><rect class="bookcase-book" fill="#2E2823" height="241" id="book-14158" stroke="black" width="7" x="369" y="2846" /><text dominant-baseline="middle" fill="white" font-family="Arial" font-size="5.25px" transform="rotate(-90,372.5,3083)" x="372.5" y="3083">Chinese Myths</text><rect class="bookcase-book" fill="#8E5132" height="238" id="book-13797" stroke="black" width="34" x="376" y="2849" /><text dominant-baseline="middle" fill="white" font-family="Arial" font-size="18px" transform="rotate(-90,393.0,3083)" x="393.0" y="3083">Voices of the Winds</text></svg>