<?xml version="1.0" encoding="utf-8" ?>
<svg baseProfile="full" height="3107" version="1.1" width="500" xmlns="http://www.w3.org/2000/svg" xmlns:ev="http://www.w3.org/2001/xml-events" xmlns:xlink="http://www.w3.org/1999/xlink"><defs /><rect height="20" width="400" x="50" y="1159" /><rect class="bookcase-book" fill="#AE9FBD" height="22" id="book-13268" stroke="black" width="172" x="84" y="1137" /><text dominant-baseline="middle" fill="black" font-family="Arial" font-size="16.5px" x="84" y="1148.0">Macbeth</text><rect class="bookcase-book" fill="#493925" height="24" id="book-13269" stroke="black" width="172" x="84" y="1113" /><text dominant-baseline="middle" fill="white" font-family="Arial" font-size="18px" x="84" y="1125.0">Measure for Measur</text><rect class="bookcase-book" fill="#50593E" height="21" id="book-14248" stroke="black" width="172" x="84" y="1092" /><text dominant-baseline="middle" fill="white" font-family="Arial" font-size="15.75px" x="84" y="1102.5">The Merchant of Venice</text><rect class="bookcase-book" fill="#E7D0C4" height="22" id="book-13276" stroke="black" width="172" x="84" y="1070" /><text dominant-baseline="middle" fill="black" font-family="Arial" font-size="16.5px" x="84" y="1081.0">The Merry Wives of Wi</text><rect class="bookcase-book" fill="#8C8741" height="13" id="book-13252" stroke="black" width="172" x="84" y="1057" /><text dominant-baseline="middle" fill="black" font-family="Arial" font-size="9.75px" x="84" y="1063.5">A Midsummer Night's Dream</text><rect class="bookcase-book" fill="#E87936" height="18" id="book-13270" stroke="black" width="172" x="84" y="1039" /><text dominant-baseline="middle" fill="black" font-family="Arial" font-size="13.5px" x="84" y="1048.0">Much Ado About Nothing</text><rect class="bookcase-book" fill="#642E25" height="25" id="book-14817" stroke="black" width="172" x="84" y="1014" /><text dominant-baseline="middle" fill="white" font-family="Arial" font-size="18px" x="84" y="1026.5">Othello</text><rect class="bookcase-book" fill="#69534C" height="20" id="book-13271" stroke="black" width="172" x="84" y="994" /><text dominant-baseline="middle" fill="white" font-family="Arial" font-size="15.0px" x="84" y="1004.0">Pericles, Prince of Tyre</text><rect class="bookcase-book" fill="#4D5E3F" height="25" id="book-13272" stroke="black" width="172" x="84" y="969" /><text dominant-baseline="middle" fill="white" font-family="Arial" font-size="18px" x="84" y="981.5">Richard II</text><rect class="bookcase-book" fill="#F0901D" height="24" id="book-13278" stroke="black" width="172" x="84" y="945" /><text dominant-baseline="middle" fill="black" font-family="Arial" font-size="18px" x="84" y="957.0">Richard III</text><rect class="bookcase-book" fill="#E792B2" height="24" id="book-13273" stroke="black" width="172" x="84" y="921" /><text dominant-baseline="middle" fill="black" font-family="Arial" font-size="18px" x="84" y="933.0">Romeo and Juliet</text><rect class="bookcase-book" fill="#E9D034" height="25" id="book-14816" stroke="black" width="172" x="84" y="896" /><text dominant-baseline="middle" fill="black" font-family="Arial" font-size="18px" x="84" y="908.5">The Taming of the S</text><rect class="bookcase-book" fill="#F5E3C0" height="20" id="book-13277" stroke="black" width="172" x="84" y="876" /><text dominant-baseline="middle" fill="black" font-family="Arial" font-size="15.0px" x="84" y="886.0">The Tempest</text><rect class="bookcase-book" fill="#A9382F" height="21" id="book-13281" stroke="black" width="172" x="84" y="855" /><text dominant-baseline="middle" fill="white" font-family="Arial" font-size="15.75px" x="84" y="865.5">Timon of Athens</text><rect class="bookcase-book" fill="#6B4145" height="172" id="book-13282" stroke="black" width="21" x="256" y="987" /><text dominant-baseline="middle" fill="white" font-family="Arial" font-size="15.75px" transform="rotate(-90,266.5,1155)" x="266.5" y="1155">Titus Andronicus</text><rect class="bookcase-book" fill="#6D4638" height="172" id="book-13283" stroke="black" width="29" x="277" y="987" /><text dominant-baseline="middle" fill="white" font-family="Arial" font-size="18px" transform="rotate(-90,291.5,1155)" x="291.5" y="1155">Troilus and Cressida</text><rect class="bookcase-book" fill="#576041" height="172" id="book-13284" stroke="black" width="18" x="306" y="987" /><text dominant-baseline="middle" fill="white" font-family="Arial" font-size="13.5px" transform="rotate(-90,315.0,1155)" x="315.0" y="1155">Twelfth Night</text><rect class="bookcase-book" fill="#976A4A" height="172" id="book-14247" stroke="black" width="20" x="324" y="987" /><text dominant-baseline="middle" fill="white" font-family="Arial" font-size="15.0px" transform="rotate(-90,334.0,1155)" x="334.0" y="1155">The Two Gentlemen of V</text><rect class="bookcase-book" fill="#F8C4AE" height="172" id="book-13279" stroke="black" width="21" x="344" y="987" /><text dominant-baseline="middle" fill="black" font-family="Arial" font-size="15.75px" transform="rotate(-90,354.5,1155)" x="354.5" y="1155">The Two Noble Kinsme</text><rect class="bookcase-book" fill="#ADD7EE" height="172" id="book-13280" stroke="black" width="20" x="365" y="987" /><text dominant-baseline="middle" fill="black" font-family="Arial" font-size="15.0px" transform="rotate(-90,375.0,1155)" x="375.0" y="1155">The Winter's Tale</text><rect class="bookcase-book" fill="#3B5452" height="208" id="book-13538" stroke="black" width="7" x="385" y="951" /><text dominant-baseline="middle" fill="white" font-family="Arial" font-size="5.25px" transform="rotate(-90,388.5,1155)" x="388.5" y="1155">Julius Caesar</text><rect class="bookcase-book" fill="#CFC291" height="176" id="book-13367" stroke="black" width="10" x="392" y="983" /><text dominant-baseline="middle" fill="black" font-family="Arial" font-size="7.5px" transform="rotate(-90,397.0,1155)" x="397.0" y="1155">A Streetcar Named Desire</text><rect height="327" width="20" x="50" y="1159" /><rect height="327" width="20" x="430" y="1159" /><rect height="20" width="360" x="70" y="1159" /><rect height="20" width="400" x="50" y="1486" /><rect class="bookcase-book" fill="#E7CAA3" height="28" id="book-13719" stroke="black" width="176" x="84" y="1458" /><text dominant-baseline="middle" fill="black" font-family="Arial" font-size="18px" x="84" y="1472.0">The Federalist Paper</text><rect class="bookcase-book" fill="#E8E6D1" height="209" id="book-22766" stroke="black" width="14" x="84" y="1249" /><text dominant-baseline="middle" fill="black" font-family="Arial" font-size="10.5px" transform="rotate(-90,91.0,1454)" x="91.0" y="1454">Alibies</text><rect class="bookcase-book" fill="#743400" height="209" id="book-14219" stroke="black" width="47" x="98" y="1249" /><text dominant-baseline="middle" fill="white" font-family="Arial" font-size="18px" transform="rotate(-90,121.5,1454)" x="121.5" y="1454">The Proper Study of Man</text><rect class="bookcase-book" fill="#1514F0" height="204" id="book-13770" stroke="black" width="12" x="145" y="1254" /><text dominant-baseline="middle" fill="white" font-family="Arial" font-size="9.0px" transform="rotate(-90,151.0,1454)" x="151.0" y="1454">The Souls of Black Folk</text><rect class="bookcase-book" fill="#E0DBD2" height="209" id="book-14204" stroke="black" width="20" x="157" y="1249" /><text dominant-baseline="middle" fill="black" font-family="Arial" font-size="15.0px" transform="rotate(-90,167.0,1454)" x="167.0" y="1454">Pilgrim at Tinker Creek</text><rect class="bookcase-book" fill="#162210" height="203" id="book-14236" stroke="black" width="22" x="177" y="1255" /><text dominant-baseline="middle" fill="white" font-family="Arial" font-size="16.5px" transform="rotate(-90,188.0,1454)" x="188.0" y="1454">Ideas and Opinions</text><rect class="bookcase-book" fill="#A1917A" height="216" id="book-14197" stroke="black" width="23" x="199" y="1242" /><text dominant-baseline="middle" fill="black" font-family="Arial" font-size="17.25px" transform="rotate(-90,210.5,1454)" x="210.5" y="1454">Selected Essays</text><rect class="bookcase-book" fill="#B9A07E" height="203" id="book-13650" stroke="black" width="8" x="222" y="1255" /><text dominant-baseline="middle" fill="black" font-family="Arial" font-size="6.0px" transform="rotate(-90,226.0,1454)" x="226.0" y="1454">Self-Reliance, and Other Essays</text><rect class="bookcase-book" fill="#C83034" height="217" id="book-23122" stroke="black" width="26" x="230" y="1241" /><text dominant-baseline="middle" fill="white" font-family="Arial" font-size="18px" transform="rotate(-90,243.0,1454)" x="243.0" y="1454">The Anthropocene Review</text><rect class="bookcase-book" fill="#2C0DA0" height="209" id="book-20811" stroke="black" width="19" x="260" y="1277" /><text dominant-baseline="middle" fill="white" font-family="Arial" font-size="14.25px" transform="rotate(-90,269.5,1482)" x="269.5" y="1482">Me Talk Pretty One Day</text><rect class="bookcase-book" fill="#879F28" height="185" id="book-22430" stroke="black" width="18" x="279" y="1301" /><text dominant-baseline="middle" fill="black" font-family="Arial" font-size="13.5px" transform="rotate(-90,288.0,1482)" x="288.0" y="1482">Walden and Civil Disobedienc</text><rect class="bookcase-book" fill="#AEC39E" height="203" id="book-13431" stroke="black" width="6" x="297" y="1283" /><text dominant-baseline="middle" fill="black" font-family="Arial" font-size="4.5px" transform="rotate(-90,300.0,1482)" x="300.0" y="1482">Civil Disobedience and Other Essays</text><rect class="bookcase-book" fill="#4F5338" height="228" id="book-14211" stroke="black" width="12" x="303" y="1258" /><text dominant-baseline="middle" fill="white" font-family="Arial" font-size="9.0px" transform="rotate(-90,309.0,1482)" x="309.0" y="1482">Walden</text><rect class="bookcase-book" fill="#4F524E" height="203" id="book-13981" stroke="black" width="18" x="315" y="1283" /><text dominant-baseline="middle" fill="white" font-family="Arial" font-size="13.5px" transform="rotate(-90,324.0,1482)" x="324.0" y="1482">The Liberal Imagination</text><rect class="bookcase-book" fill="#642750" height="183" id="book-16383" stroke="black" width="10" x="333" y="1303" /><text dominant-baseline="middle" fill="white" font-family="Arial" font-size="7.5px" transform="rotate(-90,338.0,1482)" x="338.0" y="1482">The Gettysburg Address</text><rect class="bookcase-book" fill="#1F1914" height="190" id="book-21504" stroke="black" width="7" x="343" y="1296" /><text dominant-baseline="middle" fill="white" font-family="Arial" font-size="5.25px" transform="rotate(-90,346.5,1482)" x="346.5" y="1482">Prison Letters</text><rect class="bookcase-book" fill="#B88000" height="229" id="book-26231" stroke="black" width="4" x="350" y="1257" /><text dominant-baseline="middle" fill="black" font-family="Arial" font-size="3.0px" transform="rotate(-90,352.0,1482)" x="352.0" y="1482">Dad Jokes</text><rect class="bookcase-book" fill="#393228" height="180" id="book-20804" stroke="black" width="12" x="354" y="1306" /><text dominant-baseline="middle" fill="white" font-family="Arial" font-size="9.0px" transform="rotate(-90,360.0,1482)" x="360.0" y="1482">What Would Machiavelli Do?</text><rect class="bookcase-book" fill="#AC65E0" height="239" id="book-22777" stroke="black" width="22" x="366" y="1247" /><text dominant-baseline="middle" fill="black" font-family="Arial" font-size="16.5px" transform="rotate(-90,377.0,1482)" x="377.0" y="1482">I Am America</text><rect class="bookcase-book" fill="#EEEFEF" height="210" id="book-13688" stroke="black" width="26" x="388" y="1276" /><text dominant-baseline="middle" fill="black" font-family="Arial" font-size="18px" transform="rotate(-90,401.0,1482)" x="401.0" y="1482">The Big Book of Church J</text><rect height="321" width="20" x="50" y="1486" /><rect height="321" width="20" x="430" y="1486" /><rect height="20" width="360" x="70" y="1486" /><rect height="20" width="400" x="50" y="1807" /><rect class="bookcase-book" fill="#B5C9E3" height="13" id="book-22702" stroke="black" width="236" x="84" y="1794" /><text dominant-baseline="middle" fill="black" font-family="Arial" font-size="9.75px" x="84" y="1800.5">Stuff White People Like</text><rect class="bookcase-book" fill="#771C60" height="30" id="book-22773" stroke="black" width="236" x="84" y="1764" /><text dominant-baseline="middle" fill="white" font-family="Arial" font-size="18px" x="84" y="1779.0">Yes Please</text><rect class="bookcase-book" fill="#C1CF87" height="26" id="book-22431" stroke="black" width="209" x="84" y="1738" /><text dominant-baseline="middle" fill="black" font-family="Arial" font-size="18px" x="84" y="1751.0">The Jokiest Joking Joke </text><rect class="bookcase-book" fill="#C03747" height="31" id="book-22095" stroke="black" width="169" x="84" y="1707" /><text dominant-baseline="middle" fill="white" font-family="Arial" font-size="18px" x="84" y="1722.5">Fragmentary Republ</text><rect class="bookcase-book" fill="#d43549" height="27" id="book-22097" stroke="black" width="169" x="84" y="1680" /><text dominant-baseline="middle" fill="white" font-family="Arial" font-size="18px" x="84" y="1693.5">Fragmentary Republ</text><rect class="bookcase-book" fill="#d43549" height="25" id="book-14388" stroke="black" width="169" x="84" y="1655" /><text dominant-baseline="middle" fill="white" font-family="Arial" font-size="18px" x="84" y="1667.5">Historia Augusta</text><rect class="bookcase-book" fill="#d43549" height="28" id="book-14389" stroke="black" width="169" x="84" y="1627" /><text dominant-baseline="middle" fill="white" font-family="Arial" font-size="18px" x="84" y="1641.0">Historia Augusta</text><rect class="bookcase-book" fill="#d43549" height="21" id="book-14496" stroke="black" width="169" x="84" y="1606" /><text dominant-baseline="middle" fill="white" font-family="Arial" font-size="15.75px" x="84" y="1616.5">Historia Augusta</text><rect class="bookcase-book" fill="#d43549" height="32" id="book-14514" stroke="black" width="169" x="84" y="1574" /><text dominant-baseline="middle" fill="white" font-family="Arial" font-size="18px" x="84" y="1590.0">Minor Latin Poets</text><rect class="bookcase-book" fill="#d43549" height="22" id="book-16135" stroke="black" width="169" x="84" y="1552" /><text dominant-baseline="middle" fill="white" font-family="Arial" font-size="16.5px" x="84" y="1563.0">Minor Latin Poets</text><rect class="bookcase-book" fill="#d43549" height="28" id="book-16016" stroke="black" width="169" x="84" y="1524" /><text dominant-baseline="middle" fill="white" font-family="Arial" font-size="18px" x="84" y="1538.0">Remains of Old Lati</text><rect class="bookcase-book" fill="#d43549" height="169" id="book-16031" stroke="black" width="24" x="253" y="1569" /><text dominant-baseline="middle" fill="white" font-family="Arial" font-size="18px" transform="rotate(-90,265.0,1734)" x="265.0" y="1734">Remains of Old Lati</text><rect class="bookcase-book" fill="#d43549" height="169" id="book-16060" stroke="black" width="23" x="293" y="1595" /><text dominant-baseline="middle" fill="white" font-family="Arial" font-size="17.25px" transform="rotate(-90,304.5,1760)" x="304.5" y="1760">Remains of Old Latin</text><rect class="bookcase-book" fill="#d43549" height="169" id="book-13147" stroke="black" width="22" x="320" y="1638" /><text dominant-baseline="middle" fill="white" font-family="Arial" font-size="16.5px" transform="rotate(-90,331.0,1803)" x="331.0" y="1803">Catullus;Tibullus;Pervi</text><rect class="bookcase-book" fill="#d43549" height="169" id="book-13156" stroke="black" width="24" x="342" y="1638" /><text dominant-baseline="middle" fill="white" font-family="Arial" font-size="18px" transform="rotate(-90,354.0,1803)" x="354.0" y="1803">Satyricon;Apocolocy</text><rect class="bookcase-book" fill="#d43549" height="169" id="book-13167" stroke="black" width="23" x="366" y="1638" /><text dominant-baseline="middle" fill="white" font-family="Arial" font-size="17.25px" transform="rotate(-90,377.5,1803)" x="377.5" y="1803">Juvenal and Persius</text><rect class="bookcase-book" fill="#d43549" height="169" id="book-14483" stroke="black" width="21" x="389" y="1638" /><text dominant-baseline="middle" fill="white" font-family="Arial" font-size="15.75px" transform="rotate(-90,399.5,1803)" x="399.5" y="1803">Apology;De Spectaculi</text><rect height="317" width="20" x="50" y="1807" /><rect height="317" width="20" x="430" y="1807" /><rect height="20" width="360" x="70" y="1807" /><rect height="20" width="400" x="50" y="2124" /><rect class="bookcase-book" fill="#d43549" height="31" id="book-13194" stroke="black" width="169" x="84" y="2093" /><text dominant-baseline="middle" fill="white" font-family="Arial" font-size="18px" x="84" y="2108.5">On Agriculture</text><rect class="bookcase-book" fill="#d43549" height="36" id="book-16017" stroke="black" width="169" x="84" y="2057" /><text dominant-baseline="middle" fill="white" font-family="Arial" font-size="18px" x="84" y="2075.0">History</text><rect class="bookcase-book" fill="#d43549" height="23" id="book-20081" stroke="black" width="169" x="84" y="2034" /><text dominant-baseline="middle" fill="white" font-family="Arial" font-size="17.25px" x="84" y="2045.5">Apologia. Florida. De</text><rect class="bookcase-book" fill="#d43549" height="26" id="book-14305" stroke="black" width="169" x="84" y="2008" /><text dominant-baseline="middle" fill="white" font-family="Arial" font-size="18px" x="84" y="2021.0">Metamorphoses</text><rect class="bookcase-book" fill="#d43549" height="19" id="book-16154" stroke="black" width="169" x="84" y="1989" /><text dominant-baseline="middle" fill="white" font-family="Arial" font-size="14.25px" x="84" y="1998.5">Metamorphoses (The Gol</text><rect class="bookcase-book" fill="#d43549" height="32" id="book-13191" stroke="black" width="169" x="84" y="1957" /><text dominant-baseline="middle" fill="white" font-family="Arial" font-size="18px" x="84" y="1973.0">Select Letters</text><rect class="bookcase-book" fill="#d43549" height="22" id="book-16112" stroke="black" width="169" x="84" y="1935" /><text dominant-baseline="middle" fill="white" font-family="Arial" font-size="16.5px" x="84" y="1946.0">City of God</text><rect class="bookcase-book" fill="#d43549" height="25" id="book-16113" stroke="black" width="169" x="84" y="1910" /><text dominant-baseline="middle" fill="white" font-family="Arial" font-size="18px" x="84" y="1922.5">City of God</text><rect class="bookcase-book" fill="#d43549" height="33" id="book-16114" stroke="black" width="169" x="84" y="1877" /><text dominant-baseline="middle" fill="white" font-family="Arial" font-size="18px" x="84" y="1893.5">City of God</text><rect class="bookcase-book" fill="#d43549" height="29" id="book-16115" stroke="black" width="169" x="84" y="1848" /><text dominant-baseline="middle" fill="white" font-family="Arial" font-size="18px" x="84" y="1862.5">City of God</text><rect class="bookcase-book" fill="#d43549" height="169" id="book-16116" stroke="black" width="23" x="253" y="1955" /><text dominant-baseline="middle" fill="white" font-family="Arial" font-size="17.25px" transform="rotate(-90,264.5,2120)" x="264.5" y="2120">City of God</text><rect class="bookcase-book" fill="#d43549" height="169" id="book-16118" stroke="black" width="23" x="276" y="1955" /><text dominant-baseline="middle" fill="white" font-family="Arial" font-size="17.25px" transform="rotate(-90,287.5,2120)" x="287.5" y="2120">City of God</text><rect class="bookcase-book" fill="#d43549" height="169" id="book-22091" stroke="black" width="23" x="299" y="1955" /><text dominant-baseline="middle" fill="white" font-family="Arial" font-size="17.25px" transform="rotate(-90,310.5,2120)" x="310.5" y="2120">Confessions</text><rect class="bookcase-book" fill="#d43549" height="169" id="book-13162" stroke="black" width="24" x="322" y="1955" /><text dominant-baseline="middle" fill="white" font-family="Arial" font-size="18px" transform="rotate(-90,334.0,2120)" x="334.0" y="2120">Confessions</text><rect class="bookcase-book" fill="#d43549" height="169" id="book-14354" stroke="black" width="25" x="346" y="1955" /><text dominant-baseline="middle" fill="white" font-family="Arial" font-size="18px" transform="rotate(-90,358.5,2120)" x="358.5" y="2120">Ausonius</text><rect class="bookcase-book" fill="#d43549" height="169" id="book-14371" stroke="black" width="19" x="371" y="1955" /><text dominant-baseline="middle" fill="white" font-family="Arial" font-size="14.25px" transform="rotate(-90,380.5,2120)" x="380.5" y="2120">Ausonius</text><rect class="bookcase-book" fill="#d43549" height="169" id="book-14479" stroke="black" width="25" x="390" y="1955" /><text dominant-baseline="middle" fill="white" font-family="Arial" font-size="18px" transform="rotate(-90,402.5,2120)" x="402.5" y="2120">Ecclesiastical Histor</text><rect height="327" width="20" x="50" y="2124" /><rect height="327" width="20" x="430" y="2124" /><rect height="20" width="360" x="70" y="2124" /><rect height="20" width="400" x="50" y="2451" /><rect class="bookcase-book" fill="#d43549" height="26" id="book-14481" stroke="black" width="169" x="84" y="2425" /><text dominant-baseline="middle" fill="white" font-family="Arial" font-size="18px" x="84" y="2438.0">Ecclesiastical Histor</text><rect class="bookcase-book" fill="#d43549" height="29" id="book-14333" stroke="black" width="169" x="84" y="2396" /><text dominant-baseline="middle" fill="white" font-family="Arial" font-size="18px" x="84" y="2410.5">Theological Tractate</text><rect class="bookcase-book" fill="#d43549" height="24" id="book-14300" stroke="black" width="169" x="84" y="2372" /><text dominant-baseline="middle" fill="white" font-family="Arial" font-size="18px" x="84" y="2384.0">Civil Wars</text><rect class="bookcase-book" fill="#d43549" height="30" id="book-14332" stroke="black" width="169" x="84" y="2342" /><text dominant-baseline="middle" fill="white" font-family="Arial" font-size="18px" x="84" y="2357.0">The Gallic War</text><rect class="bookcase-book" fill="#d43549" height="24" id="book-16103" stroke="black" width="169" x="84" y="2318" /><text dominant-baseline="middle" fill="white" font-family="Arial" font-size="18px" x="84" y="2330.0">Alexandrian War. Afr</text><rect class="bookcase-book" fill="#d43549" height="29" id="book-14520" stroke="black" width="169" x="84" y="2289" /><text dominant-baseline="middle" fill="white" font-family="Arial" font-size="18px" x="84" y="2303.5">On Medicine</text><rect class="bookcase-book" fill="#d43549" height="20" id="book-16006" stroke="black" width="169" x="84" y="2269" /><text dominant-baseline="middle" fill="white" font-family="Arial" font-size="15.0px" x="84" y="2279.0">On Medicine</text><rect class="bookcase-book" fill="#d43549" height="19" id="book-16038" stroke="black" width="169" x="84" y="2250" /><text dominant-baseline="middle" fill="white" font-family="Arial" font-size="14.25px" x="84" y="2259.5">On Medicine</text><rect class="bookcase-book" fill="#d43549" height="22" id="book-14293" stroke="black" width="169" x="84" y="2228" /><text dominant-baseline="middle" fill="white" font-family="Arial" font-size="16.5px" x="84" y="2239.0">On Duties</text><rect class="bookcase-book" fill="#d43549" height="25" id="book-14301" stroke="black" width="169" x="84" y="2203" /><text dominant-baseline="middle" fill="white" font-family="Arial" font-size="18px" x="84" y="2215.5">On Ends</text><rect class="bookcase-book" fill="#d43549" height="31" id="book-14390" stroke="black" width="169" x="84" y="2172" /><text dominant-baseline="middle" fill="white" font-family="Arial" font-size="18px" x="84" y="2187.5">Tusculan Disputatio</text><rect class="bookcase-book" fill="#d43549" height="169" id="book-14403" stroke="black" width="33" x="253" y="2282" /><text dominant-baseline="middle" fill="white" font-family="Arial" font-size="18px" transform="rotate(-90,269.5,2447)" x="269.5" y="2447">On Old Age;On Frie</text><rect class="bookcase-book" fill="#d43549" height="169" id="book-14406" stroke="black" width="28" x="286" y="2282" /><text dominant-baseline="middle" fill="white" font-family="Arial" font-size="18px" transform="rotate(-90,300.0,2447)" x="300.0" y="2447">Pro Archia;Post Red</text><rect class="bookcase-book" fill="#d43549" height="169" id="book-14437" stroke="black" width="28" x="314" y="2282" /><text dominant-baseline="middle" fill="white" font-family="Arial" font-size="18px" transform="rotate(-90,328.0,2447)" x="328.0" y="2447">Pro Lege Manilia;Pr</text><rect class="bookcase-book" fill="#d43549" height="169" id="book-14451" stroke="black" width="28" x="342" y="2282" /><text dominant-baseline="middle" fill="white" font-family="Arial" font-size="18px" transform="rotate(-90,356.0,2447)" x="356.0" y="2447">On the Republic;On </text><rect class="bookcase-book" fill="#d43549" height="169" id="book-14485" stroke="black" width="28" x="370" y="2282" /><text dominant-baseline="middle" fill="white" font-family="Arial" font-size="18px" transform="rotate(-90,384.0,2447)" x="384.0" y="2447">Pro Milone;In Pison</text><rect height="321" width="20" x="50" y="2451" /><rect height="321" width="20" x="430" y="2451" /><rect height="20" width="360" x="70" y="2451" /><rect height="20" width="400" x="50" y="2772" /><rect class="bookcase-book" fill="#d43549" height="20" id="book-16011" stroke="black" width="169" x="84" y="2752" /><text dominant-baseline="middle" fill="white" font-family="Arial" font-size="15.0px" x="84" y="2762.0">Pro Sestio. In Vatinium</text><rect class="bookcase-book" fill="#d43549" height="28" id="book-16026" stroke="black" width="169" x="84" y="2724" /><text dominant-baseline="middle" fill="white" font-family="Arial" font-size="18px" x="84" y="2738.0">In Catilinam 1-4. Pro</text><rect class="bookcase-book" fill="#d43549" height="22" id="book-16043" stroke="black" width="169" x="84" y="2702" /><text dominant-baseline="middle" fill="white" font-family="Arial" font-size="16.5px" x="84" y="2713.0">Brutus. Orator</text><rect class="bookcase-book" fill="#d43549" height="21" id="book-16049" stroke="black" width="169" x="84" y="2681" /><text dominant-baseline="middle" fill="white" font-family="Arial" font-size="15.75px" x="84" y="2691.5">On the Orator</text><rect class="bookcase-book" fill="#d43549" height="23" id="book-16050" stroke="black" width="169" x="84" y="2658" /><text dominant-baseline="middle" fill="white" font-family="Arial" font-size="17.25px" x="84" y="2669.5">On the Orator</text><rect class="bookcase-book" fill="#d43549" height="26" id="book-16087" stroke="black" width="169" x="84" y="2632" /><text dominant-baseline="middle" fill="white" font-family="Arial" font-size="18px" x="84" y="2645.0">On Invention. The B</text><rect class="bookcase-book" fill="#d43549" height="26" id="book-16104" stroke="black" width="169" x="84" y="2606" /><text dominant-baseline="middle" fill="white" font-family="Arial" font-size="18px" x="84" y="2619.0">Rhetorica ad Heren</text><rect class="bookcase-book" fill="#d43549" height="22" id="book-16148" stroke="black" width="169" x="84" y="2584" /><text dominant-baseline="middle" fill="white" font-family="Arial" font-size="16.5px" x="84" y="2595.0">Pro Caelio. De Provin</text><rect class="bookcase-book" fill="#d43549" height="18" id="book-16163" stroke="black" width="169" x="84" y="2566" /><text dominant-baseline="middle" fill="white" font-family="Arial" font-size="13.5px" x="84" y="2575.0">Letters to Quintus and Brut</text><rect class="bookcase-book" fill="#d43549" height="22" id="book-13148" stroke="black" width="169" x="84" y="2544" /><text dominant-baseline="middle" fill="white" font-family="Arial" font-size="16.5px" x="84" y="2555.0">Letters To Atticus</text><rect class="bookcase-book" fill="#d43549" height="21" id="book-13149" stroke="black" width="169" x="84" y="2523" /><text dominant-baseline="middle" fill="white" font-family="Arial" font-size="15.75px" x="84" y="2533.5">Letters To Atticus</text><rect class="bookcase-book" fill="#d43549" height="25" id="book-14355" stroke="black" width="169" x="84" y="2498" /><text dominant-baseline="middle" fill="white" font-family="Arial" font-size="18px" x="84" y="2510.5">Letters to Atticus</text><rect class="bookcase-book" fill="#d43549" height="169" id="book-14443" stroke="black" width="27" x="253" y="2603" /><text dominant-baseline="middle" fill="white" font-family="Arial" font-size="18px" transform="rotate(-90,266.5,2768)" x="266.5" y="2768">Letters to Friends</text><rect class="bookcase-book" fill="#d43549" height="169" id="book-14465" stroke="black" width="21" x="280" y="2603" /><text dominant-baseline="middle" fill="white" font-family="Arial" font-size="15.75px" transform="rotate(-90,290.5,2768)" x="290.5" y="2768">Letters to Friends</text><rect class="bookcase-book" fill="#d43549" height="169" id="book-14429" stroke="black" width="21" x="301" y="2603" /><text dominant-baseline="middle" fill="white" font-family="Arial" font-size="15.75px" transform="rotate(-90,311.5,2768)" x="311.5" y="2768">Philippics 1-6</text><rect class="bookcase-book" fill="#d43549" height="169" id="book-16208" stroke="black" width="22" x="322" y="2603" /><text dominant-baseline="middle" fill="white" font-family="Arial" font-size="16.5px" transform="rotate(-90,333.0,2768)" x="333.0" y="2768">Philippics 7-14</text><rect class="bookcase-book" fill="#d43549" height="169" id="book-14459" stroke="black" width="26" x="344" y="2603" /><text dominant-baseline="middle" fill="white" font-family="Arial" font-size="18px" transform="rotate(-90,357.0,2768)" x="357.0" y="2768">The Verrine Oration</text><rect class="bookcase-book" fill="#d43549" height="169" id="book-14521" stroke="black" width="28" x="370" y="2603" /><text dominant-baseline="middle" fill="white" font-family="Arial" font-size="18px" transform="rotate(-90,384.0,2768)" x="384.0" y="2768">The Verrine Oration</text><rect height="315" width="20" x="50" y="2772" /><rect height="315" width="20" x="430" y="2772" /><rect height="20" width="360" x="70" y="2772" /><rect height="20" width="400" x="50" y="3087" /><rect class="bookcase-book" fill="#d43549" height="21" id="book-14385" stroke="black" width="169" x="84" y="3066" /><text dominant-baseline="middle" fill="white" font-family="Arial" font-size="15.75px" x="84" y="3076.5">Panegyric on Probinus </text><rect class="bookcase-book" fill="#d43549" height="23" id="book-14386" stroke="black" width="169" x="84" y="3043" /><text dominant-baseline="middle" fill="white" font-family="Arial" font-size="17.25px" x="84" y="3054.5">On Stilicho's Consuls</text><rect class="bookcase-book" fill="#d43549" height="21" id="book-16168" stroke="black" width="169" x="84" y="3022" /><text dominant-baseline="middle" fill="white" font-family="Arial" font-size="15.75px" x="84" y="3032.5">On Great Generals. On</text><rect class="bookcase-book" fill="#d43549" height="23" id="book-14466" stroke="black" width="169" x="84" y="2999" /><text dominant-baseline="middle" fill="white" font-family="Arial" font-size="17.25px" x="84" y="3010.5">Epitome of Roman Hi</text><rect class="bookcase-book" fill="#d43549" height="27" id="book-14415" stroke="black" width="169" x="84" y="2972" /><text dominant-baseline="middle" fill="white" font-family="Arial" font-size="18px" x="84" y="2985.5">Stratagems;Aquedu</text><rect class="bookcase-book" fill="#d43549" height="20" id="book-14368" stroke="black" width="169" x="84" y="2952" /><text dominant-baseline="middle" fill="white" font-family="Arial" font-size="15.0px" x="84" y="2962.0">Correspondence</text><rect class="bookcase-book" fill="#d43549" height="21" id="book-14369" stroke="black" width="169" x="84" y="2931" /><text dominant-baseline="middle" fill="white" font-family="Arial" font-size="15.75px" x="84" y="2941.5">Correspondence</text><rect class="bookcase-book" fill="#d43549" height="28" id="book-14434" stroke="black" width="169" x="84" y="2903" /><text dominant-baseline="middle" fill="white" font-family="Arial" font-size="18px" x="84" y="2917.0">Attic Nights</text><rect class="bookcase-book" fill="#d43549" height="25" id="book-14439" stroke="black" width="169" x="84" y="2878" /><text dominant-baseline="middle" fill="white" font-family="Arial" font-size="18px" x="84" y="2890.5">Attic Nights</text><rect class="bookcase-book" fill="#d43549" height="23" id="book-14450" stroke="black" width="169" x="84" y="2855" /><text dominant-baseline="middle" fill="white" font-family="Arial" font-size="17.25px" x="84" y="2866.5">Attic Nights</text><rect class="bookcase-book" fill="#d43549" height="22" id="book-14296" stroke="black" width="169" x="84" y="2833" /><text dominant-baseline="middle" fill="white" font-family="Arial" font-size="16.5px" x="84" y="2844.0">Odes and Epodes</text><rect class="bookcase-book" fill="#d43549" height="23" id="book-14433" stroke="black" width="169" x="84" y="2810" /><text dominant-baseline="middle" fill="white" font-family="Arial" font-size="17.25px" x="84" y="2821.5">Satires;Epistles;The </text><rect class="bookcase-book" fill="#d43549" height="169" id="book-14495" stroke="black" width="27" x="253" y="2918" /><text dominant-baseline="middle" fill="white" font-family="Arial" font-size="18px" transform="rotate(-90,266.5,3083)" x="266.5" y="3083">Select Letters</text><rect class="bookcase-book" fill="#d43549" height="169" id="book-14370" stroke="black" width="26" x="280" y="2918" /><text dominant-baseline="middle" fill="white" font-family="Arial" font-size="18px" transform="rotate(-90,293.0,3083)" x="293.0" y="3083">History of Rome</text><rect class="bookcase-book" fill="#d43549" height="169" id="book-14383" stroke="black" width="22" x="306" y="2918" /><text dominant-baseline="middle" fill="white" font-family="Arial" font-size="16.5px" transform="rotate(-90,317.0,3083)" x="317.0" y="3083">History of Rome</text><rect class="bookcase-book" fill="#d43549" height="169" id="book-14413" stroke="black" width="28" x="328" y="2918" /><text dominant-baseline="middle" fill="white" font-family="Arial" font-size="18px" transform="rotate(-90,342.0,3083)" x="342.0" y="3083">History of Rome</text><rect class="bookcase-book" fill="#d43549" height="169" id="book-14431" stroke="black" width="24" x="356" y="2918" /><text dominant-baseline="middle" fill="white" font-family="Arial" font-size="18px" transform="rotate(-90,368.0,3083)" x="368.0" y="3083">History of Rome</text><rect class="bookcase-book" fill="#d43549" height="169" id="book-14468" stroke="black" width="24" x="380" y="2918" /><text dominant-baseline="middle" fill="white" font-family="Arial" font-size="18px" transform="rotate(-90,392.0,3083)" x="392.0" y="3083">History of Rome</text></svg>