<?xml version="1.0" encoding="utf-8" ?>
<svg baseProfile="full" height="3107" version="1.1" width="900" xmlns="http://www.w3.org/2000/svg" xmlns:ev="http://www.w3.org/2001/xml-events" xmlns:xlink="http://www.w3.org/1999/xlink"><defs /><rect height="20" width="800" x="50" y="1159" /><rect class="bookcase-book" fill="#1D4A33" height="298" id="book-22711" stroke="black" width="20" x="84" y="861" /><text dominant-baseline="middle" fill="white" font-family="Arial" font-size="15.0px" transform="rotate(-90,94.0,1155)" x="94.0" y="1155">Drives of a Lifetime</text><rect class="bookcase-book" fill="#5C528F" height="302" id="book-22212" stroke="black" width="19" x="104" y="857" /><text dominant-baseline="middle" fill="white" font-family="Arial" font-size="14.25px" transform="rotate(-90,113.5,1155)" x="113.5" y="1155">Classic Treks</text><rect class="bookcase-book" fill="#24AAD2" height="305" id="book-13390" stroke="black" width="29" x="123" y="854" /><text dominant-baseline="middle" fill="black" font-family="Arial" font-size="18px" transform="rotate(-90,137.5,1155)" x="137.5" y="1155">Atlas of World History</text><rect class="bookcase-book" fill="#C7C2A3" height="298" id="book-16595" stroke="black" width="21" x="152" y="861" /><text dominant-baseline="middle" fill="black" font-family="Arial" font-size="15.75px" transform="rotate(-90,162.5,1155)" x="162.5" y="1155">The VIP Guide to London</text><rect class="bookcase-book" fill="#B5BF9C" height="308" id="book-16597" stroke="black" width="23" x="173" y="851" /><text dominant-baseline="middle" fill="black" font-family="Arial" font-size="17.25px" transform="rotate(-90,184.5,1155)" x="184.5" y="1155">Rome</text><rect class="bookcase-book" fill="#B37C5E" height="242" id="book-13962" stroke="black" width="41" x="196" y="917" /><text dominant-baseline="middle" fill="black" font-family="Arial" font-size="18px" transform="rotate(-90,216.5,1155)" x="216.5" y="1155">Thomas Jefferson</text><rect class="bookcase-book" fill="#7E1F1F" height="232" id="book-16654" stroke="black" width="17" x="237" y="927" /><text dominant-baseline="middle" fill="white" font-family="Arial" font-size="12.75px" transform="rotate(-90,245.5,1155)" x="245.5" y="1155">I, Rigoberta Menchu</text><rect class="bookcase-book" fill="#918155" height="33" id="book-14000" stroke="black" width="203" x="254" y="1126" /><text dominant-baseline="middle" fill="black" font-family="Arial" font-size="18px" x="254" y="1142.5">The Rise of Theodore R</text><rect class="bookcase-book" fill="#301A13" height="242" id="book-22561" stroke="black" width="45" x="254" y="884" /><text dominant-baseline="middle" fill="white" font-family="Arial" font-size="18px" transform="rotate(-90,276.5,1122)" x="276.5" y="1122">Theodore Rex</text><rect class="bookcase-book" fill="#866B3D" height="242" id="book-22560" stroke="black" width="45" x="299" y="884" /><text dominant-baseline="middle" fill="white" font-family="Arial" font-size="18px" transform="rotate(-90,321.5,1122)" x="321.5" y="1122">Colonel Roosevelt</text><rect class="bookcase-book" fill="#787477" height="242" id="book-22954" stroke="black" width="46" x="344" y="884" /><text dominant-baseline="middle" fill="white" font-family="Arial" font-size="18px" transform="rotate(-90,367.0,1122)" x="367.0" y="1122">Dutch</text><rect class="bookcase-book" fill="#35281E" height="203" id="book-20534" stroke="black" width="25" x="390" y="923" /><text dominant-baseline="middle" fill="white" font-family="Arial" font-size="18px" transform="rotate(-90,402.5,1122)" x="402.5" y="1122">Breaking Night</text><rect class="bookcase-book" fill="#E7E6E3" height="203" id="book-13964" stroke="black" width="18" x="415" y="923" /><text dominant-baseline="middle" fill="black" font-family="Arial" font-size="13.5px" transform="rotate(-90,424.0,1122)" x="424.0" y="1122">Speak, Memory</text><rect class="bookcase-book" fill="#F2F8F4" height="31" id="book-20532" stroke="black" width="234" x="457" y="1128" /><text dominant-baseline="middle" fill="black" font-family="Arial" font-size="18px" x="457" y="1143.5">A Beautiful Mind</text><rect class="bookcase-book" fill="#F2E6C6" height="26" id="book-22191" stroke="black" width="202" x="457" y="1102" /><text dominant-baseline="middle" fill="black" font-family="Arial" font-size="18px" x="457" y="1115.0">Dreams from My Father</text><rect class="bookcase-book" fill="#A9CBD3" height="235" id="book-20351" stroke="black" width="31" x="457" y="867" /><text dominant-baseline="middle" fill="black" font-family="Arial" font-size="18px" transform="rotate(-90,472.5,1098)" x="472.5" y="1098">Paddle Your Own Canoe</text><rect class="bookcase-book" fill="#2E1B2C" height="242" id="book-23126" stroke="black" width="46" x="488" y="860" /><text dominant-baseline="middle" fill="white" font-family="Arial" font-size="18px" transform="rotate(-90,511.0,1098)" x="511.0" y="1098">Nixonland</text><rect class="bookcase-book" fill="#232322" height="214" id="book-22666" stroke="black" width="50" x="534" y="888" /><text dominant-baseline="middle" fill="white" font-family="Arial" font-size="18px" transform="rotate(-90,559.0,1098)" x="559.0" y="1098">Eisenhower</text><rect class="bookcase-book" fill="#CFACA0" height="241" id="book-26267" stroke="black" width="23" x="584" y="861" /><text dominant-baseline="middle" fill="black" font-family="Arial" font-size="17.25px" transform="rotate(-90,595.5,1098)" x="595.5" y="1098">Friends, Lovers, and the Big T</text><rect class="bookcase-book" fill="#F5E9CF" height="203" id="book-26246" stroke="black" width="19" x="607" y="899" /><text dominant-baseline="middle" fill="black" font-family="Arial" font-size="14.25px" transform="rotate(-90,616.5,1098)" x="616.5" y="1098">Prisoner</text><rect class="bookcase-book" fill="#E4E6E3" height="228" id="book-20065" stroke="black" width="24" x="626" y="874" /><text dominant-baseline="middle" fill="black" font-family="Arial" font-size="18px" transform="rotate(-90,638.0,1098)" x="638.0" y="1098">The Insanity of God</text><rect class="bookcase-book" fill="#417632" height="203" id="book-20542" stroke="black" width="29" x="659" y="925" /><text dominant-baseline="middle" fill="white" font-family="Arial" font-size="18px" transform="rotate(-90,673.5,1124)" x="673.5" y="1124">Following Atticus</text><rect class="bookcase-book" fill="#2A9D3B" height="242" id="book-22958" stroke="black" width="46" x="691" y="917" /><text dominant-baseline="middle" fill="white" font-family="Arial" font-size="18px" transform="rotate(-90,714.0,1155)" x="714.0" y="1155">Abraham Lincoln</text><rect class="bookcase-book" fill="#794A3E" height="242" id="book-22778" stroke="black" width="37" x="737" y="917" /><text dominant-baseline="middle" fill="white" font-family="Arial" font-size="18px" transform="rotate(-90,755.5,1155)" x="755.5" y="1155">Our Revolution</text><rect class="bookcase-book" fill="#285B76" height="217" id="book-22772" stroke="black" width="24" x="774" y="942" /><text dominant-baseline="middle" fill="white" font-family="Arial" font-size="18px" transform="rotate(-90,786.0,1155)" x="786.0" y="1155">Jesus Land</text><rect height="327" width="20" x="50" y="1159" /><rect height="327" width="20" x="830" y="1159" /><rect height="20" width="760" x="70" y="1159" /><rect height="20" width="800" x="50" y="1486" /><rect class="bookcase-book" fill="#57808F" height="20" id="book-22761" stroke="black" width="210" x="84" y="1466" /><text dominant-baseline="middle" fill="white" font-family="Arial" font-size="15.0px" x="84" y="1476.0">Naked</text><rect class="bookcase-book" fill="#424026" height="217" id="book-22961" stroke="black" width="25" x="84" y="1249" /><text dominant-baseline="middle" fill="white" font-family="Arial" font-size="18px" transform="rotate(-90,96.5,1462)" x="96.5" y="1462">When You Are Engulfed in</text><rect class="bookcase-book" fill="#8F633F" height="12" id="book-22963" stroke="black" width="174" x="109" y="1454" /><text dominant-baseline="middle" fill="white" font-family="Arial" font-size="9.0px" x="109" y="1460.0">Sein Language</text><rect class="bookcase-book" fill="#C7C3C4" height="203" id="book-22763" stroke="black" width="23" x="109" y="1251" /><text dominant-baseline="middle" fill="black" font-family="Arial" font-size="17.25px" transform="rotate(-90,120.5,1450)" x="120.5" y="1450">Hidden Figures</text><rect class="bookcase-book" fill="#1F14B0" height="178" id="book-13469" stroke="black" width="23" x="132" y="1276" /><text dominant-baseline="middle" fill="white" font-family="Arial" font-size="17.25px" transform="rotate(-90,143.5,1450)" x="143.5" y="1450">Fermat's Enigma</text><rect class="bookcase-book" fill="#EA5731" height="203" id="book-16484" stroke="black" width="26" x="155" y="1251" /><text dominant-baseline="middle" fill="black" font-family="Arial" font-size="18px" transform="rotate(-90,168.0,1450)" x="168.0" y="1450">The Immortal Life of Hen</text><rect class="bookcase-book" fill="#74A2B3" height="203" id="book-26217" stroke="black" width="20" x="181" y="1251" /><text dominant-baseline="middle" fill="black" font-family="Arial" font-size="15.0px" transform="rotate(-90,191.0,1450)" x="191.0" y="1450">Sailing Alone Around the Worl</text><rect class="bookcase-book" fill="#BBC1BD" height="188" id="book-14013" stroke="black" width="12" x="201" y="1266" /><text dominant-baseline="middle" fill="black" font-family="Arial" font-size="9.0px" transform="rotate(-90,207.0,1450)" x="207.0" y="1450">Longitude</text><rect class="bookcase-book" fill="#282616" height="198" id="book-14061" stroke="black" width="30" x="213" y="1256" /><text dominant-baseline="middle" fill="white" font-family="Arial" font-size="18px" transform="rotate(-90,228.0,1450)" x="228.0" y="1450">Henry</text><rect class="bookcase-book" fill="#F3E2D2" height="203" id="book-26257" stroke="black" width="19" x="243" y="1251" /><text dominant-baseline="middle" fill="black" font-family="Arial" font-size="14.25px" transform="rotate(-90,252.5,1450)" x="252.5" y="1450">Wild</text><rect class="bookcase-book" fill="#524233" height="203" id="book-14199" stroke="black" width="8" x="262" y="1251" /><text dominant-baseline="middle" fill="white" font-family="Arial" font-size="6.0px" transform="rotate(-90,266.0,1450)" x="266.0" y="1450">Darkness Visible</text><rect class="bookcase-book" fill="#F9FBF6" height="234" id="book-22661" stroke="black" width="48" x="294" y="1252" /><text dominant-baseline="middle" fill="black" font-family="Arial" font-size="18px" transform="rotate(-90,318.0,1482)" x="318.0" y="1482">Stalin's Daughter</text><rect class="bookcase-book" fill="#443927" height="21" id="book-26218" stroke="black" width="203" x="342" y="1465" /><text dominant-baseline="middle" fill="white" font-family="Arial" font-size="15.75px" x="342" y="1475.5">A Hope in the Unseen</text><rect class="bookcase-book" fill="#807D6B" height="16" id="book-13794" stroke="black" width="203" x="342" y="1449" /><text dominant-baseline="middle" fill="white" font-family="Arial" font-size="12.0px" x="342" y="1457.0">Up From Slavery</text><rect class="bookcase-book" fill="#75766A" height="218" id="book-13714" stroke="black" width="28" x="342" y="1231" /><text dominant-baseline="middle" fill="white" font-family="Arial" font-size="18px" transform="rotate(-90,356.0,1445)" x="356.0" y="1445">The Double Helix</text><rect class="bookcase-book" fill="#EBE0CA" height="203" id="book-22059" stroke="black" width="19" x="370" y="1246" /><text dominant-baseline="middle" fill="black" font-family="Arial" font-size="14.25px" transform="rotate(-90,379.5,1445)" x="379.5" y="1445">Genghis Khan</text><rect class="bookcase-book" fill="#122D23" height="208" id="book-14002" stroke="black" width="22" x="389" y="1241" /><text dominant-baseline="middle" fill="white" font-family="Arial" font-size="16.5px" transform="rotate(-90,400.0,1445)" x="400.0" y="1445">This Boy's Life</text><rect class="bookcase-book" fill="#686045" height="241" id="book-22667" stroke="black" width="27" x="411" y="1208" /><text dominant-baseline="middle" fill="white" font-family="Arial" font-size="18px" transform="rotate(-90,424.5,1445)" x="424.5" y="1445">Revolutionary Characters</text><rect class="bookcase-book" fill="#3D5051" height="234" id="book-13996" stroke="black" width="28" x="438" y="1215" /><text dominant-baseline="middle" fill="white" font-family="Arial" font-size="18px" transform="rotate(-90,452.0,1445)" x="452.0" y="1445">Florence Nightingale</text><rect class="bookcase-book" fill="#EFEEED" height="203" id="book-13970" stroke="black" width="14" x="466" y="1246" /><text dominant-baseline="middle" fill="black" font-family="Arial" font-size="10.5px" transform="rotate(-90,473.0,1445)" x="473.0" y="1445">The Strange Career of Jim Crow</text><rect class="bookcase-book" fill="#854826" height="203" id="book-13408" stroke="black" width="29" x="480" y="1246" /><text dominant-baseline="middle" fill="white" font-family="Arial" font-size="18px" transform="rotate(-90,494.5,1445)" x="494.5" y="1445">Black Boy</text><rect class="bookcase-book" fill="#1CB511" height="203" id="book-20535" stroke="black" width="24" x="509" y="1246" /><text dominant-baseline="middle" fill="white" font-family="Arial" font-size="18px" transform="rotate(-90,521.0,1445)" x="521.0" y="1445">Prozac Nation</text><rect class="bookcase-book" fill="#9B1100" height="233" id="book-22665" stroke="black" width="41" x="545" y="1253" /><text dominant-baseline="middle" fill="white" font-family="Arial" font-size="18px" transform="rotate(-90,565.5,1482)" x="565.5" y="1482">The Private Life of Chairma</text><rect class="bookcase-book" fill="#843800" height="229" id="book-13481" stroke="black" width="15" x="586" y="1257" /><text dominant-baseline="middle" fill="white" font-family="Arial" font-size="11.25px" transform="rotate(-90,593.5,1482)" x="593.5" y="1482">Genealogy Basics Online</text><rect class="bookcase-book" fill="#F2F2E0" height="229" id="book-13706" stroke="black" width="22" x="601" y="1257" /><text dominant-baseline="middle" fill="black" font-family="Arial" font-size="16.5px" transform="rotate(-90,612.0,1482)" x="612.0" y="1482">The Complete Idiot's Guide to </text><rect class="bookcase-book" fill="#F6F2EB" height="234" id="book-13716" stroke="black" width="23" x="623" y="1252" /><text dominant-baseline="middle" fill="black" font-family="Arial" font-size="17.25px" transform="rotate(-90,634.5,1482)" x="634.5" y="1482">The Everything Online Genea</text><rect class="bookcase-book" fill="#87C431" height="279" id="book-21680" stroke="black" width="12" x="646" y="1207" /><text dominant-baseline="middle" fill="black" font-family="Arial" font-size="9.0px" transform="rotate(-90,652.0,1482)" x="652.0" y="1482">Descendents of Albert Henry Kausler and Maria Marguerita Mattes K</text><rect class="bookcase-book" fill="#5E648D" height="279" id="book-26211" stroke="black" width="11" x="658" y="1207" /><text dominant-baseline="middle" fill="white" font-family="Arial" font-size="8.25px" transform="rotate(-90,663.5,1482)" x="663.5" y="1482">A Walk Through Time</text><rect class="bookcase-book" fill="#6F553C" height="229" id="book-13680" stroke="black" width="30" x="669" y="1257" /><text dominant-baseline="middle" fill="white" font-family="Arial" font-size="18px" transform="rotate(-90,684.0,1482)" x="684.0" y="1482">The Ancient World</text><rect class="bookcase-book" fill="#EFA471" height="255" id="book-22962" stroke="black" width="28" x="699" y="1231" /><text dominant-baseline="middle" fill="black" font-family="Arial" font-size="18px" transform="rotate(-90,713.0,1482)" x="713.0" y="1482">In Search of the Indo-Europea</text><rect class="bookcase-book" fill="#4F4838" height="225" id="book-13366" stroke="black" width="20" x="727" y="1261" /><text dominant-baseline="middle" fill="white" font-family="Arial" font-size="15.0px" transform="rotate(-90,737.0,1482)" x="737.0" y="1482">A Short History of Archaeology</text><rect class="bookcase-book" fill="#EDE8D5" height="234" id="book-14048" stroke="black" width="27" x="747" y="1252" /><text dominant-baseline="middle" fill="black" font-family="Arial" font-size="18px" transform="rotate(-90,760.5,1482)" x="760.5" y="1482">Handbook to Life in Ancient </text><rect class="bookcase-book" fill="#2E5A8F" height="196" id="book-14050" stroke="black" width="33" x="774" y="1290" /><text dominant-baseline="middle" fill="white" font-family="Arial" font-size="18px" transform="rotate(-90,790.5,1482)" x="790.5" y="1482">The Oxford History of A</text><rect height="321" width="20" x="50" y="1486" /><rect height="321" width="20" x="830" y="1486" /><rect height="20" width="760" x="70" y="1486" /><rect height="20" width="800" x="50" y="1807" /><rect height="317" width="20" x="50" y="1807" /><rect height="317" width="20" x="830" y="1807" /><rect height="20" width="760" x="70" y="1807" /><rect height="20" width="800" x="50" y="2124" /><rect class="bookcase-book" fill="#E6F3F1" height="223" id="book-22472" stroke="black" width="40" x="84" y="1901" /><text dominant-baseline="middle" fill="black" font-family="Arial" font-size="18px" transform="rotate(-90,104.0,2120)" x="104.0" y="2120">The History of the Jewish </text><rect class="bookcase-book" fill="#87B3E0" height="223" id="book-22473" stroke="black" width="36" x="124" y="1901" /><text dominant-baseline="middle" fill="black" font-family="Arial" font-size="18px" transform="rotate(-90,142.0,2120)" x="142.0" y="2120">The History of the Jewish </text><rect class="bookcase-book" fill="#2C4095" height="223" id="book-22474" stroke="black" width="42" x="160" y="1901" /><text dominant-baseline="middle" fill="white" font-family="Arial" font-size="18px" transform="rotate(-90,181.0,2120)" x="181.0" y="2120">The History of the Jewish </text><rect class="bookcase-book" fill="#358D97" height="223" id="book-22475" stroke="black" width="23" x="202" y="1901" /><text dominant-baseline="middle" fill="white" font-family="Arial" font-size="17.25px" transform="rotate(-90,213.5,2120)" x="213.5" y="2120">The History of the Jewish P</text><rect class="bookcase-book" fill="#665250" height="197" id="book-14069" stroke="black" width="22" x="225" y="1927" /><text dominant-baseline="middle" fill="white" font-family="Arial" font-size="16.5px" transform="rotate(-90,236.0,2120)" x="236.0" y="2120">Ancient Iraq</text><rect class="bookcase-book" fill="#3C4323" height="210" id="book-14040" stroke="black" width="37" x="247" y="1914" /><text dominant-baseline="middle" fill="white" font-family="Arial" font-size="18px" transform="rotate(-90,265.5,2120)" x="265.5" y="2120">The Decline and Fall of th</text><rect class="bookcase-book" fill="#3C4323" height="210" id="book-14041" stroke="black" width="32" x="284" y="1914" /><text dominant-baseline="middle" fill="white" font-family="Arial" font-size="18px" transform="rotate(-90,300.0,2120)" x="300.0" y="2120">The Decline and Fall of th</text><rect class="bookcase-book" fill="#3C4323" height="210" id="book-14042" stroke="black" width="31" x="316" y="1914" /><text dominant-baseline="middle" fill="white" font-family="Arial" font-size="18px" transform="rotate(-90,331.5,2120)" x="331.5" y="2120">The Decline and Fall of th</text><rect class="bookcase-book" fill="#3C4323" height="210" id="book-14043" stroke="black" width="35" x="347" y="1914" /><text dominant-baseline="middle" fill="white" font-family="Arial" font-size="18px" transform="rotate(-90,364.5,2120)" x="364.5" y="2120">The Decline and Fall of th</text><rect class="bookcase-book" fill="#3C4323" height="210" id="book-14044" stroke="black" width="35" x="382" y="1914" /><text dominant-baseline="middle" fill="white" font-family="Arial" font-size="18px" transform="rotate(-90,399.5,2120)" x="399.5" y="2120">The Decline and Fall of th</text><rect class="bookcase-book" fill="#3C4323" height="210" id="book-14045" stroke="black" width="37" x="417" y="1914" /><text dominant-baseline="middle" fill="white" font-family="Arial" font-size="18px" transform="rotate(-90,435.5,2120)" x="435.5" y="2120">The Decline and Fall of th</text><rect class="bookcase-book" fill="#CC1455" height="191" id="book-21072" stroke="black" width="21" x="454" y="1933" /><text dominant-baseline="middle" fill="white" font-family="Arial" font-size="15.75px" transform="rotate(-90,464.5,2120)" x="464.5" y="2120">Greek Life</text><rect class="bookcase-book" fill="#3B3E37" height="273" id="book-22361" stroke="black" width="18" x="475" y="1851" /><text dominant-baseline="middle" fill="white" font-family="Arial" font-size="13.5px" transform="rotate(-90,484.0,2120)" x="484.0" y="2120">Classical Greece</text><rect class="bookcase-book" fill="#5A45A0" height="240" id="book-22428" stroke="black" width="36" x="493" y="1884" /><text dominant-baseline="middle" fill="white" font-family="Arial" font-size="18px" transform="rotate(-90,511.0,2120)" x="511.0" y="2120">The Greek Adventure</text><rect class="bookcase-book" fill="#4F1634" height="261" id="book-14055" stroke="black" width="43" x="529" y="1863" /><text dominant-baseline="middle" fill="white" font-family="Arial" font-size="18px" transform="rotate(-90,550.5,2120)" x="550.5" y="2120">Encyclopedia of North American</text><rect class="bookcase-book" fill="#C69971" height="251" id="book-14054" stroke="black" width="42" x="572" y="1873" /><text dominant-baseline="middle" fill="black" font-family="Arial" font-size="18px" transform="rotate(-90,593.0,2120)" x="593.0" y="2120">A Native American Encycloped</text><rect class="bookcase-book" fill="#8099BC" height="279" id="book-14053" stroke="black" width="24" x="614" y="1845" /><text dominant-baseline="middle" fill="black" font-family="Arial" font-size="18px" transform="rotate(-90,626.0,2120)" x="626.0" y="2120">Encyclopedia of Native American </text><rect class="bookcase-book" fill="#E8EBEE" height="213" id="book-14057" stroke="black" width="14" x="638" y="1911" /><text dominant-baseline="middle" fill="black" font-family="Arial" font-size="10.5px" transform="rotate(-90,645.0,2120)" x="645.0" y="2120">Everyday Life of the North American Indian</text><rect class="bookcase-book" fill="#B67745" height="277" id="book-13808" stroke="black" width="23" x="652" y="1847" /><text dominant-baseline="middle" fill="black" font-family="Arial" font-size="17.25px" transform="rotate(-90,663.5,2120)" x="663.5" y="2120">Western Civilizations</text><rect class="bookcase-book" fill="#C5CBC3" height="216" id="book-20204" stroke="black" width="23" x="675" y="1908" /><text dominant-baseline="middle" fill="black" font-family="Arial" font-size="17.25px" transform="rotate(-90,686.5,2120)" x="686.5" y="2120">The Longman Handbook of</text><rect class="bookcase-book" fill="#FAF0CE" height="204" id="book-22041" stroke="black" width="19" x="698" y="1920" /><text dominant-baseline="middle" fill="black" font-family="Arial" font-size="14.25px" transform="rotate(-90,707.5,2120)" x="707.5" y="2120">The History of Europe in Bite-Si</text><rect class="bookcase-book" fill="#ABA91C" height="229" id="book-20749" stroke="black" width="19" x="717" y="1895" /><text dominant-baseline="middle" fill="black" font-family="Arial" font-size="14.25px" transform="rotate(-90,726.5,2120)" x="726.5" y="2120">Western Civilization</text><rect class="bookcase-book" fill="#C9D4AA" height="229" id="book-20237" stroke="black" width="20" x="736" y="1895" /><text dominant-baseline="middle" fill="black" font-family="Arial" font-size="15.0px" transform="rotate(-90,746.0,2120)" x="746.0" y="2120">The Medieval &amp; Renaissance Wo</text><rect class="bookcase-book" fill="#392F31" height="202" id="book-14020" stroke="black" width="19" x="756" y="1922" /><text dominant-baseline="middle" fill="white" font-family="Arial" font-size="14.25px" transform="rotate(-90,765.5,2120)" x="765.5" y="2120">The Making of the Middle Ages</text><rect height="327" width="20" x="50" y="2124" /><rect height="327" width="20" x="830" y="2124" /><rect height="20" width="760" x="70" y="2124" /><rect height="20" width="800" x="50" y="2451" /><rect class="bookcase-book" fill="#762923" height="283" id="book-20518" stroke="black" width="43" x="84" y="2168" /><text dominant-baseline="middle" fill="white" font-family="Arial" font-size="18px" transform="rotate(-90,105.5,2447)" x="105.5" y="2447">Civilization</text><rect class="bookcase-book" fill="#BEB896" height="283" id="book-14051" stroke="black" width="38" x="127" y="2168" /><text dominant-baseline="middle" fill="black" font-family="Arial" font-size="18px" transform="rotate(-90,146.0,2447)" x="146.0" y="2447">500 Nations</text><rect class="bookcase-book" fill="#543F35" height="283" id="book-16600" stroke="black" width="29" x="165" y="2168" /><text dominant-baseline="middle" fill="white" font-family="Arial" font-size="18px" transform="rotate(-90,179.5,2447)" x="179.5" y="2447">Emperors of Rome</text><rect class="bookcase-book" fill="#FBE255" height="50" id="book-22423" stroke="black" width="162" x="194" y="2401" /><text dominant-baseline="middle" fill="black" font-family="Arial" font-size="18px" x="194" y="2426.0">Swords Around a T</text><rect class="bookcase-book" fill="#B99854" height="208" id="book-14019" stroke="black" width="32" x="194" y="2193" /><text dominant-baseline="middle" fill="black" font-family="Arial" font-size="18px" transform="rotate(-90,210.0,2397)" x="210.0" y="2397">The Proud Tower</text><rect class="bookcase-book" fill="#3F1DF0" height="236" id="book-22060" stroke="black" width="52" x="226" y="2165" /><text dominant-baseline="middle" fill="white" font-family="Arial" font-size="18px" transform="rotate(-90,252.0,2397)" x="252.0" y="2397">The War of the World</text><rect class="bookcase-book" fill="#181810" height="208" id="book-13997" stroke="black" width="26" x="278" y="2193" /><text dominant-baseline="middle" fill="white" font-family="Arial" font-size="18px" transform="rotate(-90,291.0,2397)" x="291.0" y="2397">The Great War and Mode</text><rect class="bookcase-book" fill="#D1925A" height="174" id="book-14039" stroke="black" width="23" x="304" y="2227" /><text dominant-baseline="middle" fill="black" font-family="Arial" font-size="17.25px" transform="rotate(-90,315.5,2397)" x="315.5" y="2397">All Quiet on the West</text><rect class="bookcase-book" fill="#EEEDEA" height="174" id="book-14018" stroke="black" width="28" x="327" y="2227" /><text dominant-baseline="middle" fill="black" font-family="Arial" font-size="18px" transform="rotate(-90,341.0,2397)" x="341.0" y="2397">The Guns of August</text><rect class="bookcase-book" fill="#D5C5A5" height="228" id="book-14811" stroke="black" width="14" x="356" y="2223" /><text dominant-baseline="middle" fill="black" font-family="Arial" font-size="10.5px" transform="rotate(-90,363.0,2447)" x="363.0" y="2447">A History of the Holocaust</text><rect class="bookcase-book" fill="#CAC8C0" height="175" id="book-13382" stroke="black" width="20" x="370" y="2276" /><text dominant-baseline="middle" fill="black" font-family="Arial" font-size="15.0px" transform="rotate(-90,380.0,2447)" x="380.0" y="2447">Anne Frank</text><rect class="bookcase-book" fill="#3F2A26" height="22" id="book-14014" stroke="black" width="203" x="390" y="2429" /><text dominant-baseline="middle" fill="white" font-family="Arial" font-size="16.5px" x="390" y="2440.0">Ordinary Men</text><rect class="bookcase-book" fill="#364396" height="28" id="book-14029" stroke="black" width="196" x="390" y="2401" /><text dominant-baseline="middle" fill="white" font-family="Arial" font-size="18px" x="390" y="2415.0">The Gathering Storm</text><rect class="bookcase-book" fill="#A18D64" height="27" id="book-14030" stroke="black" width="177" x="390" y="2374" /><text dominant-baseline="middle" fill="black" font-family="Arial" font-size="18px" x="390" y="2387.5">Their Finest Hour</text><rect class="bookcase-book" fill="#1D211C" height="196" id="book-14031" stroke="black" width="39" x="390" y="2178" /><text dominant-baseline="middle" fill="white" font-family="Arial" font-size="18px" transform="rotate(-90,409.5,2370)" x="409.5" y="2370">The Grand Alliance</text><rect class="bookcase-book" fill="#568572" height="196" id="book-14032" stroke="black" width="37" x="429" y="2178" /><text dominant-baseline="middle" fill="white" font-family="Arial" font-size="18px" transform="rotate(-90,447.5,2370)" x="447.5" y="2370">The Hinge of Fate</text><rect class="bookcase-book" fill="#2C2228" height="196" id="book-14033" stroke="black" width="35" x="466" y="2178" /><text dominant-baseline="middle" fill="white" font-family="Arial" font-size="18px" transform="rotate(-90,483.5,2370)" x="483.5" y="2370">Closing the Ring</text><rect class="bookcase-book" fill="#BD3C40" height="177" id="book-14034" stroke="black" width="27" x="501" y="2197" /><text dominant-baseline="middle" fill="white" font-family="Arial" font-size="18px" transform="rotate(-90,514.5,2370)" x="514.5" y="2370">Triumph and Tragedy</text><rect class="bookcase-book" fill="#9F8B3E" height="196" id="book-13980" stroke="black" width="17" x="528" y="2178" /><text dominant-baseline="middle" fill="black" font-family="Arial" font-size="12.75px" transform="rotate(-90,536.5,2370)" x="536.5" y="2370">Eminent Victorians</text><rect class="bookcase-book" fill="#7FC238" height="178" id="book-20236" stroke="black" width="22" x="545" y="2196" /><text dominant-baseline="middle" fill="black" font-family="Arial" font-size="16.5px" transform="rotate(-90,556.0,2370)" x="556.0" y="2370">The Lives of the Kings </text><rect class="bookcase-book" fill="#4727B0" height="214" id="book-14035" stroke="black" width="38" x="593" y="2237" /><text dominant-baseline="middle" fill="white" font-family="Arial" font-size="18px" transform="rotate(-90,612.0,2447)" x="612.0" y="2447">The Birth of Britain</text><rect class="bookcase-book" fill="#DCD6BC" height="214" id="book-14036" stroke="black" width="37" x="631" y="2237" /><text dominant-baseline="middle" fill="black" font-family="Arial" font-size="18px" transform="rotate(-90,649.5,2447)" x="649.5" y="2447">The New World</text><rect class="bookcase-book" fill="#A38748" height="214" id="book-14037" stroke="black" width="39" x="668" y="2237" /><text dominant-baseline="middle" fill="black" font-family="Arial" font-size="18px" transform="rotate(-90,687.5,2447)" x="687.5" y="2447">The Age of Revolution</text><rect class="bookcase-book" fill="#AC8949" height="214" id="book-14038" stroke="black" width="37" x="707" y="2237" /><text dominant-baseline="middle" fill="black" font-family="Arial" font-size="18px" transform="rotate(-90,725.5,2447)" x="725.5" y="2447">The Great Democracies</text><rect class="bookcase-book" fill="#A59576" height="253" id="book-14046" stroke="black" width="9" x="744" y="2198" /><text dominant-baseline="middle" fill="black" font-family="Arial" font-size="6.75px" transform="rotate(-90,748.5,2447)" x="748.5" y="2447">History of the Kings of Britain</text><rect class="bookcase-book" fill="#BDB2B3" height="234" id="book-22065" stroke="black" width="24" x="753" y="2217" /><text dominant-baseline="middle" fill="black" font-family="Arial" font-size="18px" transform="rotate(-90,765.0,2447)" x="765.0" y="2447">The Time Traveler's Guide t</text><rect class="bookcase-book" fill="#CE9D6E" height="247" id="book-16593" stroke="black" width="16" x="777" y="2204" /><text dominant-baseline="middle" fill="black" font-family="Arial" font-size="12.0px" transform="rotate(-90,785.0,2447)" x="785.0" y="2447">In Search of the Dark Ages</text><rect class="bookcase-book" fill="#8164A9" height="216" id="book-14001" stroke="black" width="22" x="793" y="2235" /><text dominant-baseline="middle" fill="white" font-family="Arial" font-size="16.5px" transform="rotate(-90,804.0,2447)" x="804.0" y="2447">The Strange Death of Liberal</text><rect height="321" width="20" x="50" y="2451" /><rect height="321" width="20" x="830" y="2451" /><rect height="20" width="760" x="70" y="2451" /><rect height="20" width="800" x="50" y="2772" /><rect class="bookcase-book" fill="#171510" height="234" id="book-22211" stroke="black" width="56" x="84" y="2538" /><text dominant-baseline="middle" fill="white" font-family="Arial" font-size="18px" transform="rotate(-90,112.0,2768)" x="112.0" y="2768">The Rise and Fall of the Thir</text><rect class="bookcase-book" fill="#811D2A" height="229" id="book-13975" stroke="black" width="10" x="140" y="2543" /><text dominant-baseline="middle" fill="white" font-family="Arial" font-size="7.5px" transform="rotate(-90,145.0,2768)" x="145.0" y="2768">Homage to Catalonia</text><rect class="bookcase-book" fill="#BE9E36" height="197" id="book-20205" stroke="black" width="30" x="150" y="2575" /><text dominant-baseline="middle" fill="black" font-family="Arial" font-size="18px" transform="rotate(-90,165.0,2768)" x="165.0" y="2768">The Basque History of t</text><rect class="bookcase-book" fill="#503738" height="197" id="book-13973" stroke="black" width="56" x="180" y="2575" /><text dominant-baseline="middle" fill="white" font-family="Arial" font-size="18px" transform="rotate(-90,208.0,2768)" x="208.0" y="2768">Black Lamb and Grey F</text><rect class="bookcase-book" fill="#BE4A35" height="242" id="book-22376" stroke="black" width="28" x="236" y="2530" /><text dominant-baseline="middle" fill="white" font-family="Arial" font-size="18px" transform="rotate(-90,250.0,2768)" x="250.0" y="2768">The Rape of Nanking</text><rect class="bookcase-book" fill="#DB7953" height="227" id="book-22427" stroke="black" width="13" x="264" y="2545" /><text dominant-baseline="middle" fill="black" font-family="Arial" font-size="9.75px" transform="rotate(-90,270.5,2768)" x="270.5" y="2768">China</text><rect class="bookcase-book" fill="#4E4637" height="195" id="book-13993" stroke="black" width="35" x="277" y="2577" /><text dominant-baseline="middle" fill="white" font-family="Arial" font-size="18px" transform="rotate(-90,294.5,2768)" x="294.5" y="2768">The Gate of Heavenly </text><rect class="bookcase-book" fill="#241690" height="202" id="book-14065" stroke="black" width="20" x="312" y="2570" /><text dominant-baseline="middle" fill="white" font-family="Arial" font-size="15.0px" transform="rotate(-90,322.0,2768)" x="322.0" y="2768">Empires of the Sea</text><rect class="bookcase-book" fill="#BACCD2" height="223" id="book-20203" stroke="black" width="31" x="332" y="2549" /><text dominant-baseline="middle" fill="black" font-family="Arial" font-size="18px" transform="rotate(-90,347.5,2768)" x="347.5" y="2768">A History of the Middle Eas</text><rect class="bookcase-book" fill="#F4F5EB" height="27" id="book-16649" stroke="black" width="209" x="363" y="2745" /><text dominant-baseline="middle" fill="black" font-family="Arial" font-size="18px" x="363" y="2758.5">Invisible Nation</text><rect class="bookcase-book" fill="#A98C70" height="242" id="book-26264" stroke="black" width="40" x="363" y="2503" /><text dominant-baseline="middle" fill="black" font-family="Arial" font-size="18px" transform="rotate(-90,383.0,2741)" x="383.0" y="2741">Rise and Kill First</text><rect class="bookcase-book" fill="#5FE400" height="242" id="book-22295" stroke="black" width="36" x="403" y="2503" /><text dominant-baseline="middle" fill="black" font-family="Arial" font-size="18px" transform="rotate(-90,421.0,2741)" x="421.0" y="2741">Jerusalem in the Twentieth C</text><rect class="bookcase-book" fill="#5E6163" height="242" id="book-22655" stroke="black" width="42" x="439" y="2503" /><text dominant-baseline="middle" fill="white" font-family="Arial" font-size="18px" transform="rotate(-90,460.0,2741)" x="460.0" y="2741">1967</text><rect class="bookcase-book" fill="#EAB9A8" height="228" id="book-22424" stroke="black" width="31" x="481" y="2517" /><text dominant-baseline="middle" fill="black" font-family="Arial" font-size="18px" transform="rotate(-90,496.5,2741)" x="496.5" y="2741">A History of the African Peo</text><rect class="bookcase-book" fill="#9D792A" height="184" id="book-21503" stroke="black" width="11" x="512" y="2561" /><text dominant-baseline="middle" fill="white" font-family="Arial" font-size="8.25px" transform="rotate(-90,517.5,2741)" x="517.5" y="2741">A Century in Nigeria</text><rect class="bookcase-book" fill="#EEE3D6" height="197" id="book-14052" stroke="black" width="9" x="523" y="2548" /><text dominant-baseline="middle" fill="black" font-family="Arial" font-size="6.75px" transform="rotate(-90,527.5,2741)" x="527.5" y="2741">The Vinland Sagas</text><rect class="bookcase-book" fill="#894844" height="201" id="book-13517" stroke="black" width="19" x="532" y="2544" /><text dominant-baseline="middle" fill="white" font-family="Arial" font-size="14.25px" transform="rotate(-90,541.5,2741)" x="541.5" y="2741">In the American Grain</text><rect class="bookcase-book" fill="#F2DBA2" height="201" id="book-22063" stroke="black" width="29" x="572" y="2571" /><text dominant-baseline="middle" fill="black" font-family="Arial" font-size="18px" transform="rotate(-90,586.5,2768)" x="586.5" y="2768">1491</text><rect class="bookcase-book" fill="#BA29D0" height="259" id="book-22429" stroke="black" width="15" x="601" y="2513" /><text dominant-baseline="middle" fill="white" font-family="Arial" font-size="11.25px" transform="rotate(-90,608.5,2768)" x="608.5" y="2768">America's Ancient Cities</text><rect class="bookcase-book" fill="#C1CCD0" height="236" id="book-22049" stroke="black" width="43" x="616" y="2536" /><text dominant-baseline="middle" fill="black" font-family="Arial" font-size="18px" transform="rotate(-90,637.5,2768)" x="637.5" y="2768">The Path Between the Seas</text><rect class="bookcase-book" fill="#B2B2A4" height="242" id="book-22659" stroke="black" width="36" x="659" y="2530" /><text dominant-baseline="middle" fill="black" font-family="Arial" font-size="18px" transform="rotate(-90,677.0,2768)" x="677.0" y="2768">Fantasyland</text><rect class="bookcase-book" fill="#E5DBC8" height="228" id="book-22054" stroke="black" width="19" x="695" y="2544" /><text dominant-baseline="middle" fill="black" font-family="Arial" font-size="14.25px" transform="rotate(-90,704.5,2768)" x="704.5" y="2768">That's Not in My American History </text><rect class="bookcase-book" fill="#674B31" height="179" id="book-13417" stroke="black" width="26" x="714" y="2593" /><text dominant-baseline="middle" fill="white" font-family="Arial" font-size="18px" transform="rotate(-90,727.0,2768)" x="727.0" y="2768">Bury My Heart At Wo</text><rect class="bookcase-book" fill="#A48F79" height="232" id="book-20271" stroke="black" width="26" x="740" y="2540" /><text dominant-baseline="middle" fill="black" font-family="Arial" font-size="18px" transform="rotate(-90,753.0,2768)" x="753.0" y="2768">Nation of Nations</text><rect class="bookcase-book" fill="#224DC9" height="203" id="book-14005" stroke="black" width="32" x="766" y="2569" /><text dominant-baseline="middle" fill="white" font-family="Arial" font-size="18px" transform="rotate(-90,782.0,2768)" x="782.0" y="2768">The American Political T</text><rect height="315" width="20" x="50" y="2772" /><rect height="315" width="20" x="830" y="2772" /><rect height="20" width="760" x="70" y="2772" /><rect height="20" width="800" x="50" y="3087" /><rect class="bookcase-book" fill="#969393" height="233" id="book-16644" stroke="black" width="27" x="84" y="2854" /><text dominant-baseline="middle" fill="black" font-family="Arial" font-size="18px" transform="rotate(-90,97.5,3083)" x="97.5" y="3083">The Populist Persuasion</text><rect class="bookcase-book" fill="#CBAAB3" height="20" id="book-22227" stroke="black" width="216" x="111" y="3067" /><text dominant-baseline="middle" fill="black" font-family="Arial" font-size="15.0px" x="111" y="3077.0">The American Spirit</text><rect class="bookcase-book" fill="#3207B0" height="242" id="book-22052" stroke="black" width="36" x="111" y="2825" /><text dominant-baseline="middle" fill="white" font-family="Arial" font-size="18px" transform="rotate(-90,129.0,3063)" x="129.0" y="3063">1776</text><rect class="bookcase-book" fill="#201512" height="213" id="book-22656" stroke="black" width="29" x="147" y="2854" /><text dominant-baseline="middle" fill="white" font-family="Arial" font-size="18px" transform="rotate(-90,161.5,3063)" x="161.5" y="3063">The Last Stand</text><rect class="bookcase-book" fill="#D9DAC3" height="250" id="book-13965" stroke="black" width="14" x="176" y="2817" /><text dominant-baseline="middle" fill="black" font-family="Arial" font-size="10.5px" transform="rotate(-90,183.0,3063)" x="183.0" y="3063">The Frontier in American History</text><rect class="bookcase-book" fill="#232422" height="187" id="book-14006" stroke="black" width="29" x="190" y="2880" /><text dominant-baseline="middle" fill="white" font-family="Arial" font-size="18px" transform="rotate(-90,204.5,3063)" x="204.5" y="3063">The Contours of Ameri</text><rect class="bookcase-book" fill="#F3F6F5" height="203" id="book-22056" stroke="black" width="35" x="219" y="2864" /><text dominant-baseline="middle" fill="black" font-family="Arial" font-size="18px" transform="rotate(-90,236.5,3063)" x="236.5" y="3063">A People's History of the</text><rect class="bookcase-book" fill="#10528C" height="127" id="book-22964" stroke="black" width="12" x="254" y="2940" /><text dominant-baseline="middle" fill="white" font-family="Arial" font-size="9.0px" transform="rotate(-90,260.0,3063)" x="260.0" y="3063">50 American Revolutions You'r</text><rect class="bookcase-book" fill="#113A5A" height="243" id="book-22074" stroke="black" width="47" x="266" y="2824" /><text dominant-baseline="middle" fill="white" font-family="Arial" font-size="18px" transform="rotate(-90,289.5,3063)" x="289.5" y="3063">The New Dictionary of Cultur</text><rect class="bookcase-book" fill="#141658" height="203" id="book-16400" stroke="black" width="39" x="327" y="2884" /><text dominant-baseline="middle" fill="white" font-family="Arial" font-size="18px" transform="rotate(-90,346.5,3083)" x="346.5" y="3083">In the Time of the Ameri</text><rect class="bookcase-book" fill="#494334" height="242" id="book-22653" stroke="black" width="38" x="366" y="2845" /><text dominant-baseline="middle" fill="white" font-family="Arial" font-size="18px" transform="rotate(-90,385.0,3083)" x="385.0" y="3083">Independence</text><rect class="bookcase-book" fill="#958154" height="242" id="book-22654" stroke="black" width="44" x="404" y="2845" /><text dominant-baseline="middle" fill="black" font-family="Arial" font-size="18px" transform="rotate(-90,426.0,3083)" x="426.0" y="3083">Saratoga</text><rect class="bookcase-book" fill="#211C19" height="204" id="book-14801" stroke="black" width="25" x="448" y="2883" /><text dominant-baseline="middle" fill="white" font-family="Arial" font-size="18px" transform="rotate(-90,460.5,3083)" x="460.5" y="3083">American Gospel</text><rect class="bookcase-book" fill="#EB423C" height="195" id="book-13983" stroke="black" width="27" x="473" y="2892" /><text dominant-baseline="middle" fill="white" font-family="Arial" font-size="18px" transform="rotate(-90,486.5,3083)" x="486.5" y="3083">Jefferson the Virginian</text><rect class="bookcase-book" fill="#FBDF77" height="31" id="book-13984" stroke="black" width="195" x="500" y="3056" /><text dominant-baseline="middle" fill="black" font-family="Arial" font-size="18px" x="500" y="3071.5">Jefferson and the Right</text><rect class="bookcase-book" fill="#13C800" height="224" id="book-13985" stroke="black" width="35" x="500" y="2832" /><text dominant-baseline="middle" fill="white" font-family="Arial" font-size="18px" transform="rotate(-90,517.5,3052)" x="517.5" y="3052">Jefferson and the Ordeal of</text><rect class="bookcase-book" fill="#C3289C" height="224" id="book-13986" stroke="black" width="36" x="535" y="2832" /><text dominant-baseline="middle" fill="white" font-family="Arial" font-size="18px" transform="rotate(-90,553.0,3052)" x="553.0" y="3052">Jefferson the President</text><rect class="bookcase-book" fill="#793C46" height="224" id="book-13987" stroke="black" width="40" x="571" y="2832" /><text dominant-baseline="middle" fill="white" font-family="Arial" font-size="18px" transform="rotate(-90,591.0,3052)" x="591.0" y="3052">Jefferson the President</text><rect class="bookcase-book" fill="#6587B6" height="228" id="book-13988" stroke="black" width="37" x="611" y="2828" /><text dominant-baseline="middle" fill="black" font-family="Arial" font-size="18px" transform="rotate(-90,629.5,3052)" x="629.5" y="3052">The Sage of Monticello</text><rect class="bookcase-book" fill="#D0A449" height="209" id="book-13971" stroke="black" width="35" x="648" y="2847" /><text dominant-baseline="middle" fill="black" font-family="Arial" font-size="18px" transform="rotate(-90,665.5,3052)" x="665.5" y="3052">The Age of Jackson</text><rect class="bookcase-book" fill="#695044" height="209" id="book-22652" stroke="black" width="25" x="695" y="2878" /><text dominant-baseline="middle" fill="white" font-family="Arial" font-size="18px" transform="rotate(-90,707.5,3083)" x="707.5" y="3083">The Civil War</text><rect class="bookcase-book" fill="#543031" height="235" id="book-13966" stroke="black" width="48" x="720" y="2852" /><text dominant-baseline="middle" fill="white" font-family="Arial" font-size="18px" transform="rotate(-90,744.0,3083)" x="744.0" y="3083">The Civil War</text></svg>