<?xml version="1.0" encoding="utf-8" ?>
<svg baseProfile="full" height="3107" version="1.1" width="900" xmlns="http://www.w3.org/2000/svg" xmlns:ev="http://www.w3.org/2001/xml-events" xmlns:xlink="http://www.w3.org/1999/xlink"><defs /><rect height="327" width="20" x="50" y="2116" /><rect height="327" width="20" x="830" y="2116" /><rect height="20" width="760" x="70" y="2116" /><rect height="20" width="800" x="50" y="2443" /><rect class="bookcase-book" fill="#C47126" height="37" id="book-13298" stroke="black" width="216" x="84" y="2406" /><text dominant-baseline="middle" fill="black" font-family="Arial" font-size="18px" x="84" y="2424.5">The Rivers of Zadaa</text><rect class="bookcase-book" fill="#6B4F34" height="41" id="book-13299" stroke="black" width="216" x="84" y="2365" /><text dominant-baseline="middle" fill="white" font-family="Arial" font-size="18px" x="84" y="2385.5">The Quillan Games</text><rect class="bookcase-book" fill="#D37A51" height="46" id="book-13300" stroke="black" width="216" x="84" y="2319" /><text dominant-baseline="middle" fill="black" font-family="Arial" font-size="18px" x="84" y="2342.0">The Pilgrims of Rayne</text><rect class="bookcase-book" fill="#4D18E0" height="40" id="book-13301" stroke="black" width="202" x="84" y="2279" /><text dominant-baseline="middle" fill="white" font-family="Arial" font-size="18px" x="84" y="2299.0">Raven Rise</text><rect class="bookcase-book" fill="#322D1E" height="43" id="book-13302" stroke="black" width="202" x="84" y="2236" /><text dominant-baseline="middle" fill="white" font-family="Arial" font-size="18px" x="84" y="2257.5">The Soldiers of Halla</text><rect class="bookcase-book" fill="#322C1E" height="17" id="book-16276" stroke="black" width="193" x="84" y="2219" /><text dominant-baseline="middle" fill="white" font-family="Arial" font-size="12.75px" x="84" y="2227.5">Book One of the Travelers</text><rect class="bookcase-book" fill="#AD936F" height="17" id="book-16275" stroke="black" width="193" x="84" y="2202" /><text dominant-baseline="middle" fill="black" font-family="Arial" font-size="12.75px" x="84" y="2210.5">Book Two of the Travelers</text><rect class="bookcase-book" fill="#ECC377" height="16" id="book-16274" stroke="black" width="193" x="84" y="2186" /><text dominant-baseline="middle" fill="black" font-family="Arial" font-size="12.0px" x="84" y="2194.0">Book Three of the Travelers</text><rect class="bookcase-book" fill="#F0EECF" height="234" id="book-13317" stroke="black" width="32" x="300" y="2209" /><text dominant-baseline="middle" fill="black" font-family="Arial" font-size="18px" transform="rotate(-90,316.0,2439)" x="316.0" y="2439">Wicked</text><rect class="bookcase-book" fill="#DED6C2" height="209" id="book-13899" stroke="black" width="35" x="332" y="2234" /><text dominant-baseline="middle" fill="black" font-family="Arial" font-size="18px" transform="rotate(-90,349.5,2439)" x="349.5" y="2439">The Naked and the Dead</text><rect class="bookcase-book" fill="#F2EDD7" height="203" id="book-13866" stroke="black" width="29" x="367" y="2240" /><text dominant-baseline="middle" fill="black" font-family="Arial" font-size="18px" transform="rotate(-90,381.5,2439)" x="381.5" y="2439">One Hundred Years of S</text><rect class="bookcase-book" fill="#3262B1" height="203" id="book-20273" stroke="black" width="23" x="396" y="2240" /><text dominant-baseline="middle" fill="white" font-family="Arial" font-size="17.25px" transform="rotate(-90,407.5,2439)" x="407.5" y="2439">Life of Pi</text><rect class="bookcase-book" fill="#3C3E20" height="217" id="book-22750" stroke="black" width="29" x="419" y="2226" /><text dominant-baseline="middle" fill="white" font-family="Arial" font-size="18px" transform="rotate(-90,433.5,2439)" x="433.5" y="2439">Yesterday</text><rect class="bookcase-book" fill="#F8D28E" height="242" id="book-20501" stroke="black" width="51" x="448" y="2201" /><text dominant-baseline="middle" fill="black" font-family="Arial" font-size="18px" transform="rotate(-90,473.5,2439)" x="473.5" y="2439">Fire &amp; Blood</text><rect class="bookcase-book" fill="#BCA210" height="40" id="book-15822" stroke="black" width="157" x="499" y="2403" /><text dominant-baseline="middle" fill="black" font-family="Arial" font-size="18px" x="499" y="2423.0">A Game of Throne</text><rect class="bookcase-book" fill="#284DBD" height="45" id="book-15823" stroke="black" width="157" x="499" y="2358" /><text dominant-baseline="middle" fill="white" font-family="Arial" font-size="18px" x="499" y="2380.5">A Clash of Kings</text><rect class="bookcase-book" fill="#C12F4E" height="52" id="book-15824" stroke="black" width="157" x="499" y="2306" /><text dominant-baseline="middle" fill="white" font-family="Arial" font-size="18px" x="499" y="2332.0">A Storm of Swords</text><rect class="bookcase-book" fill="#AE2D38" height="43" id="book-15825" stroke="black" width="157" x="499" y="2263" /><text dominant-baseline="middle" fill="white" font-family="Arial" font-size="18px" x="499" y="2284.5">A Feast for Crows</text><rect class="bookcase-book" fill="#6F7E1A" height="50" id="book-15826" stroke="black" width="157" x="499" y="2213" /><text dominant-baseline="middle" fill="white" font-family="Arial" font-size="18px" x="499" y="2238.0">A Dance with Drag</text><rect class="bookcase-book" fill="#553930" height="242" id="book-20285" stroke="black" width="29" x="656" y="2201" /><text dominant-baseline="middle" fill="white" font-family="Arial" font-size="18px" transform="rotate(-90,670.5,2439)" x="670.5" y="2439">A Knight of the Seven Kingdo</text><rect class="bookcase-book" fill="#BAB39E" height="175" id="book-13595" stroke="black" width="30" x="685" y="2268" /><text dominant-baseline="middle" fill="black" font-family="Arial" font-size="18px" transform="rotate(-90,700.0,2439)" x="700.0" y="2439">Of Human Bondage</text><rect class="bookcase-book" fill="#EAE4D1" height="192" id="book-21929" stroke="black" width="10" x="715" y="2251" /><text dominant-baseline="middle" fill="black" font-family="Arial" font-size="7.5px" transform="rotate(-90,720.0,2439)" x="720.0" y="2439">The Plant that Ate Dirty Socks</text><rect class="bookcase-book" fill="#DFB5A3" height="203" id="book-16753" stroke="black" width="22" x="725" y="2240" /><text dominant-baseline="middle" fill="black" font-family="Arial" font-size="16.5px" transform="rotate(-90,736.0,2439)" x="736.0" y="2439">Let the Great World Spin</text><rect class="bookcase-book" fill="#422421" height="203" id="book-13873" stroke="black" width="17" x="747" y="2240" /><text dominant-baseline="middle" fill="white" font-family="Arial" font-size="12.75px" transform="rotate(-90,755.5,2439)" x="755.5" y="2439">Blood Meridian</text><rect class="bookcase-book" fill="#292624" height="203" id="book-22760" stroke="black" width="23" x="764" y="2240" /><text dominant-baseline="middle" fill="white" font-family="Arial" font-size="17.25px" transform="rotate(-90,775.5,2439)" x="775.5" y="2439">The Road</text><rect class="bookcase-book" fill="#2019F0" height="203" id="book-13840" stroke="black" width="25" x="787" y="2240" /><text dominant-baseline="middle" fill="white" font-family="Arial" font-size="18px" transform="rotate(-90,799.5,2439)" x="799.5" y="2439">Suttree</text><rect height="324" width="20" x="50" y="2443" /><rect height="324" width="20" x="830" y="2443" /><rect height="20" width="760" x="70" y="2443" /><rect height="20" width="800" x="50" y="2767" /><rect class="bookcase-book" fill="#ACACA1" height="15" id="book-20188" stroke="black" width="203" x="84" y="2752" /><text dominant-baseline="middle" fill="black" font-family="Arial" font-size="11.25px" x="84" y="2759.5">Night Thoughts of a Classical Physicist</text><rect class="bookcase-book" fill="#D1D4D6" height="209" id="book-13921" stroke="black" width="23" x="84" y="2543" /><text dominant-baseline="middle" fill="black" font-family="Arial" font-size="17.25px" transform="rotate(-90,95.5,2748)" x="95.5" y="2748">The Heart is a Lonely Hun</text><rect class="bookcase-book" fill="#C4B49A" height="209" id="book-13406" stroke="black" width="17" x="107" y="2543" /><text dominant-baseline="middle" fill="black" font-family="Arial" font-size="12.75px" transform="rotate(-90,115.5,2748)" x="115.5" y="2748">Billy Budd, Sailor</text><rect class="bookcase-book" fill="#5C534F" height="242" id="book-13576" stroke="black" width="32" x="124" y="2510" /><text dominant-baseline="middle" fill="white" font-family="Arial" font-size="18px" transform="rotate(-90,140.0,2748)" x="140.0" y="2748">Moby Dick;Billy Budd</text><rect class="bookcase-book" fill="#1A62C6" height="242" id="book-22776" stroke="black" width="50" x="156" y="2510" /><text dominant-baseline="middle" fill="white" font-family="Arial" font-size="18px" transform="rotate(-90,181.0,2748)" x="181.0" y="2748">The Host</text><rect class="bookcase-book" fill="#6F634E" height="209" id="book-13605" stroke="black" width="28" x="206" y="2543" /><text dominant-baseline="middle" fill="white" font-family="Arial" font-size="18px" transform="rotate(-90,220.0,2748)" x="220.0" y="2748">Paradise Lost</text><rect class="bookcase-book" fill="#76B870" height="216" id="book-13606" stroke="black" width="5" x="234" y="2536" /><text dominant-baseline="middle" fill="black" font-family="Arial" font-size="3.75px" transform="rotate(-90,236.5,2748)" x="236.5" y="2748">Paradise Regained</text><rect class="bookcase-book" fill="#AFAB97" height="178" id="book-13489" stroke="black" width="33" x="239" y="2574" /><text dominant-baseline="middle" fill="black" font-family="Arial" font-size="18px" transform="rotate(-90,255.5,2748)" x="255.5" y="2748">Gone With the Wind</text><rect class="bookcase-book" fill="#696555" height="237" id="book-13383" stroke="black" width="30" x="287" y="2530" /><text dominant-baseline="middle" fill="white" font-family="Arial" font-size="18px" transform="rotate(-90,302.0,2763)" x="302.0" y="2763">Anne of Green Gables</text><rect class="bookcase-book" fill="#33969A" height="209" id="book-16373" stroke="black" width="24" x="317" y="2558" /><text dominant-baseline="middle" fill="white" font-family="Arial" font-size="18px" transform="rotate(-90,329.0,2763)" x="329.0" y="2763">The 100</text><rect class="bookcase-book" fill="#ECEDE8" height="22" id="book-16374" stroke="black" width="209" x="341" y="2745" /><text dominant-baseline="middle" fill="black" font-family="Arial" font-size="16.5px" x="341" y="2756.0">Day 21</text><rect class="bookcase-book" fill="#2A1E14" height="24" id="book-16375" stroke="black" width="209" x="341" y="2721" /><text dominant-baseline="middle" fill="white" font-family="Arial" font-size="18px" x="341" y="2733.0">Homecoming</text><rect class="bookcase-book" fill="#2C1510" height="19" id="book-13878" stroke="black" width="197" x="341" y="2702" /><text dominant-baseline="middle" fill="white" font-family="Arial" font-size="14.25px" x="341" y="2711.5">Under the Net</text><rect class="bookcase-book" fill="#846A40" height="203" id="book-13835" stroke="black" width="18" x="341" y="2499" /><text dominant-baseline="middle" fill="white" font-family="Arial" font-size="13.5px" transform="rotate(-90,350.0,2698)" x="350.0" y="2698">Pale Fire</text><rect class="bookcase-book" fill="#2E342A" height="203" id="book-13349" stroke="black" width="17" x="359" y="2499" /><text dominant-baseline="middle" fill="white" font-family="Arial" font-size="12.75px" transform="rotate(-90,367.5,2698)" x="367.5" y="2698">A Bend in the River</text><rect class="bookcase-book" fill="#C3BAB0" height="203" id="book-13889" stroke="black" width="26" x="376" y="2499" /><text dominant-baseline="middle" fill="black" font-family="Arial" font-size="18px" transform="rotate(-90,389.0,2698)" x="389.0" y="2698">A House for Mr. Biswas</text><rect class="bookcase-book" fill="#E0E8D9" height="203" id="book-13831" stroke="black" width="31" x="402" y="2499" /><text dominant-baseline="middle" fill="black" font-family="Arial" font-size="18px" transform="rotate(-90,417.5,2698)" x="417.5" y="2698">I Am a Cat</text><rect class="bookcase-book" fill="#BB7A4C" height="191" id="book-15828" stroke="black" width="10" x="433" y="2511" /><text dominant-baseline="middle" fill="black" font-family="Arial" font-size="7.5px" transform="rotate(-90,438.0,2698)" x="438.0" y="2698">Shiloh</text><rect class="bookcase-book" fill="#BC3B31" height="209" id="book-22394" stroke="black" width="30" x="443" y="2493" /><text dominant-baseline="middle" fill="white" font-family="Arial" font-size="18px" transform="rotate(-90,458.0,2698)" x="458.0" y="2698">The Sympathizer</text><rect class="bookcase-book" fill="#EFD0B3" height="203" id="book-16393" stroke="black" width="16" x="473" y="2499" /><text dominant-baseline="middle" fill="black" font-family="Arial" font-size="12.0px" transform="rotate(-90,481.0,2698)" x="481.0" y="2698">Lady with the Lamp</text><rect class="bookcase-book" fill="#DBD5BB" height="235" id="book-16380" stroke="black" width="47" x="550" y="2532" /><text dominant-baseline="middle" fill="black" font-family="Arial" font-size="18px" transform="rotate(-90,573.5,2763)" x="573.5" y="2763">Twelve Years a Slave</text><rect class="bookcase-book" fill="#EFDD94" height="15" id="book-13918" stroke="black" width="203" x="597" y="2752" /><text dominant-baseline="middle" fill="black" font-family="Arial" font-size="11.25px" x="597" y="2759.5">Appointment in Samarra</text><rect class="bookcase-book" fill="#DCD7BF" height="18" id="book-13934" stroke="black" width="203" x="597" y="2734" /><text dominant-baseline="middle" fill="black" font-family="Arial" font-size="13.5px" x="597" y="2743.0">The Things They Carried</text><rect class="bookcase-book" fill="#B2C0D7" height="22" id="book-13347" stroke="black" width="192" x="597" y="2712" /><text dominant-baseline="middle" fill="black" font-family="Arial" font-size="16.5px" x="597" y="2723.0">1984</text><rect class="bookcase-book" fill="#F78CA5" height="13" id="book-13381" stroke="black" width="192" x="597" y="2699" /><text dominant-baseline="middle" fill="black" font-family="Arial" font-size="9.75px" x="597" y="2705.5">Animal Farm</text><rect class="bookcase-book" fill="#2F4160" height="202" id="book-13061" stroke="black" width="27" x="597" y="2497" /><text dominant-baseline="middle" fill="white" font-family="Arial" font-size="18px" transform="rotate(-90,610.5,2695)" x="610.5" y="2695">Eragon</text><rect class="bookcase-book" fill="#C56E6E" height="202" id="book-13062" stroke="black" width="40" x="624" y="2497" /><text dominant-baseline="middle" fill="black" font-family="Arial" font-size="18px" transform="rotate(-90,644.0,2695)" x="644.0" y="2695">Eldest</text><rect class="bookcase-book" fill="#6D5226" height="209" id="book-13063" stroke="black" width="43" x="664" y="2490" /><text dominant-baseline="middle" fill="white" font-family="Arial" font-size="18px" transform="rotate(-90,685.5,2695)" x="685.5" y="2695">Brisingr</text><rect class="bookcase-book" fill="#344130" height="209" id="book-13064" stroke="black" width="51" x="707" y="2490" /><text dominant-baseline="middle" fill="white" font-family="Arial" font-size="18px" transform="rotate(-90,732.5,2695)" x="732.5" y="2695">Inheritance</text><rect class="bookcase-book" fill="#D3A659" height="193" id="book-13945" stroke="black" width="13" x="758" y="2506" /><text dominant-baseline="middle" fill="black" font-family="Arial" font-size="9.75px" transform="rotate(-90,764.5,2695)" x="764.5" y="2695">Bridge to Terabithia</text><rect class="bookcase-book" fill="#4A3B2C" height="201" id="book-13959" stroke="black" width="15" x="771" y="2498" /><text dominant-baseline="middle" fill="white" font-family="Arial" font-size="11.25px" transform="rotate(-90,778.5,2695)" x="778.5" y="2695">Cry, The Beloved Country</text><rect height="320" width="20" x="50" y="2767" /><rect height="320" width="20" x="830" y="2767" /><rect height="20" width="760" x="70" y="2767" /><rect height="20" width="800" x="50" y="3087" /><rect class="bookcase-book" fill="#416000" height="28" id="book-16749" stroke="black" width="217" x="84" y="3059" /><text dominant-baseline="middle" fill="white" font-family="Arial" font-size="18px" x="84" y="3073.0">Witch &amp; Wizard</text><rect class="bookcase-book" fill="#73B164" height="15" id="book-13001" stroke="black" width="193" x="84" y="3044" /><text dominant-baseline="middle" fill="black" font-family="Arial" font-size="11.25px" x="84" y="3051.5">Hatchet</text><rect class="bookcase-book" fill="#E0EAEB" height="208" id="book-15810" stroke="black" width="10" x="84" y="2836" /><text dominant-baseline="middle" fill="black" font-family="Arial" font-size="7.5px" transform="rotate(-90,89.0,3040)" x="89.0" y="3040">Brian's Winter</text><rect class="bookcase-book" fill="#312F29" height="218" id="book-13002" stroke="black" width="16" x="94" y="2826" /><text dominant-baseline="middle" fill="white" font-family="Arial" font-size="12.0px" transform="rotate(-90,102.0,3040)" x="102.0" y="3040">Brian's Return</text><rect class="bookcase-book" fill="#DEDDA2" height="193" id="book-13003" stroke="black" width="8" x="110" y="2851" /><text dominant-baseline="middle" fill="black" font-family="Arial" font-size="6.0px" transform="rotate(-90,114.0,3040)" x="114.0" y="3040">Brian's Hunt</text><rect class="bookcase-book" fill="#F4F8F1" height="203" id="book-13895" stroke="black" width="14" x="118" y="2841" /><text dominant-baseline="middle" fill="black" font-family="Arial" font-size="10.5px" transform="rotate(-90,125.0,3040)" x="125.0" y="3040">The Moviegoer</text><rect class="bookcase-book" fill="#30291D" height="242" id="book-13708" stroke="black" width="46" x="132" y="2802" /><text dominant-baseline="middle" fill="white" font-family="Arial" font-size="18px" transform="rotate(-90,155.0,3040)" x="155.0" y="3040">The Complete Tales &amp; Poems</text><rect class="bookcase-book" fill="#413926" height="209" id="book-20548" stroke="black" width="37" x="178" y="2835" /><text dominant-baseline="middle" fill="white" font-family="Arial" font-size="18px" transform="rotate(-90,196.5,3040)" x="196.5" y="3040">Edgar Allen Poe Short St</text><rect class="bookcase-book" fill="#93BC10" height="209" id="book-22714" stroke="black" width="9" x="215" y="2835" /><text dominant-baseline="middle" fill="black" font-family="Arial" font-size="6.75px" transform="rotate(-90,219.5,3040)" x="219.5" y="3040">The Gold-Bug and Other Tales</text><rect class="bookcase-book" fill="#62422A" height="176" id="book-13699" stroke="black" width="19" x="224" y="2868" /><text dominant-baseline="middle" fill="white" font-family="Arial" font-size="14.25px" transform="rotate(-90,233.5,3040)" x="233.5" y="3040">The Chosen</text><rect class="bookcase-book" fill="#2D1370" height="176" id="book-20211" stroke="black" width="29" x="243" y="2868" /><text dominant-baseline="middle" fill="white" font-family="Arial" font-size="18px" transform="rotate(-90,257.5,3040)" x="257.5" y="3040">Davita's Harp</text><rect class="bookcase-book" fill="#F1E7DA" height="176" id="book-22405" stroke="black" width="23" x="277" y="2883" /><text dominant-baseline="middle" fill="black" font-family="Arial" font-size="17.25px" transform="rotate(-90,288.5,3055)" x="288.5" y="3055">In the Beginning</text><rect class="bookcase-book" fill="#9CAFAE" height="193" id="book-16646" stroke="black" width="26" x="301" y="2894" /><text dominant-baseline="middle" fill="black" font-family="Arial" font-size="18px" transform="rotate(-90,314.0,3083)" x="314.0" y="3083">The Golden Compass</text><rect class="bookcase-book" fill="#211614" height="21" id="book-21967" stroke="black" width="174" x="327" y="3066" /><text dominant-baseline="middle" fill="white" font-family="Arial" font-size="15.75px" x="327" y="3076.5">The Subtle Knife</text><rect class="bookcase-book" fill="#4D4045" height="216" id="book-21966" stroke="black" width="41" x="327" y="2850" /><text dominant-baseline="middle" fill="white" font-family="Arial" font-size="18px" transform="rotate(-90,347.5,3062)" x="347.5" y="3062">The Amber Spyglass</text><rect class="bookcase-book" fill="#A6C4A9" height="203" id="book-13853" stroke="black" width="10" x="368" y="2863" /><text dominant-baseline="middle" fill="black" font-family="Arial" font-size="7.5px" transform="rotate(-90,373.0,3062)" x="373.0" y="3062">The Crying of Lot 49</text><rect class="bookcase-book" fill="#DEAC74" height="244" id="book-21931" stroke="black" width="58" x="378" y="2822" /><text dominant-baseline="middle" fill="black" font-family="Arial" font-size="18px" transform="rotate(-90,407.0,3062)" x="407.0" y="3062">Mason &amp; Dixon</text><rect class="bookcase-book" fill="#B6C8C2" height="235" id="book-22753" stroke="black" width="28" x="436" y="2831" /><text dominant-baseline="middle" fill="black" font-family="Arial" font-size="18px" transform="rotate(-90,450.0,3062)" x="450.0" y="3062">Fifty Mice</text><rect class="bookcase-book" fill="#C6945F" height="209" id="book-16608" stroke="black" width="18" x="464" y="2857" /><text dominant-baseline="middle" fill="black" font-family="Arial" font-size="13.5px" transform="rotate(-90,473.0,3062)" x="473.0" y="3062">Ishmael</text><rect class="bookcase-book" fill="#2C6190" height="176" id="book-22967" stroke="black" width="44" x="501" y="2911" /><text dominant-baseline="middle" fill="white" font-family="Arial" font-size="18px" transform="rotate(-90,523.0,3083)" x="523.0" y="3083">Atlas Shrugged</text><rect class="bookcase-book" fill="#711700" height="176" id="book-16737" stroke="black" width="14" x="545" y="2911" /><text dominant-baseline="middle" fill="white" font-family="Arial" font-size="10.5px" transform="rotate(-90,552.0,3083)" x="552.0" y="3083">The Westing Game</text><rect class="bookcase-book" fill="#3B2013" height="28" id="book-16392" stroke="black" width="236" x="559" y="3059" /><text dominant-baseline="middle" fill="white" font-family="Arial" font-size="18px" x="559" y="3073.0">The Yearling</text><rect class="bookcase-book" fill="#131515" height="17" id="book-13813" stroke="black" width="175" x="559" y="3042" /><text dominant-baseline="middle" fill="white" font-family="Arial" font-size="12.75px" x="559" y="3050.5">Where the Red Fern Grows</text><rect class="bookcase-book" fill="#9BCB00" height="216" id="book-22774" stroke="black" width="38" x="559" y="2826" /><text dominant-baseline="middle" fill="black" font-family="Arial" font-size="18px" transform="rotate(-90,578.0,3038)" x="578.0" y="3038">Virals</text><rect class="bookcase-book" fill="#ADD4DF" height="203" id="book-16755" stroke="black" width="22" x="597" y="2839" /><text dominant-baseline="middle" fill="black" font-family="Arial" font-size="16.5px" transform="rotate(-90,608.0,3038)" x="608.0" y="3038">We Are Unprepared</text><rect class="bookcase-book" fill="#644C3A" height="203" id="book-13814" stroke="black" width="12" x="619" y="2839" /><text dominant-baseline="middle" fill="white" font-family="Arial" font-size="9.0px" transform="rotate(-90,625.0,3038)" x="625.0" y="3038">Wide Sargasso Sea</text><rect class="bookcase-book" fill="#937746" height="170" id="book-15833" stroke="black" width="15" x="631" y="2872" /><text dominant-baseline="middle" fill="white" font-family="Arial" font-size="11.25px" transform="rotate(-90,638.5,3038)" x="638.5" y="3038">The Light in the Forest</text><rect class="bookcase-book" fill="#837A76" height="216" id="book-20329" stroke="black" width="27" x="646" y="2826" /><text dominant-baseline="middle" fill="white" font-family="Arial" font-size="18px" transform="rotate(-90,659.5,3038)" x="659.5" y="3038">Miss Peregrine's Home Fo</text><rect class="bookcase-book" fill="#828282" height="216" id="book-20331" stroke="black" width="24" x="673" y="2826" /><text dominant-baseline="middle" fill="black" font-family="Arial" font-size="18px" transform="rotate(-90,685.0,3038)" x="685.0" y="3038">Hollow City</text><rect class="bookcase-book" fill="#262726" height="216" id="book-20332" stroke="black" width="30" x="697" y="2826" /><text dominant-baseline="middle" fill="white" font-family="Arial" font-size="18px" transform="rotate(-90,712.0,3038)" x="712.0" y="3038">Library of Souls</text><rect class="bookcase-book" fill="#A7997D" height="216" id="book-22633" stroke="black" width="40" x="734" y="2843" /><text dominant-baseline="middle" fill="black" font-family="Arial" font-size="18px" transform="rotate(-90,754.0,3055)" x="754.0" y="3055">A Map of Days</text></svg>