<?xml version="1.0" encoding="utf-8" ?>
<svg baseProfile="full" height="3107" version="1.1" width="500" xmlns="http://www.w3.org/2000/svg" xmlns:ev="http://www.w3.org/2001/xml-events" xmlns:xlink="http://www.w3.org/1999/xlink"><defs /><rect height="327" width="20" x="50" y="2116" /><rect height="327" width="20" x="430" y="2116" /><rect height="20" width="360" x="70" y="2116" /><rect height="20" width="400" x="50" y="2443" /><rect class="bookcase-book" fill="#31322E" height="29" id="book-22634" stroke="black" width="216" x="84" y="2414" /><text dominant-baseline="middle" fill="white" font-family="Arial" font-size="18px" x="84" y="2428.5">The Conference of the Bir</text><rect class="bookcase-book" fill="#181A16" height="42" id="book-22635" stroke="black" width="216" x="84" y="2372" /><text dominant-baseline="middle" fill="white" font-family="Arial" font-size="18px" x="84" y="2393.0">The Desolation of Devil's </text><rect class="bookcase-book" fill="#58846E" height="26" id="book-15812" stroke="black" width="192" x="84" y="2346" /><text dominant-baseline="middle" fill="white" font-family="Arial" font-size="18px" x="84" y="2359.0">The Lightning Thief</text><rect class="bookcase-book" fill="#E57B39" height="20" id="book-13303" stroke="black" width="192" x="84" y="2326" /><text dominant-baseline="middle" fill="black" font-family="Arial" font-size="15.0px" x="84" y="2336.0">The Sea of Monsters</text><rect class="bookcase-book" fill="#3D3211" height="22" id="book-13304" stroke="black" width="192" x="84" y="2304" /><text dominant-baseline="middle" fill="white" font-family="Arial" font-size="16.5px" x="84" y="2315.0">The Titan's Curse</text><rect class="bookcase-book" fill="#5F1810" height="25" id="book-13305" stroke="black" width="192" x="84" y="2279" /><text dominant-baseline="middle" fill="white" font-family="Arial" font-size="18px" x="84" y="2291.5">The Battle of the Labyri</text><rect class="bookcase-book" fill="#27392B" height="26" id="book-13306" stroke="black" width="192" x="84" y="2253" /><text dominant-baseline="middle" fill="white" font-family="Arial" font-size="18px" x="84" y="2266.0">The Last Olympian</text><rect class="bookcase-book" fill="#433D21" height="35" id="book-13052" stroke="black" width="192" x="84" y="2218" /><text dominant-baseline="middle" fill="white" font-family="Arial" font-size="18px" x="84" y="2235.5">The Lost Hero</text><rect class="bookcase-book" fill="#22333B" height="35" id="book-13053" stroke="black" width="192" x="84" y="2183" /><text dominant-baseline="middle" fill="white" font-family="Arial" font-size="18px" x="84" y="2200.5">The Son of Neptune</text><rect class="bookcase-book" fill="#F7C4A8" height="192" id="book-14784" stroke="black" width="38" x="300" y="2251" /><text dominant-baseline="middle" fill="black" font-family="Arial" font-size="18px" transform="rotate(-90,319.0,2439)" x="319.0" y="2439">The Mark of Athena</text><rect class="bookcase-book" fill="#372523" height="192" id="book-14782" stroke="black" width="43" x="338" y="2251" /><text dominant-baseline="middle" fill="white" font-family="Arial" font-size="18px" transform="rotate(-90,359.5,2439)" x="359.5" y="2439">The House of Hades</text><rect height="324" width="20" x="50" y="2443" /><rect height="324" width="20" x="430" y="2443" /><rect height="20" width="360" x="70" y="2443" /><rect height="20" width="400" x="50" y="2767" /><rect class="bookcase-book" fill="#A8C1D5" height="40" id="book-14785" stroke="black" width="216" x="84" y="2727" /><text dominant-baseline="middle" fill="black" font-family="Arial" font-size="18px" x="84" y="2747.0">The Blood of Olympus</text><rect class="bookcase-book" fill="#E81A1F" height="7" id="book-16718" stroke="black" width="192" x="84" y="2720" /><text dominant-baseline="middle" fill="white" font-family="Arial" font-size="5.25px" x="84" y="2723.5">The Best Christmas Pageant Ever</text><rect class="bookcase-book" fill="#EBE6E9" height="209" id="book-16757" stroke="black" width="15" x="84" y="2511" /><text dominant-baseline="middle" fill="black" font-family="Arial" font-size="11.25px" transform="rotate(-90,91.5,2716)" x="91.5" y="2716">Housekeeping</text><rect class="bookcase-book" fill="#7D393A" height="192" id="book-22288" stroke="black" width="10" x="99" y="2528" /><text dominant-baseline="middle" fill="white" font-family="Arial" font-size="7.5px" transform="rotate(-90,104.0,2716)" x="104.0" y="2716">The Forests of Silence</text><rect class="bookcase-book" fill="#534C3F" height="192" id="book-22601" stroke="black" width="9" x="109" y="2528" /><text dominant-baseline="middle" fill="white" font-family="Arial" font-size="6.75px" transform="rotate(-90,113.5,2716)" x="113.5" y="2716">The Lake of Tears</text><rect class="bookcase-book" fill="#DBDAD6" height="192" id="book-22600" stroke="black" width="11" x="118" y="2528" /><text dominant-baseline="middle" fill="black" font-family="Arial" font-size="8.25px" transform="rotate(-90,123.5,2716)" x="123.5" y="2716">City of the Rats</text><rect class="bookcase-book" fill="#241F17" height="192" id="book-22599" stroke="black" width="10" x="129" y="2528" /><text dominant-baseline="middle" fill="white" font-family="Arial" font-size="7.5px" transform="rotate(-90,134.0,2716)" x="134.0" y="2716">The Shifting Sands</text><rect class="bookcase-book" fill="#A97039" height="192" id="book-22598" stroke="black" width="9" x="139" y="2528" /><text dominant-baseline="middle" fill="white" font-family="Arial" font-size="6.75px" transform="rotate(-90,143.5,2716)" x="143.5" y="2716">Dread Mountain</text><rect class="bookcase-book" fill="#226373" height="192" id="book-22597" stroke="black" width="10" x="148" y="2528" /><text dominant-baseline="middle" fill="white" font-family="Arial" font-size="7.5px" transform="rotate(-90,153.0,2716)" x="153.0" y="2716">The Maze of the Beast</text><rect class="bookcase-book" fill="#3D4B70" height="192" id="book-22596" stroke="black" width="11" x="158" y="2528" /><text dominant-baseline="middle" fill="white" font-family="Arial" font-size="8.25px" transform="rotate(-90,163.5,2716)" x="163.5" y="2716">The Valley of the Lost</text><rect class="bookcase-book" fill="#C7724C" height="192" id="book-22289" stroke="black" width="10" x="169" y="2528" /><text dominant-baseline="middle" fill="black" font-family="Arial" font-size="7.5px" transform="rotate(-90,174.0,2716)" x="174.0" y="2716">Return to Del</text><rect class="bookcase-book" fill="#AB927B" height="192" id="book-22604" stroke="black" width="10" x="179" y="2528" /><text dominant-baseline="middle" fill="black" font-family="Arial" font-size="7.5px" transform="rotate(-90,184.0,2716)" x="184.0" y="2716">The Cavern of the Fear</text><rect class="bookcase-book" fill="#CECED1" height="192" id="book-22603" stroke="black" width="10" x="189" y="2528" /><text dominant-baseline="middle" fill="black" font-family="Arial" font-size="7.5px" transform="rotate(-90,194.0,2716)" x="194.0" y="2716">The Isle of Illusion</text><rect class="bookcase-book" fill="#6A6F65" height="192" id="book-22602" stroke="black" width="9" x="199" y="2528" /><text dominant-baseline="middle" fill="white" font-family="Arial" font-size="6.75px" transform="rotate(-90,203.5,2716)" x="203.5" y="2716">The Shadowlands</text><rect class="bookcase-book" fill="#794942" height="192" id="book-22290" stroke="black" width="13" x="208" y="2528" /><text dominant-baseline="middle" fill="white" font-family="Arial" font-size="9.75px" transform="rotate(-90,214.5,2716)" x="214.5" y="2716">Dragon's Nest</text><rect class="bookcase-book" fill="#4E4A31" height="192" id="book-22291" stroke="black" width="13" x="221" y="2528" /><text dominant-baseline="middle" fill="white" font-family="Arial" font-size="9.75px" transform="rotate(-90,227.5,2716)" x="227.5" y="2716">Isle of the Dead</text><rect class="bookcase-book" fill="#545842" height="192" id="book-22292" stroke="black" width="15" x="234" y="2528" /><text dominant-baseline="middle" fill="white" font-family="Arial" font-size="11.25px" transform="rotate(-90,241.5,2716)" x="241.5" y="2716">The Sister of the South</text><rect class="bookcase-book" fill="#AD241B" height="209" id="book-13081" stroke="black" width="25" x="249" y="2511" /><text dominant-baseline="middle" fill="white" font-family="Arial" font-size="18px" transform="rotate(-90,261.5,2716)" x="261.5" y="2716">The Last Jihad</text><rect class="bookcase-book" fill="#265E86" height="209" id="book-13082" stroke="black" width="35" x="300" y="2558" /><text dominant-baseline="middle" fill="white" font-family="Arial" font-size="18px" transform="rotate(-90,317.5,2763)" x="317.5" y="2763">The Last Days</text><rect class="bookcase-book" fill="#43375A" height="209" id="book-13083" stroke="black" width="31" x="335" y="2558" /><text dominant-baseline="middle" fill="white" font-family="Arial" font-size="18px" transform="rotate(-90,350.5,2763)" x="350.5" y="2763">The Ezekiel Option</text><rect class="bookcase-book" fill="#DA8C2A" height="209" id="book-13084" stroke="black" width="27" x="366" y="2558" /><text dominant-baseline="middle" fill="black" font-family="Arial" font-size="18px" transform="rotate(-90,379.5,2763)" x="379.5" y="2763">The Copper Scroll</text><rect height="320" width="20" x="50" y="2767" /><rect height="320" width="20" x="430" y="2767" /><rect height="20" width="360" x="70" y="2767" /><rect height="20" width="400" x="50" y="3087" /><rect class="bookcase-book" fill="#2C4354" height="209" id="book-13085" stroke="black" width="30" x="84" y="2878" /><text dominant-baseline="middle" fill="white" font-family="Arial" font-size="18px" transform="rotate(-90,99.0,3083)" x="99.0" y="3083">Dead Heat</text><rect class="bookcase-book" fill="#8D1E1D" height="229" id="book-13780" stroke="black" width="34" x="114" y="2858" /><text dominant-baseline="middle" fill="white" font-family="Arial" font-size="18px" transform="rotate(-90,131.0,3083)" x="131.0" y="3083">The Twelfth Imam</text><rect class="bookcase-book" fill="#1418B0" height="229" id="book-15811" stroke="black" width="33" x="148" y="2858" /><text dominant-baseline="middle" fill="white" font-family="Arial" font-size="18px" transform="rotate(-90,164.5,3083)" x="164.5" y="3083">The Tehran Initiative</text><rect class="bookcase-book" fill="#637337" height="33" id="book-14792" stroke="black" width="229" x="181" y="3054" /><text dominant-baseline="middle" fill="white" font-family="Arial" font-size="18px" x="181" y="3070.5">Damascus Countdown</text><rect class="bookcase-book" fill="#27B800" height="236" id="book-21972" stroke="black" width="39" x="181" y="2818" /><text dominant-baseline="middle" fill="white" font-family="Arial" font-size="18px" transform="rotate(-90,200.5,3050)" x="200.5" y="3050">The Kremlin Conspiracy</text><rect class="bookcase-book" fill="#318160" height="236" id="book-21973" stroke="black" width="38" x="220" y="2818" /><text dominant-baseline="middle" fill="white" font-family="Arial" font-size="18px" transform="rotate(-90,239.0,3050)" x="239.0" y="3050">The Persian Gamble</text><rect class="bookcase-book" fill="#2528B0" height="236" id="book-21974" stroke="black" width="38" x="258" y="2818" /><text dominant-baseline="middle" fill="white" font-family="Arial" font-size="18px" transform="rotate(-90,277.0,3050)" x="277.0" y="3050">The Jerusalem Assassin</text><rect class="bookcase-book" fill="#2D2165" height="236" id="book-26240" stroke="black" width="37" x="296" y="2818" /><text dominant-baseline="middle" fill="white" font-family="Arial" font-size="18px" transform="rotate(-90,314.5,3050)" x="314.5" y="3050">The Beirut Protocol</text><rect class="bookcase-book" fill="#281614" height="236" id="book-13777" stroke="black" width="36" x="333" y="2818" /><text dominant-baseline="middle" fill="white" font-family="Arial" font-size="18px" transform="rotate(-90,351.0,3050)" x="351.0" y="3050">The Third Target</text><rect class="bookcase-book" fill="#302E31" height="236" id="book-15816" stroke="black" width="36" x="369" y="2818" /><text dominant-baseline="middle" fill="white" font-family="Arial" font-size="18px" transform="rotate(-90,387.0,3050)" x="387.0" y="3050">The First Hostage</text></svg>