<?xml version="1.0" encoding="utf-8" ?>
<svg baseProfile="full" height="3107" version="1.1" width="900" xmlns="http://www.w3.org/2000/svg" xmlns:ev="http://www.w3.org/2001/xml-events" xmlns:xlink="http://www.w3.org/1999/xlink"><defs /><rect height="327" width="20" x="50" y="2116" /><rect height="327" width="20" x="830" y="2116" /><rect height="20" width="760" x="70" y="2116" /><rect height="20" width="800" x="50" y="2443" /><rect class="bookcase-book" fill="#194D8E" height="236" id="book-20156" stroke="black" width="36" x="84" y="2207" /><text dominant-baseline="middle" fill="white" font-family="Arial" font-size="18px" transform="rotate(-90,102.0,2439)" x="102.0" y="2439">Without Warning</text><rect class="bookcase-book" fill="#903736" height="236" id="book-16278" stroke="black" width="42" x="120" y="2207" /><text dominant-baseline="middle" fill="white" font-family="Arial" font-size="18px" transform="rotate(-90,141.0,2439)" x="141.0" y="2439">The Auschwitz Escape</text><rect class="bookcase-book" fill="#CF4971" height="203" id="book-13898" stroke="black" width="16" x="162" y="2240" /><text dominant-baseline="middle" fill="white" font-family="Arial" font-size="12.0px" transform="rotate(-90,170.0,2439)" x="170.0" y="2439">Portnoy's Complaint</text><rect class="bookcase-book" fill="#38414F" height="203" id="book-13015" stroke="black" width="39" x="178" y="2240" /><text dominant-baseline="middle" fill="white" font-family="Arial" font-size="18px" transform="rotate(-90,197.5,2439)" x="197.5" y="2439">Divergent</text><rect class="bookcase-book" fill="#7C825E" height="216" id="book-13016" stroke="black" width="45" x="217" y="2227" /><text dominant-baseline="middle" fill="white" font-family="Arial" font-size="18px" transform="rotate(-90,239.5,2439)" x="239.5" y="2439">Insurgent</text><rect class="bookcase-book" fill="#853B50" height="216" id="book-13017" stroke="black" width="44" x="262" y="2227" /><text dominant-baseline="middle" fill="white" font-family="Arial" font-size="18px" transform="rotate(-90,284.0,2439)" x="284.0" y="2439">Allegiant</text><rect class="bookcase-book" fill="#3B2C19" height="236" id="book-26201" stroke="black" width="32" x="306" y="2207" /><text dominant-baseline="middle" fill="white" font-family="Arial" font-size="18px" transform="rotate(-90,322.0,2439)" x="322.0" y="2439">Harry Potter and the Cursed </text><rect class="bookcase-book" fill="#BC9F87" height="30" id="book-26238" stroke="black" width="276" x="338" y="2413" /><text dominant-baseline="middle" fill="black" font-family="Arial" font-size="18px" x="338" y="2428.0">Harry Potter and the Sorcerer's St</text><rect class="bookcase-book" fill="#535967" height="18" id="book-20835" stroke="black" width="204" x="338" y="2395" /><text dominant-baseline="middle" fill="white" font-family="Arial" font-size="13.5px" x="338" y="2404.0">Harry Potter and the Sorcerer's S</text><rect class="bookcase-book" fill="#372634" height="19" id="book-13046" stroke="black" width="204" x="338" y="2376" /><text dominant-baseline="middle" fill="white" font-family="Arial" font-size="14.25px" x="338" y="2385.5">Harry Potter and the Chamber </text><rect class="bookcase-book" fill="#7084A8" height="23" id="book-13047" stroke="black" width="204" x="338" y="2353" /><text dominant-baseline="middle" fill="black" font-family="Arial" font-size="17.25px" x="338" y="2364.5">Harry Potter and the Priso</text><rect class="bookcase-book" fill="#252127" height="38" id="book-13048" stroke="black" width="204" x="338" y="2315" /><text dominant-baseline="middle" fill="white" font-family="Arial" font-size="18px" x="338" y="2334.0">Harry Potter and the Go</text><rect class="bookcase-book" fill="#AC8E91" height="49" id="book-13049" stroke="black" width="204" x="338" y="2266" /><text dominant-baseline="middle" fill="black" font-family="Arial" font-size="18px" x="338" y="2290.5">Harry Potter and the Ord</text><rect class="bookcase-book" fill="#F485D0" height="34" id="book-13050" stroke="black" width="204" x="338" y="2232" /><text dominant-baseline="middle" fill="black" font-family="Arial" font-size="18px" x="338" y="2249.0">Harry Potter and the Half</text><rect class="bookcase-book" fill="#5B4F5F" height="39" id="book-13051" stroke="black" width="204" x="338" y="2193" /><text dominant-baseline="middle" fill="white" font-family="Arial" font-size="18px" x="338" y="2212.5">Harry Potter and the De</text><rect class="bookcase-book" fill="#DFB670" height="216" id="book-16270" stroke="black" width="13" x="542" y="2197" /><text dominant-baseline="middle" fill="black" font-family="Arial" font-size="9.75px" transform="rotate(-90,548.5,2409)" x="548.5" y="2409">The Tales of Beedle the Bard</text><rect class="bookcase-book" fill="#E1B5AE" height="204" id="book-13880" stroke="black" width="31" x="555" y="2209" /><text dominant-baseline="middle" fill="black" font-family="Arial" font-size="18px" transform="rotate(-90,570.5,2409)" x="570.5" y="2409">Midnight's Children</text><rect class="bookcase-book" fill="#ECCC85" height="211" id="book-13505" stroke="black" width="20" x="586" y="2202" /><text dominant-baseline="middle" fill="black" font-family="Arial" font-size="15.0px" transform="rotate(-90,596.0,2409)" x="596.0" y="2409">Holes</text><rect class="bookcase-book" fill="#82E7B0" height="202" id="book-20537" stroke="black" width="8" x="606" y="2211" /><text dominant-baseline="middle" fill="black" font-family="Arial" font-size="6.0px" transform="rotate(-90,610.0,2409)" x="610.0" y="2409">Le Petit Prince</text><rect class="bookcase-book" fill="#B3B5B2" height="16" id="book-13698" stroke="black" width="172" x="614" y="2427" /><text dominant-baseline="middle" fill="black" font-family="Arial" font-size="12.0px" x="614" y="2435.0">The Catcher in the Rye</text><rect class="bookcase-book" fill="#2E2E2E" height="18" id="book-15813" stroke="black" width="172" x="614" y="2409" /><text dominant-baseline="middle" fill="white" font-family="Arial" font-size="13.5px" x="614" y="2418.0">Franny and Zooey</text><rect class="bookcase-book" fill="#1A1618" height="42" id="book-22230" stroke="black" width="172" x="614" y="2367" /><text dominant-baseline="middle" fill="white" font-family="Arial" font-size="18px" x="614" y="2388.0">Arcanum Unbounde</text><rect class="bookcase-book" fill="#253753" height="28" id="book-22231" stroke="black" width="172" x="614" y="2339" /><text dominant-baseline="middle" fill="white" font-family="Arial" font-size="18px" x="614" y="2353.0">Warbreaker</text><rect class="bookcase-book" fill="#282932" height="29" id="book-20317" stroke="black" width="172" x="614" y="2310" /><text dominant-baseline="middle" fill="white" font-family="Arial" font-size="18px" x="614" y="2324.5">Mistborn</text><rect class="bookcase-book" fill="#242726" height="33" id="book-20318" stroke="black" width="172" x="614" y="2277" /><text dominant-baseline="middle" fill="white" font-family="Arial" font-size="18px" x="614" y="2293.5">The Well of Ascensio</text><rect class="bookcase-book" fill="#232422" height="32" id="book-20319" stroke="black" width="172" x="614" y="2245" /><text dominant-baseline="middle" fill="white" font-family="Arial" font-size="18px" x="614" y="2261.0">The Hero of Ages</text><rect class="bookcase-book" fill="#392313" height="29" id="book-20352" stroke="black" width="172" x="614" y="2216" /><text dominant-baseline="middle" fill="white" font-family="Arial" font-size="18px" x="614" y="2230.5">The Alloy of Law</text><rect class="bookcase-book" fill="#38322E" height="31" id="book-20353" stroke="black" width="172" x="614" y="2185" /><text dominant-baseline="middle" fill="white" font-family="Arial" font-size="18px" x="614" y="2200.5">Shadows of Self</text><rect height="324" width="20" x="50" y="2443" /><rect height="324" width="20" x="830" y="2443" /><rect height="20" width="760" x="70" y="2443" /><rect height="20" width="800" x="50" y="2767" /><rect class="bookcase-book" fill="#1D3037" height="36" id="book-20354" stroke="black" width="172" x="84" y="2731" /><text dominant-baseline="middle" fill="white" font-family="Arial" font-size="18px" x="84" y="2749.0">The Bands of Mourni</text><rect class="bookcase-book" fill="#331A13" height="242" id="book-26266" stroke="black" width="39" x="84" y="2489" /><text dominant-baseline="middle" fill="white" font-family="Arial" font-size="18px" transform="rotate(-90,103.5,2727)" x="103.5" y="2727">The Lost Metal</text><rect class="bookcase-book" fill="#232819" height="172" id="book-20365" stroke="black" width="26" x="123" y="2559" /><text dominant-baseline="middle" fill="white" font-family="Arial" font-size="18px" transform="rotate(-90,136.0,2727)" x="136.0" y="2727">Elantris</text><rect class="bookcase-book" fill="#48291D" height="203" id="book-20366" stroke="black" width="12" x="149" y="2528" /><text dominant-baseline="middle" fill="white" font-family="Arial" font-size="9.0px" transform="rotate(-90,155.0,2727)" x="155.0" y="2727">The Emperor's Soul</text><rect class="bookcase-book" fill="#ECB364" height="232" id="book-20361" stroke="black" width="37" x="161" y="2499" /><text dominant-baseline="middle" fill="black" font-family="Arial" font-size="18px" transform="rotate(-90,179.5,2727)" x="179.5" y="2727">The Way of Kings</text><rect class="bookcase-book" fill="#E9CD81" height="232" id="book-20362" stroke="black" width="53" x="198" y="2499" /><text dominant-baseline="middle" fill="black" font-family="Arial" font-size="18px" transform="rotate(-90,224.5,2727)" x="224.5" y="2727">Words of Radiance</text><rect class="bookcase-book" fill="#8D8062" height="232" id="book-20364" stroke="black" width="55" x="256" y="2535" /><text dominant-baseline="middle" fill="black" font-family="Arial" font-size="18px" transform="rotate(-90,283.5,2763)" x="283.5" y="2763">Oathbringer</text><rect class="bookcase-book" fill="#7E6C5E" height="242" id="book-22270" stroke="black" width="61" x="311" y="2525" /><text dominant-baseline="middle" fill="white" font-family="Arial" font-size="18px" transform="rotate(-90,341.5,2763)" x="341.5" y="2763">Rhythm of War</text><rect class="bookcase-book" fill="#437A54" height="242" id="book-26324" stroke="black" width="41" x="372" y="2525" /><text dominant-baseline="middle" fill="white" font-family="Arial" font-size="18px" transform="rotate(-90,392.5,2763)" x="392.5" y="2763">Tress of the Emerald Sea</text><rect class="bookcase-book" fill="#E9ECE8" height="203" id="book-22555" stroke="black" width="22" x="413" y="2564" /><text dominant-baseline="middle" fill="black" font-family="Arial" font-size="16.5px" transform="rotate(-90,424.0,2763)" x="424.0" y="2763">Blindness</text><rect class="bookcase-book" fill="#6EBC29" height="228" id="book-22717" stroke="black" width="8" x="435" y="2539" /><text dominant-baseline="middle" fill="black" font-family="Arial" font-size="6.0px" transform="rotate(-90,439.0,2763)" x="439.0" y="2763">Scary Stories to Tell in the Dark</text><rect class="bookcase-book" fill="#BEF9FA" height="216" id="book-22696" stroke="black" width="28" x="443" y="2551" /><text dominant-baseline="middle" fill="black" font-family="Arial" font-size="18px" transform="rotate(-90,457.0,2763)" x="457.0" y="2763">The Lovely Bones</text><rect class="bookcase-book" fill="#E16D2F" height="125" id="book-20467" stroke="black" width="9" x="471" y="2642" /><text dominant-baseline="middle" fill="black" font-family="Arial" font-size="6.75px" transform="rotate(-90,475.5,2763)" x="475.5" y="2763">Green Eggs And Ham</text><rect class="bookcase-book" fill="#E56F1D" height="145" id="book-20484" stroke="black" width="12" x="480" y="2622" /><text dominant-baseline="middle" fill="black" font-family="Arial" font-size="9.0px" transform="rotate(-90,486.0,2763)" x="486.0" y="2763">The Shape Of Me And Other Stuff</text><rect class="bookcase-book" fill="#496CE0" height="236" id="book-20462" stroke="black" width="9" x="492" y="2531" /><text dominant-baseline="middle" fill="white" font-family="Arial" font-size="6.75px" transform="rotate(-90,496.5,2763)" x="496.5" y="2763">The Cat in the Hat</text><rect class="bookcase-book" fill="#F2E5B4" height="236" id="book-20473" stroke="black" width="9" x="501" y="2531" /><text dominant-baseline="middle" fill="black" font-family="Arial" font-size="6.75px" transform="rotate(-90,505.5,2763)" x="505.5" y="2763">Fox In Socks</text><rect class="bookcase-book" fill="#F9FCF3" height="236" id="book-20472" stroke="black" width="10" x="510" y="2531" /><text dominant-baseline="middle" fill="black" font-family="Arial" font-size="7.5px" transform="rotate(-90,515.0,2763)" x="515.0" y="2763">Hop on Pop</text><rect class="bookcase-book" fill="#3B3DE0" height="286" id="book-20466" stroke="black" width="9" x="520" y="2481" /><text dominant-baseline="middle" fill="white" font-family="Arial" font-size="6.75px" transform="rotate(-90,524.5,2763)" x="524.5" y="2763">Happy Birthday To You!</text><rect class="bookcase-book" fill="#E0D6D0" height="286" id="book-20459" stroke="black" width="10" x="529" y="2481" /><text dominant-baseline="middle" fill="black" font-family="Arial" font-size="7.5px" transform="rotate(-90,534.0,2763)" x="534.0" y="2763">Horton Hears A Who!</text><rect class="bookcase-book" fill="#F1E5D6" height="286" id="book-20463" stroke="black" width="8" x="539" y="2481" /><text dominant-baseline="middle" fill="black" font-family="Arial" font-size="6.0px" transform="rotate(-90,543.0,2763)" x="543.0" y="2763">How The Grinch Stole Christmas</text><rect class="bookcase-book" fill="#ED1150" height="286" id="book-20461" stroke="black" width="11" x="547" y="2481" /><text dominant-baseline="middle" fill="white" font-family="Arial" font-size="8.25px" transform="rotate(-90,552.5,2763)" x="552.5" y="2763">If I Ran The Circus</text><rect class="bookcase-book" fill="#99DFF6" height="286" id="book-20481" stroke="black" width="10" x="558" y="2481" /><text dominant-baseline="middle" fill="black" font-family="Arial" font-size="7.5px" transform="rotate(-90,563.0,2763)" x="563.0" y="2763">The Lorax</text><rect class="bookcase-book" fill="#C2BDB4" height="286" id="book-20494" stroke="black" width="10" x="568" y="2481" /><text dominant-baseline="middle" fill="black" font-family="Arial" font-size="7.5px" transform="rotate(-90,573.0,2763)" x="573.0" y="2763">Oh, The Places You'll Go!</text><rect class="bookcase-book" fill="#EDF2F1" height="286" id="book-20492" stroke="black" width="12" x="578" y="2481" /><text dominant-baseline="middle" fill="black" font-family="Arial" font-size="9.0px" transform="rotate(-90,584.0,2763)" x="584.0" y="2763">You're Only Old Once!</text><rect class="bookcase-book" fill="#558D90" height="19" id="book-16399" stroke="black" width="175" x="590" y="2748" /><text dominant-baseline="middle" fill="white" font-family="Arial" font-size="14.25px" x="590" y="2757.5">Black Beauty</text><rect class="bookcase-book" fill="#BF25D0" height="209" id="book-26227" stroke="black" width="11" x="590" y="2539" /><text dominant-baseline="middle" fill="white" font-family="Arial" font-size="8.25px" transform="rotate(-90,595.5,2744)" x="595.5" y="2744">Bernard into Battle</text><rect class="bookcase-book" fill="#AA7B47" height="23" id="book-13515" stroke="black" width="164" x="601" y="2725" /><text dominant-baseline="middle" fill="black" font-family="Arial" font-size="17.25px" x="601" y="2736.5">In His Steps</text><rect class="bookcase-book" fill="#F8D09F" height="171" id="book-13474" stroke="black" width="18" x="601" y="2554" /><text dominant-baseline="middle" fill="black" font-family="Arial" font-size="13.5px" transform="rotate(-90,610.0,2721)" x="610.0" y="2721">Frankenstein</text><rect class="bookcase-book" fill="#334C62" height="228" id="book-20350" stroke="black" width="10" x="619" y="2497" /><text dominant-baseline="middle" fill="white" font-family="Arial" font-size="7.5px" transform="rotate(-90,624.0,2721)" x="624.0" y="2721">The Arrival</text><rect class="bookcase-book" fill="#169400" height="228" id="book-22608" stroke="black" width="11" x="629" y="2497" /><text dominant-baseline="middle" fill="white" font-family="Arial" font-size="8.25px" transform="rotate(-90,634.5,2721)" x="634.5" y="2721">The Journey</text><rect class="bookcase-book" fill="#16153B" height="228" id="book-22609" stroke="black" width="10" x="640" y="2497" /><text dominant-baseline="middle" fill="white" font-family="Arial" font-size="7.5px" transform="rotate(-90,645.0,2721)" x="645.0" y="2721">The Destination</text><rect class="bookcase-book" fill="#8F1300" height="235" id="book-13738" stroke="black" width="23" x="650" y="2490" /><text dominant-baseline="middle" fill="white" font-family="Arial" font-size="17.25px" transform="rotate(-90,661.5,2721)" x="661.5" y="2721">The Jungle</text><rect class="bookcase-book" fill="#494946" height="192" id="book-12895" stroke="black" width="11" x="673" y="2533" /><text dominant-baseline="middle" fill="white" font-family="Arial" font-size="8.25px" transform="rotate(-90,678.5,2721)" x="678.5" y="2721">The Bad Beginning</text><rect class="bookcase-book" fill="#413F16" height="192" id="book-12896" stroke="black" width="15" x="684" y="2533" /><text dominant-baseline="middle" fill="white" font-family="Arial" font-size="11.25px" transform="rotate(-90,691.5,2721)" x="691.5" y="2721">The Reptile Room</text><rect class="bookcase-book" fill="#515151" height="186" id="book-12897" stroke="black" width="22" x="699" y="2539" /><text dominant-baseline="middle" fill="white" font-family="Arial" font-size="16.5px" transform="rotate(-90,710.0,2721)" x="710.0" y="2721">The Wide Window</text><rect class="bookcase-book" fill="#9F8D76" height="186" id="book-12898" stroke="black" width="20" x="721" y="2539" /><text dominant-baseline="middle" fill="black" font-family="Arial" font-size="15.0px" transform="rotate(-90,731.0,2721)" x="731.0" y="2721">The Miserable Mill</text><rect class="bookcase-book" fill="#371D1F" height="192" id="book-12899" stroke="black" width="16" x="741" y="2533" /><text dominant-baseline="middle" fill="white" font-family="Arial" font-size="12.0px" transform="rotate(-90,749.0,2721)" x="749.0" y="2721">The Austere Academy</text><rect class="bookcase-book" fill="#73716A" height="186" id="book-12900" stroke="black" width="24" x="765" y="2581" /><text dominant-baseline="middle" fill="white" font-family="Arial" font-size="18px" transform="rotate(-90,777.0,2763)" x="777.0" y="2763">The Ersatz Elevator</text><rect class="bookcase-book" fill="#2C2C26" height="192" id="book-12901" stroke="black" width="18" x="789" y="2575" /><text dominant-baseline="middle" fill="white" font-family="Arial" font-size="13.5px" transform="rotate(-90,798.0,2763)" x="798.0" y="2763">The Vile Village</text><rect height="320" width="20" x="50" y="2767" /><rect height="320" width="20" x="830" y="2767" /><rect height="20" width="760" x="70" y="2767" /><rect height="20" width="800" x="50" y="3087" /><rect class="bookcase-book" fill="#313B2F" height="186" id="book-20984" stroke="black" width="25" x="84" y="2901" /><text dominant-baseline="middle" fill="white" font-family="Arial" font-size="18px" transform="rotate(-90,96.5,3083)" x="96.5" y="3083">The Hostile Hospital</text><rect class="bookcase-book" fill="#918160" height="186" id="book-12903" stroke="black" width="28" x="109" y="2901" /><text dominant-baseline="middle" fill="black" font-family="Arial" font-size="18px" transform="rotate(-90,123.0,3083)" x="123.0" y="3083">The Carnivorous Carni</text><rect class="bookcase-book" fill="#253B32" height="186" id="book-12904" stroke="black" width="31" x="137" y="2901" /><text dominant-baseline="middle" fill="white" font-family="Arial" font-size="18px" transform="rotate(-90,152.5,3083)" x="152.5" y="3083">The Slippery Slope</text><rect class="bookcase-book" fill="#E473B0" height="186" id="book-12905" stroke="black" width="31" x="168" y="2901" /><text dominant-baseline="middle" fill="black" font-family="Arial" font-size="18px" transform="rotate(-90,183.5,3083)" x="183.5" y="3083">The Grim Grotto</text><rect class="bookcase-book" fill="#4D2C2A" height="186" id="book-12906" stroke="black" width="32" x="199" y="2901" /><text dominant-baseline="middle" fill="white" font-family="Arial" font-size="18px" transform="rotate(-90,215.0,3083)" x="215.0" y="3083">The Penultimate Peril</text><rect class="bookcase-book" fill="#898F76" height="33" id="book-12907" stroke="black" width="186" x="231" y="3054" /><text dominant-baseline="middle" fill="black" font-family="Arial" font-size="18px" x="231" y="3070.5">The End</text><rect class="bookcase-book" fill="#C8E5ED" height="203" id="book-13886" stroke="black" width="10" x="231" y="2851" /><text dominant-baseline="middle" fill="black" font-family="Arial" font-size="7.5px" transform="rotate(-90,236.0,3050)" x="236.0" y="3050">The Prime of Miss Jean Brodie</text><rect class="bookcase-book" fill="#6E4739" height="11" id="book-22282" stroke="black" width="172" x="241" y="3043" /><text dominant-baseline="middle" fill="white" font-family="Arial" font-size="8.25px" x="241" y="3048.5">The Sign of the Beaver</text><rect class="bookcase-book" fill="#4D4D36" height="15" id="book-15834" stroke="black" width="172" x="241" y="3028" /><text dominant-baseline="middle" fill="white" font-family="Arial" font-size="11.25px" x="241" y="3035.5">The Witch of Blackbird Pond</text><rect class="bookcase-book" fill="#436E51" height="192" id="book-16621" stroke="black" width="13" x="241" y="2836" /><text dominant-baseline="middle" fill="white" font-family="Arial" font-size="9.75px" transform="rotate(-90,247.5,3024)" x="247.5" y="3024">Loser</text><rect class="bookcase-book" fill="#3AECC0" height="203" id="book-20531" stroke="black" width="14" x="254" y="2825" /><text dominant-baseline="middle" fill="black" font-family="Arial" font-size="10.5px" transform="rotate(-90,261.0,3024)" x="261.0" y="3024">Stargirl</text><rect class="bookcase-book" fill="#CCB188" height="197" id="book-13882" stroke="black" width="29" x="268" y="2831" /><text dominant-baseline="middle" fill="black" font-family="Arial" font-size="18px" transform="rotate(-90,282.5,3024)" x="282.5" y="3024">Angle of Repose</text><rect class="bookcase-book" fill="#D2BF9D" height="179" id="book-13452" stroke="black" width="28" x="297" y="2849" /><text dominant-baseline="middle" fill="black" font-family="Arial" font-size="18px" transform="rotate(-90,311.0,3024)" x="311.0" y="3024">East of Eden</text><rect class="bookcase-book" fill="#B2D192" height="170" id="book-13954" stroke="black" width="10" x="325" y="2858" /><text dominant-baseline="middle" fill="black" font-family="Arial" font-size="7.5px" transform="rotate(-90,330.0,3024)" x="330.0" y="3024">The Red Pony</text><rect class="bookcase-book" fill="#DBCBAE" height="173" id="book-13933" stroke="black" width="23" x="335" y="2855" /><text dominant-baseline="middle" fill="black" font-family="Arial" font-size="17.25px" transform="rotate(-90,346.5,3024)" x="346.5" y="3024">The Grapes of Wrath</text><rect class="bookcase-book" fill="#DCBA90" height="178" id="book-13596" stroke="black" width="9" x="358" y="2850" /><text dominant-baseline="middle" fill="black" font-family="Arial" font-size="6.75px" transform="rotate(-90,362.5,3024)" x="362.5" y="3024">Of Mice and Men</text><rect class="bookcase-book" fill="#EC7745" height="178" id="book-20210" stroke="black" width="19" x="367" y="2850" /><text dominant-baseline="middle" fill="black" font-family="Arial" font-size="14.25px" transform="rotate(-90,376.5,3024)" x="376.5" y="3024">The Winter of Our Disconte</text><rect class="bookcase-book" fill="#CDDFE8" height="188" id="book-13952" stroke="black" width="8" x="386" y="2840" /><text dominant-baseline="middle" fill="black" font-family="Arial" font-size="6.0px" transform="rotate(-90,390.0,3024)" x="390.0" y="3024">The Pearl</text><rect class="bookcase-book" fill="#B20410" height="32" id="book-26220" stroke="black" width="216" x="417" y="3055" /><text dominant-baseline="middle" fill="white" font-family="Arial" font-size="18px" x="417" y="3071.0">The Art of Racing in the R</text><rect class="bookcase-book" fill="#25201A" height="11" id="book-13773" stroke="black" width="176" x="417" y="3044" /><text dominant-baseline="middle" fill="white" font-family="Arial" font-size="8.25px" x="417" y="3049.5">The Strange Case of Dr. Jekyll and Mr. Hyde</text><rect class="bookcase-book" fill="#E7E3BF" height="209" id="book-13789" stroke="black" width="11" x="417" y="2835" /><text dominant-baseline="middle" fill="black" font-family="Arial" font-size="8.25px" transform="rotate(-90,422.5,3040)" x="422.5" y="3040">Treasure Island</text><rect class="bookcase-book" fill="#3C3123" height="10" id="book-16658" stroke="black" width="162" x="428" y="3034" /><text dominant-baseline="middle" fill="white" font-family="Arial" font-size="7.5px" x="428" y="3039.0">Stay Out of the Basement</text><rect class="bookcase-book" fill="#383439" height="10" id="book-16659" stroke="black" width="162" x="428" y="3024" /><text dominant-baseline="middle" fill="white" font-family="Arial" font-size="7.5px" x="428" y="3029.0">Monster Blood</text><rect class="bookcase-book" fill="#3D2E28" height="10" id="book-16660" stroke="black" width="162" x="428" y="3014" /><text dominant-baseline="middle" fill="white" font-family="Arial" font-size="7.5px" x="428" y="3019.0">Say Cheese and Die!</text><rect class="bookcase-book" fill="#62835A" height="10" id="book-16663" stroke="black" width="162" x="428" y="3004" /><text dominant-baseline="middle" fill="white" font-family="Arial" font-size="7.5px" x="428" y="3009.0">Night of the Living Dummy</text><rect class="bookcase-book" fill="#351D2B" height="10" id="book-16664" stroke="black" width="162" x="428" y="2994" /><text dominant-baseline="middle" fill="white" font-family="Arial" font-size="7.5px" x="428" y="2999.0">The Girl Who Cried Monster</text><rect class="bookcase-book" fill="#499CC5" height="10" id="book-16670" stroke="black" width="162" x="428" y="2984" /><text dominant-baseline="middle" fill="black" font-family="Arial" font-size="7.5px" x="428" y="2989.0">The Werewolf of Fever Swamp</text><rect class="bookcase-book" fill="#50451B" height="10" id="book-16671" stroke="black" width="162" x="428" y="2974" /><text dominant-baseline="middle" fill="white" font-family="Arial" font-size="7.5px" x="428" y="2979.0">You Can't Scare Me!</text><rect class="bookcase-book" fill="#8492AA" height="10" id="book-16672" stroke="black" width="162" x="428" y="2964" /><text dominant-baseline="middle" fill="black" font-family="Arial" font-size="7.5px" x="428" y="2969.0">One Day at HorrorLand</text><rect class="bookcase-book" fill="#A89882" height="10" id="book-16674" stroke="black" width="162" x="428" y="2954" /><text dominant-baseline="middle" fill="black" font-family="Arial" font-size="7.5px" x="428" y="2959.0">Monster Blood II</text><rect class="bookcase-book" fill="#49405C" height="10" id="book-16676" stroke="black" width="162" x="428" y="2944" /><text dominant-baseline="middle" fill="white" font-family="Arial" font-size="7.5px" x="428" y="2949.0">The Scarecrow Walks at Midnight</text><rect class="bookcase-book" fill="#26548C" height="10" id="book-16678" stroke="black" width="162" x="428" y="2934" /><text dominant-baseline="middle" fill="white" font-family="Arial" font-size="7.5px" x="428" y="2939.0">Ghost Beach</text><rect class="bookcase-book" fill="#594A36" height="10" id="book-16679" stroke="black" width="162" x="428" y="2924" /><text dominant-baseline="middle" fill="white" font-family="Arial" font-size="7.5px" x="428" y="2929.0">Return of the Mummy</text><rect class="bookcase-book" fill="#6D4777" height="10" id="book-16681" stroke="black" width="162" x="428" y="2914" /><text dominant-baseline="middle" fill="white" font-family="Arial" font-size="7.5px" x="428" y="2919.0">Attack of the Mutant</text><rect class="bookcase-book" fill="#7EA7C2" height="8" id="book-16682" stroke="black" width="162" x="428" y="2906" /><text dominant-baseline="middle" fill="black" font-family="Arial" font-size="6.0px" x="428" y="2910.0">My Hairiest Adventure</text><rect class="bookcase-book" fill="#C1B250" height="10" id="book-16684" stroke="black" width="162" x="428" y="2896" /><text dominant-baseline="middle" fill="black" font-family="Arial" font-size="7.5px" x="428" y="2901.0">The Cuckoo Clock of Doom</text><rect class="bookcase-book" fill="#19191C" height="10" id="book-16686" stroke="black" width="162" x="428" y="2886" /><text dominant-baseline="middle" fill="white" font-family="Arial" font-size="7.5px" x="428" y="2891.0">It Came from Beneath the Sink!</text><rect class="bookcase-book" fill="#B84C64" height="6" id="book-16687" stroke="black" width="162" x="428" y="2880" /><text dominant-baseline="middle" fill="white" font-family="Arial" font-size="4.5px" x="428" y="2883.0">Night of the Living Dummy II</text><rect class="bookcase-book" fill="#231D24" height="10" id="book-16688" stroke="black" width="162" x="428" y="2870" /><text dominant-baseline="middle" fill="white" font-family="Arial" font-size="7.5px" x="428" y="2875.0">The Barking Ghost</text><rect class="bookcase-book" fill="#BAC7CF" height="10" id="book-16689" stroke="black" width="162" x="428" y="2860" /><text dominant-baseline="middle" fill="black" font-family="Arial" font-size="7.5px" x="428" y="2865.0">The Horror at Camp Jellyjam</text><rect class="bookcase-book" fill="#459CC4" height="9" id="book-16690" stroke="black" width="162" x="428" y="2851" /><text dominant-baseline="middle" fill="black" font-family="Arial" font-size="6.75px" x="428" y="2855.5">Revenge of the Lawn Gnomes</text><rect class="bookcase-book" fill="#444429" height="9" id="book-16691" stroke="black" width="162" x="428" y="2842" /><text dominant-baseline="middle" fill="white" font-family="Arial" font-size="6.75px" x="428" y="2846.5">A Shocker on Shock Street</text><rect class="bookcase-book" fill="#4674A2" height="10" id="book-16692" stroke="black" width="162" x="428" y="2832" /><text dominant-baseline="middle" fill="white" font-family="Arial" font-size="7.5px" x="428" y="2837.0">The Haunted Mask II</text><rect class="bookcase-book" fill="#322E23" height="10" id="book-16694" stroke="black" width="162" x="428" y="2822" /><text dominant-baseline="middle" fill="white" font-family="Arial" font-size="7.5px" x="428" y="2827.0">The Abominable Snowman of Pasadena</text><rect class="bookcase-book" fill="#40271C" height="10" id="book-16696" stroke="black" width="162" x="428" y="2812" /><text dominant-baseline="middle" fill="white" font-family="Arial" font-size="7.5px" x="428" y="2817.0">Night of the Living Dummy III</text><rect class="bookcase-book" fill="#1E2C52" height="10" id="book-16701" stroke="black" width="162" x="428" y="2802" /><text dominant-baseline="middle" fill="white" font-family="Arial" font-size="7.5px" x="428" y="2807.0">Say Cheese and Die-Again!</text><rect class="bookcase-book" fill="#224C8D" height="162" id="book-16700" stroke="black" width="9" x="593" y="2893" /><text dominant-baseline="middle" fill="white" font-family="Arial" font-size="6.75px" transform="rotate(-90,597.5,3051)" x="597.5" y="3051">Ghost Camp</text><rect class="bookcase-book" fill="#AB9728" height="162" id="book-16705" stroke="black" width="9" x="602" y="2893" /><text dominant-baseline="middle" fill="black" font-family="Arial" font-size="6.75px" transform="rotate(-90,606.5,3051)" x="606.5" y="3051">Vampire Breath</text><rect class="bookcase-book" fill="#293760" height="162" id="book-16707" stroke="black" width="10" x="611" y="2893" /><text dominant-baseline="middle" fill="white" font-family="Arial" font-size="7.5px" transform="rotate(-90,616.0,3051)" x="616.0" y="3051">Beware, the Snowman</text><rect class="bookcase-book" fill="#443D68" height="162" id="book-16708" stroke="black" width="10" x="621" y="2893" /><text dominant-baseline="middle" fill="white" font-family="Arial" font-size="7.5px" transform="rotate(-90,626.0,3051)" x="626.0" y="3051">How I Learned to Fly</text><rect class="bookcase-book" fill="#74839B" height="162" id="book-16709" stroke="black" width="10" x="633" y="2925" /><text dominant-baseline="middle" fill="black" font-family="Arial" font-size="7.5px" transform="rotate(-90,638.0,3083)" x="638.0" y="3083">Chicken, Chicken</text><rect class="bookcase-book" fill="#D4A0A4" height="162" id="book-16711" stroke="black" width="8" x="643" y="2925" /><text dominant-baseline="middle" fill="black" font-family="Arial" font-size="6.0px" transform="rotate(-90,647.0,3083)" x="647.0" y="3083">The Blob That Ate Everyone</text><rect class="bookcase-book" fill="#198A00" height="261" id="book-13748" stroke="black" width="44" x="651" y="2826" /><text dominant-baseline="middle" fill="white" font-family="Arial" font-size="18px" transform="rotate(-90,673.0,3083)" x="673.0" y="3083">The New Annotated Dracula</text><rect class="bookcase-book" fill="#DBBA80" height="202" id="book-13793" stroke="black" width="25" x="695" y="2885" /><text dominant-baseline="middle" fill="black" font-family="Arial" font-size="18px" transform="rotate(-90,707.5,3083)" x="707.5" y="3083">Uncle Tom's Cabin</text><rect class="bookcase-book" fill="#8FA491" height="216" id="book-13834" stroke="black" width="15" x="720" y="2871" /><text dominant-baseline="middle" fill="black" font-family="Arial" font-size="11.25px" transform="rotate(-90,727.5,3083)" x="727.5" y="3083">Roadside Picnic</text><rect class="bookcase-book" fill="#DA9974" height="203" id="book-13656" stroke="black" width="22" x="735" y="2884" /><text dominant-baseline="middle" fill="black" font-family="Arial" font-size="16.5px" transform="rotate(-90,746.0,3083)" x="746.0" y="3083">Sophie's Choice</text><rect class="bookcase-book" fill="#BDDDE9" height="208" id="book-13841" stroke="black" width="26" x="757" y="2879" /><text dominant-baseline="middle" fill="black" font-family="Arial" font-size="18px" transform="rotate(-90,770.0,3083)" x="770.0" y="3083">Hungry</text><rect class="bookcase-book" fill="#CACBAF" height="202" id="book-16758" stroke="black" width="32" x="783" y="2885" /><text dominant-baseline="middle" fill="black" font-family="Arial" font-size="18px" transform="rotate(-90,799.0,3083)" x="799.0" y="3083">City of Dreams</text></svg>