<?xml version="1.0" encoding="utf-8" ?>
<svg baseProfile="full" height="3107" version="1.1" width="500" xmlns="http://www.w3.org/2000/svg" xmlns:ev="http://www.w3.org/2001/xml-events" xmlns:xlink="http://www.w3.org/1999/xlink"><defs /><rect height="327" width="20" x="50" y="2116" /><rect height="327" width="20" x="430" y="2116" /><rect height="20" width="360" x="70" y="2116" /><rect height="20" width="400" x="50" y="2443" /><rect class="bookcase-book" fill="#5F5147" height="19" id="book-13497" stroke="black" width="180" x="84" y="2424" /><text dominant-baseline="middle" fill="white" font-family="Arial" font-size="14.25px" x="84" y="2433.5">Gulliver's Travels and Other</text><rect class="bookcase-book" fill="#9A9F91" height="190" id="book-22280" stroke="black" width="10" x="84" y="2234" /><text dominant-baseline="middle" fill="black" font-family="Arial" font-size="7.5px" transform="rotate(-90,89.0,2420)" x="89.0" y="2420">The Cay</text><rect class="bookcase-book" fill="#362919" height="197" id="book-16389" stroke="black" width="47" x="94" y="2227" /><text dominant-baseline="middle" fill="white" font-family="Arial" font-size="18px" transform="rotate(-90,117.5,2420)" x="117.5" y="2420">Vanity Fair</text><rect class="bookcase-book" fill="#BBD72C" height="235" id="book-22751" stroke="black" width="32" x="141" y="2189" /><text dominant-baseline="middle" fill="black" font-family="Arial" font-size="18px" transform="rotate(-90,157.0,2420)" x="157.0" y="2420">Syndrome E</text><rect class="bookcase-book" fill="#6A4653" height="178" id="book-26223" stroke="black" width="15" x="173" y="2246" /><text dominant-baseline="middle" fill="white" font-family="Arial" font-size="11.25px" transform="rotate(-90,180.5,2420)" x="180.5" y="2420">Rats Saw God</text><rect class="bookcase-book" fill="#CC6F36" height="208" id="book-13848" stroke="black" width="17" x="188" y="2216" /><text dominant-baseline="middle" fill="black" font-family="Arial" font-size="12.75px" transform="rotate(-90,196.5,2420)" x="196.5" y="2420">Fear and Loathing in Las Vegas</text><rect class="bookcase-book" fill="#A39F5E" height="175" id="book-13732" stroke="black" width="24" x="205" y="2249" /><text dominant-baseline="middle" fill="black" font-family="Arial" font-size="18px" transform="rotate(-90,217.0,2420)" x="217.0" y="2420">The Hobbit</text><rect class="bookcase-book" fill="#D7D6C1" height="175" id="book-13212" stroke="black" width="28" x="229" y="2249" /><text dominant-baseline="middle" fill="black" font-family="Arial" font-size="18px" transform="rotate(-90,243.0,2420)" x="243.0" y="2420">The Fellowship of th</text><rect class="bookcase-book" fill="#232621" height="175" id="book-13213" stroke="black" width="30" x="264" y="2268" /><text dominant-baseline="middle" fill="white" font-family="Arial" font-size="18px" transform="rotate(-90,279.0,2439)" x="279.0" y="2439">The Two Towers</text><rect class="bookcase-book" fill="#9C4E3D" height="175" id="book-13214" stroke="black" width="29" x="294" y="2268" /><text dominant-baseline="middle" fill="white" font-family="Arial" font-size="18px" transform="rotate(-90,308.5,2439)" x="308.5" y="2439">The Return of the Ki</text><rect class="bookcase-book" fill="#8A9099" height="175" id="book-13769" stroke="black" width="27" x="323" y="2268" /><text dominant-baseline="middle" fill="black" font-family="Arial" font-size="18px" transform="rotate(-90,336.5,2439)" x="336.5" y="2439">The Silmarillion</text><rect class="bookcase-book" fill="#73422F" height="196" id="book-13801" stroke="black" width="59" x="350" y="2247" /><text dominant-baseline="middle" fill="white" font-family="Arial" font-size="18px" transform="rotate(-90,379.5,2439)" x="379.5" y="2439">War and Peace</text><rect height="324" width="20" x="50" y="2443" /><rect height="324" width="20" x="430" y="2443" /><rect height="20" width="360" x="70" y="2443" /><rect height="20" width="400" x="50" y="2767" /><rect class="bookcase-book" fill="#EBE0B1" height="201" id="book-13862" stroke="black" width="34" x="84" y="2566" /><text dominant-baseline="middle" fill="black" font-family="Arial" font-size="18px" transform="rotate(-90,101.0,2763)" x="101.0" y="2763">Anna Karenina</text><rect class="bookcase-book" fill="#EAE2C7" height="176" id="book-13676" stroke="black" width="25" x="118" y="2591" /><text dominant-baseline="middle" fill="black" font-family="Arial" font-size="18px" transform="rotate(-90,130.5,2763)" x="130.5" y="2763">The Adventures of To</text><rect class="bookcase-book" fill="#7A7B6F" height="176" id="book-16390" stroke="black" width="16" x="143" y="2591" /><text dominant-baseline="middle" fill="white" font-family="Arial" font-size="12.0px" transform="rotate(-90,151.0,2763)" x="151.0" y="2763">The Prince and the Pauper</text><rect class="bookcase-book" fill="#181710" height="19" id="book-13674" stroke="black" width="211" x="159" y="2748" /><text dominant-baseline="middle" fill="white" font-family="Arial" font-size="14.25px" x="159" y="2757.5">The Adventures of Huckleberry </text><rect class="bookcase-book" fill="#575343" height="235" id="book-13783" stroke="black" width="43" x="159" y="2513" /><text dominant-baseline="middle" fill="white" font-family="Arial" font-size="18px" transform="rotate(-90,180.5,2744)" x="180.5" y="2744">The Works Of Mark Twain</text><rect class="bookcase-book" fill="#B3A886" height="256" id="book-13352" stroke="black" width="30" x="202" y="2492" /><text dominant-baseline="middle" fill="black" font-family="Arial" font-size="18px" transform="rotate(-90,217.0,2744)" x="217.0" y="2744">A Connecticut Yankee in King A</text><rect class="bookcase-book" fill="#F4ECD8" height="203" id="book-13386" stroke="black" width="10" x="232" y="2545" /><text dominant-baseline="middle" fill="black" font-family="Arial" font-size="7.5px" transform="rotate(-90,237.0,2744)" x="237.0" y="2744">Around the World in Eighty Days</text><rect class="bookcase-book" fill="#D8D8D3" height="203" id="book-13791" stroke="black" width="19" x="242" y="2545" /><text dominant-baseline="middle" fill="black" font-family="Arial" font-size="14.25px" transform="rotate(-90,251.5,2744)" x="251.5" y="2744">Twenty Thousand Leagues Un</text><rect class="bookcase-book" fill="#48474F" height="209" id="book-20207" stroke="black" width="21" x="261" y="2539" /><text dominant-baseline="middle" fill="white" font-family="Arial" font-size="15.75px" transform="rotate(-90,271.5,2744)" x="271.5" y="2744">From the Earth to the Moon</text><rect class="bookcase-book" fill="#A0B8B3" height="209" id="book-13537" stroke="black" width="10" x="282" y="2539" /><text dominant-baseline="middle" fill="black" font-family="Arial" font-size="7.5px" transform="rotate(-90,287.0,2744)" x="287.0" y="2744">Journey to the Center of the Earth</text><rect class="bookcase-book" fill="#118E9C" height="229" id="book-26219" stroke="black" width="31" x="292" y="2519" /><text dominant-baseline="middle" fill="white" font-family="Arial" font-size="18px" transform="rotate(-90,307.5,2744)" x="307.5" y="2744">The Aeneid of Virgil</text><rect class="bookcase-book" fill="#DF3C41" height="175" id="book-13935" stroke="black" width="15" x="323" y="2573" /><text dominant-baseline="middle" fill="white" font-family="Arial" font-size="11.25px" transform="rotate(-90,330.5,2744)" x="330.5" y="2744">Slaughterhouse-Five</text><rect class="bookcase-book" fill="#392127" height="170" id="book-13943" stroke="black" width="23" x="338" y="2578" /><text dominant-baseline="middle" fill="white" font-family="Arial" font-size="17.25px" transform="rotate(-90,349.5,2744)" x="349.5" y="2744">The Color Purple</text><rect class="bookcase-book" fill="#E1E3E7" height="233" id="book-13843" stroke="black" width="40" x="370" y="2534" /><text dominant-baseline="middle" fill="black" font-family="Arial" font-size="18px" transform="rotate(-90,390.0,2763)" x="390.0" y="2763">The Pale King</text><rect height="320" width="20" x="50" y="2767" /><rect height="320" width="20" x="430" y="2767" /><rect height="20" width="360" x="70" y="2767" /><rect height="20" width="400" x="50" y="3087" /><rect class="bookcase-book" fill="#EEEBDE" height="202" id="book-13909" stroke="black" width="33" x="84" y="2885" /><text dominant-baseline="middle" fill="black" font-family="Arial" font-size="18px" transform="rotate(-90,100.5,3083)" x="100.5" y="3083">All the King's Men</text><rect class="bookcase-book" fill="#423513" height="202" id="book-26308" stroke="black" width="31" x="117" y="2885" /><text dominant-baseline="middle" fill="white" font-family="Arial" font-size="18px" transform="rotate(-90,132.5,3083)" x="132.5" y="3083">The Little Stranger</text><rect class="bookcase-book" fill="#564B30" height="197" id="book-13410" stroke="black" width="20" x="148" y="2890" /><text dominant-baseline="middle" fill="white" font-family="Arial" font-size="15.0px" transform="rotate(-90,158.0,3083)" x="158.0" y="3083">Brideshead Revisited</text><rect class="bookcase-book" fill="#C9AD6C" height="208" id="book-16279" stroke="black" width="20" x="168" y="2879" /><text dominant-baseline="middle" fill="black" font-family="Arial" font-size="15.0px" transform="rotate(-90,178.0,3083)" x="178.0" y="3083">A Handful of Dust</text><rect class="bookcase-book" fill="#916D58" height="204" id="book-16386" stroke="black" width="24" x="188" y="2883" /><text dominant-baseline="middle" fill="white" font-family="Arial" font-size="18px" transform="rotate(-90,200.0,3083)" x="200.0" y="3083">The Martian</text><rect class="bookcase-book" fill="#F5E9D7" height="174" id="book-13781" stroke="black" width="17" x="212" y="2913" /><text dominant-baseline="middle" fill="black" font-family="Arial" font-size="12.75px" transform="rotate(-90,220.5,3083)" x="220.5" y="3083">The War of the Worlds</text><rect class="bookcase-book" fill="#3E1060" height="203" id="book-13736" stroke="black" width="8" x="229" y="2884" /><text dominant-baseline="middle" fill="white" font-family="Arial" font-size="6.0px" transform="rotate(-90,233.0,3083)" x="233.0" y="3083">The Island of Dr. Moreau</text><rect class="bookcase-book" fill="#3624E0" height="208" id="book-13735" stroke="black" width="8" x="237" y="2879" /><text dominant-baseline="middle" fill="white" font-family="Arial" font-size="6.0px" transform="rotate(-90,241.0,3083)" x="241.0" y="3083">The Invisible Man</text><rect class="bookcase-book" fill="#603556" height="208" id="book-13779" stroke="black" width="7" x="245" y="2879" /><text dominant-baseline="middle" fill="white" font-family="Arial" font-size="5.25px" transform="rotate(-90,248.5,3083)" x="248.5" y="3083">The Time Machine</text><rect class="bookcase-book" fill="#B4AFA6" height="248" id="book-13711" stroke="black" width="6" x="252" y="2839" /><text dominant-baseline="middle" fill="black" font-family="Arial" font-size="4.5px" transform="rotate(-90,255.0,3083)" x="255.0" y="3083">The Day of the Locust</text><rect class="bookcase-book" fill="#653E50" height="210" id="book-13733" stroke="black" width="21" x="258" y="2877" /><text dominant-baseline="middle" fill="white" font-family="Arial" font-size="15.75px" transform="rotate(-90,268.5,3083)" x="268.5" y="3083">The House of Mirth</text><rect class="bookcase-book" fill="#404FD0" height="213" id="book-13678" stroke="black" width="16" x="279" y="2874" /><text dominant-baseline="middle" fill="white" font-family="Arial" font-size="12.0px" transform="rotate(-90,287.0,3083)" x="287.0" y="3083">The Age of Innocence</text><rect class="bookcase-book" fill="#4A6687" height="222" id="book-13463" stroke="black" width="14" x="295" y="2865" /><text dominant-baseline="middle" fill="white" font-family="Arial" font-size="10.5px" transform="rotate(-90,302.0,3083)" x="302.0" y="3083">Ethan Frome</text><rect class="bookcase-book" fill="#F7DABB" height="192" id="book-15831" stroke="black" width="15" x="309" y="2895" /><text dominant-baseline="middle" fill="black" font-family="Arial" font-size="11.25px" transform="rotate(-90,316.5,3083)" x="316.5" y="3083">Charlotte's Web</text><rect class="bookcase-book" fill="#BAB7A7" height="192" id="book-22281" stroke="black" width="10" x="324" y="2895" /><text dominant-baseline="middle" fill="black" font-family="Arial" font-size="7.5px" transform="rotate(-90,329.0,3083)" x="329.0" y="3083">Stuart Little</text><rect class="bookcase-book" fill="#959E80" height="173" id="book-14127" stroke="black" width="36" x="334" y="2914" /><text dominant-baseline="middle" fill="black" font-family="Arial" font-size="18px" transform="rotate(-90,352.0,3083)" x="352.0" y="3083">The Once and Futur</text><rect class="bookcase-book" fill="#171313" height="209" id="book-13850" stroke="black" width="9" x="370" y="2878" /><text dominant-baseline="middle" fill="white" font-family="Arial" font-size="6.75px" transform="rotate(-90,374.5,3083)" x="374.5" y="3083">Leaves of Grass</text><rect class="bookcase-book" fill="#9B3DA4" height="209" id="book-20536" stroke="black" width="28" x="379" y="2878" /><text dominant-baseline="middle" fill="white" font-family="Arial" font-size="18px" transform="rotate(-90,393.0,3083)" x="393.0" y="3083">The Complete Shorter Fi</text></svg>