<?xml version="1.0" encoding="utf-8" ?>
<svg baseProfile="full" height="3107" version="1.1" width="900" xmlns="http://www.w3.org/2000/svg" xmlns:ev="http://www.w3.org/2001/xml-events" xmlns:xlink="http://www.w3.org/1999/xlink"><defs /><rect height="327" width="20" x="50" y="2116" /><rect height="327" width="20" x="830" y="2116" /><rect height="20" width="760" x="70" y="2116" /><rect height="20" width="800" x="50" y="2443" /><rect class="bookcase-book" fill="#211015" height="26" id="book-13760" stroke="black" width="217" x="84" y="2417" /><text dominant-baseline="middle" fill="white" font-family="Arial" font-size="18px" x="84" y="2430.0">The Picture of Dorian Gra</text><rect class="bookcase-book" fill="#83A0CC" height="8" id="book-13908" stroke="black" width="180" x="84" y="2409" /><text dominant-baseline="middle" fill="black" font-family="Arial" font-size="6.0px" x="84" y="2413.0">The Bridge of San Luis Rey</text><rect class="bookcase-book" fill="#2D291F" height="203" id="book-13858" stroke="black" width="17" x="84" y="2206" /><text dominant-baseline="middle" fill="white" font-family="Arial" font-size="12.75px" transform="rotate(-90,92.5,2405)" x="92.5" y="2405">Stoner</text><rect class="bookcase-book" fill="#6B983E" height="190" id="book-22715" stroke="black" width="4" x="101" y="2219" /><text dominant-baseline="middle" fill="black" font-family="Arial" font-size="3.0px" transform="rotate(-90,103.0,2405)" x="103.0" y="2405">The Velveteen Rabbit</text><rect class="bookcase-book" fill="#43422E" height="202" id="book-20208" stroke="black" width="14" x="105" y="2207" /><text dominant-baseline="middle" fill="white" font-family="Arial" font-size="10.5px" transform="rotate(-90,112.0,2405)" x="112.0" y="2405">Mrs. Dalloway</text><rect class="bookcase-book" fill="#524436" height="202" id="book-13839" stroke="black" width="15" x="119" y="2207" /><text dominant-baseline="middle" fill="white" font-family="Arial" font-size="11.25px" transform="rotate(-90,126.5,2405)" x="126.5" y="2405">To the Lighthouse</text><rect class="bookcase-book" fill="#464B48" height="202" id="book-13855" stroke="black" width="13" x="134" y="2207" /><text dominant-baseline="middle" fill="white" font-family="Arial" font-size="9.75px" transform="rotate(-90,140.5,2405)" x="140.5" y="2405">The Waves</text><rect class="bookcase-book" fill="#495A30" height="202" id="book-16323" stroke="black" width="11" x="147" y="2207" /><text dominant-baseline="middle" fill="white" font-family="Arial" font-size="8.25px" transform="rotate(-90,152.5,2405)" x="152.5" y="2405">Gadsby</text><rect class="bookcase-book" fill="#83BADD" height="178" id="book-13939" stroke="black" width="38" x="158" y="2231" /><text dominant-baseline="middle" fill="black" font-family="Arial" font-size="18px" transform="rotate(-90,177.0,2405)" x="177.0" y="2405">The Swiss Family Ro</text><rect class="bookcase-book" fill="#502811" height="209" id="book-22170" stroke="black" width="35" x="196" y="2200" /><text dominant-baseline="middle" fill="white" font-family="Arial" font-size="18px" transform="rotate(-90,213.5,2405)" x="213.5" y="2405">The Fifth Wave</text><rect class="bookcase-book" fill="#C4D6D6" height="219" id="book-20334" stroke="black" width="23" x="231" y="2190" /><text dominant-baseline="middle" fill="black" font-family="Arial" font-size="17.25px" transform="rotate(-90,242.5,2405)" x="242.5" y="2405">The Infinite Sea</text><rect class="bookcase-book" fill="#F9DDC1" height="209" id="book-20335" stroke="black" width="24" x="264" y="2208" /><text dominant-baseline="middle" fill="black" font-family="Arial" font-size="18px" transform="rotate(-90,276.0,2413)" x="276.0" y="2413">The Last Star</text><rect class="bookcase-book" fill="#321C11" height="31" id="book-13942" stroke="black" width="201" x="301" y="2412" /><text dominant-baseline="middle" fill="white" font-family="Arial" font-size="18px" x="301" y="2427.5">The Book Thief</text><rect class="bookcase-book" fill="#4923BE" height="254" id="book-25579" stroke="black" width="10" x="301" y="2158" /><text dominant-baseline="middle" fill="white" font-family="Arial" font-size="7.5px" transform="rotate(-90,306.0,2408)" x="306.0" y="2408">National Geographic</text><rect class="bookcase-book" fill="#588D8A" height="254" id="book-25580" stroke="black" width="11" x="311" y="2158" /><text dominant-baseline="middle" fill="white" font-family="Arial" font-size="8.25px" transform="rotate(-90,316.5,2408)" x="316.5" y="2408">National Geographic</text><rect class="bookcase-book" fill="#72303B" height="254" id="book-25581" stroke="black" width="11" x="322" y="2158" /><text dominant-baseline="middle" fill="white" font-family="Arial" font-size="8.25px" transform="rotate(-90,327.5,2408)" x="327.5" y="2408">National Geographic</text><rect class="bookcase-book" fill="#817E27" height="254" id="book-25582" stroke="black" width="11" x="333" y="2158" /><text dominant-baseline="middle" fill="white" font-family="Arial" font-size="8.25px" transform="rotate(-90,338.5,2408)" x="338.5" y="2408">National Geographic</text><rect class="bookcase-book" fill="#15AD1A" height="254" id="book-25583" stroke="black" width="11" x="344" y="2158" /><text dominant-baseline="middle" fill="white" font-family="Arial" font-size="8.25px" transform="rotate(-90,349.5,2408)" x="349.5" y="2408">National Geographic</text><rect class="bookcase-book" fill="#B1A415" height="254" id="book-25584" stroke="black" width="10" x="355" y="2158" /><text dominant-baseline="middle" fill="black" font-family="Arial" font-size="7.5px" transform="rotate(-90,360.0,2408)" x="360.0" y="2408">National Geographic</text><rect class="bookcase-book" fill="#249D77" height="256" id="book-26458" stroke="black" width="64" x="365" y="2156" /><text dominant-baseline="middle" fill="white" font-family="Arial" font-size="18px" transform="rotate(-90,397.0,2408)" x="397.0" y="2408">National Geographic</text><rect class="bookcase-book" fill="#4C6F8F" height="256" id="book-26450" stroke="black" width="65" x="429" y="2156" /><text dominant-baseline="middle" fill="white" font-family="Arial" font-size="18px" transform="rotate(-90,461.5,2408)" x="461.5" y="2408">National Geographic</text><rect class="bookcase-book" fill="#5E4181" height="67" id="book-26466" stroke="black" width="256" x="502" y="2376" /><text dominant-baseline="middle" fill="white" font-family="Arial" font-size="18px" x="502" y="2409.5">National Geographic</text><rect class="bookcase-book" fill="#9C26C0" height="66" id="book-26471" stroke="black" width="256" x="502" y="2310" /><text dominant-baseline="middle" fill="white" font-family="Arial" font-size="18px" x="502" y="2343.0">National Geographic</text><rect class="bookcase-book" fill="#671386" height="64" id="book-26452" stroke="black" width="256" x="502" y="2246" /><text dominant-baseline="middle" fill="white" font-family="Arial" font-size="18px" x="502" y="2278.0">National Geographic</text><rect class="bookcase-book" fill="#349D5C" height="71" id="book-26451" stroke="black" width="256" x="502" y="2175" /><text dominant-baseline="middle" fill="white" font-family="Arial" font-size="18px" x="502" y="2210.5">National Geographic</text><rect height="324" width="20" x="50" y="2443" /><rect height="324" width="20" x="830" y="2443" /><rect height="20" width="760" x="70" y="2443" /><rect height="20" width="800" x="50" y="2767" /><rect class="bookcase-book" fill="#C4267B" height="68" id="book-26469" stroke="black" width="256" x="84" y="2699" /><text dominant-baseline="middle" fill="white" font-family="Arial" font-size="18px" x="84" y="2733.0">National Geographic</text><rect class="bookcase-book" fill="#58478F" height="66" id="book-26460" stroke="black" width="256" x="84" y="2633" /><text dominant-baseline="middle" fill="white" font-family="Arial" font-size="18px" x="84" y="2666.0">National Geographic</text><rect class="bookcase-book" fill="#7A5940" height="65" id="book-26444" stroke="black" width="256" x="84" y="2568" /><text dominant-baseline="middle" fill="white" font-family="Arial" font-size="18px" x="84" y="2600.5">National Geographic</text><rect class="bookcase-book" fill="#476A85" height="67" id="book-26462" stroke="black" width="256" x="84" y="2501" /><text dominant-baseline="middle" fill="white" font-family="Arial" font-size="18px" x="84" y="2534.5">National Geographic</text><rect class="bookcase-book" fill="#AE4860" height="58" id="book-26465" stroke="black" width="256" x="340" y="2709" /><text dominant-baseline="middle" fill="white" font-family="Arial" font-size="18px" x="340" y="2738.0">National Geographic</text><rect class="bookcase-book" fill="#6D612C" height="52" id="book-26468" stroke="black" width="256" x="340" y="2657" /><text dominant-baseline="middle" fill="white" font-family="Arial" font-size="18px" x="340" y="2683.0">National Geographic</text><rect class="bookcase-book" fill="#489798" height="49" id="book-26441" stroke="black" width="256" x="340" y="2608" /><text dominant-baseline="middle" fill="black" font-family="Arial" font-size="18px" x="340" y="2632.5">National Geographic</text><rect class="bookcase-book" fill="#1A1DA2" height="50" id="book-26447" stroke="black" width="256" x="340" y="2558" /><text dominant-baseline="middle" fill="white" font-family="Arial" font-size="18px" x="340" y="2583.0">National Geographic</text><rect class="bookcase-book" fill="#758150" height="59" id="book-26443" stroke="black" width="256" x="340" y="2499" /><text dominant-baseline="middle" fill="white" font-family="Arial" font-size="18px" x="340" y="2528.5">National Geographic</text><rect class="bookcase-book" fill="#712484" height="256" id="book-26442" stroke="black" width="61" x="596" y="2511" /><text dominant-baseline="middle" fill="white" font-family="Arial" font-size="18px" transform="rotate(-90,626.5,2763)" x="626.5" y="2763">National Geographic</text><rect class="bookcase-book" fill="#34AC86" height="256" id="book-26449" stroke="black" width="62" x="657" y="2511" /><text dominant-baseline="middle" fill="black" font-family="Arial" font-size="18px" transform="rotate(-90,688.0,2763)" x="688.0" y="2763">National Geographic</text><rect class="bookcase-book" fill="#7831C9" height="256" id="book-26445" stroke="black" width="62" x="719" y="2511" /><text dominant-baseline="middle" fill="white" font-family="Arial" font-size="18px" transform="rotate(-90,750.0,2763)" x="750.0" y="2763">National Geographic</text><rect height="320" width="20" x="50" y="2767" /><rect height="320" width="20" x="830" y="2767" /><rect height="20" width="760" x="70" y="2767" /><rect height="20" width="800" x="50" y="3087" /><rect class="bookcase-book" fill="#617B8F" height="256" id="book-26470" stroke="black" width="60" x="84" y="2831" /><text dominant-baseline="middle" fill="white" font-family="Arial" font-size="18px" transform="rotate(-90,114.0,3083)" x="114.0" y="3083">National Geographic</text><rect class="bookcase-book" fill="#45AFB5" height="256" id="book-26467" stroke="black" width="61" x="144" y="2831" /><text dominant-baseline="middle" fill="black" font-family="Arial" font-size="18px" transform="rotate(-90,174.5,3083)" x="174.5" y="3083">National Geographic</text><rect class="bookcase-book" fill="#5519BD" height="254" id="book-25855" stroke="black" width="7" x="205" y="2833" /><text dominant-baseline="middle" fill="white" font-family="Arial" font-size="5.25px" transform="rotate(-90,208.5,3083)" x="208.5" y="3083">National Geographic</text><rect class="bookcase-book" fill="#A51C30" height="254" id="book-25856" stroke="black" width="8" x="212" y="2833" /><text dominant-baseline="middle" fill="white" font-family="Arial" font-size="6.0px" transform="rotate(-90,216.0,3083)" x="216.0" y="3083">National Geographic</text><rect class="bookcase-book" fill="#1D21A5" height="254" id="book-25857" stroke="black" width="8" x="220" y="2833" /><text dominant-baseline="middle" fill="white" font-family="Arial" font-size="6.0px" transform="rotate(-90,224.0,3083)" x="224.0" y="3083">National Geographic</text><rect class="bookcase-book" fill="#80554C" height="254" id="book-25860" stroke="black" width="8" x="228" y="2833" /><text dominant-baseline="middle" fill="white" font-family="Arial" font-size="6.0px" transform="rotate(-90,232.0,3083)" x="232.0" y="3083">National Geographic</text><rect class="bookcase-book" fill="#C8922D" height="254" id="book-25864" stroke="black" width="7" x="236" y="2833" /><text dominant-baseline="middle" fill="black" font-family="Arial" font-size="5.25px" transform="rotate(-90,239.5,3083)" x="239.5" y="3083">National Geographic</text><rect class="bookcase-book" fill="#4C3771" height="254" id="book-25873" stroke="black" width="7" x="243" y="2833" /><text dominant-baseline="middle" fill="white" font-family="Arial" font-size="5.25px" transform="rotate(-90,246.5,3083)" x="246.5" y="3083">National Geographic</text><rect class="bookcase-book" fill="#2DA328" height="254" id="book-25879" stroke="black" width="7" x="250" y="2833" /><text dominant-baseline="middle" fill="white" font-family="Arial" font-size="5.25px" transform="rotate(-90,253.5,3083)" x="253.5" y="3083">National Geographic</text><rect class="bookcase-book" fill="#9B4590" height="254" id="book-25915" stroke="black" width="8" x="257" y="2833" /><text dominant-baseline="middle" fill="white" font-family="Arial" font-size="6.0px" transform="rotate(-90,261.0,3083)" x="261.0" y="3083">National Geographic</text><rect class="bookcase-book" fill="#5D8844" height="254" id="book-25916" stroke="black" width="9" x="265" y="2833" /><text dominant-baseline="middle" fill="white" font-family="Arial" font-size="6.75px" transform="rotate(-90,269.5,3083)" x="269.5" y="3083">National Geographic</text><rect class="bookcase-book" fill="#519069" height="254" id="book-25918" stroke="black" width="10" x="274" y="2833" /><text dominant-baseline="middle" fill="white" font-family="Arial" font-size="7.5px" transform="rotate(-90,279.0,3083)" x="279.0" y="3083">National Geographic</text><rect class="bookcase-book" fill="#9B6840" height="254" id="book-25919" stroke="black" width="9" x="284" y="2833" /><text dominant-baseline="middle" fill="white" font-family="Arial" font-size="6.75px" transform="rotate(-90,288.5,3083)" x="288.5" y="3083">National Geographic</text><rect class="bookcase-book" fill="#905818" height="254" id="book-25921" stroke="black" width="8" x="293" y="2833" /><text dominant-baseline="middle" fill="white" font-family="Arial" font-size="6.0px" transform="rotate(-90,297.0,3083)" x="297.0" y="3083">National Geographic</text><rect class="bookcase-book" fill="#174982" height="254" id="book-25922" stroke="black" width="8" x="301" y="2833" /><text dominant-baseline="middle" fill="white" font-family="Arial" font-size="6.0px" transform="rotate(-90,305.0,3083)" x="305.0" y="3083">National Geographic</text><rect class="bookcase-book" fill="#447028" height="8" id="book-25923" stroke="black" width="254" x="309" y="3079" /><text dominant-baseline="middle" fill="white" font-family="Arial" font-size="6.0px" x="309" y="3083.0">National Geographic</text><rect class="bookcase-book" fill="#AB22B0" height="9" id="book-25924" stroke="black" width="254" x="309" y="3070" /><text dominant-baseline="middle" fill="white" font-family="Arial" font-size="6.75px" x="309" y="3074.5">National Geographic</text><rect class="bookcase-book" fill="#C328B3" height="9" id="book-25925" stroke="black" width="254" x="309" y="3061" /><text dominant-baseline="middle" fill="white" font-family="Arial" font-size="6.75px" x="309" y="3065.5">National Geographic</text><rect class="bookcase-book" fill="#3A118D" height="256" id="book-26455" stroke="black" width="59" x="309" y="2805" /><text dominant-baseline="middle" fill="white" font-family="Arial" font-size="18px" transform="rotate(-90,338.5,3057)" x="338.5" y="3057">National Geographic</text><rect class="bookcase-book" fill="#C5C4A0" height="254" id="book-26001" stroke="black" width="8" x="368" y="2807" /><text dominant-baseline="middle" fill="black" font-family="Arial" font-size="6.0px" transform="rotate(-90,372.0,3057)" x="372.0" y="3057">National Geographic</text><rect class="bookcase-book" fill="#AB169A" height="254" id="book-22865" stroke="black" width="7" x="376" y="2807" /><text dominant-baseline="middle" fill="white" font-family="Arial" font-size="5.25px" transform="rotate(-90,379.5,3057)" x="379.5" y="3057">National Geographic</text><rect class="bookcase-book" fill="#769C00" height="254" id="book-22866" stroke="black" width="8" x="383" y="2807" /><text dominant-baseline="middle" fill="black" font-family="Arial" font-size="6.0px" transform="rotate(-90,387.0,3057)" x="387.0" y="3057">National Geographic</text><rect class="bookcase-book" fill="#41A990" height="254" id="book-22867" stroke="black" width="7" x="391" y="2807" /><text dominant-baseline="middle" fill="black" font-family="Arial" font-size="5.25px" transform="rotate(-90,394.5,3057)" x="394.5" y="3057">National Geographic</text><rect class="bookcase-book" fill="#A5A753" height="254" id="book-22868" stroke="black" width="6" x="398" y="2807" /><text dominant-baseline="middle" fill="black" font-family="Arial" font-size="4.5px" transform="rotate(-90,401.0,3057)" x="401.0" y="3057">National Geographic</text><rect class="bookcase-book" fill="#CB0530" height="254" id="book-22869" stroke="black" width="7" x="404" y="2807" /><text dominant-baseline="middle" fill="white" font-family="Arial" font-size="5.25px" transform="rotate(-90,407.5,3057)" x="407.5" y="3057">National Geographic</text><rect class="bookcase-book" fill="#1D9543" height="254" id="book-22870" stroke="black" width="7" x="411" y="2807" /><text dominant-baseline="middle" fill="white" font-family="Arial" font-size="5.25px" transform="rotate(-90,414.5,3057)" x="414.5" y="3057">National Geographic</text><rect class="bookcase-book" fill="#1490E0" height="254" id="book-22871" stroke="black" width="7" x="418" y="2807" /><text dominant-baseline="middle" fill="white" font-family="Arial" font-size="5.25px" transform="rotate(-90,421.5,3057)" x="421.5" y="3057">National Geographic</text><rect class="bookcase-book" fill="#98A026" height="254" id="book-22872" stroke="black" width="7" x="425" y="2807" /><text dominant-baseline="middle" fill="black" font-family="Arial" font-size="5.25px" transform="rotate(-90,428.5,3057)" x="428.5" y="3057">National Geographic</text><rect class="bookcase-book" fill="#337F4F" height="254" id="book-26004" stroke="black" width="7" x="432" y="2807" /><text dominant-baseline="middle" fill="white" font-family="Arial" font-size="5.25px" transform="rotate(-90,435.5,3057)" x="435.5" y="3057">National Geographic</text><rect class="bookcase-book" fill="#B19D10" height="254" id="book-26005" stroke="black" width="8" x="439" y="2807" /><text dominant-baseline="middle" fill="black" font-family="Arial" font-size="6.0px" transform="rotate(-90,443.0,3057)" x="443.0" y="3057">National Geographic</text><rect class="bookcase-book" fill="#8F6168" height="254" id="book-26006" stroke="black" width="9" x="447" y="2807" /><text dominant-baseline="middle" fill="white" font-family="Arial" font-size="6.75px" transform="rotate(-90,451.5,3057)" x="451.5" y="3057">National Geographic</text><rect class="bookcase-book" fill="#A24E76" height="254" id="book-22873" stroke="black" width="8" x="456" y="2807" /><text dominant-baseline="middle" fill="white" font-family="Arial" font-size="6.0px" transform="rotate(-90,460.0,3057)" x="460.0" y="3057">National Geographic</text><rect class="bookcase-book" fill="#BD74E0" height="254" id="book-26007" stroke="black" width="7" x="464" y="2807" /><text dominant-baseline="middle" fill="black" font-family="Arial" font-size="5.25px" transform="rotate(-90,467.5,3057)" x="467.5" y="3057">National Geographic</text><rect class="bookcase-book" fill="#909E47" height="254" id="book-22874" stroke="black" width="8" x="471" y="2807" /><text dominant-baseline="middle" fill="black" font-family="Arial" font-size="6.0px" transform="rotate(-90,475.0,3057)" x="475.0" y="3057">National Geographic</text><rect class="bookcase-book" fill="#567D9E" height="254" id="book-22875" stroke="black" width="7" x="479" y="2807" /><text dominant-baseline="middle" fill="white" font-family="Arial" font-size="5.25px" transform="rotate(-90,482.5,3057)" x="482.5" y="3057">National Geographic</text><rect class="bookcase-book" fill="#886053" height="254" id="book-22876" stroke="black" width="8" x="486" y="2807" /><text dominant-baseline="middle" fill="white" font-family="Arial" font-size="6.0px" transform="rotate(-90,490.0,3057)" x="490.0" y="3057">National Geographic</text><rect class="bookcase-book" fill="#4EA842" height="254" id="book-22877" stroke="black" width="7" x="494" y="2807" /><text dominant-baseline="middle" fill="black" font-family="Arial" font-size="5.25px" transform="rotate(-90,497.5,3057)" x="497.5" y="3057">National Geographic</text><rect class="bookcase-book" fill="#729B30" height="254" id="book-22878" stroke="black" width="7" x="501" y="2807" /><text dominant-baseline="middle" fill="black" font-family="Arial" font-size="5.25px" transform="rotate(-90,504.5,3057)" x="504.5" y="3057">National Geographic</text><rect class="bookcase-book" fill="#BC9E3E" height="254" id="book-26008" stroke="black" width="7" x="508" y="2807" /><text dominant-baseline="middle" fill="black" font-family="Arial" font-size="5.25px" transform="rotate(-90,511.5,3057)" x="511.5" y="3057">National Geographic</text><rect class="bookcase-book" fill="#248289" height="254" id="book-22879" stroke="black" width="7" x="515" y="2807" /><text dominant-baseline="middle" fill="white" font-family="Arial" font-size="5.25px" transform="rotate(-90,518.5,3057)" x="518.5" y="3057">National Geographic</text><rect class="bookcase-book" fill="#8E3968" height="254" id="book-22880" stroke="black" width="8" x="522" y="2807" /><text dominant-baseline="middle" fill="white" font-family="Arial" font-size="6.0px" transform="rotate(-90,526.0,3057)" x="526.0" y="3057">National Geographic</text><rect class="bookcase-book" fill="#7F6229" height="254" id="book-22881" stroke="black" width="7" x="530" y="2807" /><text dominant-baseline="middle" fill="white" font-family="Arial" font-size="5.25px" transform="rotate(-90,533.5,3057)" x="533.5" y="3057">National Geographic</text><rect class="bookcase-book" fill="#80C020" height="254" id="book-22882" stroke="black" width="6" x="537" y="2807" /><text dominant-baseline="middle" fill="black" font-family="Arial" font-size="4.5px" transform="rotate(-90,540.0,3057)" x="540.0" y="3057">National Geographic</text><rect class="bookcase-book" fill="#11BB10" height="254" id="book-22883" stroke="black" width="7" x="543" y="2807" /><text dominant-baseline="middle" fill="white" font-family="Arial" font-size="5.25px" transform="rotate(-90,546.5,3057)" x="546.5" y="3057">National Geographic</text><rect class="bookcase-book" fill="#B23A38" height="254" id="book-22884" stroke="black" width="8" x="550" y="2807" /><text dominant-baseline="middle" fill="white" font-family="Arial" font-size="6.0px" transform="rotate(-90,554.0,3057)" x="554.0" y="3057">National Geographic</text><rect class="bookcase-book" fill="#E48950" height="7" id="book-22885" stroke="black" width="254" x="563" y="3080" /><text dominant-baseline="middle" fill="black" font-family="Arial" font-size="5.25px" x="563" y="3083.5">National Geographic</text><rect class="bookcase-book" fill="#25C051" height="8" id="book-22886" stroke="black" width="254" x="563" y="3072" /><text dominant-baseline="middle" fill="black" font-family="Arial" font-size="6.0px" x="563" y="3076.0">National Geographic</text><rect class="bookcase-book" fill="#353773" height="7" id="book-22887" stroke="black" width="254" x="563" y="3065" /><text dominant-baseline="middle" fill="white" font-family="Arial" font-size="5.25px" x="563" y="3068.5">National Geographic</text><rect class="bookcase-book" fill="#5D7A43" height="7" id="book-22888" stroke="black" width="254" x="563" y="3058" /><text dominant-baseline="middle" fill="white" font-family="Arial" font-size="5.25px" x="563" y="3061.5">National Geographic</text><rect class="bookcase-book" fill="#B12AA3" height="8" id="book-26025" stroke="black" width="254" x="563" y="3050" /><text dominant-baseline="middle" fill="white" font-family="Arial" font-size="6.0px" x="563" y="3054.0">National Geographic</text><rect class="bookcase-book" fill="#B9D860" height="7" id="book-22889" stroke="black" width="254" x="563" y="3043" /><text dominant-baseline="middle" fill="black" font-family="Arial" font-size="5.25px" x="563" y="3046.5">National Geographic</text><rect class="bookcase-book" fill="#B9132C" height="9" id="book-22890" stroke="black" width="254" x="563" y="3034" /><text dominant-baseline="middle" fill="white" font-family="Arial" font-size="6.75px" x="563" y="3038.5">National Geographic</text><rect class="bookcase-book" fill="#49628D" height="8" id="book-22891" stroke="black" width="254" x="563" y="3026" /><text dominant-baseline="middle" fill="white" font-family="Arial" font-size="6.0px" x="563" y="3030.0">National Geographic</text><rect class="bookcase-book" fill="#A1A753" height="8" id="book-22892" stroke="black" width="254" x="563" y="3018" /><text dominant-baseline="middle" fill="black" font-family="Arial" font-size="6.0px" x="563" y="3022.0">National Geographic</text><rect class="bookcase-book" fill="#862A9D" height="8" id="book-22893" stroke="black" width="254" x="563" y="3010" /><text dominant-baseline="middle" fill="white" font-family="Arial" font-size="6.0px" x="563" y="3014.0">National Geographic</text><rect class="bookcase-book" fill="#82248E" height="7" id="book-22894" stroke="black" width="254" x="563" y="3003" /><text dominant-baseline="middle" fill="white" font-family="Arial" font-size="5.25px" x="563" y="3006.5">National Geographic</text><rect class="bookcase-book" fill="#31BE52" height="7" id="book-22895" stroke="black" width="254" x="563" y="2996" /><text dominant-baseline="middle" fill="black" font-family="Arial" font-size="5.25px" x="563" y="2999.5">National Geographic</text><rect class="bookcase-book" fill="#C8A600" height="7" id="book-26026" stroke="black" width="254" x="563" y="2989" /><text dominant-baseline="middle" fill="black" font-family="Arial" font-size="5.25px" x="563" y="2992.5">National Geographic</text><rect class="bookcase-book" fill="#8B2C60" height="8" id="book-26027" stroke="black" width="254" x="563" y="2981" /><text dominant-baseline="middle" fill="white" font-family="Arial" font-size="6.0px" x="563" y="2985.0">National Geographic</text><rect class="bookcase-book" fill="#B61CE0" height="7" id="book-22896" stroke="black" width="254" x="563" y="2974" /><text dominant-baseline="middle" fill="white" font-family="Arial" font-size="5.25px" x="563" y="2977.5">National Geographic</text><rect class="bookcase-book" fill="#7B35C5" height="7" id="book-22897" stroke="black" width="254" x="563" y="2967" /><text dominant-baseline="middle" fill="white" font-family="Arial" font-size="5.25px" x="563" y="2970.5">National Geographic</text><rect class="bookcase-book" fill="#AA4E10" height="8" id="book-22898" stroke="black" width="254" x="563" y="2959" /><text dominant-baseline="middle" fill="white" font-family="Arial" font-size="6.0px" x="563" y="2963.0">National Geographic</text><rect class="bookcase-book" fill="#933E6D" height="8" id="book-22899" stroke="black" width="254" x="563" y="2951" /><text dominant-baseline="middle" fill="white" font-family="Arial" font-size="6.0px" x="563" y="2955.0">National Geographic</text><rect class="bookcase-book" fill="#68C7F0" height="7" id="book-22900" stroke="black" width="254" x="563" y="2944" /><text dominant-baseline="middle" fill="black" font-family="Arial" font-size="5.25px" x="563" y="2947.5">National Geographic</text><rect class="bookcase-book" fill="#AC4624" height="8" id="book-22901" stroke="black" width="254" x="563" y="2936" /><text dominant-baseline="middle" fill="white" font-family="Arial" font-size="6.0px" x="563" y="2940.0">National Geographic</text><rect class="bookcase-book" fill="#C0C640" height="8" id="book-22902" stroke="black" width="254" x="563" y="2928" /><text dominant-baseline="middle" fill="black" font-family="Arial" font-size="6.0px" x="563" y="2932.0">National Geographic</text><rect class="bookcase-book" fill="#7D263F" height="8" id="book-22903" stroke="black" width="254" x="563" y="2920" /><text dominant-baseline="middle" fill="white" font-family="Arial" font-size="6.0px" x="563" y="2924.0">National Geographic</text><rect class="bookcase-book" fill="#2413B2" height="8" id="book-22904" stroke="black" width="254" x="563" y="2912" /><text dominant-baseline="middle" fill="white" font-family="Arial" font-size="6.0px" x="563" y="2916.0">National Geographic</text><rect class="bookcase-book" fill="#94333D" height="7" id="book-22905" stroke="black" width="254" x="563" y="2905" /><text dominant-baseline="middle" fill="white" font-family="Arial" font-size="5.25px" x="563" y="2908.5">National Geographic</text><rect class="bookcase-book" fill="#721F7F" height="8" id="book-22906" stroke="black" width="254" x="563" y="2897" /><text dominant-baseline="middle" fill="white" font-family="Arial" font-size="6.0px" x="563" y="2901.0">National Geographic</text><rect class="bookcase-book" fill="#46748B" height="8" id="book-22907" stroke="black" width="254" x="563" y="2889" /><text dominant-baseline="middle" fill="white" font-family="Arial" font-size="6.0px" x="563" y="2893.0">National Geographic</text><rect class="bookcase-book" fill="#E25A80" height="8" id="book-22908" stroke="black" width="254" x="563" y="2881" /><text dominant-baseline="middle" fill="black" font-family="Arial" font-size="6.0px" x="563" y="2885.0">National Geographic</text><rect class="bookcase-book" fill="#C971A0" height="7" id="book-22909" stroke="black" width="254" x="563" y="2874" /><text dominant-baseline="middle" fill="black" font-family="Arial" font-size="5.25px" x="563" y="2877.5">National Geographic</text><rect class="bookcase-book" fill="#294979" height="8" id="book-22910" stroke="black" width="254" x="563" y="2866" /><text dominant-baseline="middle" fill="white" font-family="Arial" font-size="6.0px" x="563" y="2870.0">National Geographic</text><rect class="bookcase-book" fill="#17C010" height="7" id="book-22911" stroke="black" width="254" x="563" y="2859" /><text dominant-baseline="middle" fill="white" font-family="Arial" font-size="5.25px" x="563" y="2862.5">National Geographic</text><rect class="bookcase-book" fill="#965A82" height="8" id="book-22912" stroke="black" width="254" x="563" y="2851" /><text dominant-baseline="middle" fill="white" font-family="Arial" font-size="6.0px" x="563" y="2855.0">National Geographic</text><rect class="bookcase-book" fill="#29AEA0" height="7" id="book-22913" stroke="black" width="254" x="563" y="2844" /><text dominant-baseline="middle" fill="black" font-family="Arial" font-size="5.25px" x="563" y="2847.5">National Geographic</text><rect class="bookcase-book" fill="#BE4215" height="8" id="book-22914" stroke="black" width="254" x="563" y="2836" /><text dominant-baseline="middle" fill="white" font-family="Arial" font-size="6.0px" x="563" y="2840.0">National Geographic</text><rect class="bookcase-book" fill="#2D73BD" height="8" id="book-22915" stroke="black" width="254" x="563" y="2828" /><text dominant-baseline="middle" fill="white" font-family="Arial" font-size="6.0px" x="563" y="2832.0">National Geographic</text><rect class="bookcase-book" fill="#8FA951" height="9" id="book-22916" stroke="black" width="254" x="563" y="2819" /><text dominant-baseline="middle" fill="black" font-family="Arial" font-size="6.75px" x="563" y="2823.5">National Geographic</text><rect class="bookcase-book" fill="#A06930" height="8" id="book-22917" stroke="black" width="254" x="563" y="2811" /><text dominant-baseline="middle" fill="white" font-family="Arial" font-size="6.0px" x="563" y="2815.0">National Geographic</text><rect class="bookcase-book" fill="#8C5940" height="7" id="book-22918" stroke="black" width="254" x="563" y="2804" /><text dominant-baseline="middle" fill="white" font-family="Arial" font-size="5.25px" x="563" y="2807.5">National Geographic</text></svg>