<?xml version="1.0" encoding="utf-8" ?>
<svg baseProfile="full" height="3107" version="1.1" width="500" xmlns="http://www.w3.org/2000/svg" xmlns:ev="http://www.w3.org/2001/xml-events" xmlns:xlink="http://www.w3.org/1999/xlink"><defs /><rect height="327" width="20" x="50" y="2116" /><rect height="327" width="20" x="430" y="2116" /><rect height="20" width="360" x="70" y="2116" /><rect height="20" width="400" x="50" y="2443" /><rect class="bookcase-book" fill="#BC2947" height="254" id="book-22919" stroke="black" width="7" x="84" y="2189" /><text dominant-baseline="middle" fill="white" font-family="Arial" font-size="5.25px" transform="rotate(-90,87.5,2439)" x="87.5" y="2439">National Geographic</text><rect class="bookcase-book" fill="#1311B6" height="7" id="book-22920" stroke="black" width="254" x="91" y="2436" /><text dominant-baseline="middle" fill="white" font-family="Arial" font-size="5.25px" x="91" y="2439.5">National Geographic</text><rect class="bookcase-book" fill="#58897E" height="8" id="book-22921" stroke="black" width="254" x="91" y="2428" /><text dominant-baseline="middle" fill="white" font-family="Arial" font-size="6.0px" x="91" y="2432.0">National Geographic</text><rect class="bookcase-book" fill="#575199" height="8" id="book-22922" stroke="black" width="254" x="91" y="2420" /><text dominant-baseline="middle" fill="white" font-family="Arial" font-size="6.0px" x="91" y="2424.0">National Geographic</text><rect class="bookcase-book" fill="#897552" height="7" id="book-22923" stroke="black" width="254" x="91" y="2413" /><text dominant-baseline="middle" fill="white" font-family="Arial" font-size="5.25px" x="91" y="2416.5">National Geographic</text><rect class="bookcase-book" fill="#A3488C" height="256" id="book-26464" stroke="black" width="55" x="91" y="2157" /><text dominant-baseline="middle" fill="white" font-family="Arial" font-size="18px" transform="rotate(-90,118.5,2409)" x="118.5" y="2409">National Geographic</text><rect class="bookcase-book" fill="#B6BC10" height="256" id="book-26454" stroke="black" width="59" x="146" y="2157" /><text dominant-baseline="middle" fill="black" font-family="Arial" font-size="18px" transform="rotate(-90,175.5,2409)" x="175.5" y="2409">National Geographic</text><rect class="bookcase-book" fill="#9B6D00" height="256" id="book-26463" stroke="black" width="63" x="205" y="2157" /><text dominant-baseline="middle" fill="white" font-family="Arial" font-size="18px" transform="rotate(-90,236.5,2409)" x="236.5" y="2409">National Geographic</text><rect class="bookcase-book" fill="#4BC535" height="256" id="book-26446" stroke="black" width="52" x="268" y="2157" /><text dominant-baseline="middle" fill="black" font-family="Arial" font-size="18px" transform="rotate(-90,294.0,2409)" x="294.0" y="2409">National Geographic</text><rect class="bookcase-book" fill="#AD5248" height="256" id="book-26461" stroke="black" width="55" x="345" y="2187" /><text dominant-baseline="middle" fill="white" font-family="Arial" font-size="18px" transform="rotate(-90,372.5,2439)" x="372.5" y="2439">National Geographic</text><rect height="324" width="20" x="50" y="2443" /><rect height="324" width="20" x="430" y="2443" /><rect height="20" width="360" x="70" y="2443" /><rect height="20" width="400" x="50" y="2767" /><rect class="bookcase-book" fill="#411B50" height="256" id="book-26453" stroke="black" width="55" x="84" y="2511" /><text dominant-baseline="middle" fill="white" font-family="Arial" font-size="18px" transform="rotate(-90,111.5,2763)" x="111.5" y="2763">National Geographic</text><rect class="bookcase-book" fill="#A83124" height="256" id="book-26448" stroke="black" width="64" x="139" y="2511" /><text dominant-baseline="middle" fill="white" font-family="Arial" font-size="18px" transform="rotate(-90,171.0,2763)" x="171.0" y="2763">National Geographic</text><rect class="bookcase-book" fill="#68DB60" height="254" id="book-22924" stroke="black" width="7" x="203" y="2513" /><text dominant-baseline="middle" fill="black" font-family="Arial" font-size="5.25px" transform="rotate(-90,206.5,2763)" x="206.5" y="2763">National Geographic</text><rect class="bookcase-book" fill="#4B11B5" height="256" id="book-26459" stroke="black" width="61" x="210" y="2511" /><text dominant-baseline="middle" fill="white" font-family="Arial" font-size="18px" transform="rotate(-90,240.5,2763)" x="240.5" y="2763">National Geographic</text><rect class="bookcase-book" fill="#8232C2" height="256" id="book-26456" stroke="black" width="63" x="271" y="2511" /><text dominant-baseline="middle" fill="white" font-family="Arial" font-size="18px" transform="rotate(-90,302.5,2763)" x="302.5" y="2763">National Geographic</text><rect class="bookcase-book" fill="#539940" height="254" id="book-22803" stroke="black" width="8" x="334" y="2513" /><text dominant-baseline="middle" fill="white" font-family="Arial" font-size="6.0px" transform="rotate(-90,338.0,2763)" x="338.0" y="2763">National Geographic</text><rect class="bookcase-book" fill="#5F9078" height="254" id="book-22802" stroke="black" width="8" x="342" y="2513" /><text dominant-baseline="middle" fill="black" font-family="Arial" font-size="6.0px" transform="rotate(-90,346.0,2763)" x="346.0" y="2763">National Geographic</text><rect class="bookcase-book" fill="#3A2680" height="254" id="book-22801" stroke="black" width="8" x="350" y="2513" /><text dominant-baseline="middle" fill="white" font-family="Arial" font-size="6.0px" transform="rotate(-90,354.0,2763)" x="354.0" y="2763">National Geographic</text><rect class="bookcase-book" fill="#3636A0" height="254" id="book-22783" stroke="black" width="8" x="358" y="2513" /><text dominant-baseline="middle" fill="white" font-family="Arial" font-size="6.0px" transform="rotate(-90,362.0,2763)" x="362.0" y="2763">National Geographic</text><rect height="320" width="20" x="50" y="2767" /><rect height="320" width="20" x="430" y="2767" /><rect height="20" width="360" x="70" y="2767" /><rect height="20" width="400" x="50" y="3087" /><rect class="bookcase-book" fill="#688492" height="58" id="book-26457" stroke="black" width="256" x="84" y="3029" /><text dominant-baseline="middle" fill="white" font-family="Arial" font-size="18px" x="84" y="3058.0">National Geographic</text><rect class="bookcase-book" fill="#CE291D" height="8" id="book-22784" stroke="black" width="254" x="84" y="3021" /><text dominant-baseline="middle" fill="white" font-family="Arial" font-size="6.0px" x="84" y="3025.0">National Geographic</text><rect class="bookcase-book" fill="#814231" height="6" id="book-26138" stroke="black" width="254" x="84" y="3015" /><text dominant-baseline="middle" fill="white" font-family="Arial" font-size="4.5px" x="84" y="3018.0">National Geographic</text><rect class="bookcase-book" fill="#591BBF" height="8" id="book-26139" stroke="black" width="254" x="84" y="3007" /><text dominant-baseline="middle" fill="white" font-family="Arial" font-size="6.0px" x="84" y="3011.0">National Geographic</text><rect class="bookcase-book" fill="#2E3F94" height="8" id="book-26140" stroke="black" width="254" x="84" y="2999" /><text dominant-baseline="middle" fill="white" font-family="Arial" font-size="6.0px" x="84" y="3003.0">National Geographic</text><rect class="bookcase-book" fill="#954713" height="8" id="book-26141" stroke="black" width="254" x="84" y="2991" /><text dominant-baseline="middle" fill="white" font-family="Arial" font-size="6.0px" x="84" y="2995.0">National Geographic</text><rect class="bookcase-book" fill="#3AC0AE" height="8" id="book-26142" stroke="black" width="254" x="84" y="2983" /><text dominant-baseline="middle" fill="black" font-family="Arial" font-size="6.0px" x="84" y="2987.0">National Geographic</text><rect class="bookcase-book" fill="#51269C" height="8" id="book-26143" stroke="black" width="254" x="84" y="2975" /><text dominant-baseline="middle" fill="white" font-family="Arial" font-size="6.0px" x="84" y="2979.0">National Geographic</text><rect class="bookcase-book" fill="#1D6C9A" height="6" id="book-26144" stroke="black" width="254" x="84" y="2969" /><text dominant-baseline="middle" fill="white" font-family="Arial" font-size="4.5px" x="84" y="2972.0">National Geographic</text><rect class="bookcase-book" fill="#86B337" height="7" id="book-26145" stroke="black" width="254" x="84" y="2962" /><text dominant-baseline="middle" fill="black" font-family="Arial" font-size="5.25px" x="84" y="2965.5">National Geographic</text><rect class="bookcase-book" fill="#7D5430" height="7" id="book-26146" stroke="black" width="254" x="84" y="2955" /><text dominant-baseline="middle" fill="white" font-family="Arial" font-size="5.25px" x="84" y="2958.5">National Geographic</text><rect class="bookcase-book" fill="#338F86" height="8" id="book-26147" stroke="black" width="254" x="84" y="2947" /><text dominant-baseline="middle" fill="white" font-family="Arial" font-size="6.0px" x="84" y="2951.0">National Geographic</text><rect class="bookcase-book" fill="#36AF8B" height="8" id="book-26148" stroke="black" width="254" x="84" y="2939" /><text dominant-baseline="middle" fill="black" font-family="Arial" font-size="6.0px" x="84" y="2943.0">National Geographic</text><rect class="bookcase-book" fill="#C11A1A" height="8" id="book-26149" stroke="black" width="254" x="84" y="2931" /><text dominant-baseline="middle" fill="white" font-family="Arial" font-size="6.0px" x="84" y="2935.0">National Geographic</text><rect class="bookcase-book" fill="#8AB640" height="8" id="book-22925" stroke="black" width="254" x="84" y="2923" /><text dominant-baseline="middle" fill="black" font-family="Arial" font-size="6.0px" x="84" y="2927.0">National Geographic</text><rect class="bookcase-book" fill="#936B1A" height="7" id="book-22926" stroke="black" width="254" x="84" y="2916" /><text dominant-baseline="middle" fill="white" font-family="Arial" font-size="5.25px" x="84" y="2919.5">National Geographic</text><rect class="bookcase-book" fill="#C6BF34" height="7" id="book-22927" stroke="black" width="254" x="84" y="2909" /><text dominant-baseline="middle" fill="black" font-family="Arial" font-size="5.25px" x="84" y="2912.5">National Geographic</text><rect class="bookcase-book" fill="#7E6095" height="7" id="book-22928" stroke="black" width="254" x="84" y="2902" /><text dominant-baseline="middle" fill="white" font-family="Arial" font-size="5.25px" x="84" y="2905.5">National Geographic</text><rect class="bookcase-book" fill="#457CB0" height="7" id="book-22794" stroke="black" width="254" x="84" y="2895" /><text dominant-baseline="middle" fill="white" font-family="Arial" font-size="5.25px" x="84" y="2898.5">National Geographic</text><rect class="bookcase-book" fill="#3F90AB" height="8" id="book-22929" stroke="black" width="254" x="84" y="2887" /><text dominant-baseline="middle" fill="white" font-family="Arial" font-size="6.0px" x="84" y="2891.0">National Geographic</text><rect class="bookcase-book" fill="#3059CA" height="8" id="book-22930" stroke="black" width="254" x="84" y="2879" /><text dominant-baseline="middle" fill="white" font-family="Arial" font-size="6.0px" x="84" y="2883.0">National Geographic</text><rect class="bookcase-book" fill="#51947E" height="7" id="book-22931" stroke="black" width="254" x="84" y="2872" /><text dominant-baseline="middle" fill="white" font-family="Arial" font-size="5.25px" x="84" y="2875.5">National Geographic</text><rect class="bookcase-book" fill="#B2672E" height="6" id="book-26156" stroke="black" width="254" x="84" y="2866" /><text dominant-baseline="middle" fill="white" font-family="Arial" font-size="4.5px" x="84" y="2869.0">National Geographic</text><rect class="bookcase-book" fill="#8D2B65" height="7" id="book-22932" stroke="black" width="254" x="84" y="2859" /><text dominant-baseline="middle" fill="white" font-family="Arial" font-size="5.25px" x="84" y="2862.5">National Geographic</text><rect class="bookcase-book" fill="#10B991" height="7" id="book-22933" stroke="black" width="254" x="84" y="2852" /><text dominant-baseline="middle" fill="black" font-family="Arial" font-size="5.25px" x="84" y="2855.5">National Geographic</text><rect class="bookcase-book" fill="#C5167F" height="6" id="book-22934" stroke="black" width="254" x="84" y="2846" /><text dominant-baseline="middle" fill="white" font-family="Arial" font-size="4.5px" x="84" y="2849.0">National Geographic</text><rect class="bookcase-book" fill="#7141B4" height="7" id="book-22795" stroke="black" width="254" x="84" y="2839" /><text dominant-baseline="middle" fill="white" font-family="Arial" font-size="5.25px" x="84" y="2842.5">National Geographic</text><rect class="bookcase-book" fill="#11BA6C" height="7" id="book-22796" stroke="black" width="254" x="84" y="2832" /><text dominant-baseline="middle" fill="black" font-family="Arial" font-size="5.25px" x="84" y="2835.5">National Geographic</text><rect class="bookcase-book" fill="#145CB8" height="8" id="book-22935" stroke="black" width="254" x="84" y="2824" /><text dominant-baseline="middle" fill="white" font-family="Arial" font-size="6.0px" x="84" y="2828.0">National Geographic</text><rect class="bookcase-book" fill="#1CBAAA" height="7" id="book-22936" stroke="black" width="254" x="84" y="2817" /><text dominant-baseline="middle" fill="black" font-family="Arial" font-size="5.25px" x="84" y="2820.5">National Geographic</text><rect class="bookcase-book" fill="#7715B4" height="7" id="book-22937" stroke="black" width="254" x="84" y="2810" /><text dominant-baseline="middle" fill="white" font-family="Arial" font-size="5.25px" x="84" y="2813.5">National Geographic</text><rect class="bookcase-book" fill="#146B90" height="7" id="book-22782" stroke="black" width="254" x="84" y="2803" /><text dominant-baseline="middle" fill="white" font-family="Arial" font-size="5.25px" x="84" y="2806.5">National Geographic</text><rect class="bookcase-book" fill="#C3F920" height="254" id="book-22785" stroke="black" width="7" x="340" y="2833" /><text dominant-baseline="middle" fill="black" font-family="Arial" font-size="5.25px" transform="rotate(-90,343.5,3083)" x="343.5" y="3083">National Geographic</text><rect class="bookcase-book" fill="#11529C" height="254" id="book-22938" stroke="black" width="8" x="347" y="2833" /><text dominant-baseline="middle" fill="white" font-family="Arial" font-size="6.0px" transform="rotate(-90,351.0,3083)" x="351.0" y="3083">National Geographic</text><rect class="bookcase-book" fill="#959650" height="254" id="book-22797" stroke="black" width="8" x="355" y="2833" /><text dominant-baseline="middle" fill="black" font-family="Arial" font-size="6.0px" transform="rotate(-90,359.0,3083)" x="359.0" y="3083">National Geographic</text><rect class="bookcase-book" fill="#15C77F" height="254" id="book-22786" stroke="black" width="8" x="363" y="2833" /><text dominant-baseline="middle" fill="black" font-family="Arial" font-size="6.0px" transform="rotate(-90,367.0,3083)" x="367.0" y="3083">National Geographic</text><rect class="bookcase-book" fill="#3991C1" height="254" id="book-22939" stroke="black" width="7" x="371" y="2833" /><text dominant-baseline="middle" fill="white" font-family="Arial" font-size="5.25px" transform="rotate(-90,374.5,3083)" x="374.5" y="3083">National Geographic</text><rect class="bookcase-book" fill="#792B8D" height="254" id="book-22793" stroke="black" width="8" x="378" y="2833" /><text dominant-baseline="middle" fill="white" font-family="Arial" font-size="6.0px" transform="rotate(-90,382.0,3083)" x="382.0" y="3083">National Geographic</text><rect class="bookcase-book" fill="#6E2FC6" height="254" id="book-22788" stroke="black" width="8" x="386" y="2833" /><text dominant-baseline="middle" fill="white" font-family="Arial" font-size="6.0px" transform="rotate(-90,390.0,3083)" x="390.0" y="3083">National Geographic</text><rect class="bookcase-book" fill="#694EA6" height="254" id="book-22940" stroke="black" width="7" x="394" y="2833" /><text dominant-baseline="middle" fill="white" font-family="Arial" font-size="5.25px" transform="rotate(-90,397.5,3083)" x="397.5" y="3083">National Geographic</text><rect class="bookcase-book" fill="#4E7B4C" height="254" id="book-22941" stroke="black" width="7" x="401" y="2833" /><text dominant-baseline="middle" fill="white" font-family="Arial" font-size="5.25px" transform="rotate(-90,404.5,3083)" x="404.5" y="3083">National Geographic</text><rect class="bookcase-book" fill="#6A4983" height="254" id="book-22942" stroke="black" width="7" x="408" y="2833" /><text dominant-baseline="middle" fill="white" font-family="Arial" font-size="5.25px" transform="rotate(-90,411.5,3083)" x="411.5" y="3083">National Geographic</text></svg>