<?xml version="1.0" ?><!DOCTYPE svg  PUBLIC '-//W3C//DTD SVG 1.1//EN'  'http://www.w3.org/Graphics/SVG/1.1/DTD/svg11.dtd'><svg height="1687.284px" style="enable-background:new 0 0 1687.342 1687.284;" version="1.1" viewBox="0 0 1687.342 1687.284" width="1687.342px" xml:space="preserve" xmlns="http://www.w3.org/2000/svg" xmlns:xlink="http://www.w3.org/1999/xlink"><g id="search"><path d="M1642.112,1348.694l-291.567-291.563c-29.168-29.167-67.949-45.23-109.199-45.23c-36.868,0-71.739,12.862-99.558,36.41   l-94.939-94.938c82.893-103.642,127.935-231.347,127.935-365.998c0.001-156.896-61.1-304.394-172.044-415.333   C891.793,61.1,744.286,0,587.388,0C430.492,0,282.988,61.097,172.045,172.036C61.1,282.975,0,430.479,0,587.371   c0.002,156.893,61.101,304.396,172.045,415.336s258.452,172.039,415.347,172.039c134.659,0,262.374-45.04,366.017-127.935   l94.938,94.938c-23.546,27.819-36.406,62.687-36.409,99.548c0,41.256,16.063,80.034,45.232,109.2l291.572,291.561   c29.168,29.164,67.947,45.227,109.197,45.227c41.246,0,80.027-16.06,109.201-45.227l74.969-74.975   c29.17-29.164,45.232-67.942,45.232-109.195C1687.342,1416.636,1671.279,1377.858,1642.112,1348.694z M265.481,909.27   c-85.983-85.985-133.34-200.303-133.34-321.898c0-121.595,47.354-235.912,133.338-321.895   c85.984-85.982,200.309-133.335,321.908-133.335c121.603,0,235.929,47.353,321.914,133.342   c85.985,85.979,133.34,200.296,133.34,321.892c0,121.595-47.354,235.912-133.342,321.895   c-85.983,85.982-200.304,133.335-321.907,133.335C465.792,1042.604,351.469,995.252,265.481,909.27z M1548.674,1473.645   l-74.968,74.968c-5.681,5.682-12.317,6.53-15.767,6.53c-3.448,0-10.081-0.849-15.759-6.526l-291.577-291.563   c-5.677-5.675-6.525-12.305-6.525-15.75s0.849-10.078,6.529-15.757l74.98-74.98c5.676-5.678,12.309-6.523,15.758-6.523   c3.448,0,10.081,0.846,15.761,6.526l291.567,291.563c5.679,5.678,6.527,12.308,6.527,15.756   C1555.201,1461.337,1554.354,1467.964,1548.674,1473.645z"/></g><g id="Layer_1"/></svg>